G04 #@! TF.GenerationSoftware,KiCad,Pcbnew,(5.1.5)-3*
G04 #@! TF.CreationDate,2020-06-27T00:32:19-04:00*
G04 #@! TF.ProjectId,VGA_PANEL_BREAKOUT,5647415f-5041-44e4-954c-5f425245414b,rev?*
G04 #@! TF.SameCoordinates,Original*
G04 #@! TF.FileFunction,Copper,L2,Bot*
G04 #@! TF.FilePolarity,Positive*
%FSLAX46Y46*%
G04 Gerber Fmt 4.6, Leading zero omitted, Abs format (unit mm)*
G04 Created by KiCad (PCBNEW (5.1.5)-3) date 2020-06-27 00:32:19*
%MOMM*%
%LPD*%
G04 APERTURE LIST*
%ADD10C,1.500000*%
%ADD11R,2.500000X4.000000*%
%ADD12C,0.800000*%
%ADD13C,0.250000*%
G04 APERTURE END LIST*
D10*
X166960000Y-96000000D03*
X165815000Y-94020000D03*
X163525000Y-94020000D03*
X161235000Y-94020000D03*
X158945000Y-94020000D03*
X156655000Y-94020000D03*
X164670000Y-96000000D03*
X162380000Y-96000000D03*
X160090000Y-96000000D03*
X157800000Y-96000000D03*
X165815000Y-97980000D03*
X163525000Y-97980000D03*
X161235000Y-97980000D03*
X158945000Y-97980000D03*
X156655000Y-97980000D03*
D11*
X166500000Y-109050000D03*
X163250000Y-109050000D03*
X160000000Y-109050000D03*
X156750000Y-109050000D03*
D12*
X156712347Y-105812347D03*
X163250000Y-91200000D03*
X166500000Y-106100000D03*
X160000000Y-91200000D03*
X163900000Y-106000000D03*
X161845153Y-105854847D03*
D13*
X161630001Y-95250001D02*
X162380000Y-96000000D01*
X160873999Y-95250001D02*
X161630001Y-95250001D01*
X160323998Y-94700000D02*
X160873999Y-95250001D01*
X159798998Y-94700000D02*
X160323998Y-94700000D01*
X159248997Y-95250001D02*
X159798998Y-94700000D01*
X158549999Y-95250001D02*
X159248997Y-95250001D01*
X157800000Y-96000000D02*
X158549999Y-95250001D01*
X167225001Y-107574999D02*
X167225001Y-105751999D01*
X166500000Y-109050000D02*
X166500000Y-108300000D01*
X167225001Y-105751999D02*
X165973002Y-104500000D01*
X166500000Y-108300000D02*
X167225001Y-107574999D01*
X165973002Y-104500000D02*
X158024694Y-104500000D01*
X158024694Y-104500000D02*
X156712347Y-105812347D01*
X166875660Y-97980000D02*
X168400000Y-96455660D01*
X165815000Y-97980000D02*
X166875660Y-97980000D01*
X167669988Y-91200000D02*
X163250000Y-91200000D01*
X168400000Y-91930012D02*
X167669988Y-91200000D01*
X168400000Y-96455660D02*
X168400000Y-91930012D01*
X163250000Y-109050000D02*
X163250000Y-108300000D01*
X165450000Y-106100000D02*
X166500000Y-106100000D01*
X163250000Y-108300000D02*
X165450000Y-106100000D01*
X154649990Y-91880022D02*
X155330012Y-91200000D01*
X154649990Y-94440992D02*
X154649990Y-91880022D01*
X161751001Y-96904999D02*
X160776003Y-96904999D01*
X163525000Y-97980000D02*
X162620001Y-97075001D01*
X161921003Y-97075001D02*
X161751001Y-96904999D01*
X160776003Y-96904999D02*
X160381002Y-97300000D01*
X162620001Y-97075001D02*
X161921003Y-97075001D01*
X160381002Y-97300000D02*
X159856002Y-97300000D01*
X159461001Y-96904999D02*
X158486003Y-96904999D01*
X158486003Y-96904999D02*
X158316001Y-97075001D01*
X158316001Y-97075001D02*
X157283999Y-97075001D01*
X159856002Y-97300000D02*
X159461001Y-96904999D01*
X157283999Y-97075001D02*
X154649990Y-94440992D01*
X155330012Y-91200000D02*
X160000000Y-91200000D01*
X160200000Y-106600000D02*
X163300000Y-106600000D01*
X163300000Y-106600000D02*
X163900000Y-106000000D01*
X160000000Y-109050000D02*
X160000000Y-106800000D01*
X160000000Y-106800000D02*
X160200000Y-106600000D01*
X156750000Y-109050000D02*
X156750000Y-106800000D01*
X157695153Y-105854847D02*
X161845153Y-105854847D01*
X156750000Y-106800000D02*
X157695153Y-105854847D01*
M02*
