M48
; DRILL file {KiCad (5.1.5)-3} date 6/27/2020 1:04:35 AM
; FORMAT={-:-/ absolute / inch / decimal}
; #@! TF.CreationDate,2020-06-27T01:04:35-04:00
; #@! TF.GenerationSoftware,Kicad,Pcbnew,(5.1.5)-3
FMAT,2
INCH
T1C0.0157
T2C0.0394
T3C0.0118
%
G90
G05
T1
X6.1698Y-4.1658
X6.2992Y-3.5906
X6.3719Y-4.1703
X6.4272Y-3.5906
X6.4528Y-4.1732
X6.5551Y-4.1772
T2
X6.1675Y-3.7016
X6.1675Y-3.8575
X6.2126Y-3.7795
X6.2577Y-3.7016
X6.2577Y-3.8575
X6.3028Y-3.7795
X6.3478Y-3.7016
X6.3478Y-3.8575
X6.3929Y-3.7795
X6.438Y-3.7016
X6.438Y-3.8575
X6.4831Y-3.7795
X6.5281Y-3.7016
X6.5281Y-3.8575
X6.5732Y-3.7795
T3
X6.6093Y-3.9921
X6.5502Y-3.9035
X6.6093Y-3.9035
X6.5797Y-3.9035
X6.5797Y-3.9921
X6.1663Y-3.9921
X6.5502Y-3.9921
X6.1073Y-3.9921
X6.1368Y-3.9921
X6.1368Y-3.9035
X6.1663Y-3.9035
X6.1073Y-3.9035
T0
M30
