G04 #@! TF.GenerationSoftware,KiCad,Pcbnew,(5.1.5)-3*
G04 #@! TF.CreationDate,2020-06-05T03:02:49-04:00*
G04 #@! TF.ProjectId,VGA_PANEL_BREAKOUT,5647415f-5041-44e4-954c-5f425245414b,rev?*
G04 #@! TF.SameCoordinates,Original*
G04 #@! TF.FileFunction,Legend,Top*
G04 #@! TF.FilePolarity,Positive*
%FSLAX46Y46*%
G04 Gerber Fmt 4.6, Leading zero omitted, Abs format (unit mm)*
G04 Created by KiCad (PCBNEW (5.1.5)-3) date 2020-06-05 03:02:49*
%MOMM*%
%LPD*%
G04 APERTURE LIST*
%ADD10C,0.150000*%
G04 APERTURE END LIST*
D10*
X154800000Y-95542857D02*
X154828571Y-95485714D01*
X154828571Y-95400000D01*
X154800000Y-95314285D01*
X154742857Y-95257142D01*
X154685714Y-95228571D01*
X154571428Y-95200000D01*
X154485714Y-95200000D01*
X154371428Y-95228571D01*
X154314285Y-95257142D01*
X154257142Y-95314285D01*
X154228571Y-95400000D01*
X154228571Y-95457142D01*
X154257142Y-95542857D01*
X154285714Y-95571428D01*
X154485714Y-95571428D01*
X154485714Y-95457142D01*
X154228571Y-95828571D02*
X154828571Y-95828571D01*
X154228571Y-96171428D01*
X154828571Y-96171428D01*
X154228571Y-96457142D02*
X154828571Y-96457142D01*
X154828571Y-96600000D01*
X154800000Y-96685714D01*
X154742857Y-96742857D01*
X154685714Y-96771428D01*
X154571428Y-96800000D01*
X154485714Y-96800000D01*
X154371428Y-96771428D01*
X154314285Y-96742857D01*
X154257142Y-96685714D01*
X154228571Y-96600000D01*
X154228571Y-96457142D01*
X167457142Y-96800000D02*
X167514285Y-96828571D01*
X167600000Y-96828571D01*
X167685714Y-96800000D01*
X167742857Y-96742857D01*
X167771428Y-96685714D01*
X167800000Y-96571428D01*
X167800000Y-96485714D01*
X167771428Y-96371428D01*
X167742857Y-96314285D01*
X167685714Y-96257142D01*
X167600000Y-96228571D01*
X167542857Y-96228571D01*
X167457142Y-96257142D01*
X167428571Y-96285714D01*
X167428571Y-96485714D01*
X167542857Y-96485714D01*
X167171428Y-96228571D02*
X167171428Y-96828571D01*
X166828571Y-96228571D01*
X166828571Y-96828571D01*
X166542857Y-96228571D02*
X166542857Y-96828571D01*
X166400000Y-96828571D01*
X166314285Y-96800000D01*
X166257142Y-96742857D01*
X166228571Y-96685714D01*
X166200000Y-96571428D01*
X166200000Y-96485714D01*
X166228571Y-96371428D01*
X166257142Y-96314285D01*
X166314285Y-96257142D01*
X166400000Y-96228571D01*
X166542857Y-96228571D01*
X168457142Y-106350000D02*
X168514285Y-106378571D01*
X168600000Y-106378571D01*
X168685714Y-106350000D01*
X168742857Y-106292857D01*
X168771428Y-106235714D01*
X168800000Y-106121428D01*
X168800000Y-106035714D01*
X168771428Y-105921428D01*
X168742857Y-105864285D01*
X168685714Y-105807142D01*
X168600000Y-105778571D01*
X168542857Y-105778571D01*
X168457142Y-105807142D01*
X168428571Y-105835714D01*
X168428571Y-106035714D01*
X168542857Y-106035714D01*
X168171428Y-105778571D02*
X168171428Y-106378571D01*
X167828571Y-105778571D01*
X167828571Y-106378571D01*
X167542857Y-105778571D02*
X167542857Y-106378571D01*
X167400000Y-106378571D01*
X167314285Y-106350000D01*
X167257142Y-106292857D01*
X167228571Y-106235714D01*
X167200000Y-106121428D01*
X167200000Y-106035714D01*
X167228571Y-105921428D01*
X167257142Y-105864285D01*
X167314285Y-105807142D01*
X167400000Y-105778571D01*
X167542857Y-105778571D01*
X165654761Y-106597619D02*
X165321428Y-105597619D01*
X164988095Y-106597619D01*
X163130952Y-105597619D02*
X163130952Y-106597619D01*
X163130952Y-106121428D02*
X162559523Y-106121428D01*
X162559523Y-105597619D02*
X162559523Y-106597619D01*
X160226190Y-106121428D02*
X160083333Y-106073809D01*
X160035714Y-106026190D01*
X159988095Y-105930952D01*
X159988095Y-105788095D01*
X160035714Y-105692857D01*
X160083333Y-105645238D01*
X160178571Y-105597619D01*
X160559523Y-105597619D01*
X160559523Y-106597619D01*
X160226190Y-106597619D01*
X160130952Y-106550000D01*
X160083333Y-106502380D01*
X160035714Y-106407142D01*
X160035714Y-106311904D01*
X160083333Y-106216666D01*
X160130952Y-106169047D01*
X160226190Y-106121428D01*
X160559523Y-106121428D01*
X157511904Y-106550000D02*
X157607142Y-106597619D01*
X157750000Y-106597619D01*
X157892857Y-106550000D01*
X157988095Y-106454761D01*
X158035714Y-106359523D01*
X158083333Y-106169047D01*
X158083333Y-106026190D01*
X158035714Y-105835714D01*
X157988095Y-105740476D01*
X157892857Y-105645238D01*
X157750000Y-105597619D01*
X157654761Y-105597619D01*
X157511904Y-105645238D01*
X157464285Y-105692857D01*
X157464285Y-106026190D01*
X157654761Y-106026190D01*
X154940476Y-105597619D02*
X155273809Y-106073809D01*
X155511904Y-105597619D02*
X155511904Y-106597619D01*
X155130952Y-106597619D01*
X155035714Y-106550000D01*
X154988095Y-106502380D01*
X154940476Y-106407142D01*
X154940476Y-106264285D01*
X154988095Y-106169047D01*
X155035714Y-106121428D01*
X155130952Y-106073809D01*
X155511904Y-106073809D01*
M02*
