M48
; DRILL file {KiCad (5.1.5)-3} date 6/5/2020 3:02:51 AM
; FORMAT={-:-/ absolute / inch / decimal}
; #@! TF.CreationDate,2020-06-05T03:02:51-04:00
; #@! TF.GenerationSoftware,Kicad,Pcbnew,(5.1.5)-3
FMAT,2
INCH
T1C0.0157
T2C0.0394
T3C0.0118
%
G90
G05
T1
X6.1516Y-4.1752
X6.2598Y-4.1752
X6.2992Y-3.5906
X6.3583Y-4.1752
X6.4272Y-3.5906
X6.5551Y-4.1752
T2
X6.1433Y-3.7795
X6.1884Y-3.7016
X6.1884Y-3.8575
X6.2335Y-3.7795
X6.2785Y-3.7016
X6.2785Y-3.8575
X6.3236Y-3.7795
X6.3687Y-3.7016
X6.3687Y-3.8575
X6.4138Y-3.7795
X6.4589Y-3.7016
X6.4589Y-3.8575
X6.5039Y-3.7795
X6.549Y-3.7016
X6.549Y-3.8575
T3
X6.5502Y-3.9035
X6.5797Y-3.9921
X6.6093Y-3.9035
X6.6093Y-3.9921
X6.5797Y-3.9035
X6.5502Y-3.9921
X6.1368Y-3.9921
X6.1073Y-3.9921
X6.1663Y-3.9921
X6.1073Y-3.9035
X6.1663Y-3.9035
X6.1368Y-3.9035
T0
M30
