G04 #@! TF.GenerationSoftware,KiCad,Pcbnew,(5.1.5)-3*
G04 #@! TF.CreationDate,2020-06-05T03:02:49-04:00*
G04 #@! TF.ProjectId,VGA_PANEL_BREAKOUT,5647415f-5041-44e4-954c-5f425245414b,rev?*
G04 #@! TF.SameCoordinates,Original*
G04 #@! TF.FileFunction,Soldermask,Bot*
G04 #@! TF.FilePolarity,Negative*
%FSLAX46Y46*%
G04 Gerber Fmt 4.6, Leading zero omitted, Abs format (unit mm)*
G04 Created by KiCad (PCBNEW (5.1.5)-3) date 2020-06-05 03:02:49*
%MOMM*%
%LPD*%
G04 APERTURE LIST*
%ADD10C,0.100000*%
G04 APERTURE END LIST*
D10*
G36*
X167801000Y-111101000D02*
G01*
X165199000Y-111101000D01*
X165199000Y-106999000D01*
X167801000Y-106999000D01*
X167801000Y-111101000D01*
G37*
G36*
X161301000Y-111101000D02*
G01*
X158699000Y-111101000D01*
X158699000Y-106999000D01*
X161301000Y-106999000D01*
X161301000Y-111101000D01*
G37*
G36*
X158051000Y-111101000D02*
G01*
X155449000Y-111101000D01*
X155449000Y-106999000D01*
X158051000Y-106999000D01*
X158051000Y-111101000D01*
G37*
G36*
X164551000Y-111101000D02*
G01*
X161949000Y-111101000D01*
X161949000Y-106999000D01*
X164551000Y-106999000D01*
X164551000Y-111101000D01*
G37*
G36*
X156683626Y-101206723D02*
G01*
X156683627Y-101206723D01*
X156683630Y-101206724D01*
X156720209Y-101221876D01*
X156753130Y-101243873D01*
X156781127Y-101271870D01*
X156803124Y-101304791D01*
X156818276Y-101341370D01*
X156826000Y-101380203D01*
X156826000Y-101419797D01*
X156818276Y-101458630D01*
X156803124Y-101495209D01*
X156781127Y-101528130D01*
X156753130Y-101556127D01*
X156720209Y-101578124D01*
X156683630Y-101593276D01*
X156683627Y-101593277D01*
X156683626Y-101593277D01*
X156644798Y-101601000D01*
X156605202Y-101601000D01*
X156566374Y-101593277D01*
X156566373Y-101593277D01*
X156566370Y-101593276D01*
X156529791Y-101578124D01*
X156496870Y-101556127D01*
X156468873Y-101528130D01*
X156446876Y-101495209D01*
X156431724Y-101458630D01*
X156424000Y-101419797D01*
X156424000Y-101380203D01*
X156431724Y-101341370D01*
X156446876Y-101304791D01*
X156468873Y-101271870D01*
X156496870Y-101243873D01*
X156529791Y-101221876D01*
X156566370Y-101206724D01*
X156566373Y-101206723D01*
X156566374Y-101206723D01*
X156605202Y-101199000D01*
X156644798Y-101199000D01*
X156683626Y-101206723D01*
G37*
G36*
X167933626Y-101206723D02*
G01*
X167933627Y-101206723D01*
X167933630Y-101206724D01*
X167970209Y-101221876D01*
X168003130Y-101243873D01*
X168031127Y-101271870D01*
X168053124Y-101304791D01*
X168068276Y-101341370D01*
X168076000Y-101380203D01*
X168076000Y-101419797D01*
X168068276Y-101458630D01*
X168053124Y-101495209D01*
X168031127Y-101528130D01*
X168003130Y-101556127D01*
X167970209Y-101578124D01*
X167933630Y-101593276D01*
X167933627Y-101593277D01*
X167933626Y-101593277D01*
X167894798Y-101601000D01*
X167855202Y-101601000D01*
X167816374Y-101593277D01*
X167816373Y-101593277D01*
X167816370Y-101593276D01*
X167779791Y-101578124D01*
X167746870Y-101556127D01*
X167718873Y-101528130D01*
X167696876Y-101495209D01*
X167681724Y-101458630D01*
X167674000Y-101419797D01*
X167674000Y-101380203D01*
X167681724Y-101341370D01*
X167696876Y-101304791D01*
X167718873Y-101271870D01*
X167746870Y-101243873D01*
X167779791Y-101221876D01*
X167816370Y-101206724D01*
X167816373Y-101206723D01*
X167816374Y-101206723D01*
X167855202Y-101199000D01*
X167894798Y-101199000D01*
X167933626Y-101206723D01*
G37*
G36*
X167183626Y-101206723D02*
G01*
X167183627Y-101206723D01*
X167183630Y-101206724D01*
X167220209Y-101221876D01*
X167253130Y-101243873D01*
X167281127Y-101271870D01*
X167303124Y-101304791D01*
X167318276Y-101341370D01*
X167326000Y-101380203D01*
X167326000Y-101419797D01*
X167318276Y-101458630D01*
X167303124Y-101495209D01*
X167281127Y-101528130D01*
X167253130Y-101556127D01*
X167220209Y-101578124D01*
X167183630Y-101593276D01*
X167183627Y-101593277D01*
X167183626Y-101593277D01*
X167144798Y-101601000D01*
X167105202Y-101601000D01*
X167066374Y-101593277D01*
X167066373Y-101593277D01*
X167066370Y-101593276D01*
X167029791Y-101578124D01*
X166996870Y-101556127D01*
X166968873Y-101528130D01*
X166946876Y-101495209D01*
X166931724Y-101458630D01*
X166924000Y-101419797D01*
X166924000Y-101380203D01*
X166931724Y-101341370D01*
X166946876Y-101304791D01*
X166968873Y-101271870D01*
X166996870Y-101243873D01*
X167029791Y-101221876D01*
X167066370Y-101206724D01*
X167066373Y-101206723D01*
X167066374Y-101206723D01*
X167105202Y-101199000D01*
X167144798Y-101199000D01*
X167183626Y-101206723D01*
G37*
G36*
X166433626Y-101206723D02*
G01*
X166433627Y-101206723D01*
X166433630Y-101206724D01*
X166470209Y-101221876D01*
X166503130Y-101243873D01*
X166531127Y-101271870D01*
X166553124Y-101304791D01*
X166568276Y-101341370D01*
X166576000Y-101380203D01*
X166576000Y-101419797D01*
X166568276Y-101458630D01*
X166553124Y-101495209D01*
X166531127Y-101528130D01*
X166503130Y-101556127D01*
X166470209Y-101578124D01*
X166433630Y-101593276D01*
X166433627Y-101593277D01*
X166433626Y-101593277D01*
X166394798Y-101601000D01*
X166355202Y-101601000D01*
X166316374Y-101593277D01*
X166316373Y-101593277D01*
X166316370Y-101593276D01*
X166279791Y-101578124D01*
X166246870Y-101556127D01*
X166218873Y-101528130D01*
X166196876Y-101495209D01*
X166181724Y-101458630D01*
X166174000Y-101419797D01*
X166174000Y-101380203D01*
X166181724Y-101341370D01*
X166196876Y-101304791D01*
X166218873Y-101271870D01*
X166246870Y-101243873D01*
X166279791Y-101221876D01*
X166316370Y-101206724D01*
X166316373Y-101206723D01*
X166316374Y-101206723D01*
X166355202Y-101199000D01*
X166394798Y-101199000D01*
X166433626Y-101206723D01*
G37*
G36*
X155183626Y-101206723D02*
G01*
X155183627Y-101206723D01*
X155183630Y-101206724D01*
X155220209Y-101221876D01*
X155253130Y-101243873D01*
X155281127Y-101271870D01*
X155303124Y-101304791D01*
X155318276Y-101341370D01*
X155326000Y-101380203D01*
X155326000Y-101419797D01*
X155318276Y-101458630D01*
X155303124Y-101495209D01*
X155281127Y-101528130D01*
X155253130Y-101556127D01*
X155220209Y-101578124D01*
X155183630Y-101593276D01*
X155183627Y-101593277D01*
X155183626Y-101593277D01*
X155144798Y-101601000D01*
X155105202Y-101601000D01*
X155066374Y-101593277D01*
X155066373Y-101593277D01*
X155066370Y-101593276D01*
X155029791Y-101578124D01*
X154996870Y-101556127D01*
X154968873Y-101528130D01*
X154946876Y-101495209D01*
X154931724Y-101458630D01*
X154924000Y-101419797D01*
X154924000Y-101380203D01*
X154931724Y-101341370D01*
X154946876Y-101304791D01*
X154968873Y-101271870D01*
X154996870Y-101243873D01*
X155029791Y-101221876D01*
X155066370Y-101206724D01*
X155066373Y-101206723D01*
X155066374Y-101206723D01*
X155105202Y-101199000D01*
X155144798Y-101199000D01*
X155183626Y-101206723D01*
G37*
G36*
X155933626Y-101206723D02*
G01*
X155933627Y-101206723D01*
X155933630Y-101206724D01*
X155970209Y-101221876D01*
X156003130Y-101243873D01*
X156031127Y-101271870D01*
X156053124Y-101304791D01*
X156068276Y-101341370D01*
X156076000Y-101380203D01*
X156076000Y-101419797D01*
X156068276Y-101458630D01*
X156053124Y-101495209D01*
X156031127Y-101528130D01*
X156003130Y-101556127D01*
X155970209Y-101578124D01*
X155933630Y-101593276D01*
X155933627Y-101593277D01*
X155933626Y-101593277D01*
X155894798Y-101601000D01*
X155855202Y-101601000D01*
X155816374Y-101593277D01*
X155816373Y-101593277D01*
X155816370Y-101593276D01*
X155779791Y-101578124D01*
X155746870Y-101556127D01*
X155718873Y-101528130D01*
X155696876Y-101495209D01*
X155681724Y-101458630D01*
X155674000Y-101419797D01*
X155674000Y-101380203D01*
X155681724Y-101341370D01*
X155696876Y-101304791D01*
X155718873Y-101271870D01*
X155746870Y-101243873D01*
X155779791Y-101221876D01*
X155816370Y-101206724D01*
X155816373Y-101206723D01*
X155816374Y-101206723D01*
X155855202Y-101199000D01*
X155894798Y-101199000D01*
X155933626Y-101206723D01*
G37*
G36*
X155183626Y-98956723D02*
G01*
X155183627Y-98956723D01*
X155183630Y-98956724D01*
X155220209Y-98971876D01*
X155253130Y-98993873D01*
X155281127Y-99021870D01*
X155303124Y-99054791D01*
X155318276Y-99091370D01*
X155326000Y-99130203D01*
X155326000Y-99169797D01*
X155318276Y-99208630D01*
X155303124Y-99245209D01*
X155281127Y-99278130D01*
X155253130Y-99306127D01*
X155220209Y-99328124D01*
X155183630Y-99343276D01*
X155183627Y-99343277D01*
X155183626Y-99343277D01*
X155144798Y-99351000D01*
X155105202Y-99351000D01*
X155066374Y-99343277D01*
X155066373Y-99343277D01*
X155066370Y-99343276D01*
X155029791Y-99328124D01*
X154996870Y-99306127D01*
X154968873Y-99278130D01*
X154946876Y-99245209D01*
X154931724Y-99208630D01*
X154924000Y-99169797D01*
X154924000Y-99130203D01*
X154931724Y-99091370D01*
X154946876Y-99054791D01*
X154968873Y-99021870D01*
X154996870Y-98993873D01*
X155029791Y-98971876D01*
X155066370Y-98956724D01*
X155066373Y-98956723D01*
X155066374Y-98956723D01*
X155105202Y-98949000D01*
X155144798Y-98949000D01*
X155183626Y-98956723D01*
G37*
G36*
X166578642Y-97209781D02*
G01*
X166724414Y-97270162D01*
X166724416Y-97270163D01*
X166855608Y-97357822D01*
X166967178Y-97469392D01*
X167054837Y-97600584D01*
X167054838Y-97600586D01*
X167115219Y-97746358D01*
X167146000Y-97901107D01*
X167146000Y-98058893D01*
X167115219Y-98213642D01*
X167054838Y-98359414D01*
X167054837Y-98359416D01*
X166967178Y-98490608D01*
X166855608Y-98602178D01*
X166724416Y-98689837D01*
X166724415Y-98689838D01*
X166724414Y-98689838D01*
X166578643Y-98750219D01*
X166535426Y-98758815D01*
X166511977Y-98765928D01*
X166490367Y-98777479D01*
X166471425Y-98793024D01*
X166455879Y-98811966D01*
X166444328Y-98833576D01*
X166437215Y-98857025D01*
X166434813Y-98881411D01*
X166437215Y-98905798D01*
X166444328Y-98929247D01*
X166455879Y-98950857D01*
X166471424Y-98969799D01*
X166490368Y-98985345D01*
X166503130Y-98993873D01*
X166531127Y-99021870D01*
X166553124Y-99054791D01*
X166568276Y-99091370D01*
X166576000Y-99130203D01*
X166576000Y-99169797D01*
X166568276Y-99208630D01*
X166553124Y-99245209D01*
X166531127Y-99278130D01*
X166503130Y-99306127D01*
X166470209Y-99328124D01*
X166433630Y-99343276D01*
X166433627Y-99343277D01*
X166433626Y-99343277D01*
X166394798Y-99351000D01*
X166355202Y-99351000D01*
X166316374Y-99343277D01*
X166316373Y-99343277D01*
X166316370Y-99343276D01*
X166279791Y-99328124D01*
X166246870Y-99306127D01*
X166218873Y-99278130D01*
X166196876Y-99245209D01*
X166181724Y-99208630D01*
X166174000Y-99169797D01*
X166174000Y-99130203D01*
X166181724Y-99091370D01*
X166196876Y-99054791D01*
X166218873Y-99021870D01*
X166246870Y-98993873D01*
X166246873Y-98993871D01*
X166247728Y-98993016D01*
X166264810Y-98978999D01*
X166280355Y-98960057D01*
X166291907Y-98938447D01*
X166299021Y-98914998D01*
X166301423Y-98890612D01*
X166299022Y-98866226D01*
X166291909Y-98842777D01*
X166280358Y-98821166D01*
X166264814Y-98802223D01*
X166245872Y-98786678D01*
X166224262Y-98775126D01*
X166200810Y-98768012D01*
X166111358Y-98750219D01*
X165965586Y-98689838D01*
X165965585Y-98689838D01*
X165965584Y-98689837D01*
X165834392Y-98602178D01*
X165722822Y-98490608D01*
X165635163Y-98359416D01*
X165635162Y-98359414D01*
X165574781Y-98213642D01*
X165544000Y-98058893D01*
X165544000Y-97901107D01*
X165574781Y-97746358D01*
X165635162Y-97600586D01*
X165635163Y-97600584D01*
X165722822Y-97469392D01*
X165834392Y-97357822D01*
X165965584Y-97270163D01*
X165965586Y-97270162D01*
X166111358Y-97209781D01*
X166266107Y-97179000D01*
X166423893Y-97179000D01*
X166578642Y-97209781D01*
G37*
G36*
X155933626Y-98956723D02*
G01*
X155933627Y-98956723D01*
X155933630Y-98956724D01*
X155970209Y-98971876D01*
X156003130Y-98993873D01*
X156031127Y-99021870D01*
X156053124Y-99054791D01*
X156068276Y-99091370D01*
X156076000Y-99130203D01*
X156076000Y-99169797D01*
X156068276Y-99208630D01*
X156053124Y-99245209D01*
X156031127Y-99278130D01*
X156003130Y-99306127D01*
X155970209Y-99328124D01*
X155933630Y-99343276D01*
X155933627Y-99343277D01*
X155933626Y-99343277D01*
X155894798Y-99351000D01*
X155855202Y-99351000D01*
X155816374Y-99343277D01*
X155816373Y-99343277D01*
X155816370Y-99343276D01*
X155779791Y-99328124D01*
X155746870Y-99306127D01*
X155718873Y-99278130D01*
X155696876Y-99245209D01*
X155681724Y-99208630D01*
X155674000Y-99169797D01*
X155674000Y-99130203D01*
X155681724Y-99091370D01*
X155696876Y-99054791D01*
X155718873Y-99021870D01*
X155746870Y-98993873D01*
X155779791Y-98971876D01*
X155816370Y-98956724D01*
X155816373Y-98956723D01*
X155816374Y-98956723D01*
X155855202Y-98949000D01*
X155894798Y-98949000D01*
X155933626Y-98956723D01*
G37*
G36*
X167183626Y-98956723D02*
G01*
X167183627Y-98956723D01*
X167183630Y-98956724D01*
X167220209Y-98971876D01*
X167253130Y-98993873D01*
X167281127Y-99021870D01*
X167303124Y-99054791D01*
X167318276Y-99091370D01*
X167326000Y-99130203D01*
X167326000Y-99169797D01*
X167318276Y-99208630D01*
X167303124Y-99245209D01*
X167281127Y-99278130D01*
X167253130Y-99306127D01*
X167220209Y-99328124D01*
X167183630Y-99343276D01*
X167183627Y-99343277D01*
X167183626Y-99343277D01*
X167144798Y-99351000D01*
X167105202Y-99351000D01*
X167066374Y-99343277D01*
X167066373Y-99343277D01*
X167066370Y-99343276D01*
X167029791Y-99328124D01*
X166996870Y-99306127D01*
X166968873Y-99278130D01*
X166946876Y-99245209D01*
X166931724Y-99208630D01*
X166924000Y-99169797D01*
X166924000Y-99130203D01*
X166931724Y-99091370D01*
X166946876Y-99054791D01*
X166968873Y-99021870D01*
X166996870Y-98993873D01*
X167029791Y-98971876D01*
X167066370Y-98956724D01*
X167066373Y-98956723D01*
X167066374Y-98956723D01*
X167105202Y-98949000D01*
X167144798Y-98949000D01*
X167183626Y-98956723D01*
G37*
G36*
X156683626Y-98956723D02*
G01*
X156683627Y-98956723D01*
X156683630Y-98956724D01*
X156720209Y-98971876D01*
X156753130Y-98993873D01*
X156781127Y-99021870D01*
X156803124Y-99054791D01*
X156818276Y-99091370D01*
X156826000Y-99130203D01*
X156826000Y-99169797D01*
X156818276Y-99208630D01*
X156803124Y-99245209D01*
X156781127Y-99278130D01*
X156753130Y-99306127D01*
X156720209Y-99328124D01*
X156683630Y-99343276D01*
X156683627Y-99343277D01*
X156683626Y-99343277D01*
X156644798Y-99351000D01*
X156605202Y-99351000D01*
X156566374Y-99343277D01*
X156566373Y-99343277D01*
X156566370Y-99343276D01*
X156529791Y-99328124D01*
X156496870Y-99306127D01*
X156468873Y-99278130D01*
X156446876Y-99245209D01*
X156431724Y-99208630D01*
X156424000Y-99169797D01*
X156424000Y-99130203D01*
X156431724Y-99091370D01*
X156446876Y-99054791D01*
X156468873Y-99021870D01*
X156496870Y-98993873D01*
X156529791Y-98971876D01*
X156566370Y-98956724D01*
X156566373Y-98956723D01*
X156566374Y-98956723D01*
X156605202Y-98949000D01*
X156644798Y-98949000D01*
X156683626Y-98956723D01*
G37*
G36*
X167933626Y-98956723D02*
G01*
X167933627Y-98956723D01*
X167933630Y-98956724D01*
X167970209Y-98971876D01*
X168003130Y-98993873D01*
X168031127Y-99021870D01*
X168053124Y-99054791D01*
X168068276Y-99091370D01*
X168076000Y-99130203D01*
X168076000Y-99169797D01*
X168068276Y-99208630D01*
X168053124Y-99245209D01*
X168031127Y-99278130D01*
X168003130Y-99306127D01*
X167970209Y-99328124D01*
X167933630Y-99343276D01*
X167933627Y-99343277D01*
X167933626Y-99343277D01*
X167894798Y-99351000D01*
X167855202Y-99351000D01*
X167816374Y-99343277D01*
X167816373Y-99343277D01*
X167816370Y-99343276D01*
X167779791Y-99328124D01*
X167746870Y-99306127D01*
X167718873Y-99278130D01*
X167696876Y-99245209D01*
X167681724Y-99208630D01*
X167674000Y-99169797D01*
X167674000Y-99130203D01*
X167681724Y-99091370D01*
X167696876Y-99054791D01*
X167718873Y-99021870D01*
X167746870Y-98993873D01*
X167779791Y-98971876D01*
X167816370Y-98956724D01*
X167816373Y-98956723D01*
X167816374Y-98956723D01*
X167855202Y-98949000D01*
X167894798Y-98949000D01*
X167933626Y-98956723D01*
G37*
G36*
X157418642Y-97209781D02*
G01*
X157564414Y-97270162D01*
X157564416Y-97270163D01*
X157695608Y-97357822D01*
X157807178Y-97469392D01*
X157894837Y-97600584D01*
X157894838Y-97600586D01*
X157955219Y-97746358D01*
X157986000Y-97901107D01*
X157986000Y-98058893D01*
X157955219Y-98213642D01*
X157894838Y-98359414D01*
X157894837Y-98359416D01*
X157807178Y-98490608D01*
X157695608Y-98602178D01*
X157564416Y-98689837D01*
X157564415Y-98689838D01*
X157564414Y-98689838D01*
X157418642Y-98750219D01*
X157263893Y-98781000D01*
X157106107Y-98781000D01*
X156951358Y-98750219D01*
X156805586Y-98689838D01*
X156805585Y-98689838D01*
X156805584Y-98689837D01*
X156674392Y-98602178D01*
X156562822Y-98490608D01*
X156475163Y-98359416D01*
X156475162Y-98359414D01*
X156414781Y-98213642D01*
X156384000Y-98058893D01*
X156384000Y-97901107D01*
X156414781Y-97746358D01*
X156475162Y-97600586D01*
X156475163Y-97600584D01*
X156562822Y-97469392D01*
X156674392Y-97357822D01*
X156805584Y-97270163D01*
X156805586Y-97270162D01*
X156951358Y-97209781D01*
X157106107Y-97179000D01*
X157263893Y-97179000D01*
X157418642Y-97209781D01*
G37*
G36*
X159708642Y-97209781D02*
G01*
X159854414Y-97270162D01*
X159854416Y-97270163D01*
X159985608Y-97357822D01*
X160097178Y-97469392D01*
X160184837Y-97600584D01*
X160184838Y-97600586D01*
X160245219Y-97746358D01*
X160276000Y-97901107D01*
X160276000Y-98058893D01*
X160245219Y-98213642D01*
X160184838Y-98359414D01*
X160184837Y-98359416D01*
X160097178Y-98490608D01*
X159985608Y-98602178D01*
X159854416Y-98689837D01*
X159854415Y-98689838D01*
X159854414Y-98689838D01*
X159708642Y-98750219D01*
X159553893Y-98781000D01*
X159396107Y-98781000D01*
X159241358Y-98750219D01*
X159095586Y-98689838D01*
X159095585Y-98689838D01*
X159095584Y-98689837D01*
X158964392Y-98602178D01*
X158852822Y-98490608D01*
X158765163Y-98359416D01*
X158765162Y-98359414D01*
X158704781Y-98213642D01*
X158674000Y-98058893D01*
X158674000Y-97901107D01*
X158704781Y-97746358D01*
X158765162Y-97600586D01*
X158765163Y-97600584D01*
X158852822Y-97469392D01*
X158964392Y-97357822D01*
X159095584Y-97270163D01*
X159095586Y-97270162D01*
X159241358Y-97209781D01*
X159396107Y-97179000D01*
X159553893Y-97179000D01*
X159708642Y-97209781D01*
G37*
G36*
X161998642Y-97209781D02*
G01*
X162144414Y-97270162D01*
X162144416Y-97270163D01*
X162275608Y-97357822D01*
X162387178Y-97469392D01*
X162474837Y-97600584D01*
X162474838Y-97600586D01*
X162535219Y-97746358D01*
X162566000Y-97901107D01*
X162566000Y-98058893D01*
X162535219Y-98213642D01*
X162474838Y-98359414D01*
X162474837Y-98359416D01*
X162387178Y-98490608D01*
X162275608Y-98602178D01*
X162144416Y-98689837D01*
X162144415Y-98689838D01*
X162144414Y-98689838D01*
X161998642Y-98750219D01*
X161843893Y-98781000D01*
X161686107Y-98781000D01*
X161531358Y-98750219D01*
X161385586Y-98689838D01*
X161385585Y-98689838D01*
X161385584Y-98689837D01*
X161254392Y-98602178D01*
X161142822Y-98490608D01*
X161055163Y-98359416D01*
X161055162Y-98359414D01*
X160994781Y-98213642D01*
X160964000Y-98058893D01*
X160964000Y-97901107D01*
X160994781Y-97746358D01*
X161055162Y-97600586D01*
X161055163Y-97600584D01*
X161142822Y-97469392D01*
X161254392Y-97357822D01*
X161385584Y-97270163D01*
X161385586Y-97270162D01*
X161531358Y-97209781D01*
X161686107Y-97179000D01*
X161843893Y-97179000D01*
X161998642Y-97209781D01*
G37*
G36*
X164288642Y-97209781D02*
G01*
X164434414Y-97270162D01*
X164434416Y-97270163D01*
X164565608Y-97357822D01*
X164677178Y-97469392D01*
X164764837Y-97600584D01*
X164764838Y-97600586D01*
X164825219Y-97746358D01*
X164856000Y-97901107D01*
X164856000Y-98058893D01*
X164825219Y-98213642D01*
X164764838Y-98359414D01*
X164764837Y-98359416D01*
X164677178Y-98490608D01*
X164565608Y-98602178D01*
X164434416Y-98689837D01*
X164434415Y-98689838D01*
X164434414Y-98689838D01*
X164288642Y-98750219D01*
X164133893Y-98781000D01*
X163976107Y-98781000D01*
X163821358Y-98750219D01*
X163675586Y-98689838D01*
X163675585Y-98689838D01*
X163675584Y-98689837D01*
X163544392Y-98602178D01*
X163432822Y-98490608D01*
X163345163Y-98359416D01*
X163345162Y-98359414D01*
X163284781Y-98213642D01*
X163254000Y-98058893D01*
X163254000Y-97901107D01*
X163284781Y-97746358D01*
X163345162Y-97600586D01*
X163345163Y-97600584D01*
X163432822Y-97469392D01*
X163544392Y-97357822D01*
X163675584Y-97270163D01*
X163675586Y-97270162D01*
X163821358Y-97209781D01*
X163976107Y-97179000D01*
X164133893Y-97179000D01*
X164288642Y-97209781D01*
G37*
G36*
X160853642Y-95229781D02*
G01*
X160999414Y-95290162D01*
X160999416Y-95290163D01*
X161130608Y-95377822D01*
X161242178Y-95489392D01*
X161329837Y-95620584D01*
X161329838Y-95620586D01*
X161390219Y-95766358D01*
X161421000Y-95921107D01*
X161421000Y-96078893D01*
X161390219Y-96233642D01*
X161329838Y-96379414D01*
X161329837Y-96379416D01*
X161242178Y-96510608D01*
X161130608Y-96622178D01*
X160999416Y-96709837D01*
X160999415Y-96709838D01*
X160999414Y-96709838D01*
X160853642Y-96770219D01*
X160698893Y-96801000D01*
X160541107Y-96801000D01*
X160386358Y-96770219D01*
X160240586Y-96709838D01*
X160240585Y-96709838D01*
X160240584Y-96709837D01*
X160109392Y-96622178D01*
X159997822Y-96510608D01*
X159910163Y-96379416D01*
X159910162Y-96379414D01*
X159849781Y-96233642D01*
X159819000Y-96078893D01*
X159819000Y-95921107D01*
X159849781Y-95766358D01*
X159910162Y-95620586D01*
X159910163Y-95620584D01*
X159997822Y-95489392D01*
X160109392Y-95377822D01*
X160240584Y-95290163D01*
X160240586Y-95290162D01*
X160386358Y-95229781D01*
X160541107Y-95199000D01*
X160698893Y-95199000D01*
X160853642Y-95229781D01*
G37*
G36*
X156273642Y-95229781D02*
G01*
X156419414Y-95290162D01*
X156419416Y-95290163D01*
X156550608Y-95377822D01*
X156662178Y-95489392D01*
X156749837Y-95620584D01*
X156749838Y-95620586D01*
X156810219Y-95766358D01*
X156841000Y-95921107D01*
X156841000Y-96078893D01*
X156810219Y-96233642D01*
X156749838Y-96379414D01*
X156749837Y-96379416D01*
X156662178Y-96510608D01*
X156550608Y-96622178D01*
X156419416Y-96709837D01*
X156419415Y-96709838D01*
X156419414Y-96709838D01*
X156273642Y-96770219D01*
X156118893Y-96801000D01*
X155961107Y-96801000D01*
X155806358Y-96770219D01*
X155660586Y-96709838D01*
X155660585Y-96709838D01*
X155660584Y-96709837D01*
X155529392Y-96622178D01*
X155417822Y-96510608D01*
X155330163Y-96379416D01*
X155330162Y-96379414D01*
X155269781Y-96233642D01*
X155239000Y-96078893D01*
X155239000Y-95921107D01*
X155269781Y-95766358D01*
X155330162Y-95620586D01*
X155330163Y-95620584D01*
X155417822Y-95489392D01*
X155529392Y-95377822D01*
X155660584Y-95290163D01*
X155660586Y-95290162D01*
X155806358Y-95229781D01*
X155961107Y-95199000D01*
X156118893Y-95199000D01*
X156273642Y-95229781D01*
G37*
G36*
X165433642Y-95229781D02*
G01*
X165579414Y-95290162D01*
X165579416Y-95290163D01*
X165710608Y-95377822D01*
X165822178Y-95489392D01*
X165909837Y-95620584D01*
X165909838Y-95620586D01*
X165970219Y-95766358D01*
X166001000Y-95921107D01*
X166001000Y-96078893D01*
X165970219Y-96233642D01*
X165909838Y-96379414D01*
X165909837Y-96379416D01*
X165822178Y-96510608D01*
X165710608Y-96622178D01*
X165579416Y-96709837D01*
X165579415Y-96709838D01*
X165579414Y-96709838D01*
X165433642Y-96770219D01*
X165278893Y-96801000D01*
X165121107Y-96801000D01*
X164966358Y-96770219D01*
X164820586Y-96709838D01*
X164820585Y-96709838D01*
X164820584Y-96709837D01*
X164689392Y-96622178D01*
X164577822Y-96510608D01*
X164490163Y-96379416D01*
X164490162Y-96379414D01*
X164429781Y-96233642D01*
X164399000Y-96078893D01*
X164399000Y-95921107D01*
X164429781Y-95766358D01*
X164490162Y-95620586D01*
X164490163Y-95620584D01*
X164577822Y-95489392D01*
X164689392Y-95377822D01*
X164820584Y-95290163D01*
X164820586Y-95290162D01*
X164966358Y-95229781D01*
X165121107Y-95199000D01*
X165278893Y-95199000D01*
X165433642Y-95229781D01*
G37*
G36*
X163143642Y-95229781D02*
G01*
X163289414Y-95290162D01*
X163289416Y-95290163D01*
X163420608Y-95377822D01*
X163532178Y-95489392D01*
X163619837Y-95620584D01*
X163619838Y-95620586D01*
X163680219Y-95766358D01*
X163711000Y-95921107D01*
X163711000Y-96078893D01*
X163680219Y-96233642D01*
X163619838Y-96379414D01*
X163619837Y-96379416D01*
X163532178Y-96510608D01*
X163420608Y-96622178D01*
X163289416Y-96709837D01*
X163289415Y-96709838D01*
X163289414Y-96709838D01*
X163143642Y-96770219D01*
X162988893Y-96801000D01*
X162831107Y-96801000D01*
X162676358Y-96770219D01*
X162530586Y-96709838D01*
X162530585Y-96709838D01*
X162530584Y-96709837D01*
X162399392Y-96622178D01*
X162287822Y-96510608D01*
X162200163Y-96379416D01*
X162200162Y-96379414D01*
X162139781Y-96233642D01*
X162109000Y-96078893D01*
X162109000Y-95921107D01*
X162139781Y-95766358D01*
X162200162Y-95620586D01*
X162200163Y-95620584D01*
X162287822Y-95489392D01*
X162399392Y-95377822D01*
X162530584Y-95290163D01*
X162530586Y-95290162D01*
X162676358Y-95229781D01*
X162831107Y-95199000D01*
X162988893Y-95199000D01*
X163143642Y-95229781D01*
G37*
G36*
X158563642Y-95229781D02*
G01*
X158709414Y-95290162D01*
X158709416Y-95290163D01*
X158840608Y-95377822D01*
X158952178Y-95489392D01*
X159039837Y-95620584D01*
X159039838Y-95620586D01*
X159100219Y-95766358D01*
X159131000Y-95921107D01*
X159131000Y-96078893D01*
X159100219Y-96233642D01*
X159039838Y-96379414D01*
X159039837Y-96379416D01*
X158952178Y-96510608D01*
X158840608Y-96622178D01*
X158709416Y-96709837D01*
X158709415Y-96709838D01*
X158709414Y-96709838D01*
X158563642Y-96770219D01*
X158408893Y-96801000D01*
X158251107Y-96801000D01*
X158096358Y-96770219D01*
X157950586Y-96709838D01*
X157950585Y-96709838D01*
X157950584Y-96709837D01*
X157819392Y-96622178D01*
X157707822Y-96510608D01*
X157620163Y-96379416D01*
X157620162Y-96379414D01*
X157559781Y-96233642D01*
X157529000Y-96078893D01*
X157529000Y-95921107D01*
X157559781Y-95766358D01*
X157620162Y-95620586D01*
X157620163Y-95620584D01*
X157707822Y-95489392D01*
X157819392Y-95377822D01*
X157950584Y-95290163D01*
X157950586Y-95290162D01*
X158096358Y-95229781D01*
X158251107Y-95199000D01*
X158408893Y-95199000D01*
X158563642Y-95229781D01*
G37*
G36*
X164288642Y-93249781D02*
G01*
X164434414Y-93310162D01*
X164434416Y-93310163D01*
X164565608Y-93397822D01*
X164677178Y-93509392D01*
X164764837Y-93640584D01*
X164764838Y-93640586D01*
X164825219Y-93786358D01*
X164856000Y-93941107D01*
X164856000Y-94098893D01*
X164825219Y-94253642D01*
X164764838Y-94399414D01*
X164764837Y-94399416D01*
X164677178Y-94530608D01*
X164565608Y-94642178D01*
X164434416Y-94729837D01*
X164434415Y-94729838D01*
X164434414Y-94729838D01*
X164288642Y-94790219D01*
X164133893Y-94821000D01*
X163976107Y-94821000D01*
X163821358Y-94790219D01*
X163675586Y-94729838D01*
X163675585Y-94729838D01*
X163675584Y-94729837D01*
X163544392Y-94642178D01*
X163432822Y-94530608D01*
X163345163Y-94399416D01*
X163345162Y-94399414D01*
X163284781Y-94253642D01*
X163254000Y-94098893D01*
X163254000Y-93941107D01*
X163284781Y-93786358D01*
X163345162Y-93640586D01*
X163345163Y-93640584D01*
X163432822Y-93509392D01*
X163544392Y-93397822D01*
X163675584Y-93310163D01*
X163675586Y-93310162D01*
X163821358Y-93249781D01*
X163976107Y-93219000D01*
X164133893Y-93219000D01*
X164288642Y-93249781D01*
G37*
G36*
X166578642Y-93249781D02*
G01*
X166724414Y-93310162D01*
X166724416Y-93310163D01*
X166855608Y-93397822D01*
X166967178Y-93509392D01*
X167054837Y-93640584D01*
X167054838Y-93640586D01*
X167115219Y-93786358D01*
X167146000Y-93941107D01*
X167146000Y-94098893D01*
X167115219Y-94253642D01*
X167054838Y-94399414D01*
X167054837Y-94399416D01*
X166967178Y-94530608D01*
X166855608Y-94642178D01*
X166724416Y-94729837D01*
X166724415Y-94729838D01*
X166724414Y-94729838D01*
X166578642Y-94790219D01*
X166423893Y-94821000D01*
X166266107Y-94821000D01*
X166111358Y-94790219D01*
X165965586Y-94729838D01*
X165965585Y-94729838D01*
X165965584Y-94729837D01*
X165834392Y-94642178D01*
X165722822Y-94530608D01*
X165635163Y-94399416D01*
X165635162Y-94399414D01*
X165574781Y-94253642D01*
X165544000Y-94098893D01*
X165544000Y-93941107D01*
X165574781Y-93786358D01*
X165635162Y-93640586D01*
X165635163Y-93640584D01*
X165722822Y-93509392D01*
X165834392Y-93397822D01*
X165965584Y-93310163D01*
X165965586Y-93310162D01*
X166111358Y-93249781D01*
X166266107Y-93219000D01*
X166423893Y-93219000D01*
X166578642Y-93249781D01*
G37*
G36*
X161998642Y-93249781D02*
G01*
X162144414Y-93310162D01*
X162144416Y-93310163D01*
X162275608Y-93397822D01*
X162387178Y-93509392D01*
X162474837Y-93640584D01*
X162474838Y-93640586D01*
X162535219Y-93786358D01*
X162566000Y-93941107D01*
X162566000Y-94098893D01*
X162535219Y-94253642D01*
X162474838Y-94399414D01*
X162474837Y-94399416D01*
X162387178Y-94530608D01*
X162275608Y-94642178D01*
X162144416Y-94729837D01*
X162144415Y-94729838D01*
X162144414Y-94729838D01*
X161998642Y-94790219D01*
X161843893Y-94821000D01*
X161686107Y-94821000D01*
X161531358Y-94790219D01*
X161385586Y-94729838D01*
X161385585Y-94729838D01*
X161385584Y-94729837D01*
X161254392Y-94642178D01*
X161142822Y-94530608D01*
X161055163Y-94399416D01*
X161055162Y-94399414D01*
X160994781Y-94253642D01*
X160964000Y-94098893D01*
X160964000Y-93941107D01*
X160994781Y-93786358D01*
X161055162Y-93640586D01*
X161055163Y-93640584D01*
X161142822Y-93509392D01*
X161254392Y-93397822D01*
X161385584Y-93310163D01*
X161385586Y-93310162D01*
X161531358Y-93249781D01*
X161686107Y-93219000D01*
X161843893Y-93219000D01*
X161998642Y-93249781D01*
G37*
G36*
X159708642Y-93249781D02*
G01*
X159854414Y-93310162D01*
X159854416Y-93310163D01*
X159985608Y-93397822D01*
X160097178Y-93509392D01*
X160184837Y-93640584D01*
X160184838Y-93640586D01*
X160245219Y-93786358D01*
X160276000Y-93941107D01*
X160276000Y-94098893D01*
X160245219Y-94253642D01*
X160184838Y-94399414D01*
X160184837Y-94399416D01*
X160097178Y-94530608D01*
X159985608Y-94642178D01*
X159854416Y-94729837D01*
X159854415Y-94729838D01*
X159854414Y-94729838D01*
X159708642Y-94790219D01*
X159553893Y-94821000D01*
X159396107Y-94821000D01*
X159241358Y-94790219D01*
X159095586Y-94729838D01*
X159095585Y-94729838D01*
X159095584Y-94729837D01*
X158964392Y-94642178D01*
X158852822Y-94530608D01*
X158765163Y-94399416D01*
X158765162Y-94399414D01*
X158704781Y-94253642D01*
X158674000Y-94098893D01*
X158674000Y-93941107D01*
X158704781Y-93786358D01*
X158765162Y-93640586D01*
X158765163Y-93640584D01*
X158852822Y-93509392D01*
X158964392Y-93397822D01*
X159095584Y-93310163D01*
X159095586Y-93310162D01*
X159241358Y-93249781D01*
X159396107Y-93219000D01*
X159553893Y-93219000D01*
X159708642Y-93249781D01*
G37*
G36*
X157418642Y-93249781D02*
G01*
X157564414Y-93310162D01*
X157564416Y-93310163D01*
X157695608Y-93397822D01*
X157807178Y-93509392D01*
X157894837Y-93640584D01*
X157894838Y-93640586D01*
X157955219Y-93786358D01*
X157986000Y-93941107D01*
X157986000Y-94098893D01*
X157955219Y-94253642D01*
X157894838Y-94399414D01*
X157894837Y-94399416D01*
X157807178Y-94530608D01*
X157695608Y-94642178D01*
X157564416Y-94729837D01*
X157564415Y-94729838D01*
X157564414Y-94729838D01*
X157418642Y-94790219D01*
X157263893Y-94821000D01*
X157106107Y-94821000D01*
X156951358Y-94790219D01*
X156805586Y-94729838D01*
X156805585Y-94729838D01*
X156805584Y-94729837D01*
X156674392Y-94642178D01*
X156562822Y-94530608D01*
X156475163Y-94399416D01*
X156475162Y-94399414D01*
X156414781Y-94253642D01*
X156384000Y-94098893D01*
X156384000Y-93941107D01*
X156414781Y-93786358D01*
X156475162Y-93640586D01*
X156475163Y-93640584D01*
X156562822Y-93509392D01*
X156674392Y-93397822D01*
X156805584Y-93310163D01*
X156805586Y-93310162D01*
X156951358Y-93249781D01*
X157106107Y-93219000D01*
X157263893Y-93219000D01*
X157418642Y-93249781D01*
G37*
M02*
