G04 #@! TF.GenerationSoftware,KiCad,Pcbnew,(5.1.5)-3*
G04 #@! TF.CreationDate,2020-06-05T03:02:49-04:00*
G04 #@! TF.ProjectId,VGA_PANEL_BREAKOUT,5647415f-5041-44e4-954c-5f425245414b,rev?*
G04 #@! TF.SameCoordinates,Original*
G04 #@! TF.FileFunction,Profile,NP*
%FSLAX46Y46*%
G04 Gerber Fmt 4.6, Leading zero omitted, Abs format (unit mm)*
G04 Created by KiCad (PCBNEW (5.1.5)-3) date 2020-06-05 03:02:49*
%MOMM*%
%LPD*%
G04 APERTURE LIST*
%ADD10C,0.050000*%
G04 APERTURE END LIST*
D10*
X169000000Y-109450000D02*
X168000000Y-109450000D01*
X168000000Y-109450000D02*
X168000000Y-111050000D01*
X154000000Y-109450000D02*
X155000000Y-109450000D01*
X155000000Y-109450000D02*
X155000000Y-111050000D01*
X154000000Y-99000000D02*
G75*
G02X154000000Y-101550000I0J-1275000D01*
G01*
X169000000Y-101550000D02*
G75*
G02X169000000Y-99000000I0J1275000D01*
G01*
X157750000Y-101550000D02*
G75*
G02X157750000Y-99000000I0J1275000D01*
G01*
X165250000Y-99000000D02*
G75*
G02X165250000Y-101550000I0J-1275000D01*
G01*
X157750000Y-101550000D02*
X165250000Y-101550000D01*
X157750000Y-99000000D02*
X165250000Y-99000000D01*
X168000000Y-93625000D02*
X155000000Y-93625000D01*
X168000000Y-92025000D02*
X168000000Y-93625000D01*
X155000000Y-92025000D02*
X168000000Y-92025000D01*
X155000000Y-93625000D02*
X155000000Y-92025000D01*
X154000000Y-90500000D02*
X154000000Y-99000000D01*
X169000000Y-90500000D02*
X169000000Y-99000000D01*
X169000000Y-90500000D02*
X154000000Y-90500000D01*
X169000000Y-109450000D02*
X169000000Y-101550000D01*
X155000000Y-111050000D02*
X168000000Y-111050000D01*
X154000000Y-101550000D02*
X154000000Y-109450000D01*
M02*
