G04 #@! TF.GenerationSoftware,KiCad,Pcbnew,(5.1.0)-1*
G04 #@! TF.CreationDate,2020-07-15T11:29:01-04:00*
G04 #@! TF.ProjectId,VGA_PANEL_BREAKOUT,5647415f-5041-44e4-954c-5f425245414b,rev?*
G04 #@! TF.SameCoordinates,Original*
G04 #@! TF.FileFunction,Copper,L1,Top*
G04 #@! TF.FilePolarity,Positive*
%FSLAX46Y46*%
G04 Gerber Fmt 4.6, Leading zero omitted, Abs format (unit mm)*
G04 Created by KiCad (PCBNEW (5.1.0)-1) date 2020-07-15 11:29:01*
%MOMM*%
%LPD*%
G04 APERTURE LIST*
%ADD10C,1.500000*%
%ADD11R,2.500000X1.500000*%
%ADD12R,1.500000X4.000000*%
%ADD13R,2.000000X3.000000*%
%ADD14C,0.800000*%
%ADD15C,0.250000*%
G04 APERTURE END LIST*
D10*
X166960000Y-96000000D03*
X165815000Y-94020000D03*
X163525000Y-94020000D03*
X161235000Y-94020000D03*
X158945000Y-94020000D03*
X156655000Y-94020000D03*
X164670000Y-96000000D03*
X162380000Y-96000000D03*
X160090000Y-96000000D03*
X157800000Y-96000000D03*
X165815000Y-97980000D03*
X163525000Y-97980000D03*
X161235000Y-97980000D03*
X158945000Y-97980000D03*
X156655000Y-97980000D03*
D11*
X166500000Y-91200000D03*
X163250000Y-91200000D03*
X160000000Y-91200000D03*
X156750000Y-91200000D03*
D12*
X161765000Y-109050000D03*
X159475000Y-109050000D03*
D13*
X167750000Y-103550000D03*
X165250000Y-103550000D03*
X162750000Y-103550000D03*
X160250000Y-103550000D03*
X157750000Y-103550000D03*
X155250000Y-103550000D03*
D14*
X156712347Y-105812347D03*
X163250000Y-91200000D03*
X166500000Y-106100000D03*
X160000000Y-91200000D03*
X163900000Y-106000000D03*
X161845153Y-105925010D03*
D15*
X166960000Y-96000000D02*
X162380000Y-96000000D01*
X168350010Y-91550010D02*
X168000000Y-91200000D01*
X166960000Y-96000000D02*
X168350010Y-94609990D01*
X168000000Y-91200000D02*
X166500000Y-91200000D01*
X168350010Y-94609990D02*
X168350010Y-91550010D01*
X157800000Y-96835000D02*
X156655000Y-97980000D01*
X157800000Y-96000000D02*
X157800000Y-96835000D01*
X155250000Y-105300000D02*
X155250000Y-103550000D01*
X155762347Y-105812347D02*
X155250000Y-105300000D01*
X156712347Y-105812347D02*
X155762347Y-105812347D01*
X167750000Y-105300000D02*
X167750000Y-103550000D01*
X167750000Y-105415685D02*
X167750000Y-105300000D01*
X167065685Y-106100000D02*
X167750000Y-105415685D01*
X166500000Y-106100000D02*
X167065685Y-106100000D01*
X165250000Y-104650000D02*
X165250000Y-103550000D01*
X163900000Y-106000000D02*
X165250000Y-104650000D01*
X155975013Y-95095001D02*
X154649990Y-93769978D01*
X154649990Y-93769978D02*
X154649990Y-91800010D01*
X157466002Y-94800000D02*
X157171001Y-95095001D01*
X158191002Y-94800000D02*
X157466002Y-94800000D01*
X158875001Y-95483999D02*
X158191002Y-94800000D01*
X155250000Y-91200000D02*
X156750000Y-91200000D01*
X158875001Y-96376003D02*
X158875001Y-95483999D01*
X154649990Y-91800010D02*
X155250000Y-91200000D01*
X159728999Y-97230001D02*
X158875001Y-96376003D01*
X160485001Y-97230001D02*
X159728999Y-97230001D01*
X157171001Y-95095001D02*
X155975013Y-95095001D01*
X161235000Y-97980000D02*
X160485001Y-97230001D01*
X162750000Y-103550000D02*
X162750000Y-105300000D01*
X162750000Y-105300000D02*
X162124990Y-105925010D01*
X162124990Y-105925010D02*
X161845153Y-105925010D01*
X160250000Y-106285000D02*
X160250000Y-105300000D01*
X160250000Y-105300000D02*
X160250000Y-103550000D01*
X161765000Y-109050000D02*
X161765000Y-107800000D01*
X161765000Y-107800000D02*
X160250000Y-106285000D01*
X159475000Y-109075000D02*
X159475000Y-109050000D01*
X157750000Y-105075000D02*
X157750000Y-103550000D01*
X159475000Y-109050000D02*
X159475000Y-106800000D01*
X159475000Y-106800000D02*
X157750000Y-105075000D01*
M02*
