G04 #@! TF.GenerationSoftware,KiCad,Pcbnew,(5.1.0)-1*
G04 #@! TF.CreationDate,2020-07-15T16:06:44-04:00*
G04 #@! TF.ProjectId,Breakout Panelized,42726561-6b6f-4757-9420-50616e656c69,rev?*
G04 #@! TF.SameCoordinates,Original*
G04 #@! TF.FileFunction,Other,Comment*
%FSLAX46Y46*%
G04 Gerber Fmt 4.6, Leading zero omitted, Abs format (unit mm)*
G04 Created by KiCad (PCBNEW (5.1.0)-1) date 2020-07-15 16:06:44*
%MOMM*%
%LPD*%
G04 APERTURE LIST*
%ADD10C,0.150000*%
G04 APERTURE END LIST*
D10*
X160360714Y-52614285D02*
X160646428Y-53376190D01*
X160932142Y-52614285D01*
X160646428Y-52138095D02*
X160646428Y-51376190D01*
X160646428Y-50900000D02*
X160646428Y-50138095D01*
X160027380Y-49042857D02*
X161027380Y-48709523D01*
X160027380Y-48376190D01*
X160646428Y-48042857D02*
X160646428Y-47280952D01*
X160075000Y-46280952D02*
X160027380Y-46376190D01*
X160027380Y-46519047D01*
X160075000Y-46661904D01*
X160170238Y-46757142D01*
X160265476Y-46804761D01*
X160455952Y-46852380D01*
X160598809Y-46852380D01*
X160789285Y-46804761D01*
X160884523Y-46757142D01*
X160979761Y-46661904D01*
X161027380Y-46519047D01*
X161027380Y-46423809D01*
X160979761Y-46280952D01*
X160932142Y-46233333D01*
X160598809Y-46233333D01*
X160598809Y-46423809D01*
X161027380Y-45233333D02*
X160551190Y-45566666D01*
X161027380Y-45804761D02*
X160027380Y-45804761D01*
X160027380Y-45423809D01*
X160075000Y-45328571D01*
X160122619Y-45280952D01*
X160217857Y-45233333D01*
X160360714Y-45233333D01*
X160455952Y-45280952D01*
X160503571Y-45328571D01*
X160551190Y-45423809D01*
X160551190Y-45804761D01*
X160027380Y-44614285D02*
X160027380Y-44423809D01*
X160075000Y-44328571D01*
X160170238Y-44233333D01*
X160360714Y-44185714D01*
X160694047Y-44185714D01*
X160884523Y-44233333D01*
X160979761Y-44328571D01*
X161027380Y-44423809D01*
X161027380Y-44614285D01*
X160979761Y-44709523D01*
X160884523Y-44804761D01*
X160694047Y-44852380D01*
X160360714Y-44852380D01*
X160170238Y-44804761D01*
X160075000Y-44709523D01*
X160027380Y-44614285D01*
X160027380Y-43566666D02*
X160027380Y-43376190D01*
X160075000Y-43280952D01*
X160170238Y-43185714D01*
X160360714Y-43138095D01*
X160694047Y-43138095D01*
X160884523Y-43185714D01*
X160979761Y-43280952D01*
X161027380Y-43376190D01*
X161027380Y-43566666D01*
X160979761Y-43661904D01*
X160884523Y-43757142D01*
X160694047Y-43804761D01*
X160360714Y-43804761D01*
X160170238Y-43757142D01*
X160075000Y-43661904D01*
X160027380Y-43566666D01*
X160027380Y-42852380D02*
X161027380Y-42519047D01*
X160027380Y-42185714D01*
X160503571Y-41852380D02*
X160503571Y-41519047D01*
X161027380Y-41376190D02*
X161027380Y-41852380D01*
X160027380Y-41852380D01*
X160027380Y-41376190D01*
X130360714Y-52614285D02*
X130646428Y-53376190D01*
X130932142Y-52614285D01*
X130646428Y-52138095D02*
X130646428Y-51376190D01*
X130646428Y-50900000D02*
X130646428Y-50138095D01*
X130027380Y-49042857D02*
X131027380Y-48709523D01*
X130027380Y-48376190D01*
X130646428Y-48042857D02*
X130646428Y-47280952D01*
X130075000Y-46280952D02*
X130027380Y-46376190D01*
X130027380Y-46519047D01*
X130075000Y-46661904D01*
X130170238Y-46757142D01*
X130265476Y-46804761D01*
X130455952Y-46852380D01*
X130598809Y-46852380D01*
X130789285Y-46804761D01*
X130884523Y-46757142D01*
X130979761Y-46661904D01*
X131027380Y-46519047D01*
X131027380Y-46423809D01*
X130979761Y-46280952D01*
X130932142Y-46233333D01*
X130598809Y-46233333D01*
X130598809Y-46423809D01*
X131027380Y-45233333D02*
X130551190Y-45566666D01*
X131027380Y-45804761D02*
X130027380Y-45804761D01*
X130027380Y-45423809D01*
X130075000Y-45328571D01*
X130122619Y-45280952D01*
X130217857Y-45233333D01*
X130360714Y-45233333D01*
X130455952Y-45280952D01*
X130503571Y-45328571D01*
X130551190Y-45423809D01*
X130551190Y-45804761D01*
X130027380Y-44614285D02*
X130027380Y-44423809D01*
X130075000Y-44328571D01*
X130170238Y-44233333D01*
X130360714Y-44185714D01*
X130694047Y-44185714D01*
X130884523Y-44233333D01*
X130979761Y-44328571D01*
X131027380Y-44423809D01*
X131027380Y-44614285D01*
X130979761Y-44709523D01*
X130884523Y-44804761D01*
X130694047Y-44852380D01*
X130360714Y-44852380D01*
X130170238Y-44804761D01*
X130075000Y-44709523D01*
X130027380Y-44614285D01*
X130027380Y-43566666D02*
X130027380Y-43376190D01*
X130075000Y-43280952D01*
X130170238Y-43185714D01*
X130360714Y-43138095D01*
X130694047Y-43138095D01*
X130884523Y-43185714D01*
X130979761Y-43280952D01*
X131027380Y-43376190D01*
X131027380Y-43566666D01*
X130979761Y-43661904D01*
X130884523Y-43757142D01*
X130694047Y-43804761D01*
X130360714Y-43804761D01*
X130170238Y-43757142D01*
X130075000Y-43661904D01*
X130027380Y-43566666D01*
X130027380Y-42852380D02*
X131027380Y-42519047D01*
X130027380Y-42185714D01*
X130503571Y-41852380D02*
X130503571Y-41519047D01*
X131027380Y-41376190D02*
X131027380Y-41852380D01*
X130027380Y-41852380D01*
X130027380Y-41376190D01*
X145360714Y-52614285D02*
X145646428Y-53376190D01*
X145932142Y-52614285D01*
X145646428Y-52138095D02*
X145646428Y-51376190D01*
X145646428Y-50900000D02*
X145646428Y-50138095D01*
X145027380Y-49042857D02*
X146027380Y-48709523D01*
X145027380Y-48376190D01*
X145646428Y-48042857D02*
X145646428Y-47280952D01*
X145075000Y-46280952D02*
X145027380Y-46376190D01*
X145027380Y-46519047D01*
X145075000Y-46661904D01*
X145170238Y-46757142D01*
X145265476Y-46804761D01*
X145455952Y-46852380D01*
X145598809Y-46852380D01*
X145789285Y-46804761D01*
X145884523Y-46757142D01*
X145979761Y-46661904D01*
X146027380Y-46519047D01*
X146027380Y-46423809D01*
X145979761Y-46280952D01*
X145932142Y-46233333D01*
X145598809Y-46233333D01*
X145598809Y-46423809D01*
X146027380Y-45233333D02*
X145551190Y-45566666D01*
X146027380Y-45804761D02*
X145027380Y-45804761D01*
X145027380Y-45423809D01*
X145075000Y-45328571D01*
X145122619Y-45280952D01*
X145217857Y-45233333D01*
X145360714Y-45233333D01*
X145455952Y-45280952D01*
X145503571Y-45328571D01*
X145551190Y-45423809D01*
X145551190Y-45804761D01*
X145027380Y-44614285D02*
X145027380Y-44423809D01*
X145075000Y-44328571D01*
X145170238Y-44233333D01*
X145360714Y-44185714D01*
X145694047Y-44185714D01*
X145884523Y-44233333D01*
X145979761Y-44328571D01*
X146027380Y-44423809D01*
X146027380Y-44614285D01*
X145979761Y-44709523D01*
X145884523Y-44804761D01*
X145694047Y-44852380D01*
X145360714Y-44852380D01*
X145170238Y-44804761D01*
X145075000Y-44709523D01*
X145027380Y-44614285D01*
X145027380Y-43566666D02*
X145027380Y-43376190D01*
X145075000Y-43280952D01*
X145170238Y-43185714D01*
X145360714Y-43138095D01*
X145694047Y-43138095D01*
X145884523Y-43185714D01*
X145979761Y-43280952D01*
X146027380Y-43376190D01*
X146027380Y-43566666D01*
X145979761Y-43661904D01*
X145884523Y-43757142D01*
X145694047Y-43804761D01*
X145360714Y-43804761D01*
X145170238Y-43757142D01*
X145075000Y-43661904D01*
X145027380Y-43566666D01*
X145027380Y-42852380D02*
X146027380Y-42519047D01*
X145027380Y-42185714D01*
X145503571Y-41852380D02*
X145503571Y-41519047D01*
X146027380Y-41376190D02*
X146027380Y-41852380D01*
X145027380Y-41852380D01*
X145027380Y-41376190D01*
X115360714Y-52614285D02*
X115646428Y-53376190D01*
X115932142Y-52614285D01*
X115646428Y-52138095D02*
X115646428Y-51376190D01*
X115646428Y-50900000D02*
X115646428Y-50138095D01*
X115027380Y-49042857D02*
X116027380Y-48709523D01*
X115027380Y-48376190D01*
X115646428Y-48042857D02*
X115646428Y-47280952D01*
X115075000Y-46280952D02*
X115027380Y-46376190D01*
X115027380Y-46519047D01*
X115075000Y-46661904D01*
X115170238Y-46757142D01*
X115265476Y-46804761D01*
X115455952Y-46852380D01*
X115598809Y-46852380D01*
X115789285Y-46804761D01*
X115884523Y-46757142D01*
X115979761Y-46661904D01*
X116027380Y-46519047D01*
X116027380Y-46423809D01*
X115979761Y-46280952D01*
X115932142Y-46233333D01*
X115598809Y-46233333D01*
X115598809Y-46423809D01*
X116027380Y-45233333D02*
X115551190Y-45566666D01*
X116027380Y-45804761D02*
X115027380Y-45804761D01*
X115027380Y-45423809D01*
X115075000Y-45328571D01*
X115122619Y-45280952D01*
X115217857Y-45233333D01*
X115360714Y-45233333D01*
X115455952Y-45280952D01*
X115503571Y-45328571D01*
X115551190Y-45423809D01*
X115551190Y-45804761D01*
X115027380Y-44614285D02*
X115027380Y-44423809D01*
X115075000Y-44328571D01*
X115170238Y-44233333D01*
X115360714Y-44185714D01*
X115694047Y-44185714D01*
X115884523Y-44233333D01*
X115979761Y-44328571D01*
X116027380Y-44423809D01*
X116027380Y-44614285D01*
X115979761Y-44709523D01*
X115884523Y-44804761D01*
X115694047Y-44852380D01*
X115360714Y-44852380D01*
X115170238Y-44804761D01*
X115075000Y-44709523D01*
X115027380Y-44614285D01*
X115027380Y-43566666D02*
X115027380Y-43376190D01*
X115075000Y-43280952D01*
X115170238Y-43185714D01*
X115360714Y-43138095D01*
X115694047Y-43138095D01*
X115884523Y-43185714D01*
X115979761Y-43280952D01*
X116027380Y-43376190D01*
X116027380Y-43566666D01*
X115979761Y-43661904D01*
X115884523Y-43757142D01*
X115694047Y-43804761D01*
X115360714Y-43804761D01*
X115170238Y-43757142D01*
X115075000Y-43661904D01*
X115027380Y-43566666D01*
X115027380Y-42852380D02*
X116027380Y-42519047D01*
X115027380Y-42185714D01*
X115503571Y-41852380D02*
X115503571Y-41519047D01*
X116027380Y-41376190D02*
X116027380Y-41852380D01*
X115027380Y-41852380D01*
X115027380Y-41376190D01*
X100360714Y-52614285D02*
X100646428Y-53376190D01*
X100932142Y-52614285D01*
X100646428Y-52138095D02*
X100646428Y-51376190D01*
X100646428Y-50900000D02*
X100646428Y-50138095D01*
X100027380Y-49042857D02*
X101027380Y-48709523D01*
X100027380Y-48376190D01*
X100646428Y-48042857D02*
X100646428Y-47280952D01*
X100075000Y-46280952D02*
X100027380Y-46376190D01*
X100027380Y-46519047D01*
X100075000Y-46661904D01*
X100170238Y-46757142D01*
X100265476Y-46804761D01*
X100455952Y-46852380D01*
X100598809Y-46852380D01*
X100789285Y-46804761D01*
X100884523Y-46757142D01*
X100979761Y-46661904D01*
X101027380Y-46519047D01*
X101027380Y-46423809D01*
X100979761Y-46280952D01*
X100932142Y-46233333D01*
X100598809Y-46233333D01*
X100598809Y-46423809D01*
X101027380Y-45233333D02*
X100551190Y-45566666D01*
X101027380Y-45804761D02*
X100027380Y-45804761D01*
X100027380Y-45423809D01*
X100075000Y-45328571D01*
X100122619Y-45280952D01*
X100217857Y-45233333D01*
X100360714Y-45233333D01*
X100455952Y-45280952D01*
X100503571Y-45328571D01*
X100551190Y-45423809D01*
X100551190Y-45804761D01*
X100027380Y-44614285D02*
X100027380Y-44423809D01*
X100075000Y-44328571D01*
X100170238Y-44233333D01*
X100360714Y-44185714D01*
X100694047Y-44185714D01*
X100884523Y-44233333D01*
X100979761Y-44328571D01*
X101027380Y-44423809D01*
X101027380Y-44614285D01*
X100979761Y-44709523D01*
X100884523Y-44804761D01*
X100694047Y-44852380D01*
X100360714Y-44852380D01*
X100170238Y-44804761D01*
X100075000Y-44709523D01*
X100027380Y-44614285D01*
X100027380Y-43566666D02*
X100027380Y-43376190D01*
X100075000Y-43280952D01*
X100170238Y-43185714D01*
X100360714Y-43138095D01*
X100694047Y-43138095D01*
X100884523Y-43185714D01*
X100979761Y-43280952D01*
X101027380Y-43376190D01*
X101027380Y-43566666D01*
X100979761Y-43661904D01*
X100884523Y-43757142D01*
X100694047Y-43804761D01*
X100360714Y-43804761D01*
X100170238Y-43757142D01*
X100075000Y-43661904D01*
X100027380Y-43566666D01*
X100027380Y-42852380D02*
X101027380Y-42519047D01*
X100027380Y-42185714D01*
X100503571Y-41852380D02*
X100503571Y-41519047D01*
X101027380Y-41376190D02*
X101027380Y-41852380D01*
X100027380Y-41852380D01*
X100027380Y-41376190D01*
X176710714Y-139110714D02*
X175948809Y-139396428D01*
X176710714Y-139682142D01*
X177186904Y-139396428D02*
X177948809Y-139396428D01*
X178425000Y-139396428D02*
X179186904Y-139396428D01*
X180282142Y-138777380D02*
X180615476Y-139777380D01*
X180948809Y-138777380D01*
X181282142Y-139396428D02*
X182044047Y-139396428D01*
X183044047Y-138825000D02*
X182948809Y-138777380D01*
X182805952Y-138777380D01*
X182663095Y-138825000D01*
X182567857Y-138920238D01*
X182520238Y-139015476D01*
X182472619Y-139205952D01*
X182472619Y-139348809D01*
X182520238Y-139539285D01*
X182567857Y-139634523D01*
X182663095Y-139729761D01*
X182805952Y-139777380D01*
X182901190Y-139777380D01*
X183044047Y-139729761D01*
X183091666Y-139682142D01*
X183091666Y-139348809D01*
X182901190Y-139348809D01*
X184091666Y-139777380D02*
X183758333Y-139301190D01*
X183520238Y-139777380D02*
X183520238Y-138777380D01*
X183901190Y-138777380D01*
X183996428Y-138825000D01*
X184044047Y-138872619D01*
X184091666Y-138967857D01*
X184091666Y-139110714D01*
X184044047Y-139205952D01*
X183996428Y-139253571D01*
X183901190Y-139301190D01*
X183520238Y-139301190D01*
X184710714Y-138777380D02*
X184901190Y-138777380D01*
X184996428Y-138825000D01*
X185091666Y-138920238D01*
X185139285Y-139110714D01*
X185139285Y-139444047D01*
X185091666Y-139634523D01*
X184996428Y-139729761D01*
X184901190Y-139777380D01*
X184710714Y-139777380D01*
X184615476Y-139729761D01*
X184520238Y-139634523D01*
X184472619Y-139444047D01*
X184472619Y-139110714D01*
X184520238Y-138920238D01*
X184615476Y-138825000D01*
X184710714Y-138777380D01*
X185758333Y-138777380D02*
X185948809Y-138777380D01*
X186044047Y-138825000D01*
X186139285Y-138920238D01*
X186186904Y-139110714D01*
X186186904Y-139444047D01*
X186139285Y-139634523D01*
X186044047Y-139729761D01*
X185948809Y-139777380D01*
X185758333Y-139777380D01*
X185663095Y-139729761D01*
X185567857Y-139634523D01*
X185520238Y-139444047D01*
X185520238Y-139110714D01*
X185567857Y-138920238D01*
X185663095Y-138825000D01*
X185758333Y-138777380D01*
X186472619Y-138777380D02*
X186805952Y-139777380D01*
X187139285Y-138777380D01*
X187472619Y-139253571D02*
X187805952Y-139253571D01*
X187948809Y-139777380D02*
X187472619Y-139777380D01*
X187472619Y-138777380D01*
X187948809Y-138777380D01*
X176710714Y-110610714D02*
X175948809Y-110896428D01*
X176710714Y-111182142D01*
X177186904Y-110896428D02*
X177948809Y-110896428D01*
X178425000Y-110896428D02*
X179186904Y-110896428D01*
X180282142Y-110277380D02*
X180615476Y-111277380D01*
X180948809Y-110277380D01*
X181282142Y-110896428D02*
X182044047Y-110896428D01*
X183044047Y-110325000D02*
X182948809Y-110277380D01*
X182805952Y-110277380D01*
X182663095Y-110325000D01*
X182567857Y-110420238D01*
X182520238Y-110515476D01*
X182472619Y-110705952D01*
X182472619Y-110848809D01*
X182520238Y-111039285D01*
X182567857Y-111134523D01*
X182663095Y-111229761D01*
X182805952Y-111277380D01*
X182901190Y-111277380D01*
X183044047Y-111229761D01*
X183091666Y-111182142D01*
X183091666Y-110848809D01*
X182901190Y-110848809D01*
X184091666Y-111277380D02*
X183758333Y-110801190D01*
X183520238Y-111277380D02*
X183520238Y-110277380D01*
X183901190Y-110277380D01*
X183996428Y-110325000D01*
X184044047Y-110372619D01*
X184091666Y-110467857D01*
X184091666Y-110610714D01*
X184044047Y-110705952D01*
X183996428Y-110753571D01*
X183901190Y-110801190D01*
X183520238Y-110801190D01*
X184710714Y-110277380D02*
X184901190Y-110277380D01*
X184996428Y-110325000D01*
X185091666Y-110420238D01*
X185139285Y-110610714D01*
X185139285Y-110944047D01*
X185091666Y-111134523D01*
X184996428Y-111229761D01*
X184901190Y-111277380D01*
X184710714Y-111277380D01*
X184615476Y-111229761D01*
X184520238Y-111134523D01*
X184472619Y-110944047D01*
X184472619Y-110610714D01*
X184520238Y-110420238D01*
X184615476Y-110325000D01*
X184710714Y-110277380D01*
X185758333Y-110277380D02*
X185948809Y-110277380D01*
X186044047Y-110325000D01*
X186139285Y-110420238D01*
X186186904Y-110610714D01*
X186186904Y-110944047D01*
X186139285Y-111134523D01*
X186044047Y-111229761D01*
X185948809Y-111277380D01*
X185758333Y-111277380D01*
X185663095Y-111229761D01*
X185567857Y-111134523D01*
X185520238Y-110944047D01*
X185520238Y-110610714D01*
X185567857Y-110420238D01*
X185663095Y-110325000D01*
X185758333Y-110277380D01*
X186472619Y-110277380D02*
X186805952Y-111277380D01*
X187139285Y-110277380D01*
X187472619Y-110753571D02*
X187805952Y-110753571D01*
X187948809Y-111277380D02*
X187472619Y-111277380D01*
X187472619Y-110277380D01*
X187948809Y-110277380D01*
X176710714Y-101110714D02*
X175948809Y-101396428D01*
X176710714Y-101682142D01*
X177186904Y-101396428D02*
X177948809Y-101396428D01*
X178425000Y-101396428D02*
X179186904Y-101396428D01*
X180282142Y-100777380D02*
X180615476Y-101777380D01*
X180948809Y-100777380D01*
X181282142Y-101396428D02*
X182044047Y-101396428D01*
X183044047Y-100825000D02*
X182948809Y-100777380D01*
X182805952Y-100777380D01*
X182663095Y-100825000D01*
X182567857Y-100920238D01*
X182520238Y-101015476D01*
X182472619Y-101205952D01*
X182472619Y-101348809D01*
X182520238Y-101539285D01*
X182567857Y-101634523D01*
X182663095Y-101729761D01*
X182805952Y-101777380D01*
X182901190Y-101777380D01*
X183044047Y-101729761D01*
X183091666Y-101682142D01*
X183091666Y-101348809D01*
X182901190Y-101348809D01*
X184091666Y-101777380D02*
X183758333Y-101301190D01*
X183520238Y-101777380D02*
X183520238Y-100777380D01*
X183901190Y-100777380D01*
X183996428Y-100825000D01*
X184044047Y-100872619D01*
X184091666Y-100967857D01*
X184091666Y-101110714D01*
X184044047Y-101205952D01*
X183996428Y-101253571D01*
X183901190Y-101301190D01*
X183520238Y-101301190D01*
X184710714Y-100777380D02*
X184901190Y-100777380D01*
X184996428Y-100825000D01*
X185091666Y-100920238D01*
X185139285Y-101110714D01*
X185139285Y-101444047D01*
X185091666Y-101634523D01*
X184996428Y-101729761D01*
X184901190Y-101777380D01*
X184710714Y-101777380D01*
X184615476Y-101729761D01*
X184520238Y-101634523D01*
X184472619Y-101444047D01*
X184472619Y-101110714D01*
X184520238Y-100920238D01*
X184615476Y-100825000D01*
X184710714Y-100777380D01*
X185758333Y-100777380D02*
X185948809Y-100777380D01*
X186044047Y-100825000D01*
X186139285Y-100920238D01*
X186186904Y-101110714D01*
X186186904Y-101444047D01*
X186139285Y-101634523D01*
X186044047Y-101729761D01*
X185948809Y-101777380D01*
X185758333Y-101777380D01*
X185663095Y-101729761D01*
X185567857Y-101634523D01*
X185520238Y-101444047D01*
X185520238Y-101110714D01*
X185567857Y-100920238D01*
X185663095Y-100825000D01*
X185758333Y-100777380D01*
X186472619Y-100777380D02*
X186805952Y-101777380D01*
X187139285Y-100777380D01*
X187472619Y-101253571D02*
X187805952Y-101253571D01*
X187948809Y-101777380D02*
X187472619Y-101777380D01*
X187472619Y-100777380D01*
X187948809Y-100777380D01*
X176710714Y-120110714D02*
X175948809Y-120396428D01*
X176710714Y-120682142D01*
X177186904Y-120396428D02*
X177948809Y-120396428D01*
X178425000Y-120396428D02*
X179186904Y-120396428D01*
X180282142Y-119777380D02*
X180615476Y-120777380D01*
X180948809Y-119777380D01*
X181282142Y-120396428D02*
X182044047Y-120396428D01*
X183044047Y-119825000D02*
X182948809Y-119777380D01*
X182805952Y-119777380D01*
X182663095Y-119825000D01*
X182567857Y-119920238D01*
X182520238Y-120015476D01*
X182472619Y-120205952D01*
X182472619Y-120348809D01*
X182520238Y-120539285D01*
X182567857Y-120634523D01*
X182663095Y-120729761D01*
X182805952Y-120777380D01*
X182901190Y-120777380D01*
X183044047Y-120729761D01*
X183091666Y-120682142D01*
X183091666Y-120348809D01*
X182901190Y-120348809D01*
X184091666Y-120777380D02*
X183758333Y-120301190D01*
X183520238Y-120777380D02*
X183520238Y-119777380D01*
X183901190Y-119777380D01*
X183996428Y-119825000D01*
X184044047Y-119872619D01*
X184091666Y-119967857D01*
X184091666Y-120110714D01*
X184044047Y-120205952D01*
X183996428Y-120253571D01*
X183901190Y-120301190D01*
X183520238Y-120301190D01*
X184710714Y-119777380D02*
X184901190Y-119777380D01*
X184996428Y-119825000D01*
X185091666Y-119920238D01*
X185139285Y-120110714D01*
X185139285Y-120444047D01*
X185091666Y-120634523D01*
X184996428Y-120729761D01*
X184901190Y-120777380D01*
X184710714Y-120777380D01*
X184615476Y-120729761D01*
X184520238Y-120634523D01*
X184472619Y-120444047D01*
X184472619Y-120110714D01*
X184520238Y-119920238D01*
X184615476Y-119825000D01*
X184710714Y-119777380D01*
X185758333Y-119777380D02*
X185948809Y-119777380D01*
X186044047Y-119825000D01*
X186139285Y-119920238D01*
X186186904Y-120110714D01*
X186186904Y-120444047D01*
X186139285Y-120634523D01*
X186044047Y-120729761D01*
X185948809Y-120777380D01*
X185758333Y-120777380D01*
X185663095Y-120729761D01*
X185567857Y-120634523D01*
X185520238Y-120444047D01*
X185520238Y-120110714D01*
X185567857Y-119920238D01*
X185663095Y-119825000D01*
X185758333Y-119777380D01*
X186472619Y-119777380D02*
X186805952Y-120777380D01*
X187139285Y-119777380D01*
X187472619Y-120253571D02*
X187805952Y-120253571D01*
X187948809Y-120777380D02*
X187472619Y-120777380D01*
X187472619Y-119777380D01*
X187948809Y-119777380D01*
X176710714Y-129610714D02*
X175948809Y-129896428D01*
X176710714Y-130182142D01*
X177186904Y-129896428D02*
X177948809Y-129896428D01*
X178425000Y-129896428D02*
X179186904Y-129896428D01*
X180282142Y-129277380D02*
X180615476Y-130277380D01*
X180948809Y-129277380D01*
X181282142Y-129896428D02*
X182044047Y-129896428D01*
X183044047Y-129325000D02*
X182948809Y-129277380D01*
X182805952Y-129277380D01*
X182663095Y-129325000D01*
X182567857Y-129420238D01*
X182520238Y-129515476D01*
X182472619Y-129705952D01*
X182472619Y-129848809D01*
X182520238Y-130039285D01*
X182567857Y-130134523D01*
X182663095Y-130229761D01*
X182805952Y-130277380D01*
X182901190Y-130277380D01*
X183044047Y-130229761D01*
X183091666Y-130182142D01*
X183091666Y-129848809D01*
X182901190Y-129848809D01*
X184091666Y-130277380D02*
X183758333Y-129801190D01*
X183520238Y-130277380D02*
X183520238Y-129277380D01*
X183901190Y-129277380D01*
X183996428Y-129325000D01*
X184044047Y-129372619D01*
X184091666Y-129467857D01*
X184091666Y-129610714D01*
X184044047Y-129705952D01*
X183996428Y-129753571D01*
X183901190Y-129801190D01*
X183520238Y-129801190D01*
X184710714Y-129277380D02*
X184901190Y-129277380D01*
X184996428Y-129325000D01*
X185091666Y-129420238D01*
X185139285Y-129610714D01*
X185139285Y-129944047D01*
X185091666Y-130134523D01*
X184996428Y-130229761D01*
X184901190Y-130277380D01*
X184710714Y-130277380D01*
X184615476Y-130229761D01*
X184520238Y-130134523D01*
X184472619Y-129944047D01*
X184472619Y-129610714D01*
X184520238Y-129420238D01*
X184615476Y-129325000D01*
X184710714Y-129277380D01*
X185758333Y-129277380D02*
X185948809Y-129277380D01*
X186044047Y-129325000D01*
X186139285Y-129420238D01*
X186186904Y-129610714D01*
X186186904Y-129944047D01*
X186139285Y-130134523D01*
X186044047Y-130229761D01*
X185948809Y-130277380D01*
X185758333Y-130277380D01*
X185663095Y-130229761D01*
X185567857Y-130134523D01*
X185520238Y-129944047D01*
X185520238Y-129610714D01*
X185567857Y-129420238D01*
X185663095Y-129325000D01*
X185758333Y-129277380D01*
X186472619Y-129277380D02*
X186805952Y-130277380D01*
X187139285Y-129277380D01*
X187472619Y-129753571D02*
X187805952Y-129753571D01*
X187948809Y-130277380D02*
X187472619Y-130277380D01*
X187472619Y-129277380D01*
X187948809Y-129277380D01*
X176710714Y-91610714D02*
X175948809Y-91896428D01*
X176710714Y-92182142D01*
X177186904Y-91896428D02*
X177948809Y-91896428D01*
X178425000Y-91896428D02*
X179186904Y-91896428D01*
X180282142Y-91277380D02*
X180615476Y-92277380D01*
X180948809Y-91277380D01*
X181282142Y-91896428D02*
X182044047Y-91896428D01*
X183044047Y-91325000D02*
X182948809Y-91277380D01*
X182805952Y-91277380D01*
X182663095Y-91325000D01*
X182567857Y-91420238D01*
X182520238Y-91515476D01*
X182472619Y-91705952D01*
X182472619Y-91848809D01*
X182520238Y-92039285D01*
X182567857Y-92134523D01*
X182663095Y-92229761D01*
X182805952Y-92277380D01*
X182901190Y-92277380D01*
X183044047Y-92229761D01*
X183091666Y-92182142D01*
X183091666Y-91848809D01*
X182901190Y-91848809D01*
X184091666Y-92277380D02*
X183758333Y-91801190D01*
X183520238Y-92277380D02*
X183520238Y-91277380D01*
X183901190Y-91277380D01*
X183996428Y-91325000D01*
X184044047Y-91372619D01*
X184091666Y-91467857D01*
X184091666Y-91610714D01*
X184044047Y-91705952D01*
X183996428Y-91753571D01*
X183901190Y-91801190D01*
X183520238Y-91801190D01*
X184710714Y-91277380D02*
X184901190Y-91277380D01*
X184996428Y-91325000D01*
X185091666Y-91420238D01*
X185139285Y-91610714D01*
X185139285Y-91944047D01*
X185091666Y-92134523D01*
X184996428Y-92229761D01*
X184901190Y-92277380D01*
X184710714Y-92277380D01*
X184615476Y-92229761D01*
X184520238Y-92134523D01*
X184472619Y-91944047D01*
X184472619Y-91610714D01*
X184520238Y-91420238D01*
X184615476Y-91325000D01*
X184710714Y-91277380D01*
X185758333Y-91277380D02*
X185948809Y-91277380D01*
X186044047Y-91325000D01*
X186139285Y-91420238D01*
X186186904Y-91610714D01*
X186186904Y-91944047D01*
X186139285Y-92134523D01*
X186044047Y-92229761D01*
X185948809Y-92277380D01*
X185758333Y-92277380D01*
X185663095Y-92229761D01*
X185567857Y-92134523D01*
X185520238Y-91944047D01*
X185520238Y-91610714D01*
X185567857Y-91420238D01*
X185663095Y-91325000D01*
X185758333Y-91277380D01*
X186472619Y-91277380D02*
X186805952Y-92277380D01*
X187139285Y-91277380D01*
X187472619Y-91753571D02*
X187805952Y-91753571D01*
X187948809Y-92277380D02*
X187472619Y-92277380D01*
X187472619Y-91277380D01*
X187948809Y-91277380D01*
X176710714Y-82110714D02*
X175948809Y-82396428D01*
X176710714Y-82682142D01*
X177186904Y-82396428D02*
X177948809Y-82396428D01*
X178425000Y-82396428D02*
X179186904Y-82396428D01*
X180282142Y-81777380D02*
X180615476Y-82777380D01*
X180948809Y-81777380D01*
X181282142Y-82396428D02*
X182044047Y-82396428D01*
X183044047Y-81825000D02*
X182948809Y-81777380D01*
X182805952Y-81777380D01*
X182663095Y-81825000D01*
X182567857Y-81920238D01*
X182520238Y-82015476D01*
X182472619Y-82205952D01*
X182472619Y-82348809D01*
X182520238Y-82539285D01*
X182567857Y-82634523D01*
X182663095Y-82729761D01*
X182805952Y-82777380D01*
X182901190Y-82777380D01*
X183044047Y-82729761D01*
X183091666Y-82682142D01*
X183091666Y-82348809D01*
X182901190Y-82348809D01*
X184091666Y-82777380D02*
X183758333Y-82301190D01*
X183520238Y-82777380D02*
X183520238Y-81777380D01*
X183901190Y-81777380D01*
X183996428Y-81825000D01*
X184044047Y-81872619D01*
X184091666Y-81967857D01*
X184091666Y-82110714D01*
X184044047Y-82205952D01*
X183996428Y-82253571D01*
X183901190Y-82301190D01*
X183520238Y-82301190D01*
X184710714Y-81777380D02*
X184901190Y-81777380D01*
X184996428Y-81825000D01*
X185091666Y-81920238D01*
X185139285Y-82110714D01*
X185139285Y-82444047D01*
X185091666Y-82634523D01*
X184996428Y-82729761D01*
X184901190Y-82777380D01*
X184710714Y-82777380D01*
X184615476Y-82729761D01*
X184520238Y-82634523D01*
X184472619Y-82444047D01*
X184472619Y-82110714D01*
X184520238Y-81920238D01*
X184615476Y-81825000D01*
X184710714Y-81777380D01*
X185758333Y-81777380D02*
X185948809Y-81777380D01*
X186044047Y-81825000D01*
X186139285Y-81920238D01*
X186186904Y-82110714D01*
X186186904Y-82444047D01*
X186139285Y-82634523D01*
X186044047Y-82729761D01*
X185948809Y-82777380D01*
X185758333Y-82777380D01*
X185663095Y-82729761D01*
X185567857Y-82634523D01*
X185520238Y-82444047D01*
X185520238Y-82110714D01*
X185567857Y-81920238D01*
X185663095Y-81825000D01*
X185758333Y-81777380D01*
X186472619Y-81777380D02*
X186805952Y-82777380D01*
X187139285Y-81777380D01*
X187472619Y-82253571D02*
X187805952Y-82253571D01*
X187948809Y-82777380D02*
X187472619Y-82777380D01*
X187472619Y-81777380D01*
X187948809Y-81777380D01*
X176710714Y-72610714D02*
X175948809Y-72896428D01*
X176710714Y-73182142D01*
X177186904Y-72896428D02*
X177948809Y-72896428D01*
X178425000Y-72896428D02*
X179186904Y-72896428D01*
X180282142Y-72277380D02*
X180615476Y-73277380D01*
X180948809Y-72277380D01*
X181282142Y-72896428D02*
X182044047Y-72896428D01*
X183044047Y-72325000D02*
X182948809Y-72277380D01*
X182805952Y-72277380D01*
X182663095Y-72325000D01*
X182567857Y-72420238D01*
X182520238Y-72515476D01*
X182472619Y-72705952D01*
X182472619Y-72848809D01*
X182520238Y-73039285D01*
X182567857Y-73134523D01*
X182663095Y-73229761D01*
X182805952Y-73277380D01*
X182901190Y-73277380D01*
X183044047Y-73229761D01*
X183091666Y-73182142D01*
X183091666Y-72848809D01*
X182901190Y-72848809D01*
X184091666Y-73277380D02*
X183758333Y-72801190D01*
X183520238Y-73277380D02*
X183520238Y-72277380D01*
X183901190Y-72277380D01*
X183996428Y-72325000D01*
X184044047Y-72372619D01*
X184091666Y-72467857D01*
X184091666Y-72610714D01*
X184044047Y-72705952D01*
X183996428Y-72753571D01*
X183901190Y-72801190D01*
X183520238Y-72801190D01*
X184710714Y-72277380D02*
X184901190Y-72277380D01*
X184996428Y-72325000D01*
X185091666Y-72420238D01*
X185139285Y-72610714D01*
X185139285Y-72944047D01*
X185091666Y-73134523D01*
X184996428Y-73229761D01*
X184901190Y-73277380D01*
X184710714Y-73277380D01*
X184615476Y-73229761D01*
X184520238Y-73134523D01*
X184472619Y-72944047D01*
X184472619Y-72610714D01*
X184520238Y-72420238D01*
X184615476Y-72325000D01*
X184710714Y-72277380D01*
X185758333Y-72277380D02*
X185948809Y-72277380D01*
X186044047Y-72325000D01*
X186139285Y-72420238D01*
X186186904Y-72610714D01*
X186186904Y-72944047D01*
X186139285Y-73134523D01*
X186044047Y-73229761D01*
X185948809Y-73277380D01*
X185758333Y-73277380D01*
X185663095Y-73229761D01*
X185567857Y-73134523D01*
X185520238Y-72944047D01*
X185520238Y-72610714D01*
X185567857Y-72420238D01*
X185663095Y-72325000D01*
X185758333Y-72277380D01*
X186472619Y-72277380D02*
X186805952Y-73277380D01*
X187139285Y-72277380D01*
X187472619Y-72753571D02*
X187805952Y-72753571D01*
X187948809Y-73277380D02*
X187472619Y-73277380D01*
X187472619Y-72277380D01*
X187948809Y-72277380D01*
X176710714Y-63110714D02*
X175948809Y-63396428D01*
X176710714Y-63682142D01*
X177186904Y-63396428D02*
X177948809Y-63396428D01*
X178425000Y-63396428D02*
X179186904Y-63396428D01*
X180282142Y-62777380D02*
X180615476Y-63777380D01*
X180948809Y-62777380D01*
X181282142Y-63396428D02*
X182044047Y-63396428D01*
X183044047Y-62825000D02*
X182948809Y-62777380D01*
X182805952Y-62777380D01*
X182663095Y-62825000D01*
X182567857Y-62920238D01*
X182520238Y-63015476D01*
X182472619Y-63205952D01*
X182472619Y-63348809D01*
X182520238Y-63539285D01*
X182567857Y-63634523D01*
X182663095Y-63729761D01*
X182805952Y-63777380D01*
X182901190Y-63777380D01*
X183044047Y-63729761D01*
X183091666Y-63682142D01*
X183091666Y-63348809D01*
X182901190Y-63348809D01*
X184091666Y-63777380D02*
X183758333Y-63301190D01*
X183520238Y-63777380D02*
X183520238Y-62777380D01*
X183901190Y-62777380D01*
X183996428Y-62825000D01*
X184044047Y-62872619D01*
X184091666Y-62967857D01*
X184091666Y-63110714D01*
X184044047Y-63205952D01*
X183996428Y-63253571D01*
X183901190Y-63301190D01*
X183520238Y-63301190D01*
X184710714Y-62777380D02*
X184901190Y-62777380D01*
X184996428Y-62825000D01*
X185091666Y-62920238D01*
X185139285Y-63110714D01*
X185139285Y-63444047D01*
X185091666Y-63634523D01*
X184996428Y-63729761D01*
X184901190Y-63777380D01*
X184710714Y-63777380D01*
X184615476Y-63729761D01*
X184520238Y-63634523D01*
X184472619Y-63444047D01*
X184472619Y-63110714D01*
X184520238Y-62920238D01*
X184615476Y-62825000D01*
X184710714Y-62777380D01*
X185758333Y-62777380D02*
X185948809Y-62777380D01*
X186044047Y-62825000D01*
X186139285Y-62920238D01*
X186186904Y-63110714D01*
X186186904Y-63444047D01*
X186139285Y-63634523D01*
X186044047Y-63729761D01*
X185948809Y-63777380D01*
X185758333Y-63777380D01*
X185663095Y-63729761D01*
X185567857Y-63634523D01*
X185520238Y-63444047D01*
X185520238Y-63110714D01*
X185567857Y-62920238D01*
X185663095Y-62825000D01*
X185758333Y-62777380D01*
X186472619Y-62777380D02*
X186805952Y-63777380D01*
X187139285Y-62777380D01*
X187472619Y-63253571D02*
X187805952Y-63253571D01*
X187948809Y-63777380D02*
X187472619Y-63777380D01*
X187472619Y-62777380D01*
X187948809Y-62777380D01*
M02*
