G04 #@! TF.GenerationSoftware,KiCad,Pcbnew,(5.1.0)-1*
G04 #@! TF.CreationDate,2020-07-15T16:06:42-04:00*
G04 #@! TF.ProjectId,Breakout Panelized,42726561-6b6f-4757-9420-50616e656c69,rev?*
G04 #@! TF.SameCoordinates,Original*
G04 #@! TF.FileFunction,Legend,Top*
G04 #@! TF.FilePolarity,Positive*
%FSLAX46Y46*%
G04 Gerber Fmt 4.6, Leading zero omitted, Abs format (unit mm)*
G04 Created by KiCad (PCBNEW (5.1.0)-1) date 2020-07-15 16:06:42*
%MOMM*%
%LPD*%
G04 APERTURE LIST*
%ADD10C,0.150000*%
G04 APERTURE END LIST*
D10*
X145275000Y-58867857D02*
X145303571Y-58810714D01*
X145303571Y-58725000D01*
X145275000Y-58639285D01*
X145217857Y-58582142D01*
X145160714Y-58553571D01*
X145046428Y-58525000D01*
X144960714Y-58525000D01*
X144846428Y-58553571D01*
X144789285Y-58582142D01*
X144732142Y-58639285D01*
X144703571Y-58725000D01*
X144703571Y-58782142D01*
X144732142Y-58867857D01*
X144760714Y-58896428D01*
X144960714Y-58896428D01*
X144960714Y-58782142D01*
X144703571Y-59153571D02*
X145303571Y-59153571D01*
X144703571Y-59496428D01*
X145303571Y-59496428D01*
X144703571Y-59782142D02*
X145303571Y-59782142D01*
X145303571Y-59925000D01*
X145275000Y-60010714D01*
X145217857Y-60067857D01*
X145160714Y-60096428D01*
X145046428Y-60125000D01*
X144960714Y-60125000D01*
X144846428Y-60096428D01*
X144789285Y-60067857D01*
X144732142Y-60010714D01*
X144703571Y-59925000D01*
X144703571Y-59782142D01*
X117332142Y-58375000D02*
X117389285Y-58403571D01*
X117475000Y-58403571D01*
X117560714Y-58375000D01*
X117617857Y-58317857D01*
X117646428Y-58260714D01*
X117675000Y-58146428D01*
X117675000Y-58060714D01*
X117646428Y-57946428D01*
X117617857Y-57889285D01*
X117560714Y-57832142D01*
X117475000Y-57803571D01*
X117417857Y-57803571D01*
X117332142Y-57832142D01*
X117303571Y-57860714D01*
X117303571Y-58060714D01*
X117417857Y-58060714D01*
X117046428Y-57803571D02*
X117046428Y-58403571D01*
X116703571Y-57803571D01*
X116703571Y-58403571D01*
X116417857Y-57803571D02*
X116417857Y-58403571D01*
X116275000Y-58403571D01*
X116189285Y-58375000D01*
X116132142Y-58317857D01*
X116103571Y-58260714D01*
X116075000Y-58146428D01*
X116075000Y-58060714D01*
X116103571Y-57946428D01*
X116132142Y-57889285D01*
X116189285Y-57832142D01*
X116275000Y-57803571D01*
X116417857Y-57803571D01*
X99065476Y-57722619D02*
X99398809Y-58198809D01*
X99636904Y-57722619D02*
X99636904Y-58722619D01*
X99255952Y-58722619D01*
X99160714Y-58675000D01*
X99113095Y-58627380D01*
X99065476Y-58532142D01*
X99065476Y-58389285D01*
X99113095Y-58294047D01*
X99160714Y-58246428D01*
X99255952Y-58198809D01*
X99636904Y-58198809D01*
X96589285Y-58675000D02*
X96684523Y-58722619D01*
X96827380Y-58722619D01*
X96970238Y-58675000D01*
X97065476Y-58579761D01*
X97113095Y-58484523D01*
X97160714Y-58294047D01*
X97160714Y-58151190D01*
X97113095Y-57960714D01*
X97065476Y-57865476D01*
X96970238Y-57770238D01*
X96827380Y-57722619D01*
X96732142Y-57722619D01*
X96589285Y-57770238D01*
X96541666Y-57817857D01*
X96541666Y-58151190D01*
X96732142Y-58151190D01*
X94255952Y-58246428D02*
X94113095Y-58198809D01*
X94065476Y-58151190D01*
X94017857Y-58055952D01*
X94017857Y-57913095D01*
X94065476Y-57817857D01*
X94113095Y-57770238D01*
X94208333Y-57722619D01*
X94589285Y-57722619D01*
X94589285Y-58722619D01*
X94255952Y-58722619D01*
X94160714Y-58675000D01*
X94113095Y-58627380D01*
X94065476Y-58532142D01*
X94065476Y-58436904D01*
X94113095Y-58341666D01*
X94160714Y-58294047D01*
X94255952Y-58246428D01*
X94589285Y-58246428D01*
X92065476Y-57722619D02*
X92065476Y-58722619D01*
X92065476Y-58246428D02*
X91494047Y-58246428D01*
X91494047Y-57722619D02*
X91494047Y-58722619D01*
X89636904Y-58722619D02*
X89303571Y-57722619D01*
X88970238Y-58722619D01*
X115275000Y-58867857D02*
X115303571Y-58810714D01*
X115303571Y-58725000D01*
X115275000Y-58639285D01*
X115217857Y-58582142D01*
X115160714Y-58553571D01*
X115046428Y-58525000D01*
X114960714Y-58525000D01*
X114846428Y-58553571D01*
X114789285Y-58582142D01*
X114732142Y-58639285D01*
X114703571Y-58725000D01*
X114703571Y-58782142D01*
X114732142Y-58867857D01*
X114760714Y-58896428D01*
X114960714Y-58896428D01*
X114960714Y-58782142D01*
X114703571Y-59153571D02*
X115303571Y-59153571D01*
X114703571Y-59496428D01*
X115303571Y-59496428D01*
X114703571Y-59782142D02*
X115303571Y-59782142D01*
X115303571Y-59925000D01*
X115275000Y-60010714D01*
X115217857Y-60067857D01*
X115160714Y-60096428D01*
X115046428Y-60125000D01*
X114960714Y-60125000D01*
X114846428Y-60096428D01*
X114789285Y-60067857D01*
X114732142Y-60010714D01*
X114703571Y-59925000D01*
X114703571Y-59782142D01*
X147332142Y-58375000D02*
X147389285Y-58403571D01*
X147475000Y-58403571D01*
X147560714Y-58375000D01*
X147617857Y-58317857D01*
X147646428Y-58260714D01*
X147675000Y-58146428D01*
X147675000Y-58060714D01*
X147646428Y-57946428D01*
X147617857Y-57889285D01*
X147560714Y-57832142D01*
X147475000Y-57803571D01*
X147417857Y-57803571D01*
X147332142Y-57832142D01*
X147303571Y-57860714D01*
X147303571Y-58060714D01*
X147417857Y-58060714D01*
X147046428Y-57803571D02*
X147046428Y-58403571D01*
X146703571Y-57803571D01*
X146703571Y-58403571D01*
X146417857Y-57803571D02*
X146417857Y-58403571D01*
X146275000Y-58403571D01*
X146189285Y-58375000D01*
X146132142Y-58317857D01*
X146103571Y-58260714D01*
X146075000Y-58146428D01*
X146075000Y-58060714D01*
X146103571Y-57946428D01*
X146132142Y-57889285D01*
X146189285Y-57832142D01*
X146275000Y-57803571D01*
X146417857Y-57803571D01*
X87332142Y-67875000D02*
X87389285Y-67903571D01*
X87475000Y-67903571D01*
X87560714Y-67875000D01*
X87617857Y-67817857D01*
X87646428Y-67760714D01*
X87675000Y-67646428D01*
X87675000Y-67560714D01*
X87646428Y-67446428D01*
X87617857Y-67389285D01*
X87560714Y-67332142D01*
X87475000Y-67303571D01*
X87417857Y-67303571D01*
X87332142Y-67332142D01*
X87303571Y-67360714D01*
X87303571Y-67560714D01*
X87417857Y-67560714D01*
X87046428Y-67303571D02*
X87046428Y-67903571D01*
X86703571Y-67303571D01*
X86703571Y-67903571D01*
X86417857Y-67303571D02*
X86417857Y-67903571D01*
X86275000Y-67903571D01*
X86189285Y-67875000D01*
X86132142Y-67817857D01*
X86103571Y-67760714D01*
X86075000Y-67646428D01*
X86075000Y-67560714D01*
X86103571Y-67446428D01*
X86132142Y-67389285D01*
X86189285Y-67332142D01*
X86275000Y-67303571D01*
X86417857Y-67303571D01*
X115275000Y-68367857D02*
X115303571Y-68310714D01*
X115303571Y-68225000D01*
X115275000Y-68139285D01*
X115217857Y-68082142D01*
X115160714Y-68053571D01*
X115046428Y-68025000D01*
X114960714Y-68025000D01*
X114846428Y-68053571D01*
X114789285Y-68082142D01*
X114732142Y-68139285D01*
X114703571Y-68225000D01*
X114703571Y-68282142D01*
X114732142Y-68367857D01*
X114760714Y-68396428D01*
X114960714Y-68396428D01*
X114960714Y-68282142D01*
X114703571Y-68653571D02*
X115303571Y-68653571D01*
X114703571Y-68996428D01*
X115303571Y-68996428D01*
X114703571Y-69282142D02*
X115303571Y-69282142D01*
X115303571Y-69425000D01*
X115275000Y-69510714D01*
X115217857Y-69567857D01*
X115160714Y-69596428D01*
X115046428Y-69625000D01*
X114960714Y-69625000D01*
X114846428Y-69596428D01*
X114789285Y-69567857D01*
X114732142Y-69510714D01*
X114703571Y-69425000D01*
X114703571Y-69282142D01*
X162832142Y-69125000D02*
X162889285Y-69153571D01*
X162975000Y-69153571D01*
X163060714Y-69125000D01*
X163117857Y-69067857D01*
X163146428Y-69010714D01*
X163175000Y-68896428D01*
X163175000Y-68810714D01*
X163146428Y-68696428D01*
X163117857Y-68639285D01*
X163060714Y-68582142D01*
X162975000Y-68553571D01*
X162917857Y-68553571D01*
X162832142Y-68582142D01*
X162803571Y-68610714D01*
X162803571Y-68810714D01*
X162917857Y-68810714D01*
X162546428Y-68553571D02*
X162546428Y-69153571D01*
X162203571Y-68553571D01*
X162203571Y-69153571D01*
X161917857Y-68553571D02*
X161917857Y-69153571D01*
X161775000Y-69153571D01*
X161689285Y-69125000D01*
X161632142Y-69067857D01*
X161603571Y-69010714D01*
X161575000Y-68896428D01*
X161575000Y-68810714D01*
X161603571Y-68696428D01*
X161632142Y-68639285D01*
X161689285Y-68582142D01*
X161775000Y-68553571D01*
X161917857Y-68553571D01*
X132832142Y-69125000D02*
X132889285Y-69153571D01*
X132975000Y-69153571D01*
X133060714Y-69125000D01*
X133117857Y-69067857D01*
X133146428Y-69010714D01*
X133175000Y-68896428D01*
X133175000Y-68810714D01*
X133146428Y-68696428D01*
X133117857Y-68639285D01*
X133060714Y-68582142D01*
X132975000Y-68553571D01*
X132917857Y-68553571D01*
X132832142Y-68582142D01*
X132803571Y-68610714D01*
X132803571Y-68810714D01*
X132917857Y-68810714D01*
X132546428Y-68553571D02*
X132546428Y-69153571D01*
X132203571Y-68553571D01*
X132203571Y-69153571D01*
X131917857Y-68553571D02*
X131917857Y-69153571D01*
X131775000Y-69153571D01*
X131689285Y-69125000D01*
X131632142Y-69067857D01*
X131603571Y-69010714D01*
X131575000Y-68896428D01*
X131575000Y-68810714D01*
X131603571Y-68696428D01*
X131632142Y-68639285D01*
X131689285Y-68582142D01*
X131775000Y-68553571D01*
X131917857Y-68553571D01*
X145275000Y-68367857D02*
X145303571Y-68310714D01*
X145303571Y-68225000D01*
X145275000Y-68139285D01*
X145217857Y-68082142D01*
X145160714Y-68053571D01*
X145046428Y-68025000D01*
X144960714Y-68025000D01*
X144846428Y-68053571D01*
X144789285Y-68082142D01*
X144732142Y-68139285D01*
X144703571Y-68225000D01*
X144703571Y-68282142D01*
X144732142Y-68367857D01*
X144760714Y-68396428D01*
X144960714Y-68396428D01*
X144960714Y-68282142D01*
X144703571Y-68653571D02*
X145303571Y-68653571D01*
X144703571Y-68996428D01*
X145303571Y-68996428D01*
X144703571Y-69282142D02*
X145303571Y-69282142D01*
X145303571Y-69425000D01*
X145275000Y-69510714D01*
X145217857Y-69567857D01*
X145160714Y-69596428D01*
X145046428Y-69625000D01*
X144960714Y-69625000D01*
X144846428Y-69596428D01*
X144789285Y-69567857D01*
X144732142Y-69510714D01*
X144703571Y-69425000D01*
X144703571Y-69282142D01*
X147332142Y-67875000D02*
X147389285Y-67903571D01*
X147475000Y-67903571D01*
X147560714Y-67875000D01*
X147617857Y-67817857D01*
X147646428Y-67760714D01*
X147675000Y-67646428D01*
X147675000Y-67560714D01*
X147646428Y-67446428D01*
X147617857Y-67389285D01*
X147560714Y-67332142D01*
X147475000Y-67303571D01*
X147417857Y-67303571D01*
X147332142Y-67332142D01*
X147303571Y-67360714D01*
X147303571Y-67560714D01*
X147417857Y-67560714D01*
X147046428Y-67303571D02*
X147046428Y-67903571D01*
X146703571Y-67303571D01*
X146703571Y-67903571D01*
X146417857Y-67303571D02*
X146417857Y-67903571D01*
X146275000Y-67903571D01*
X146189285Y-67875000D01*
X146132142Y-67817857D01*
X146103571Y-67760714D01*
X146075000Y-67646428D01*
X146075000Y-67560714D01*
X146103571Y-67446428D01*
X146132142Y-67389285D01*
X146189285Y-67332142D01*
X146275000Y-67303571D01*
X146417857Y-67303571D01*
X129065476Y-57722619D02*
X129398809Y-58198809D01*
X129636904Y-57722619D02*
X129636904Y-58722619D01*
X129255952Y-58722619D01*
X129160714Y-58675000D01*
X129113095Y-58627380D01*
X129065476Y-58532142D01*
X129065476Y-58389285D01*
X129113095Y-58294047D01*
X129160714Y-58246428D01*
X129255952Y-58198809D01*
X129636904Y-58198809D01*
X126589285Y-58675000D02*
X126684523Y-58722619D01*
X126827380Y-58722619D01*
X126970238Y-58675000D01*
X127065476Y-58579761D01*
X127113095Y-58484523D01*
X127160714Y-58294047D01*
X127160714Y-58151190D01*
X127113095Y-57960714D01*
X127065476Y-57865476D01*
X126970238Y-57770238D01*
X126827380Y-57722619D01*
X126732142Y-57722619D01*
X126589285Y-57770238D01*
X126541666Y-57817857D01*
X126541666Y-58151190D01*
X126732142Y-58151190D01*
X124255952Y-58246428D02*
X124113095Y-58198809D01*
X124065476Y-58151190D01*
X124017857Y-58055952D01*
X124017857Y-57913095D01*
X124065476Y-57817857D01*
X124113095Y-57770238D01*
X124208333Y-57722619D01*
X124589285Y-57722619D01*
X124589285Y-58722619D01*
X124255952Y-58722619D01*
X124160714Y-58675000D01*
X124113095Y-58627380D01*
X124065476Y-58532142D01*
X124065476Y-58436904D01*
X124113095Y-58341666D01*
X124160714Y-58294047D01*
X124255952Y-58246428D01*
X124589285Y-58246428D01*
X122065476Y-57722619D02*
X122065476Y-58722619D01*
X122065476Y-58246428D02*
X121494047Y-58246428D01*
X121494047Y-57722619D02*
X121494047Y-58722619D01*
X119636904Y-58722619D02*
X119303571Y-57722619D01*
X118970238Y-58722619D01*
X102832142Y-59625000D02*
X102889285Y-59653571D01*
X102975000Y-59653571D01*
X103060714Y-59625000D01*
X103117857Y-59567857D01*
X103146428Y-59510714D01*
X103175000Y-59396428D01*
X103175000Y-59310714D01*
X103146428Y-59196428D01*
X103117857Y-59139285D01*
X103060714Y-59082142D01*
X102975000Y-59053571D01*
X102917857Y-59053571D01*
X102832142Y-59082142D01*
X102803571Y-59110714D01*
X102803571Y-59310714D01*
X102917857Y-59310714D01*
X102546428Y-59053571D02*
X102546428Y-59653571D01*
X102203571Y-59053571D01*
X102203571Y-59653571D01*
X101917857Y-59053571D02*
X101917857Y-59653571D01*
X101775000Y-59653571D01*
X101689285Y-59625000D01*
X101632142Y-59567857D01*
X101603571Y-59510714D01*
X101575000Y-59396428D01*
X101575000Y-59310714D01*
X101603571Y-59196428D01*
X101632142Y-59139285D01*
X101689285Y-59082142D01*
X101775000Y-59053571D01*
X101917857Y-59053571D01*
X129065476Y-67222619D02*
X129398809Y-67698809D01*
X129636904Y-67222619D02*
X129636904Y-68222619D01*
X129255952Y-68222619D01*
X129160714Y-68175000D01*
X129113095Y-68127380D01*
X129065476Y-68032142D01*
X129065476Y-67889285D01*
X129113095Y-67794047D01*
X129160714Y-67746428D01*
X129255952Y-67698809D01*
X129636904Y-67698809D01*
X126589285Y-68175000D02*
X126684523Y-68222619D01*
X126827380Y-68222619D01*
X126970238Y-68175000D01*
X127065476Y-68079761D01*
X127113095Y-67984523D01*
X127160714Y-67794047D01*
X127160714Y-67651190D01*
X127113095Y-67460714D01*
X127065476Y-67365476D01*
X126970238Y-67270238D01*
X126827380Y-67222619D01*
X126732142Y-67222619D01*
X126589285Y-67270238D01*
X126541666Y-67317857D01*
X126541666Y-67651190D01*
X126732142Y-67651190D01*
X124255952Y-67746428D02*
X124113095Y-67698809D01*
X124065476Y-67651190D01*
X124017857Y-67555952D01*
X124017857Y-67413095D01*
X124065476Y-67317857D01*
X124113095Y-67270238D01*
X124208333Y-67222619D01*
X124589285Y-67222619D01*
X124589285Y-68222619D01*
X124255952Y-68222619D01*
X124160714Y-68175000D01*
X124113095Y-68127380D01*
X124065476Y-68032142D01*
X124065476Y-67936904D01*
X124113095Y-67841666D01*
X124160714Y-67794047D01*
X124255952Y-67746428D01*
X124589285Y-67746428D01*
X122065476Y-67222619D02*
X122065476Y-68222619D01*
X122065476Y-67746428D02*
X121494047Y-67746428D01*
X121494047Y-67222619D02*
X121494047Y-68222619D01*
X119636904Y-68222619D02*
X119303571Y-67222619D01*
X118970238Y-68222619D01*
X159065476Y-67222619D02*
X159398809Y-67698809D01*
X159636904Y-67222619D02*
X159636904Y-68222619D01*
X159255952Y-68222619D01*
X159160714Y-68175000D01*
X159113095Y-68127380D01*
X159065476Y-68032142D01*
X159065476Y-67889285D01*
X159113095Y-67794047D01*
X159160714Y-67746428D01*
X159255952Y-67698809D01*
X159636904Y-67698809D01*
X156589285Y-68175000D02*
X156684523Y-68222619D01*
X156827380Y-68222619D01*
X156970238Y-68175000D01*
X157065476Y-68079761D01*
X157113095Y-67984523D01*
X157160714Y-67794047D01*
X157160714Y-67651190D01*
X157113095Y-67460714D01*
X157065476Y-67365476D01*
X156970238Y-67270238D01*
X156827380Y-67222619D01*
X156732142Y-67222619D01*
X156589285Y-67270238D01*
X156541666Y-67317857D01*
X156541666Y-67651190D01*
X156732142Y-67651190D01*
X154255952Y-67746428D02*
X154113095Y-67698809D01*
X154065476Y-67651190D01*
X154017857Y-67555952D01*
X154017857Y-67413095D01*
X154065476Y-67317857D01*
X154113095Y-67270238D01*
X154208333Y-67222619D01*
X154589285Y-67222619D01*
X154589285Y-68222619D01*
X154255952Y-68222619D01*
X154160714Y-68175000D01*
X154113095Y-68127380D01*
X154065476Y-68032142D01*
X154065476Y-67936904D01*
X154113095Y-67841666D01*
X154160714Y-67794047D01*
X154255952Y-67746428D01*
X154589285Y-67746428D01*
X152065476Y-67222619D02*
X152065476Y-68222619D01*
X152065476Y-67746428D02*
X151494047Y-67746428D01*
X151494047Y-67222619D02*
X151494047Y-68222619D01*
X149636904Y-68222619D02*
X149303571Y-67222619D01*
X148970238Y-68222619D01*
X175275000Y-58867857D02*
X175303571Y-58810714D01*
X175303571Y-58725000D01*
X175275000Y-58639285D01*
X175217857Y-58582142D01*
X175160714Y-58553571D01*
X175046428Y-58525000D01*
X174960714Y-58525000D01*
X174846428Y-58553571D01*
X174789285Y-58582142D01*
X174732142Y-58639285D01*
X174703571Y-58725000D01*
X174703571Y-58782142D01*
X174732142Y-58867857D01*
X174760714Y-58896428D01*
X174960714Y-58896428D01*
X174960714Y-58782142D01*
X174703571Y-59153571D02*
X175303571Y-59153571D01*
X174703571Y-59496428D01*
X175303571Y-59496428D01*
X174703571Y-59782142D02*
X175303571Y-59782142D01*
X175303571Y-59925000D01*
X175275000Y-60010714D01*
X175217857Y-60067857D01*
X175160714Y-60096428D01*
X175046428Y-60125000D01*
X174960714Y-60125000D01*
X174846428Y-60096428D01*
X174789285Y-60067857D01*
X174732142Y-60010714D01*
X174703571Y-59925000D01*
X174703571Y-59782142D01*
X99065476Y-67222619D02*
X99398809Y-67698809D01*
X99636904Y-67222619D02*
X99636904Y-68222619D01*
X99255952Y-68222619D01*
X99160714Y-68175000D01*
X99113095Y-68127380D01*
X99065476Y-68032142D01*
X99065476Y-67889285D01*
X99113095Y-67794047D01*
X99160714Y-67746428D01*
X99255952Y-67698809D01*
X99636904Y-67698809D01*
X96589285Y-68175000D02*
X96684523Y-68222619D01*
X96827380Y-68222619D01*
X96970238Y-68175000D01*
X97065476Y-68079761D01*
X97113095Y-67984523D01*
X97160714Y-67794047D01*
X97160714Y-67651190D01*
X97113095Y-67460714D01*
X97065476Y-67365476D01*
X96970238Y-67270238D01*
X96827380Y-67222619D01*
X96732142Y-67222619D01*
X96589285Y-67270238D01*
X96541666Y-67317857D01*
X96541666Y-67651190D01*
X96732142Y-67651190D01*
X94255952Y-67746428D02*
X94113095Y-67698809D01*
X94065476Y-67651190D01*
X94017857Y-67555952D01*
X94017857Y-67413095D01*
X94065476Y-67317857D01*
X94113095Y-67270238D01*
X94208333Y-67222619D01*
X94589285Y-67222619D01*
X94589285Y-68222619D01*
X94255952Y-68222619D01*
X94160714Y-68175000D01*
X94113095Y-68127380D01*
X94065476Y-68032142D01*
X94065476Y-67936904D01*
X94113095Y-67841666D01*
X94160714Y-67794047D01*
X94255952Y-67746428D01*
X94589285Y-67746428D01*
X92065476Y-67222619D02*
X92065476Y-68222619D01*
X92065476Y-67746428D02*
X91494047Y-67746428D01*
X91494047Y-67222619D02*
X91494047Y-68222619D01*
X89636904Y-68222619D02*
X89303571Y-67222619D01*
X88970238Y-68222619D01*
X132832142Y-59625000D02*
X132889285Y-59653571D01*
X132975000Y-59653571D01*
X133060714Y-59625000D01*
X133117857Y-59567857D01*
X133146428Y-59510714D01*
X133175000Y-59396428D01*
X133175000Y-59310714D01*
X133146428Y-59196428D01*
X133117857Y-59139285D01*
X133060714Y-59082142D01*
X132975000Y-59053571D01*
X132917857Y-59053571D01*
X132832142Y-59082142D01*
X132803571Y-59110714D01*
X132803571Y-59310714D01*
X132917857Y-59310714D01*
X132546428Y-59053571D02*
X132546428Y-59653571D01*
X132203571Y-59053571D01*
X132203571Y-59653571D01*
X131917857Y-59053571D02*
X131917857Y-59653571D01*
X131775000Y-59653571D01*
X131689285Y-59625000D01*
X131632142Y-59567857D01*
X131603571Y-59510714D01*
X131575000Y-59396428D01*
X131575000Y-59310714D01*
X131603571Y-59196428D01*
X131632142Y-59139285D01*
X131689285Y-59082142D01*
X131775000Y-59053571D01*
X131917857Y-59053571D01*
X117332142Y-67875000D02*
X117389285Y-67903571D01*
X117475000Y-67903571D01*
X117560714Y-67875000D01*
X117617857Y-67817857D01*
X117646428Y-67760714D01*
X117675000Y-67646428D01*
X117675000Y-67560714D01*
X117646428Y-67446428D01*
X117617857Y-67389285D01*
X117560714Y-67332142D01*
X117475000Y-67303571D01*
X117417857Y-67303571D01*
X117332142Y-67332142D01*
X117303571Y-67360714D01*
X117303571Y-67560714D01*
X117417857Y-67560714D01*
X117046428Y-67303571D02*
X117046428Y-67903571D01*
X116703571Y-67303571D01*
X116703571Y-67903571D01*
X116417857Y-67303571D02*
X116417857Y-67903571D01*
X116275000Y-67903571D01*
X116189285Y-67875000D01*
X116132142Y-67817857D01*
X116103571Y-67760714D01*
X116075000Y-67646428D01*
X116075000Y-67560714D01*
X116103571Y-67446428D01*
X116132142Y-67389285D01*
X116189285Y-67332142D01*
X116275000Y-67303571D01*
X116417857Y-67303571D01*
X102832142Y-69125000D02*
X102889285Y-69153571D01*
X102975000Y-69153571D01*
X103060714Y-69125000D01*
X103117857Y-69067857D01*
X103146428Y-69010714D01*
X103175000Y-68896428D01*
X103175000Y-68810714D01*
X103146428Y-68696428D01*
X103117857Y-68639285D01*
X103060714Y-68582142D01*
X102975000Y-68553571D01*
X102917857Y-68553571D01*
X102832142Y-68582142D01*
X102803571Y-68610714D01*
X102803571Y-68810714D01*
X102917857Y-68810714D01*
X102546428Y-68553571D02*
X102546428Y-69153571D01*
X102203571Y-68553571D01*
X102203571Y-69153571D01*
X101917857Y-68553571D02*
X101917857Y-69153571D01*
X101775000Y-69153571D01*
X101689285Y-69125000D01*
X101632142Y-69067857D01*
X101603571Y-69010714D01*
X101575000Y-68896428D01*
X101575000Y-68810714D01*
X101603571Y-68696428D01*
X101632142Y-68639285D01*
X101689285Y-68582142D01*
X101775000Y-68553571D01*
X101917857Y-68553571D01*
X87332142Y-58375000D02*
X87389285Y-58403571D01*
X87475000Y-58403571D01*
X87560714Y-58375000D01*
X87617857Y-58317857D01*
X87646428Y-58260714D01*
X87675000Y-58146428D01*
X87675000Y-58060714D01*
X87646428Y-57946428D01*
X87617857Y-57889285D01*
X87560714Y-57832142D01*
X87475000Y-57803571D01*
X87417857Y-57803571D01*
X87332142Y-57832142D01*
X87303571Y-57860714D01*
X87303571Y-58060714D01*
X87417857Y-58060714D01*
X87046428Y-57803571D02*
X87046428Y-58403571D01*
X86703571Y-57803571D01*
X86703571Y-58403571D01*
X86417857Y-57803571D02*
X86417857Y-58403571D01*
X86275000Y-58403571D01*
X86189285Y-58375000D01*
X86132142Y-58317857D01*
X86103571Y-58260714D01*
X86075000Y-58146428D01*
X86075000Y-58060714D01*
X86103571Y-57946428D01*
X86132142Y-57889285D01*
X86189285Y-57832142D01*
X86275000Y-57803571D01*
X86417857Y-57803571D01*
X159065476Y-57722619D02*
X159398809Y-58198809D01*
X159636904Y-57722619D02*
X159636904Y-58722619D01*
X159255952Y-58722619D01*
X159160714Y-58675000D01*
X159113095Y-58627380D01*
X159065476Y-58532142D01*
X159065476Y-58389285D01*
X159113095Y-58294047D01*
X159160714Y-58246428D01*
X159255952Y-58198809D01*
X159636904Y-58198809D01*
X156589285Y-58675000D02*
X156684523Y-58722619D01*
X156827380Y-58722619D01*
X156970238Y-58675000D01*
X157065476Y-58579761D01*
X157113095Y-58484523D01*
X157160714Y-58294047D01*
X157160714Y-58151190D01*
X157113095Y-57960714D01*
X157065476Y-57865476D01*
X156970238Y-57770238D01*
X156827380Y-57722619D01*
X156732142Y-57722619D01*
X156589285Y-57770238D01*
X156541666Y-57817857D01*
X156541666Y-58151190D01*
X156732142Y-58151190D01*
X154255952Y-58246428D02*
X154113095Y-58198809D01*
X154065476Y-58151190D01*
X154017857Y-58055952D01*
X154017857Y-57913095D01*
X154065476Y-57817857D01*
X154113095Y-57770238D01*
X154208333Y-57722619D01*
X154589285Y-57722619D01*
X154589285Y-58722619D01*
X154255952Y-58722619D01*
X154160714Y-58675000D01*
X154113095Y-58627380D01*
X154065476Y-58532142D01*
X154065476Y-58436904D01*
X154113095Y-58341666D01*
X154160714Y-58294047D01*
X154255952Y-58246428D01*
X154589285Y-58246428D01*
X152065476Y-57722619D02*
X152065476Y-58722619D01*
X152065476Y-58246428D02*
X151494047Y-58246428D01*
X151494047Y-57722619D02*
X151494047Y-58722619D01*
X149636904Y-58722619D02*
X149303571Y-57722619D01*
X148970238Y-58722619D01*
X175275000Y-68367857D02*
X175303571Y-68310714D01*
X175303571Y-68225000D01*
X175275000Y-68139285D01*
X175217857Y-68082142D01*
X175160714Y-68053571D01*
X175046428Y-68025000D01*
X174960714Y-68025000D01*
X174846428Y-68053571D01*
X174789285Y-68082142D01*
X174732142Y-68139285D01*
X174703571Y-68225000D01*
X174703571Y-68282142D01*
X174732142Y-68367857D01*
X174760714Y-68396428D01*
X174960714Y-68396428D01*
X174960714Y-68282142D01*
X174703571Y-68653571D02*
X175303571Y-68653571D01*
X174703571Y-68996428D01*
X175303571Y-68996428D01*
X174703571Y-69282142D02*
X175303571Y-69282142D01*
X175303571Y-69425000D01*
X175275000Y-69510714D01*
X175217857Y-69567857D01*
X175160714Y-69596428D01*
X175046428Y-69625000D01*
X174960714Y-69625000D01*
X174846428Y-69596428D01*
X174789285Y-69567857D01*
X174732142Y-69510714D01*
X174703571Y-69425000D01*
X174703571Y-69282142D01*
X162832142Y-59625000D02*
X162889285Y-59653571D01*
X162975000Y-59653571D01*
X163060714Y-59625000D01*
X163117857Y-59567857D01*
X163146428Y-59510714D01*
X163175000Y-59396428D01*
X163175000Y-59310714D01*
X163146428Y-59196428D01*
X163117857Y-59139285D01*
X163060714Y-59082142D01*
X162975000Y-59053571D01*
X162917857Y-59053571D01*
X162832142Y-59082142D01*
X162803571Y-59110714D01*
X162803571Y-59310714D01*
X162917857Y-59310714D01*
X162546428Y-59053571D02*
X162546428Y-59653571D01*
X162203571Y-59053571D01*
X162203571Y-59653571D01*
X161917857Y-59053571D02*
X161917857Y-59653571D01*
X161775000Y-59653571D01*
X161689285Y-59625000D01*
X161632142Y-59567857D01*
X161603571Y-59510714D01*
X161575000Y-59396428D01*
X161575000Y-59310714D01*
X161603571Y-59196428D01*
X161632142Y-59139285D01*
X161689285Y-59082142D01*
X161775000Y-59053571D01*
X161917857Y-59053571D01*
X147332142Y-86875000D02*
X147389285Y-86903571D01*
X147475000Y-86903571D01*
X147560714Y-86875000D01*
X147617857Y-86817857D01*
X147646428Y-86760714D01*
X147675000Y-86646428D01*
X147675000Y-86560714D01*
X147646428Y-86446428D01*
X147617857Y-86389285D01*
X147560714Y-86332142D01*
X147475000Y-86303571D01*
X147417857Y-86303571D01*
X147332142Y-86332142D01*
X147303571Y-86360714D01*
X147303571Y-86560714D01*
X147417857Y-86560714D01*
X147046428Y-86303571D02*
X147046428Y-86903571D01*
X146703571Y-86303571D01*
X146703571Y-86903571D01*
X146417857Y-86303571D02*
X146417857Y-86903571D01*
X146275000Y-86903571D01*
X146189285Y-86875000D01*
X146132142Y-86817857D01*
X146103571Y-86760714D01*
X146075000Y-86646428D01*
X146075000Y-86560714D01*
X146103571Y-86446428D01*
X146132142Y-86389285D01*
X146189285Y-86332142D01*
X146275000Y-86303571D01*
X146417857Y-86303571D01*
X87332142Y-86875000D02*
X87389285Y-86903571D01*
X87475000Y-86903571D01*
X87560714Y-86875000D01*
X87617857Y-86817857D01*
X87646428Y-86760714D01*
X87675000Y-86646428D01*
X87675000Y-86560714D01*
X87646428Y-86446428D01*
X87617857Y-86389285D01*
X87560714Y-86332142D01*
X87475000Y-86303571D01*
X87417857Y-86303571D01*
X87332142Y-86332142D01*
X87303571Y-86360714D01*
X87303571Y-86560714D01*
X87417857Y-86560714D01*
X87046428Y-86303571D02*
X87046428Y-86903571D01*
X86703571Y-86303571D01*
X86703571Y-86903571D01*
X86417857Y-86303571D02*
X86417857Y-86903571D01*
X86275000Y-86903571D01*
X86189285Y-86875000D01*
X86132142Y-86817857D01*
X86103571Y-86760714D01*
X86075000Y-86646428D01*
X86075000Y-86560714D01*
X86103571Y-86446428D01*
X86132142Y-86389285D01*
X86189285Y-86332142D01*
X86275000Y-86303571D01*
X86417857Y-86303571D01*
X159065476Y-86222619D02*
X159398809Y-86698809D01*
X159636904Y-86222619D02*
X159636904Y-87222619D01*
X159255952Y-87222619D01*
X159160714Y-87175000D01*
X159113095Y-87127380D01*
X159065476Y-87032142D01*
X159065476Y-86889285D01*
X159113095Y-86794047D01*
X159160714Y-86746428D01*
X159255952Y-86698809D01*
X159636904Y-86698809D01*
X156589285Y-87175000D02*
X156684523Y-87222619D01*
X156827380Y-87222619D01*
X156970238Y-87175000D01*
X157065476Y-87079761D01*
X157113095Y-86984523D01*
X157160714Y-86794047D01*
X157160714Y-86651190D01*
X157113095Y-86460714D01*
X157065476Y-86365476D01*
X156970238Y-86270238D01*
X156827380Y-86222619D01*
X156732142Y-86222619D01*
X156589285Y-86270238D01*
X156541666Y-86317857D01*
X156541666Y-86651190D01*
X156732142Y-86651190D01*
X154255952Y-86746428D02*
X154113095Y-86698809D01*
X154065476Y-86651190D01*
X154017857Y-86555952D01*
X154017857Y-86413095D01*
X154065476Y-86317857D01*
X154113095Y-86270238D01*
X154208333Y-86222619D01*
X154589285Y-86222619D01*
X154589285Y-87222619D01*
X154255952Y-87222619D01*
X154160714Y-87175000D01*
X154113095Y-87127380D01*
X154065476Y-87032142D01*
X154065476Y-86936904D01*
X154113095Y-86841666D01*
X154160714Y-86794047D01*
X154255952Y-86746428D01*
X154589285Y-86746428D01*
X152065476Y-86222619D02*
X152065476Y-87222619D01*
X152065476Y-86746428D02*
X151494047Y-86746428D01*
X151494047Y-86222619D02*
X151494047Y-87222619D01*
X149636904Y-87222619D02*
X149303571Y-86222619D01*
X148970238Y-87222619D01*
X99065476Y-86222619D02*
X99398809Y-86698809D01*
X99636904Y-86222619D02*
X99636904Y-87222619D01*
X99255952Y-87222619D01*
X99160714Y-87175000D01*
X99113095Y-87127380D01*
X99065476Y-87032142D01*
X99065476Y-86889285D01*
X99113095Y-86794047D01*
X99160714Y-86746428D01*
X99255952Y-86698809D01*
X99636904Y-86698809D01*
X96589285Y-87175000D02*
X96684523Y-87222619D01*
X96827380Y-87222619D01*
X96970238Y-87175000D01*
X97065476Y-87079761D01*
X97113095Y-86984523D01*
X97160714Y-86794047D01*
X97160714Y-86651190D01*
X97113095Y-86460714D01*
X97065476Y-86365476D01*
X96970238Y-86270238D01*
X96827380Y-86222619D01*
X96732142Y-86222619D01*
X96589285Y-86270238D01*
X96541666Y-86317857D01*
X96541666Y-86651190D01*
X96732142Y-86651190D01*
X94255952Y-86746428D02*
X94113095Y-86698809D01*
X94065476Y-86651190D01*
X94017857Y-86555952D01*
X94017857Y-86413095D01*
X94065476Y-86317857D01*
X94113095Y-86270238D01*
X94208333Y-86222619D01*
X94589285Y-86222619D01*
X94589285Y-87222619D01*
X94255952Y-87222619D01*
X94160714Y-87175000D01*
X94113095Y-87127380D01*
X94065476Y-87032142D01*
X94065476Y-86936904D01*
X94113095Y-86841666D01*
X94160714Y-86794047D01*
X94255952Y-86746428D01*
X94589285Y-86746428D01*
X92065476Y-86222619D02*
X92065476Y-87222619D01*
X92065476Y-86746428D02*
X91494047Y-86746428D01*
X91494047Y-86222619D02*
X91494047Y-87222619D01*
X89636904Y-87222619D02*
X89303571Y-86222619D01*
X88970238Y-87222619D01*
X132832142Y-78625000D02*
X132889285Y-78653571D01*
X132975000Y-78653571D01*
X133060714Y-78625000D01*
X133117857Y-78567857D01*
X133146428Y-78510714D01*
X133175000Y-78396428D01*
X133175000Y-78310714D01*
X133146428Y-78196428D01*
X133117857Y-78139285D01*
X133060714Y-78082142D01*
X132975000Y-78053571D01*
X132917857Y-78053571D01*
X132832142Y-78082142D01*
X132803571Y-78110714D01*
X132803571Y-78310714D01*
X132917857Y-78310714D01*
X132546428Y-78053571D02*
X132546428Y-78653571D01*
X132203571Y-78053571D01*
X132203571Y-78653571D01*
X131917857Y-78053571D02*
X131917857Y-78653571D01*
X131775000Y-78653571D01*
X131689285Y-78625000D01*
X131632142Y-78567857D01*
X131603571Y-78510714D01*
X131575000Y-78396428D01*
X131575000Y-78310714D01*
X131603571Y-78196428D01*
X131632142Y-78139285D01*
X131689285Y-78082142D01*
X131775000Y-78053571D01*
X131917857Y-78053571D01*
X145275000Y-87367857D02*
X145303571Y-87310714D01*
X145303571Y-87225000D01*
X145275000Y-87139285D01*
X145217857Y-87082142D01*
X145160714Y-87053571D01*
X145046428Y-87025000D01*
X144960714Y-87025000D01*
X144846428Y-87053571D01*
X144789285Y-87082142D01*
X144732142Y-87139285D01*
X144703571Y-87225000D01*
X144703571Y-87282142D01*
X144732142Y-87367857D01*
X144760714Y-87396428D01*
X144960714Y-87396428D01*
X144960714Y-87282142D01*
X144703571Y-87653571D02*
X145303571Y-87653571D01*
X144703571Y-87996428D01*
X145303571Y-87996428D01*
X144703571Y-88282142D02*
X145303571Y-88282142D01*
X145303571Y-88425000D01*
X145275000Y-88510714D01*
X145217857Y-88567857D01*
X145160714Y-88596428D01*
X145046428Y-88625000D01*
X144960714Y-88625000D01*
X144846428Y-88596428D01*
X144789285Y-88567857D01*
X144732142Y-88510714D01*
X144703571Y-88425000D01*
X144703571Y-88282142D01*
X115275000Y-77867857D02*
X115303571Y-77810714D01*
X115303571Y-77725000D01*
X115275000Y-77639285D01*
X115217857Y-77582142D01*
X115160714Y-77553571D01*
X115046428Y-77525000D01*
X114960714Y-77525000D01*
X114846428Y-77553571D01*
X114789285Y-77582142D01*
X114732142Y-77639285D01*
X114703571Y-77725000D01*
X114703571Y-77782142D01*
X114732142Y-77867857D01*
X114760714Y-77896428D01*
X114960714Y-77896428D01*
X114960714Y-77782142D01*
X114703571Y-78153571D02*
X115303571Y-78153571D01*
X114703571Y-78496428D01*
X115303571Y-78496428D01*
X114703571Y-78782142D02*
X115303571Y-78782142D01*
X115303571Y-78925000D01*
X115275000Y-79010714D01*
X115217857Y-79067857D01*
X115160714Y-79096428D01*
X115046428Y-79125000D01*
X114960714Y-79125000D01*
X114846428Y-79096428D01*
X114789285Y-79067857D01*
X114732142Y-79010714D01*
X114703571Y-78925000D01*
X114703571Y-78782142D01*
X159065476Y-76722619D02*
X159398809Y-77198809D01*
X159636904Y-76722619D02*
X159636904Y-77722619D01*
X159255952Y-77722619D01*
X159160714Y-77675000D01*
X159113095Y-77627380D01*
X159065476Y-77532142D01*
X159065476Y-77389285D01*
X159113095Y-77294047D01*
X159160714Y-77246428D01*
X159255952Y-77198809D01*
X159636904Y-77198809D01*
X156589285Y-77675000D02*
X156684523Y-77722619D01*
X156827380Y-77722619D01*
X156970238Y-77675000D01*
X157065476Y-77579761D01*
X157113095Y-77484523D01*
X157160714Y-77294047D01*
X157160714Y-77151190D01*
X157113095Y-76960714D01*
X157065476Y-76865476D01*
X156970238Y-76770238D01*
X156827380Y-76722619D01*
X156732142Y-76722619D01*
X156589285Y-76770238D01*
X156541666Y-76817857D01*
X156541666Y-77151190D01*
X156732142Y-77151190D01*
X154255952Y-77246428D02*
X154113095Y-77198809D01*
X154065476Y-77151190D01*
X154017857Y-77055952D01*
X154017857Y-76913095D01*
X154065476Y-76817857D01*
X154113095Y-76770238D01*
X154208333Y-76722619D01*
X154589285Y-76722619D01*
X154589285Y-77722619D01*
X154255952Y-77722619D01*
X154160714Y-77675000D01*
X154113095Y-77627380D01*
X154065476Y-77532142D01*
X154065476Y-77436904D01*
X154113095Y-77341666D01*
X154160714Y-77294047D01*
X154255952Y-77246428D01*
X154589285Y-77246428D01*
X152065476Y-76722619D02*
X152065476Y-77722619D01*
X152065476Y-77246428D02*
X151494047Y-77246428D01*
X151494047Y-76722619D02*
X151494047Y-77722619D01*
X149636904Y-77722619D02*
X149303571Y-76722619D01*
X148970238Y-77722619D01*
X132832142Y-88125000D02*
X132889285Y-88153571D01*
X132975000Y-88153571D01*
X133060714Y-88125000D01*
X133117857Y-88067857D01*
X133146428Y-88010714D01*
X133175000Y-87896428D01*
X133175000Y-87810714D01*
X133146428Y-87696428D01*
X133117857Y-87639285D01*
X133060714Y-87582142D01*
X132975000Y-87553571D01*
X132917857Y-87553571D01*
X132832142Y-87582142D01*
X132803571Y-87610714D01*
X132803571Y-87810714D01*
X132917857Y-87810714D01*
X132546428Y-87553571D02*
X132546428Y-88153571D01*
X132203571Y-87553571D01*
X132203571Y-88153571D01*
X131917857Y-87553571D02*
X131917857Y-88153571D01*
X131775000Y-88153571D01*
X131689285Y-88125000D01*
X131632142Y-88067857D01*
X131603571Y-88010714D01*
X131575000Y-87896428D01*
X131575000Y-87810714D01*
X131603571Y-87696428D01*
X131632142Y-87639285D01*
X131689285Y-87582142D01*
X131775000Y-87553571D01*
X131917857Y-87553571D01*
X129065476Y-76722619D02*
X129398809Y-77198809D01*
X129636904Y-76722619D02*
X129636904Y-77722619D01*
X129255952Y-77722619D01*
X129160714Y-77675000D01*
X129113095Y-77627380D01*
X129065476Y-77532142D01*
X129065476Y-77389285D01*
X129113095Y-77294047D01*
X129160714Y-77246428D01*
X129255952Y-77198809D01*
X129636904Y-77198809D01*
X126589285Y-77675000D02*
X126684523Y-77722619D01*
X126827380Y-77722619D01*
X126970238Y-77675000D01*
X127065476Y-77579761D01*
X127113095Y-77484523D01*
X127160714Y-77294047D01*
X127160714Y-77151190D01*
X127113095Y-76960714D01*
X127065476Y-76865476D01*
X126970238Y-76770238D01*
X126827380Y-76722619D01*
X126732142Y-76722619D01*
X126589285Y-76770238D01*
X126541666Y-76817857D01*
X126541666Y-77151190D01*
X126732142Y-77151190D01*
X124255952Y-77246428D02*
X124113095Y-77198809D01*
X124065476Y-77151190D01*
X124017857Y-77055952D01*
X124017857Y-76913095D01*
X124065476Y-76817857D01*
X124113095Y-76770238D01*
X124208333Y-76722619D01*
X124589285Y-76722619D01*
X124589285Y-77722619D01*
X124255952Y-77722619D01*
X124160714Y-77675000D01*
X124113095Y-77627380D01*
X124065476Y-77532142D01*
X124065476Y-77436904D01*
X124113095Y-77341666D01*
X124160714Y-77294047D01*
X124255952Y-77246428D01*
X124589285Y-77246428D01*
X122065476Y-76722619D02*
X122065476Y-77722619D01*
X122065476Y-77246428D02*
X121494047Y-77246428D01*
X121494047Y-76722619D02*
X121494047Y-77722619D01*
X119636904Y-77722619D02*
X119303571Y-76722619D01*
X118970238Y-77722619D01*
X162832142Y-78625000D02*
X162889285Y-78653571D01*
X162975000Y-78653571D01*
X163060714Y-78625000D01*
X163117857Y-78567857D01*
X163146428Y-78510714D01*
X163175000Y-78396428D01*
X163175000Y-78310714D01*
X163146428Y-78196428D01*
X163117857Y-78139285D01*
X163060714Y-78082142D01*
X162975000Y-78053571D01*
X162917857Y-78053571D01*
X162832142Y-78082142D01*
X162803571Y-78110714D01*
X162803571Y-78310714D01*
X162917857Y-78310714D01*
X162546428Y-78053571D02*
X162546428Y-78653571D01*
X162203571Y-78053571D01*
X162203571Y-78653571D01*
X161917857Y-78053571D02*
X161917857Y-78653571D01*
X161775000Y-78653571D01*
X161689285Y-78625000D01*
X161632142Y-78567857D01*
X161603571Y-78510714D01*
X161575000Y-78396428D01*
X161575000Y-78310714D01*
X161603571Y-78196428D01*
X161632142Y-78139285D01*
X161689285Y-78082142D01*
X161775000Y-78053571D01*
X161917857Y-78053571D01*
X117332142Y-86875000D02*
X117389285Y-86903571D01*
X117475000Y-86903571D01*
X117560714Y-86875000D01*
X117617857Y-86817857D01*
X117646428Y-86760714D01*
X117675000Y-86646428D01*
X117675000Y-86560714D01*
X117646428Y-86446428D01*
X117617857Y-86389285D01*
X117560714Y-86332142D01*
X117475000Y-86303571D01*
X117417857Y-86303571D01*
X117332142Y-86332142D01*
X117303571Y-86360714D01*
X117303571Y-86560714D01*
X117417857Y-86560714D01*
X117046428Y-86303571D02*
X117046428Y-86903571D01*
X116703571Y-86303571D01*
X116703571Y-86903571D01*
X116417857Y-86303571D02*
X116417857Y-86903571D01*
X116275000Y-86903571D01*
X116189285Y-86875000D01*
X116132142Y-86817857D01*
X116103571Y-86760714D01*
X116075000Y-86646428D01*
X116075000Y-86560714D01*
X116103571Y-86446428D01*
X116132142Y-86389285D01*
X116189285Y-86332142D01*
X116275000Y-86303571D01*
X116417857Y-86303571D01*
X102832142Y-78625000D02*
X102889285Y-78653571D01*
X102975000Y-78653571D01*
X103060714Y-78625000D01*
X103117857Y-78567857D01*
X103146428Y-78510714D01*
X103175000Y-78396428D01*
X103175000Y-78310714D01*
X103146428Y-78196428D01*
X103117857Y-78139285D01*
X103060714Y-78082142D01*
X102975000Y-78053571D01*
X102917857Y-78053571D01*
X102832142Y-78082142D01*
X102803571Y-78110714D01*
X102803571Y-78310714D01*
X102917857Y-78310714D01*
X102546428Y-78053571D02*
X102546428Y-78653571D01*
X102203571Y-78053571D01*
X102203571Y-78653571D01*
X101917857Y-78053571D02*
X101917857Y-78653571D01*
X101775000Y-78653571D01*
X101689285Y-78625000D01*
X101632142Y-78567857D01*
X101603571Y-78510714D01*
X101575000Y-78396428D01*
X101575000Y-78310714D01*
X101603571Y-78196428D01*
X101632142Y-78139285D01*
X101689285Y-78082142D01*
X101775000Y-78053571D01*
X101917857Y-78053571D01*
X102832142Y-88125000D02*
X102889285Y-88153571D01*
X102975000Y-88153571D01*
X103060714Y-88125000D01*
X103117857Y-88067857D01*
X103146428Y-88010714D01*
X103175000Y-87896428D01*
X103175000Y-87810714D01*
X103146428Y-87696428D01*
X103117857Y-87639285D01*
X103060714Y-87582142D01*
X102975000Y-87553571D01*
X102917857Y-87553571D01*
X102832142Y-87582142D01*
X102803571Y-87610714D01*
X102803571Y-87810714D01*
X102917857Y-87810714D01*
X102546428Y-87553571D02*
X102546428Y-88153571D01*
X102203571Y-87553571D01*
X102203571Y-88153571D01*
X101917857Y-87553571D02*
X101917857Y-88153571D01*
X101775000Y-88153571D01*
X101689285Y-88125000D01*
X101632142Y-88067857D01*
X101603571Y-88010714D01*
X101575000Y-87896428D01*
X101575000Y-87810714D01*
X101603571Y-87696428D01*
X101632142Y-87639285D01*
X101689285Y-87582142D01*
X101775000Y-87553571D01*
X101917857Y-87553571D01*
X175275000Y-77867857D02*
X175303571Y-77810714D01*
X175303571Y-77725000D01*
X175275000Y-77639285D01*
X175217857Y-77582142D01*
X175160714Y-77553571D01*
X175046428Y-77525000D01*
X174960714Y-77525000D01*
X174846428Y-77553571D01*
X174789285Y-77582142D01*
X174732142Y-77639285D01*
X174703571Y-77725000D01*
X174703571Y-77782142D01*
X174732142Y-77867857D01*
X174760714Y-77896428D01*
X174960714Y-77896428D01*
X174960714Y-77782142D01*
X174703571Y-78153571D02*
X175303571Y-78153571D01*
X174703571Y-78496428D01*
X175303571Y-78496428D01*
X174703571Y-78782142D02*
X175303571Y-78782142D01*
X175303571Y-78925000D01*
X175275000Y-79010714D01*
X175217857Y-79067857D01*
X175160714Y-79096428D01*
X175046428Y-79125000D01*
X174960714Y-79125000D01*
X174846428Y-79096428D01*
X174789285Y-79067857D01*
X174732142Y-79010714D01*
X174703571Y-78925000D01*
X174703571Y-78782142D01*
X175275000Y-87367857D02*
X175303571Y-87310714D01*
X175303571Y-87225000D01*
X175275000Y-87139285D01*
X175217857Y-87082142D01*
X175160714Y-87053571D01*
X175046428Y-87025000D01*
X174960714Y-87025000D01*
X174846428Y-87053571D01*
X174789285Y-87082142D01*
X174732142Y-87139285D01*
X174703571Y-87225000D01*
X174703571Y-87282142D01*
X174732142Y-87367857D01*
X174760714Y-87396428D01*
X174960714Y-87396428D01*
X174960714Y-87282142D01*
X174703571Y-87653571D02*
X175303571Y-87653571D01*
X174703571Y-87996428D01*
X175303571Y-87996428D01*
X174703571Y-88282142D02*
X175303571Y-88282142D01*
X175303571Y-88425000D01*
X175275000Y-88510714D01*
X175217857Y-88567857D01*
X175160714Y-88596428D01*
X175046428Y-88625000D01*
X174960714Y-88625000D01*
X174846428Y-88596428D01*
X174789285Y-88567857D01*
X174732142Y-88510714D01*
X174703571Y-88425000D01*
X174703571Y-88282142D01*
X99065476Y-76722619D02*
X99398809Y-77198809D01*
X99636904Y-76722619D02*
X99636904Y-77722619D01*
X99255952Y-77722619D01*
X99160714Y-77675000D01*
X99113095Y-77627380D01*
X99065476Y-77532142D01*
X99065476Y-77389285D01*
X99113095Y-77294047D01*
X99160714Y-77246428D01*
X99255952Y-77198809D01*
X99636904Y-77198809D01*
X96589285Y-77675000D02*
X96684523Y-77722619D01*
X96827380Y-77722619D01*
X96970238Y-77675000D01*
X97065476Y-77579761D01*
X97113095Y-77484523D01*
X97160714Y-77294047D01*
X97160714Y-77151190D01*
X97113095Y-76960714D01*
X97065476Y-76865476D01*
X96970238Y-76770238D01*
X96827380Y-76722619D01*
X96732142Y-76722619D01*
X96589285Y-76770238D01*
X96541666Y-76817857D01*
X96541666Y-77151190D01*
X96732142Y-77151190D01*
X94255952Y-77246428D02*
X94113095Y-77198809D01*
X94065476Y-77151190D01*
X94017857Y-77055952D01*
X94017857Y-76913095D01*
X94065476Y-76817857D01*
X94113095Y-76770238D01*
X94208333Y-76722619D01*
X94589285Y-76722619D01*
X94589285Y-77722619D01*
X94255952Y-77722619D01*
X94160714Y-77675000D01*
X94113095Y-77627380D01*
X94065476Y-77532142D01*
X94065476Y-77436904D01*
X94113095Y-77341666D01*
X94160714Y-77294047D01*
X94255952Y-77246428D01*
X94589285Y-77246428D01*
X92065476Y-76722619D02*
X92065476Y-77722619D01*
X92065476Y-77246428D02*
X91494047Y-77246428D01*
X91494047Y-76722619D02*
X91494047Y-77722619D01*
X89636904Y-77722619D02*
X89303571Y-76722619D01*
X88970238Y-77722619D01*
X115275000Y-87367857D02*
X115303571Y-87310714D01*
X115303571Y-87225000D01*
X115275000Y-87139285D01*
X115217857Y-87082142D01*
X115160714Y-87053571D01*
X115046428Y-87025000D01*
X114960714Y-87025000D01*
X114846428Y-87053571D01*
X114789285Y-87082142D01*
X114732142Y-87139285D01*
X114703571Y-87225000D01*
X114703571Y-87282142D01*
X114732142Y-87367857D01*
X114760714Y-87396428D01*
X114960714Y-87396428D01*
X114960714Y-87282142D01*
X114703571Y-87653571D02*
X115303571Y-87653571D01*
X114703571Y-87996428D01*
X115303571Y-87996428D01*
X114703571Y-88282142D02*
X115303571Y-88282142D01*
X115303571Y-88425000D01*
X115275000Y-88510714D01*
X115217857Y-88567857D01*
X115160714Y-88596428D01*
X115046428Y-88625000D01*
X114960714Y-88625000D01*
X114846428Y-88596428D01*
X114789285Y-88567857D01*
X114732142Y-88510714D01*
X114703571Y-88425000D01*
X114703571Y-88282142D01*
X162832142Y-88125000D02*
X162889285Y-88153571D01*
X162975000Y-88153571D01*
X163060714Y-88125000D01*
X163117857Y-88067857D01*
X163146428Y-88010714D01*
X163175000Y-87896428D01*
X163175000Y-87810714D01*
X163146428Y-87696428D01*
X163117857Y-87639285D01*
X163060714Y-87582142D01*
X162975000Y-87553571D01*
X162917857Y-87553571D01*
X162832142Y-87582142D01*
X162803571Y-87610714D01*
X162803571Y-87810714D01*
X162917857Y-87810714D01*
X162546428Y-87553571D02*
X162546428Y-88153571D01*
X162203571Y-87553571D01*
X162203571Y-88153571D01*
X161917857Y-87553571D02*
X161917857Y-88153571D01*
X161775000Y-88153571D01*
X161689285Y-88125000D01*
X161632142Y-88067857D01*
X161603571Y-88010714D01*
X161575000Y-87896428D01*
X161575000Y-87810714D01*
X161603571Y-87696428D01*
X161632142Y-87639285D01*
X161689285Y-87582142D01*
X161775000Y-87553571D01*
X161917857Y-87553571D01*
X147332142Y-77375000D02*
X147389285Y-77403571D01*
X147475000Y-77403571D01*
X147560714Y-77375000D01*
X147617857Y-77317857D01*
X147646428Y-77260714D01*
X147675000Y-77146428D01*
X147675000Y-77060714D01*
X147646428Y-76946428D01*
X147617857Y-76889285D01*
X147560714Y-76832142D01*
X147475000Y-76803571D01*
X147417857Y-76803571D01*
X147332142Y-76832142D01*
X147303571Y-76860714D01*
X147303571Y-77060714D01*
X147417857Y-77060714D01*
X147046428Y-76803571D02*
X147046428Y-77403571D01*
X146703571Y-76803571D01*
X146703571Y-77403571D01*
X146417857Y-76803571D02*
X146417857Y-77403571D01*
X146275000Y-77403571D01*
X146189285Y-77375000D01*
X146132142Y-77317857D01*
X146103571Y-77260714D01*
X146075000Y-77146428D01*
X146075000Y-77060714D01*
X146103571Y-76946428D01*
X146132142Y-76889285D01*
X146189285Y-76832142D01*
X146275000Y-76803571D01*
X146417857Y-76803571D01*
X145275000Y-77867857D02*
X145303571Y-77810714D01*
X145303571Y-77725000D01*
X145275000Y-77639285D01*
X145217857Y-77582142D01*
X145160714Y-77553571D01*
X145046428Y-77525000D01*
X144960714Y-77525000D01*
X144846428Y-77553571D01*
X144789285Y-77582142D01*
X144732142Y-77639285D01*
X144703571Y-77725000D01*
X144703571Y-77782142D01*
X144732142Y-77867857D01*
X144760714Y-77896428D01*
X144960714Y-77896428D01*
X144960714Y-77782142D01*
X144703571Y-78153571D02*
X145303571Y-78153571D01*
X144703571Y-78496428D01*
X145303571Y-78496428D01*
X144703571Y-78782142D02*
X145303571Y-78782142D01*
X145303571Y-78925000D01*
X145275000Y-79010714D01*
X145217857Y-79067857D01*
X145160714Y-79096428D01*
X145046428Y-79125000D01*
X144960714Y-79125000D01*
X144846428Y-79096428D01*
X144789285Y-79067857D01*
X144732142Y-79010714D01*
X144703571Y-78925000D01*
X144703571Y-78782142D01*
X129065476Y-86222619D02*
X129398809Y-86698809D01*
X129636904Y-86222619D02*
X129636904Y-87222619D01*
X129255952Y-87222619D01*
X129160714Y-87175000D01*
X129113095Y-87127380D01*
X129065476Y-87032142D01*
X129065476Y-86889285D01*
X129113095Y-86794047D01*
X129160714Y-86746428D01*
X129255952Y-86698809D01*
X129636904Y-86698809D01*
X126589285Y-87175000D02*
X126684523Y-87222619D01*
X126827380Y-87222619D01*
X126970238Y-87175000D01*
X127065476Y-87079761D01*
X127113095Y-86984523D01*
X127160714Y-86794047D01*
X127160714Y-86651190D01*
X127113095Y-86460714D01*
X127065476Y-86365476D01*
X126970238Y-86270238D01*
X126827380Y-86222619D01*
X126732142Y-86222619D01*
X126589285Y-86270238D01*
X126541666Y-86317857D01*
X126541666Y-86651190D01*
X126732142Y-86651190D01*
X124255952Y-86746428D02*
X124113095Y-86698809D01*
X124065476Y-86651190D01*
X124017857Y-86555952D01*
X124017857Y-86413095D01*
X124065476Y-86317857D01*
X124113095Y-86270238D01*
X124208333Y-86222619D01*
X124589285Y-86222619D01*
X124589285Y-87222619D01*
X124255952Y-87222619D01*
X124160714Y-87175000D01*
X124113095Y-87127380D01*
X124065476Y-87032142D01*
X124065476Y-86936904D01*
X124113095Y-86841666D01*
X124160714Y-86794047D01*
X124255952Y-86746428D01*
X124589285Y-86746428D01*
X122065476Y-86222619D02*
X122065476Y-87222619D01*
X122065476Y-86746428D02*
X121494047Y-86746428D01*
X121494047Y-86222619D02*
X121494047Y-87222619D01*
X119636904Y-87222619D02*
X119303571Y-86222619D01*
X118970238Y-87222619D01*
X87332142Y-77375000D02*
X87389285Y-77403571D01*
X87475000Y-77403571D01*
X87560714Y-77375000D01*
X87617857Y-77317857D01*
X87646428Y-77260714D01*
X87675000Y-77146428D01*
X87675000Y-77060714D01*
X87646428Y-76946428D01*
X87617857Y-76889285D01*
X87560714Y-76832142D01*
X87475000Y-76803571D01*
X87417857Y-76803571D01*
X87332142Y-76832142D01*
X87303571Y-76860714D01*
X87303571Y-77060714D01*
X87417857Y-77060714D01*
X87046428Y-76803571D02*
X87046428Y-77403571D01*
X86703571Y-76803571D01*
X86703571Y-77403571D01*
X86417857Y-76803571D02*
X86417857Y-77403571D01*
X86275000Y-77403571D01*
X86189285Y-77375000D01*
X86132142Y-77317857D01*
X86103571Y-77260714D01*
X86075000Y-77146428D01*
X86075000Y-77060714D01*
X86103571Y-76946428D01*
X86132142Y-76889285D01*
X86189285Y-76832142D01*
X86275000Y-76803571D01*
X86417857Y-76803571D01*
X117332142Y-77375000D02*
X117389285Y-77403571D01*
X117475000Y-77403571D01*
X117560714Y-77375000D01*
X117617857Y-77317857D01*
X117646428Y-77260714D01*
X117675000Y-77146428D01*
X117675000Y-77060714D01*
X117646428Y-76946428D01*
X117617857Y-76889285D01*
X117560714Y-76832142D01*
X117475000Y-76803571D01*
X117417857Y-76803571D01*
X117332142Y-76832142D01*
X117303571Y-76860714D01*
X117303571Y-77060714D01*
X117417857Y-77060714D01*
X117046428Y-76803571D02*
X117046428Y-77403571D01*
X116703571Y-76803571D01*
X116703571Y-77403571D01*
X116417857Y-76803571D02*
X116417857Y-77403571D01*
X116275000Y-77403571D01*
X116189285Y-77375000D01*
X116132142Y-77317857D01*
X116103571Y-77260714D01*
X116075000Y-77146428D01*
X116075000Y-77060714D01*
X116103571Y-76946428D01*
X116132142Y-76889285D01*
X116189285Y-76832142D01*
X116275000Y-76803571D01*
X116417857Y-76803571D01*
X145275000Y-106367857D02*
X145303571Y-106310714D01*
X145303571Y-106225000D01*
X145275000Y-106139285D01*
X145217857Y-106082142D01*
X145160714Y-106053571D01*
X145046428Y-106025000D01*
X144960714Y-106025000D01*
X144846428Y-106053571D01*
X144789285Y-106082142D01*
X144732142Y-106139285D01*
X144703571Y-106225000D01*
X144703571Y-106282142D01*
X144732142Y-106367857D01*
X144760714Y-106396428D01*
X144960714Y-106396428D01*
X144960714Y-106282142D01*
X144703571Y-106653571D02*
X145303571Y-106653571D01*
X144703571Y-106996428D01*
X145303571Y-106996428D01*
X144703571Y-107282142D02*
X145303571Y-107282142D01*
X145303571Y-107425000D01*
X145275000Y-107510714D01*
X145217857Y-107567857D01*
X145160714Y-107596428D01*
X145046428Y-107625000D01*
X144960714Y-107625000D01*
X144846428Y-107596428D01*
X144789285Y-107567857D01*
X144732142Y-107510714D01*
X144703571Y-107425000D01*
X144703571Y-107282142D01*
X132832142Y-107125000D02*
X132889285Y-107153571D01*
X132975000Y-107153571D01*
X133060714Y-107125000D01*
X133117857Y-107067857D01*
X133146428Y-107010714D01*
X133175000Y-106896428D01*
X133175000Y-106810714D01*
X133146428Y-106696428D01*
X133117857Y-106639285D01*
X133060714Y-106582142D01*
X132975000Y-106553571D01*
X132917857Y-106553571D01*
X132832142Y-106582142D01*
X132803571Y-106610714D01*
X132803571Y-106810714D01*
X132917857Y-106810714D01*
X132546428Y-106553571D02*
X132546428Y-107153571D01*
X132203571Y-106553571D01*
X132203571Y-107153571D01*
X131917857Y-106553571D02*
X131917857Y-107153571D01*
X131775000Y-107153571D01*
X131689285Y-107125000D01*
X131632142Y-107067857D01*
X131603571Y-107010714D01*
X131575000Y-106896428D01*
X131575000Y-106810714D01*
X131603571Y-106696428D01*
X131632142Y-106639285D01*
X131689285Y-106582142D01*
X131775000Y-106553571D01*
X131917857Y-106553571D01*
X175275000Y-106367857D02*
X175303571Y-106310714D01*
X175303571Y-106225000D01*
X175275000Y-106139285D01*
X175217857Y-106082142D01*
X175160714Y-106053571D01*
X175046428Y-106025000D01*
X174960714Y-106025000D01*
X174846428Y-106053571D01*
X174789285Y-106082142D01*
X174732142Y-106139285D01*
X174703571Y-106225000D01*
X174703571Y-106282142D01*
X174732142Y-106367857D01*
X174760714Y-106396428D01*
X174960714Y-106396428D01*
X174960714Y-106282142D01*
X174703571Y-106653571D02*
X175303571Y-106653571D01*
X174703571Y-106996428D01*
X175303571Y-106996428D01*
X174703571Y-107282142D02*
X175303571Y-107282142D01*
X175303571Y-107425000D01*
X175275000Y-107510714D01*
X175217857Y-107567857D01*
X175160714Y-107596428D01*
X175046428Y-107625000D01*
X174960714Y-107625000D01*
X174846428Y-107596428D01*
X174789285Y-107567857D01*
X174732142Y-107510714D01*
X174703571Y-107425000D01*
X174703571Y-107282142D01*
X99065476Y-95722619D02*
X99398809Y-96198809D01*
X99636904Y-95722619D02*
X99636904Y-96722619D01*
X99255952Y-96722619D01*
X99160714Y-96675000D01*
X99113095Y-96627380D01*
X99065476Y-96532142D01*
X99065476Y-96389285D01*
X99113095Y-96294047D01*
X99160714Y-96246428D01*
X99255952Y-96198809D01*
X99636904Y-96198809D01*
X96589285Y-96675000D02*
X96684523Y-96722619D01*
X96827380Y-96722619D01*
X96970238Y-96675000D01*
X97065476Y-96579761D01*
X97113095Y-96484523D01*
X97160714Y-96294047D01*
X97160714Y-96151190D01*
X97113095Y-95960714D01*
X97065476Y-95865476D01*
X96970238Y-95770238D01*
X96827380Y-95722619D01*
X96732142Y-95722619D01*
X96589285Y-95770238D01*
X96541666Y-95817857D01*
X96541666Y-96151190D01*
X96732142Y-96151190D01*
X94255952Y-96246428D02*
X94113095Y-96198809D01*
X94065476Y-96151190D01*
X94017857Y-96055952D01*
X94017857Y-95913095D01*
X94065476Y-95817857D01*
X94113095Y-95770238D01*
X94208333Y-95722619D01*
X94589285Y-95722619D01*
X94589285Y-96722619D01*
X94255952Y-96722619D01*
X94160714Y-96675000D01*
X94113095Y-96627380D01*
X94065476Y-96532142D01*
X94065476Y-96436904D01*
X94113095Y-96341666D01*
X94160714Y-96294047D01*
X94255952Y-96246428D01*
X94589285Y-96246428D01*
X92065476Y-95722619D02*
X92065476Y-96722619D01*
X92065476Y-96246428D02*
X91494047Y-96246428D01*
X91494047Y-95722619D02*
X91494047Y-96722619D01*
X89636904Y-96722619D02*
X89303571Y-95722619D01*
X88970238Y-96722619D01*
X129065476Y-95722619D02*
X129398809Y-96198809D01*
X129636904Y-95722619D02*
X129636904Y-96722619D01*
X129255952Y-96722619D01*
X129160714Y-96675000D01*
X129113095Y-96627380D01*
X129065476Y-96532142D01*
X129065476Y-96389285D01*
X129113095Y-96294047D01*
X129160714Y-96246428D01*
X129255952Y-96198809D01*
X129636904Y-96198809D01*
X126589285Y-96675000D02*
X126684523Y-96722619D01*
X126827380Y-96722619D01*
X126970238Y-96675000D01*
X127065476Y-96579761D01*
X127113095Y-96484523D01*
X127160714Y-96294047D01*
X127160714Y-96151190D01*
X127113095Y-95960714D01*
X127065476Y-95865476D01*
X126970238Y-95770238D01*
X126827380Y-95722619D01*
X126732142Y-95722619D01*
X126589285Y-95770238D01*
X126541666Y-95817857D01*
X126541666Y-96151190D01*
X126732142Y-96151190D01*
X124255952Y-96246428D02*
X124113095Y-96198809D01*
X124065476Y-96151190D01*
X124017857Y-96055952D01*
X124017857Y-95913095D01*
X124065476Y-95817857D01*
X124113095Y-95770238D01*
X124208333Y-95722619D01*
X124589285Y-95722619D01*
X124589285Y-96722619D01*
X124255952Y-96722619D01*
X124160714Y-96675000D01*
X124113095Y-96627380D01*
X124065476Y-96532142D01*
X124065476Y-96436904D01*
X124113095Y-96341666D01*
X124160714Y-96294047D01*
X124255952Y-96246428D01*
X124589285Y-96246428D01*
X122065476Y-95722619D02*
X122065476Y-96722619D01*
X122065476Y-96246428D02*
X121494047Y-96246428D01*
X121494047Y-95722619D02*
X121494047Y-96722619D01*
X119636904Y-96722619D02*
X119303571Y-95722619D01*
X118970238Y-96722619D01*
X115275000Y-106367857D02*
X115303571Y-106310714D01*
X115303571Y-106225000D01*
X115275000Y-106139285D01*
X115217857Y-106082142D01*
X115160714Y-106053571D01*
X115046428Y-106025000D01*
X114960714Y-106025000D01*
X114846428Y-106053571D01*
X114789285Y-106082142D01*
X114732142Y-106139285D01*
X114703571Y-106225000D01*
X114703571Y-106282142D01*
X114732142Y-106367857D01*
X114760714Y-106396428D01*
X114960714Y-106396428D01*
X114960714Y-106282142D01*
X114703571Y-106653571D02*
X115303571Y-106653571D01*
X114703571Y-106996428D01*
X115303571Y-106996428D01*
X114703571Y-107282142D02*
X115303571Y-107282142D01*
X115303571Y-107425000D01*
X115275000Y-107510714D01*
X115217857Y-107567857D01*
X115160714Y-107596428D01*
X115046428Y-107625000D01*
X114960714Y-107625000D01*
X114846428Y-107596428D01*
X114789285Y-107567857D01*
X114732142Y-107510714D01*
X114703571Y-107425000D01*
X114703571Y-107282142D01*
X147332142Y-105875000D02*
X147389285Y-105903571D01*
X147475000Y-105903571D01*
X147560714Y-105875000D01*
X147617857Y-105817857D01*
X147646428Y-105760714D01*
X147675000Y-105646428D01*
X147675000Y-105560714D01*
X147646428Y-105446428D01*
X147617857Y-105389285D01*
X147560714Y-105332142D01*
X147475000Y-105303571D01*
X147417857Y-105303571D01*
X147332142Y-105332142D01*
X147303571Y-105360714D01*
X147303571Y-105560714D01*
X147417857Y-105560714D01*
X147046428Y-105303571D02*
X147046428Y-105903571D01*
X146703571Y-105303571D01*
X146703571Y-105903571D01*
X146417857Y-105303571D02*
X146417857Y-105903571D01*
X146275000Y-105903571D01*
X146189285Y-105875000D01*
X146132142Y-105817857D01*
X146103571Y-105760714D01*
X146075000Y-105646428D01*
X146075000Y-105560714D01*
X146103571Y-105446428D01*
X146132142Y-105389285D01*
X146189285Y-105332142D01*
X146275000Y-105303571D01*
X146417857Y-105303571D01*
X115275000Y-96867857D02*
X115303571Y-96810714D01*
X115303571Y-96725000D01*
X115275000Y-96639285D01*
X115217857Y-96582142D01*
X115160714Y-96553571D01*
X115046428Y-96525000D01*
X114960714Y-96525000D01*
X114846428Y-96553571D01*
X114789285Y-96582142D01*
X114732142Y-96639285D01*
X114703571Y-96725000D01*
X114703571Y-96782142D01*
X114732142Y-96867857D01*
X114760714Y-96896428D01*
X114960714Y-96896428D01*
X114960714Y-96782142D01*
X114703571Y-97153571D02*
X115303571Y-97153571D01*
X114703571Y-97496428D01*
X115303571Y-97496428D01*
X114703571Y-97782142D02*
X115303571Y-97782142D01*
X115303571Y-97925000D01*
X115275000Y-98010714D01*
X115217857Y-98067857D01*
X115160714Y-98096428D01*
X115046428Y-98125000D01*
X114960714Y-98125000D01*
X114846428Y-98096428D01*
X114789285Y-98067857D01*
X114732142Y-98010714D01*
X114703571Y-97925000D01*
X114703571Y-97782142D01*
X162832142Y-107125000D02*
X162889285Y-107153571D01*
X162975000Y-107153571D01*
X163060714Y-107125000D01*
X163117857Y-107067857D01*
X163146428Y-107010714D01*
X163175000Y-106896428D01*
X163175000Y-106810714D01*
X163146428Y-106696428D01*
X163117857Y-106639285D01*
X163060714Y-106582142D01*
X162975000Y-106553571D01*
X162917857Y-106553571D01*
X162832142Y-106582142D01*
X162803571Y-106610714D01*
X162803571Y-106810714D01*
X162917857Y-106810714D01*
X162546428Y-106553571D02*
X162546428Y-107153571D01*
X162203571Y-106553571D01*
X162203571Y-107153571D01*
X161917857Y-106553571D02*
X161917857Y-107153571D01*
X161775000Y-107153571D01*
X161689285Y-107125000D01*
X161632142Y-107067857D01*
X161603571Y-107010714D01*
X161575000Y-106896428D01*
X161575000Y-106810714D01*
X161603571Y-106696428D01*
X161632142Y-106639285D01*
X161689285Y-106582142D01*
X161775000Y-106553571D01*
X161917857Y-106553571D01*
X162832142Y-97625000D02*
X162889285Y-97653571D01*
X162975000Y-97653571D01*
X163060714Y-97625000D01*
X163117857Y-97567857D01*
X163146428Y-97510714D01*
X163175000Y-97396428D01*
X163175000Y-97310714D01*
X163146428Y-97196428D01*
X163117857Y-97139285D01*
X163060714Y-97082142D01*
X162975000Y-97053571D01*
X162917857Y-97053571D01*
X162832142Y-97082142D01*
X162803571Y-97110714D01*
X162803571Y-97310714D01*
X162917857Y-97310714D01*
X162546428Y-97053571D02*
X162546428Y-97653571D01*
X162203571Y-97053571D01*
X162203571Y-97653571D01*
X161917857Y-97053571D02*
X161917857Y-97653571D01*
X161775000Y-97653571D01*
X161689285Y-97625000D01*
X161632142Y-97567857D01*
X161603571Y-97510714D01*
X161575000Y-97396428D01*
X161575000Y-97310714D01*
X161603571Y-97196428D01*
X161632142Y-97139285D01*
X161689285Y-97082142D01*
X161775000Y-97053571D01*
X161917857Y-97053571D01*
X87332142Y-105875000D02*
X87389285Y-105903571D01*
X87475000Y-105903571D01*
X87560714Y-105875000D01*
X87617857Y-105817857D01*
X87646428Y-105760714D01*
X87675000Y-105646428D01*
X87675000Y-105560714D01*
X87646428Y-105446428D01*
X87617857Y-105389285D01*
X87560714Y-105332142D01*
X87475000Y-105303571D01*
X87417857Y-105303571D01*
X87332142Y-105332142D01*
X87303571Y-105360714D01*
X87303571Y-105560714D01*
X87417857Y-105560714D01*
X87046428Y-105303571D02*
X87046428Y-105903571D01*
X86703571Y-105303571D01*
X86703571Y-105903571D01*
X86417857Y-105303571D02*
X86417857Y-105903571D01*
X86275000Y-105903571D01*
X86189285Y-105875000D01*
X86132142Y-105817857D01*
X86103571Y-105760714D01*
X86075000Y-105646428D01*
X86075000Y-105560714D01*
X86103571Y-105446428D01*
X86132142Y-105389285D01*
X86189285Y-105332142D01*
X86275000Y-105303571D01*
X86417857Y-105303571D01*
X99065476Y-105222619D02*
X99398809Y-105698809D01*
X99636904Y-105222619D02*
X99636904Y-106222619D01*
X99255952Y-106222619D01*
X99160714Y-106175000D01*
X99113095Y-106127380D01*
X99065476Y-106032142D01*
X99065476Y-105889285D01*
X99113095Y-105794047D01*
X99160714Y-105746428D01*
X99255952Y-105698809D01*
X99636904Y-105698809D01*
X96589285Y-106175000D02*
X96684523Y-106222619D01*
X96827380Y-106222619D01*
X96970238Y-106175000D01*
X97065476Y-106079761D01*
X97113095Y-105984523D01*
X97160714Y-105794047D01*
X97160714Y-105651190D01*
X97113095Y-105460714D01*
X97065476Y-105365476D01*
X96970238Y-105270238D01*
X96827380Y-105222619D01*
X96732142Y-105222619D01*
X96589285Y-105270238D01*
X96541666Y-105317857D01*
X96541666Y-105651190D01*
X96732142Y-105651190D01*
X94255952Y-105746428D02*
X94113095Y-105698809D01*
X94065476Y-105651190D01*
X94017857Y-105555952D01*
X94017857Y-105413095D01*
X94065476Y-105317857D01*
X94113095Y-105270238D01*
X94208333Y-105222619D01*
X94589285Y-105222619D01*
X94589285Y-106222619D01*
X94255952Y-106222619D01*
X94160714Y-106175000D01*
X94113095Y-106127380D01*
X94065476Y-106032142D01*
X94065476Y-105936904D01*
X94113095Y-105841666D01*
X94160714Y-105794047D01*
X94255952Y-105746428D01*
X94589285Y-105746428D01*
X92065476Y-105222619D02*
X92065476Y-106222619D01*
X92065476Y-105746428D02*
X91494047Y-105746428D01*
X91494047Y-105222619D02*
X91494047Y-106222619D01*
X89636904Y-106222619D02*
X89303571Y-105222619D01*
X88970238Y-106222619D01*
X132832142Y-97625000D02*
X132889285Y-97653571D01*
X132975000Y-97653571D01*
X133060714Y-97625000D01*
X133117857Y-97567857D01*
X133146428Y-97510714D01*
X133175000Y-97396428D01*
X133175000Y-97310714D01*
X133146428Y-97196428D01*
X133117857Y-97139285D01*
X133060714Y-97082142D01*
X132975000Y-97053571D01*
X132917857Y-97053571D01*
X132832142Y-97082142D01*
X132803571Y-97110714D01*
X132803571Y-97310714D01*
X132917857Y-97310714D01*
X132546428Y-97053571D02*
X132546428Y-97653571D01*
X132203571Y-97053571D01*
X132203571Y-97653571D01*
X131917857Y-97053571D02*
X131917857Y-97653571D01*
X131775000Y-97653571D01*
X131689285Y-97625000D01*
X131632142Y-97567857D01*
X131603571Y-97510714D01*
X131575000Y-97396428D01*
X131575000Y-97310714D01*
X131603571Y-97196428D01*
X131632142Y-97139285D01*
X131689285Y-97082142D01*
X131775000Y-97053571D01*
X131917857Y-97053571D01*
X147332142Y-96375000D02*
X147389285Y-96403571D01*
X147475000Y-96403571D01*
X147560714Y-96375000D01*
X147617857Y-96317857D01*
X147646428Y-96260714D01*
X147675000Y-96146428D01*
X147675000Y-96060714D01*
X147646428Y-95946428D01*
X147617857Y-95889285D01*
X147560714Y-95832142D01*
X147475000Y-95803571D01*
X147417857Y-95803571D01*
X147332142Y-95832142D01*
X147303571Y-95860714D01*
X147303571Y-96060714D01*
X147417857Y-96060714D01*
X147046428Y-95803571D02*
X147046428Y-96403571D01*
X146703571Y-95803571D01*
X146703571Y-96403571D01*
X146417857Y-95803571D02*
X146417857Y-96403571D01*
X146275000Y-96403571D01*
X146189285Y-96375000D01*
X146132142Y-96317857D01*
X146103571Y-96260714D01*
X146075000Y-96146428D01*
X146075000Y-96060714D01*
X146103571Y-95946428D01*
X146132142Y-95889285D01*
X146189285Y-95832142D01*
X146275000Y-95803571D01*
X146417857Y-95803571D01*
X117332142Y-96375000D02*
X117389285Y-96403571D01*
X117475000Y-96403571D01*
X117560714Y-96375000D01*
X117617857Y-96317857D01*
X117646428Y-96260714D01*
X117675000Y-96146428D01*
X117675000Y-96060714D01*
X117646428Y-95946428D01*
X117617857Y-95889285D01*
X117560714Y-95832142D01*
X117475000Y-95803571D01*
X117417857Y-95803571D01*
X117332142Y-95832142D01*
X117303571Y-95860714D01*
X117303571Y-96060714D01*
X117417857Y-96060714D01*
X117046428Y-95803571D02*
X117046428Y-96403571D01*
X116703571Y-95803571D01*
X116703571Y-96403571D01*
X116417857Y-95803571D02*
X116417857Y-96403571D01*
X116275000Y-96403571D01*
X116189285Y-96375000D01*
X116132142Y-96317857D01*
X116103571Y-96260714D01*
X116075000Y-96146428D01*
X116075000Y-96060714D01*
X116103571Y-95946428D01*
X116132142Y-95889285D01*
X116189285Y-95832142D01*
X116275000Y-95803571D01*
X116417857Y-95803571D01*
X159065476Y-105222619D02*
X159398809Y-105698809D01*
X159636904Y-105222619D02*
X159636904Y-106222619D01*
X159255952Y-106222619D01*
X159160714Y-106175000D01*
X159113095Y-106127380D01*
X159065476Y-106032142D01*
X159065476Y-105889285D01*
X159113095Y-105794047D01*
X159160714Y-105746428D01*
X159255952Y-105698809D01*
X159636904Y-105698809D01*
X156589285Y-106175000D02*
X156684523Y-106222619D01*
X156827380Y-106222619D01*
X156970238Y-106175000D01*
X157065476Y-106079761D01*
X157113095Y-105984523D01*
X157160714Y-105794047D01*
X157160714Y-105651190D01*
X157113095Y-105460714D01*
X157065476Y-105365476D01*
X156970238Y-105270238D01*
X156827380Y-105222619D01*
X156732142Y-105222619D01*
X156589285Y-105270238D01*
X156541666Y-105317857D01*
X156541666Y-105651190D01*
X156732142Y-105651190D01*
X154255952Y-105746428D02*
X154113095Y-105698809D01*
X154065476Y-105651190D01*
X154017857Y-105555952D01*
X154017857Y-105413095D01*
X154065476Y-105317857D01*
X154113095Y-105270238D01*
X154208333Y-105222619D01*
X154589285Y-105222619D01*
X154589285Y-106222619D01*
X154255952Y-106222619D01*
X154160714Y-106175000D01*
X154113095Y-106127380D01*
X154065476Y-106032142D01*
X154065476Y-105936904D01*
X154113095Y-105841666D01*
X154160714Y-105794047D01*
X154255952Y-105746428D01*
X154589285Y-105746428D01*
X152065476Y-105222619D02*
X152065476Y-106222619D01*
X152065476Y-105746428D02*
X151494047Y-105746428D01*
X151494047Y-105222619D02*
X151494047Y-106222619D01*
X149636904Y-106222619D02*
X149303571Y-105222619D01*
X148970238Y-106222619D01*
X117332142Y-105875000D02*
X117389285Y-105903571D01*
X117475000Y-105903571D01*
X117560714Y-105875000D01*
X117617857Y-105817857D01*
X117646428Y-105760714D01*
X117675000Y-105646428D01*
X117675000Y-105560714D01*
X117646428Y-105446428D01*
X117617857Y-105389285D01*
X117560714Y-105332142D01*
X117475000Y-105303571D01*
X117417857Y-105303571D01*
X117332142Y-105332142D01*
X117303571Y-105360714D01*
X117303571Y-105560714D01*
X117417857Y-105560714D01*
X117046428Y-105303571D02*
X117046428Y-105903571D01*
X116703571Y-105303571D01*
X116703571Y-105903571D01*
X116417857Y-105303571D02*
X116417857Y-105903571D01*
X116275000Y-105903571D01*
X116189285Y-105875000D01*
X116132142Y-105817857D01*
X116103571Y-105760714D01*
X116075000Y-105646428D01*
X116075000Y-105560714D01*
X116103571Y-105446428D01*
X116132142Y-105389285D01*
X116189285Y-105332142D01*
X116275000Y-105303571D01*
X116417857Y-105303571D01*
X102832142Y-97625000D02*
X102889285Y-97653571D01*
X102975000Y-97653571D01*
X103060714Y-97625000D01*
X103117857Y-97567857D01*
X103146428Y-97510714D01*
X103175000Y-97396428D01*
X103175000Y-97310714D01*
X103146428Y-97196428D01*
X103117857Y-97139285D01*
X103060714Y-97082142D01*
X102975000Y-97053571D01*
X102917857Y-97053571D01*
X102832142Y-97082142D01*
X102803571Y-97110714D01*
X102803571Y-97310714D01*
X102917857Y-97310714D01*
X102546428Y-97053571D02*
X102546428Y-97653571D01*
X102203571Y-97053571D01*
X102203571Y-97653571D01*
X101917857Y-97053571D02*
X101917857Y-97653571D01*
X101775000Y-97653571D01*
X101689285Y-97625000D01*
X101632142Y-97567857D01*
X101603571Y-97510714D01*
X101575000Y-97396428D01*
X101575000Y-97310714D01*
X101603571Y-97196428D01*
X101632142Y-97139285D01*
X101689285Y-97082142D01*
X101775000Y-97053571D01*
X101917857Y-97053571D01*
X102832142Y-107125000D02*
X102889285Y-107153571D01*
X102975000Y-107153571D01*
X103060714Y-107125000D01*
X103117857Y-107067857D01*
X103146428Y-107010714D01*
X103175000Y-106896428D01*
X103175000Y-106810714D01*
X103146428Y-106696428D01*
X103117857Y-106639285D01*
X103060714Y-106582142D01*
X102975000Y-106553571D01*
X102917857Y-106553571D01*
X102832142Y-106582142D01*
X102803571Y-106610714D01*
X102803571Y-106810714D01*
X102917857Y-106810714D01*
X102546428Y-106553571D02*
X102546428Y-107153571D01*
X102203571Y-106553571D01*
X102203571Y-107153571D01*
X101917857Y-106553571D02*
X101917857Y-107153571D01*
X101775000Y-107153571D01*
X101689285Y-107125000D01*
X101632142Y-107067857D01*
X101603571Y-107010714D01*
X101575000Y-106896428D01*
X101575000Y-106810714D01*
X101603571Y-106696428D01*
X101632142Y-106639285D01*
X101689285Y-106582142D01*
X101775000Y-106553571D01*
X101917857Y-106553571D01*
X145275000Y-96867857D02*
X145303571Y-96810714D01*
X145303571Y-96725000D01*
X145275000Y-96639285D01*
X145217857Y-96582142D01*
X145160714Y-96553571D01*
X145046428Y-96525000D01*
X144960714Y-96525000D01*
X144846428Y-96553571D01*
X144789285Y-96582142D01*
X144732142Y-96639285D01*
X144703571Y-96725000D01*
X144703571Y-96782142D01*
X144732142Y-96867857D01*
X144760714Y-96896428D01*
X144960714Y-96896428D01*
X144960714Y-96782142D01*
X144703571Y-97153571D02*
X145303571Y-97153571D01*
X144703571Y-97496428D01*
X145303571Y-97496428D01*
X144703571Y-97782142D02*
X145303571Y-97782142D01*
X145303571Y-97925000D01*
X145275000Y-98010714D01*
X145217857Y-98067857D01*
X145160714Y-98096428D01*
X145046428Y-98125000D01*
X144960714Y-98125000D01*
X144846428Y-98096428D01*
X144789285Y-98067857D01*
X144732142Y-98010714D01*
X144703571Y-97925000D01*
X144703571Y-97782142D01*
X87332142Y-96375000D02*
X87389285Y-96403571D01*
X87475000Y-96403571D01*
X87560714Y-96375000D01*
X87617857Y-96317857D01*
X87646428Y-96260714D01*
X87675000Y-96146428D01*
X87675000Y-96060714D01*
X87646428Y-95946428D01*
X87617857Y-95889285D01*
X87560714Y-95832142D01*
X87475000Y-95803571D01*
X87417857Y-95803571D01*
X87332142Y-95832142D01*
X87303571Y-95860714D01*
X87303571Y-96060714D01*
X87417857Y-96060714D01*
X87046428Y-95803571D02*
X87046428Y-96403571D01*
X86703571Y-95803571D01*
X86703571Y-96403571D01*
X86417857Y-95803571D02*
X86417857Y-96403571D01*
X86275000Y-96403571D01*
X86189285Y-96375000D01*
X86132142Y-96317857D01*
X86103571Y-96260714D01*
X86075000Y-96146428D01*
X86075000Y-96060714D01*
X86103571Y-95946428D01*
X86132142Y-95889285D01*
X86189285Y-95832142D01*
X86275000Y-95803571D01*
X86417857Y-95803571D01*
X175275000Y-96867857D02*
X175303571Y-96810714D01*
X175303571Y-96725000D01*
X175275000Y-96639285D01*
X175217857Y-96582142D01*
X175160714Y-96553571D01*
X175046428Y-96525000D01*
X174960714Y-96525000D01*
X174846428Y-96553571D01*
X174789285Y-96582142D01*
X174732142Y-96639285D01*
X174703571Y-96725000D01*
X174703571Y-96782142D01*
X174732142Y-96867857D01*
X174760714Y-96896428D01*
X174960714Y-96896428D01*
X174960714Y-96782142D01*
X174703571Y-97153571D02*
X175303571Y-97153571D01*
X174703571Y-97496428D01*
X175303571Y-97496428D01*
X174703571Y-97782142D02*
X175303571Y-97782142D01*
X175303571Y-97925000D01*
X175275000Y-98010714D01*
X175217857Y-98067857D01*
X175160714Y-98096428D01*
X175046428Y-98125000D01*
X174960714Y-98125000D01*
X174846428Y-98096428D01*
X174789285Y-98067857D01*
X174732142Y-98010714D01*
X174703571Y-97925000D01*
X174703571Y-97782142D01*
X129065476Y-105222619D02*
X129398809Y-105698809D01*
X129636904Y-105222619D02*
X129636904Y-106222619D01*
X129255952Y-106222619D01*
X129160714Y-106175000D01*
X129113095Y-106127380D01*
X129065476Y-106032142D01*
X129065476Y-105889285D01*
X129113095Y-105794047D01*
X129160714Y-105746428D01*
X129255952Y-105698809D01*
X129636904Y-105698809D01*
X126589285Y-106175000D02*
X126684523Y-106222619D01*
X126827380Y-106222619D01*
X126970238Y-106175000D01*
X127065476Y-106079761D01*
X127113095Y-105984523D01*
X127160714Y-105794047D01*
X127160714Y-105651190D01*
X127113095Y-105460714D01*
X127065476Y-105365476D01*
X126970238Y-105270238D01*
X126827380Y-105222619D01*
X126732142Y-105222619D01*
X126589285Y-105270238D01*
X126541666Y-105317857D01*
X126541666Y-105651190D01*
X126732142Y-105651190D01*
X124255952Y-105746428D02*
X124113095Y-105698809D01*
X124065476Y-105651190D01*
X124017857Y-105555952D01*
X124017857Y-105413095D01*
X124065476Y-105317857D01*
X124113095Y-105270238D01*
X124208333Y-105222619D01*
X124589285Y-105222619D01*
X124589285Y-106222619D01*
X124255952Y-106222619D01*
X124160714Y-106175000D01*
X124113095Y-106127380D01*
X124065476Y-106032142D01*
X124065476Y-105936904D01*
X124113095Y-105841666D01*
X124160714Y-105794047D01*
X124255952Y-105746428D01*
X124589285Y-105746428D01*
X122065476Y-105222619D02*
X122065476Y-106222619D01*
X122065476Y-105746428D02*
X121494047Y-105746428D01*
X121494047Y-105222619D02*
X121494047Y-106222619D01*
X119636904Y-106222619D02*
X119303571Y-105222619D01*
X118970238Y-106222619D01*
X159065476Y-95722619D02*
X159398809Y-96198809D01*
X159636904Y-95722619D02*
X159636904Y-96722619D01*
X159255952Y-96722619D01*
X159160714Y-96675000D01*
X159113095Y-96627380D01*
X159065476Y-96532142D01*
X159065476Y-96389285D01*
X159113095Y-96294047D01*
X159160714Y-96246428D01*
X159255952Y-96198809D01*
X159636904Y-96198809D01*
X156589285Y-96675000D02*
X156684523Y-96722619D01*
X156827380Y-96722619D01*
X156970238Y-96675000D01*
X157065476Y-96579761D01*
X157113095Y-96484523D01*
X157160714Y-96294047D01*
X157160714Y-96151190D01*
X157113095Y-95960714D01*
X157065476Y-95865476D01*
X156970238Y-95770238D01*
X156827380Y-95722619D01*
X156732142Y-95722619D01*
X156589285Y-95770238D01*
X156541666Y-95817857D01*
X156541666Y-96151190D01*
X156732142Y-96151190D01*
X154255952Y-96246428D02*
X154113095Y-96198809D01*
X154065476Y-96151190D01*
X154017857Y-96055952D01*
X154017857Y-95913095D01*
X154065476Y-95817857D01*
X154113095Y-95770238D01*
X154208333Y-95722619D01*
X154589285Y-95722619D01*
X154589285Y-96722619D01*
X154255952Y-96722619D01*
X154160714Y-96675000D01*
X154113095Y-96627380D01*
X154065476Y-96532142D01*
X154065476Y-96436904D01*
X154113095Y-96341666D01*
X154160714Y-96294047D01*
X154255952Y-96246428D01*
X154589285Y-96246428D01*
X152065476Y-95722619D02*
X152065476Y-96722619D01*
X152065476Y-96246428D02*
X151494047Y-96246428D01*
X151494047Y-95722619D02*
X151494047Y-96722619D01*
X149636904Y-96722619D02*
X149303571Y-95722619D01*
X148970238Y-96722619D01*
X132832142Y-126125000D02*
X132889285Y-126153571D01*
X132975000Y-126153571D01*
X133060714Y-126125000D01*
X133117857Y-126067857D01*
X133146428Y-126010714D01*
X133175000Y-125896428D01*
X133175000Y-125810714D01*
X133146428Y-125696428D01*
X133117857Y-125639285D01*
X133060714Y-125582142D01*
X132975000Y-125553571D01*
X132917857Y-125553571D01*
X132832142Y-125582142D01*
X132803571Y-125610714D01*
X132803571Y-125810714D01*
X132917857Y-125810714D01*
X132546428Y-125553571D02*
X132546428Y-126153571D01*
X132203571Y-125553571D01*
X132203571Y-126153571D01*
X131917857Y-125553571D02*
X131917857Y-126153571D01*
X131775000Y-126153571D01*
X131689285Y-126125000D01*
X131632142Y-126067857D01*
X131603571Y-126010714D01*
X131575000Y-125896428D01*
X131575000Y-125810714D01*
X131603571Y-125696428D01*
X131632142Y-125639285D01*
X131689285Y-125582142D01*
X131775000Y-125553571D01*
X131917857Y-125553571D01*
X117332142Y-124875000D02*
X117389285Y-124903571D01*
X117475000Y-124903571D01*
X117560714Y-124875000D01*
X117617857Y-124817857D01*
X117646428Y-124760714D01*
X117675000Y-124646428D01*
X117675000Y-124560714D01*
X117646428Y-124446428D01*
X117617857Y-124389285D01*
X117560714Y-124332142D01*
X117475000Y-124303571D01*
X117417857Y-124303571D01*
X117332142Y-124332142D01*
X117303571Y-124360714D01*
X117303571Y-124560714D01*
X117417857Y-124560714D01*
X117046428Y-124303571D02*
X117046428Y-124903571D01*
X116703571Y-124303571D01*
X116703571Y-124903571D01*
X116417857Y-124303571D02*
X116417857Y-124903571D01*
X116275000Y-124903571D01*
X116189285Y-124875000D01*
X116132142Y-124817857D01*
X116103571Y-124760714D01*
X116075000Y-124646428D01*
X116075000Y-124560714D01*
X116103571Y-124446428D01*
X116132142Y-124389285D01*
X116189285Y-124332142D01*
X116275000Y-124303571D01*
X116417857Y-124303571D01*
X145275000Y-125367857D02*
X145303571Y-125310714D01*
X145303571Y-125225000D01*
X145275000Y-125139285D01*
X145217857Y-125082142D01*
X145160714Y-125053571D01*
X145046428Y-125025000D01*
X144960714Y-125025000D01*
X144846428Y-125053571D01*
X144789285Y-125082142D01*
X144732142Y-125139285D01*
X144703571Y-125225000D01*
X144703571Y-125282142D01*
X144732142Y-125367857D01*
X144760714Y-125396428D01*
X144960714Y-125396428D01*
X144960714Y-125282142D01*
X144703571Y-125653571D02*
X145303571Y-125653571D01*
X144703571Y-125996428D01*
X145303571Y-125996428D01*
X144703571Y-126282142D02*
X145303571Y-126282142D01*
X145303571Y-126425000D01*
X145275000Y-126510714D01*
X145217857Y-126567857D01*
X145160714Y-126596428D01*
X145046428Y-126625000D01*
X144960714Y-126625000D01*
X144846428Y-126596428D01*
X144789285Y-126567857D01*
X144732142Y-126510714D01*
X144703571Y-126425000D01*
X144703571Y-126282142D01*
X129065476Y-124222619D02*
X129398809Y-124698809D01*
X129636904Y-124222619D02*
X129636904Y-125222619D01*
X129255952Y-125222619D01*
X129160714Y-125175000D01*
X129113095Y-125127380D01*
X129065476Y-125032142D01*
X129065476Y-124889285D01*
X129113095Y-124794047D01*
X129160714Y-124746428D01*
X129255952Y-124698809D01*
X129636904Y-124698809D01*
X126589285Y-125175000D02*
X126684523Y-125222619D01*
X126827380Y-125222619D01*
X126970238Y-125175000D01*
X127065476Y-125079761D01*
X127113095Y-124984523D01*
X127160714Y-124794047D01*
X127160714Y-124651190D01*
X127113095Y-124460714D01*
X127065476Y-124365476D01*
X126970238Y-124270238D01*
X126827380Y-124222619D01*
X126732142Y-124222619D01*
X126589285Y-124270238D01*
X126541666Y-124317857D01*
X126541666Y-124651190D01*
X126732142Y-124651190D01*
X124255952Y-124746428D02*
X124113095Y-124698809D01*
X124065476Y-124651190D01*
X124017857Y-124555952D01*
X124017857Y-124413095D01*
X124065476Y-124317857D01*
X124113095Y-124270238D01*
X124208333Y-124222619D01*
X124589285Y-124222619D01*
X124589285Y-125222619D01*
X124255952Y-125222619D01*
X124160714Y-125175000D01*
X124113095Y-125127380D01*
X124065476Y-125032142D01*
X124065476Y-124936904D01*
X124113095Y-124841666D01*
X124160714Y-124794047D01*
X124255952Y-124746428D01*
X124589285Y-124746428D01*
X122065476Y-124222619D02*
X122065476Y-125222619D01*
X122065476Y-124746428D02*
X121494047Y-124746428D01*
X121494047Y-124222619D02*
X121494047Y-125222619D01*
X119636904Y-125222619D02*
X119303571Y-124222619D01*
X118970238Y-125222619D01*
X159065476Y-124222619D02*
X159398809Y-124698809D01*
X159636904Y-124222619D02*
X159636904Y-125222619D01*
X159255952Y-125222619D01*
X159160714Y-125175000D01*
X159113095Y-125127380D01*
X159065476Y-125032142D01*
X159065476Y-124889285D01*
X159113095Y-124794047D01*
X159160714Y-124746428D01*
X159255952Y-124698809D01*
X159636904Y-124698809D01*
X156589285Y-125175000D02*
X156684523Y-125222619D01*
X156827380Y-125222619D01*
X156970238Y-125175000D01*
X157065476Y-125079761D01*
X157113095Y-124984523D01*
X157160714Y-124794047D01*
X157160714Y-124651190D01*
X157113095Y-124460714D01*
X157065476Y-124365476D01*
X156970238Y-124270238D01*
X156827380Y-124222619D01*
X156732142Y-124222619D01*
X156589285Y-124270238D01*
X156541666Y-124317857D01*
X156541666Y-124651190D01*
X156732142Y-124651190D01*
X154255952Y-124746428D02*
X154113095Y-124698809D01*
X154065476Y-124651190D01*
X154017857Y-124555952D01*
X154017857Y-124413095D01*
X154065476Y-124317857D01*
X154113095Y-124270238D01*
X154208333Y-124222619D01*
X154589285Y-124222619D01*
X154589285Y-125222619D01*
X154255952Y-125222619D01*
X154160714Y-125175000D01*
X154113095Y-125127380D01*
X154065476Y-125032142D01*
X154065476Y-124936904D01*
X154113095Y-124841666D01*
X154160714Y-124794047D01*
X154255952Y-124746428D01*
X154589285Y-124746428D01*
X152065476Y-124222619D02*
X152065476Y-125222619D01*
X152065476Y-124746428D02*
X151494047Y-124746428D01*
X151494047Y-124222619D02*
X151494047Y-125222619D01*
X149636904Y-125222619D02*
X149303571Y-124222619D01*
X148970238Y-125222619D01*
X147332142Y-124875000D02*
X147389285Y-124903571D01*
X147475000Y-124903571D01*
X147560714Y-124875000D01*
X147617857Y-124817857D01*
X147646428Y-124760714D01*
X147675000Y-124646428D01*
X147675000Y-124560714D01*
X147646428Y-124446428D01*
X147617857Y-124389285D01*
X147560714Y-124332142D01*
X147475000Y-124303571D01*
X147417857Y-124303571D01*
X147332142Y-124332142D01*
X147303571Y-124360714D01*
X147303571Y-124560714D01*
X147417857Y-124560714D01*
X147046428Y-124303571D02*
X147046428Y-124903571D01*
X146703571Y-124303571D01*
X146703571Y-124903571D01*
X146417857Y-124303571D02*
X146417857Y-124903571D01*
X146275000Y-124903571D01*
X146189285Y-124875000D01*
X146132142Y-124817857D01*
X146103571Y-124760714D01*
X146075000Y-124646428D01*
X146075000Y-124560714D01*
X146103571Y-124446428D01*
X146132142Y-124389285D01*
X146189285Y-124332142D01*
X146275000Y-124303571D01*
X146417857Y-124303571D01*
X162832142Y-126125000D02*
X162889285Y-126153571D01*
X162975000Y-126153571D01*
X163060714Y-126125000D01*
X163117857Y-126067857D01*
X163146428Y-126010714D01*
X163175000Y-125896428D01*
X163175000Y-125810714D01*
X163146428Y-125696428D01*
X163117857Y-125639285D01*
X163060714Y-125582142D01*
X162975000Y-125553571D01*
X162917857Y-125553571D01*
X162832142Y-125582142D01*
X162803571Y-125610714D01*
X162803571Y-125810714D01*
X162917857Y-125810714D01*
X162546428Y-125553571D02*
X162546428Y-126153571D01*
X162203571Y-125553571D01*
X162203571Y-126153571D01*
X161917857Y-125553571D02*
X161917857Y-126153571D01*
X161775000Y-126153571D01*
X161689285Y-126125000D01*
X161632142Y-126067857D01*
X161603571Y-126010714D01*
X161575000Y-125896428D01*
X161575000Y-125810714D01*
X161603571Y-125696428D01*
X161632142Y-125639285D01*
X161689285Y-125582142D01*
X161775000Y-125553571D01*
X161917857Y-125553571D01*
X175275000Y-125367857D02*
X175303571Y-125310714D01*
X175303571Y-125225000D01*
X175275000Y-125139285D01*
X175217857Y-125082142D01*
X175160714Y-125053571D01*
X175046428Y-125025000D01*
X174960714Y-125025000D01*
X174846428Y-125053571D01*
X174789285Y-125082142D01*
X174732142Y-125139285D01*
X174703571Y-125225000D01*
X174703571Y-125282142D01*
X174732142Y-125367857D01*
X174760714Y-125396428D01*
X174960714Y-125396428D01*
X174960714Y-125282142D01*
X174703571Y-125653571D02*
X175303571Y-125653571D01*
X174703571Y-125996428D01*
X175303571Y-125996428D01*
X174703571Y-126282142D02*
X175303571Y-126282142D01*
X175303571Y-126425000D01*
X175275000Y-126510714D01*
X175217857Y-126567857D01*
X175160714Y-126596428D01*
X175046428Y-126625000D01*
X174960714Y-126625000D01*
X174846428Y-126596428D01*
X174789285Y-126567857D01*
X174732142Y-126510714D01*
X174703571Y-126425000D01*
X174703571Y-126282142D01*
X145275000Y-115867857D02*
X145303571Y-115810714D01*
X145303571Y-115725000D01*
X145275000Y-115639285D01*
X145217857Y-115582142D01*
X145160714Y-115553571D01*
X145046428Y-115525000D01*
X144960714Y-115525000D01*
X144846428Y-115553571D01*
X144789285Y-115582142D01*
X144732142Y-115639285D01*
X144703571Y-115725000D01*
X144703571Y-115782142D01*
X144732142Y-115867857D01*
X144760714Y-115896428D01*
X144960714Y-115896428D01*
X144960714Y-115782142D01*
X144703571Y-116153571D02*
X145303571Y-116153571D01*
X144703571Y-116496428D01*
X145303571Y-116496428D01*
X144703571Y-116782142D02*
X145303571Y-116782142D01*
X145303571Y-116925000D01*
X145275000Y-117010714D01*
X145217857Y-117067857D01*
X145160714Y-117096428D01*
X145046428Y-117125000D01*
X144960714Y-117125000D01*
X144846428Y-117096428D01*
X144789285Y-117067857D01*
X144732142Y-117010714D01*
X144703571Y-116925000D01*
X144703571Y-116782142D01*
X132832142Y-116625000D02*
X132889285Y-116653571D01*
X132975000Y-116653571D01*
X133060714Y-116625000D01*
X133117857Y-116567857D01*
X133146428Y-116510714D01*
X133175000Y-116396428D01*
X133175000Y-116310714D01*
X133146428Y-116196428D01*
X133117857Y-116139285D01*
X133060714Y-116082142D01*
X132975000Y-116053571D01*
X132917857Y-116053571D01*
X132832142Y-116082142D01*
X132803571Y-116110714D01*
X132803571Y-116310714D01*
X132917857Y-116310714D01*
X132546428Y-116053571D02*
X132546428Y-116653571D01*
X132203571Y-116053571D01*
X132203571Y-116653571D01*
X131917857Y-116053571D02*
X131917857Y-116653571D01*
X131775000Y-116653571D01*
X131689285Y-116625000D01*
X131632142Y-116567857D01*
X131603571Y-116510714D01*
X131575000Y-116396428D01*
X131575000Y-116310714D01*
X131603571Y-116196428D01*
X131632142Y-116139285D01*
X131689285Y-116082142D01*
X131775000Y-116053571D01*
X131917857Y-116053571D01*
X117332142Y-115375000D02*
X117389285Y-115403571D01*
X117475000Y-115403571D01*
X117560714Y-115375000D01*
X117617857Y-115317857D01*
X117646428Y-115260714D01*
X117675000Y-115146428D01*
X117675000Y-115060714D01*
X117646428Y-114946428D01*
X117617857Y-114889285D01*
X117560714Y-114832142D01*
X117475000Y-114803571D01*
X117417857Y-114803571D01*
X117332142Y-114832142D01*
X117303571Y-114860714D01*
X117303571Y-115060714D01*
X117417857Y-115060714D01*
X117046428Y-114803571D02*
X117046428Y-115403571D01*
X116703571Y-114803571D01*
X116703571Y-115403571D01*
X116417857Y-114803571D02*
X116417857Y-115403571D01*
X116275000Y-115403571D01*
X116189285Y-115375000D01*
X116132142Y-115317857D01*
X116103571Y-115260714D01*
X116075000Y-115146428D01*
X116075000Y-115060714D01*
X116103571Y-114946428D01*
X116132142Y-114889285D01*
X116189285Y-114832142D01*
X116275000Y-114803571D01*
X116417857Y-114803571D01*
X175275000Y-115867857D02*
X175303571Y-115810714D01*
X175303571Y-115725000D01*
X175275000Y-115639285D01*
X175217857Y-115582142D01*
X175160714Y-115553571D01*
X175046428Y-115525000D01*
X174960714Y-115525000D01*
X174846428Y-115553571D01*
X174789285Y-115582142D01*
X174732142Y-115639285D01*
X174703571Y-115725000D01*
X174703571Y-115782142D01*
X174732142Y-115867857D01*
X174760714Y-115896428D01*
X174960714Y-115896428D01*
X174960714Y-115782142D01*
X174703571Y-116153571D02*
X175303571Y-116153571D01*
X174703571Y-116496428D01*
X175303571Y-116496428D01*
X174703571Y-116782142D02*
X175303571Y-116782142D01*
X175303571Y-116925000D01*
X175275000Y-117010714D01*
X175217857Y-117067857D01*
X175160714Y-117096428D01*
X175046428Y-117125000D01*
X174960714Y-117125000D01*
X174846428Y-117096428D01*
X174789285Y-117067857D01*
X174732142Y-117010714D01*
X174703571Y-116925000D01*
X174703571Y-116782142D01*
X129065476Y-114722619D02*
X129398809Y-115198809D01*
X129636904Y-114722619D02*
X129636904Y-115722619D01*
X129255952Y-115722619D01*
X129160714Y-115675000D01*
X129113095Y-115627380D01*
X129065476Y-115532142D01*
X129065476Y-115389285D01*
X129113095Y-115294047D01*
X129160714Y-115246428D01*
X129255952Y-115198809D01*
X129636904Y-115198809D01*
X126589285Y-115675000D02*
X126684523Y-115722619D01*
X126827380Y-115722619D01*
X126970238Y-115675000D01*
X127065476Y-115579761D01*
X127113095Y-115484523D01*
X127160714Y-115294047D01*
X127160714Y-115151190D01*
X127113095Y-114960714D01*
X127065476Y-114865476D01*
X126970238Y-114770238D01*
X126827380Y-114722619D01*
X126732142Y-114722619D01*
X126589285Y-114770238D01*
X126541666Y-114817857D01*
X126541666Y-115151190D01*
X126732142Y-115151190D01*
X124255952Y-115246428D02*
X124113095Y-115198809D01*
X124065476Y-115151190D01*
X124017857Y-115055952D01*
X124017857Y-114913095D01*
X124065476Y-114817857D01*
X124113095Y-114770238D01*
X124208333Y-114722619D01*
X124589285Y-114722619D01*
X124589285Y-115722619D01*
X124255952Y-115722619D01*
X124160714Y-115675000D01*
X124113095Y-115627380D01*
X124065476Y-115532142D01*
X124065476Y-115436904D01*
X124113095Y-115341666D01*
X124160714Y-115294047D01*
X124255952Y-115246428D01*
X124589285Y-115246428D01*
X122065476Y-114722619D02*
X122065476Y-115722619D01*
X122065476Y-115246428D02*
X121494047Y-115246428D01*
X121494047Y-114722619D02*
X121494047Y-115722619D01*
X119636904Y-115722619D02*
X119303571Y-114722619D01*
X118970238Y-115722619D01*
X115275000Y-115867857D02*
X115303571Y-115810714D01*
X115303571Y-115725000D01*
X115275000Y-115639285D01*
X115217857Y-115582142D01*
X115160714Y-115553571D01*
X115046428Y-115525000D01*
X114960714Y-115525000D01*
X114846428Y-115553571D01*
X114789285Y-115582142D01*
X114732142Y-115639285D01*
X114703571Y-115725000D01*
X114703571Y-115782142D01*
X114732142Y-115867857D01*
X114760714Y-115896428D01*
X114960714Y-115896428D01*
X114960714Y-115782142D01*
X114703571Y-116153571D02*
X115303571Y-116153571D01*
X114703571Y-116496428D01*
X115303571Y-116496428D01*
X114703571Y-116782142D02*
X115303571Y-116782142D01*
X115303571Y-116925000D01*
X115275000Y-117010714D01*
X115217857Y-117067857D01*
X115160714Y-117096428D01*
X115046428Y-117125000D01*
X114960714Y-117125000D01*
X114846428Y-117096428D01*
X114789285Y-117067857D01*
X114732142Y-117010714D01*
X114703571Y-116925000D01*
X114703571Y-116782142D01*
X99065476Y-114722619D02*
X99398809Y-115198809D01*
X99636904Y-114722619D02*
X99636904Y-115722619D01*
X99255952Y-115722619D01*
X99160714Y-115675000D01*
X99113095Y-115627380D01*
X99065476Y-115532142D01*
X99065476Y-115389285D01*
X99113095Y-115294047D01*
X99160714Y-115246428D01*
X99255952Y-115198809D01*
X99636904Y-115198809D01*
X96589285Y-115675000D02*
X96684523Y-115722619D01*
X96827380Y-115722619D01*
X96970238Y-115675000D01*
X97065476Y-115579761D01*
X97113095Y-115484523D01*
X97160714Y-115294047D01*
X97160714Y-115151190D01*
X97113095Y-114960714D01*
X97065476Y-114865476D01*
X96970238Y-114770238D01*
X96827380Y-114722619D01*
X96732142Y-114722619D01*
X96589285Y-114770238D01*
X96541666Y-114817857D01*
X96541666Y-115151190D01*
X96732142Y-115151190D01*
X94255952Y-115246428D02*
X94113095Y-115198809D01*
X94065476Y-115151190D01*
X94017857Y-115055952D01*
X94017857Y-114913095D01*
X94065476Y-114817857D01*
X94113095Y-114770238D01*
X94208333Y-114722619D01*
X94589285Y-114722619D01*
X94589285Y-115722619D01*
X94255952Y-115722619D01*
X94160714Y-115675000D01*
X94113095Y-115627380D01*
X94065476Y-115532142D01*
X94065476Y-115436904D01*
X94113095Y-115341666D01*
X94160714Y-115294047D01*
X94255952Y-115246428D01*
X94589285Y-115246428D01*
X92065476Y-114722619D02*
X92065476Y-115722619D01*
X92065476Y-115246428D02*
X91494047Y-115246428D01*
X91494047Y-114722619D02*
X91494047Y-115722619D01*
X89636904Y-115722619D02*
X89303571Y-114722619D01*
X88970238Y-115722619D01*
X162832142Y-116625000D02*
X162889285Y-116653571D01*
X162975000Y-116653571D01*
X163060714Y-116625000D01*
X163117857Y-116567857D01*
X163146428Y-116510714D01*
X163175000Y-116396428D01*
X163175000Y-116310714D01*
X163146428Y-116196428D01*
X163117857Y-116139285D01*
X163060714Y-116082142D01*
X162975000Y-116053571D01*
X162917857Y-116053571D01*
X162832142Y-116082142D01*
X162803571Y-116110714D01*
X162803571Y-116310714D01*
X162917857Y-116310714D01*
X162546428Y-116053571D02*
X162546428Y-116653571D01*
X162203571Y-116053571D01*
X162203571Y-116653571D01*
X161917857Y-116053571D02*
X161917857Y-116653571D01*
X161775000Y-116653571D01*
X161689285Y-116625000D01*
X161632142Y-116567857D01*
X161603571Y-116510714D01*
X161575000Y-116396428D01*
X161575000Y-116310714D01*
X161603571Y-116196428D01*
X161632142Y-116139285D01*
X161689285Y-116082142D01*
X161775000Y-116053571D01*
X161917857Y-116053571D01*
X159065476Y-114722619D02*
X159398809Y-115198809D01*
X159636904Y-114722619D02*
X159636904Y-115722619D01*
X159255952Y-115722619D01*
X159160714Y-115675000D01*
X159113095Y-115627380D01*
X159065476Y-115532142D01*
X159065476Y-115389285D01*
X159113095Y-115294047D01*
X159160714Y-115246428D01*
X159255952Y-115198809D01*
X159636904Y-115198809D01*
X156589285Y-115675000D02*
X156684523Y-115722619D01*
X156827380Y-115722619D01*
X156970238Y-115675000D01*
X157065476Y-115579761D01*
X157113095Y-115484523D01*
X157160714Y-115294047D01*
X157160714Y-115151190D01*
X157113095Y-114960714D01*
X157065476Y-114865476D01*
X156970238Y-114770238D01*
X156827380Y-114722619D01*
X156732142Y-114722619D01*
X156589285Y-114770238D01*
X156541666Y-114817857D01*
X156541666Y-115151190D01*
X156732142Y-115151190D01*
X154255952Y-115246428D02*
X154113095Y-115198809D01*
X154065476Y-115151190D01*
X154017857Y-115055952D01*
X154017857Y-114913095D01*
X154065476Y-114817857D01*
X154113095Y-114770238D01*
X154208333Y-114722619D01*
X154589285Y-114722619D01*
X154589285Y-115722619D01*
X154255952Y-115722619D01*
X154160714Y-115675000D01*
X154113095Y-115627380D01*
X154065476Y-115532142D01*
X154065476Y-115436904D01*
X154113095Y-115341666D01*
X154160714Y-115294047D01*
X154255952Y-115246428D01*
X154589285Y-115246428D01*
X152065476Y-114722619D02*
X152065476Y-115722619D01*
X152065476Y-115246428D02*
X151494047Y-115246428D01*
X151494047Y-114722619D02*
X151494047Y-115722619D01*
X149636904Y-115722619D02*
X149303571Y-114722619D01*
X148970238Y-115722619D01*
X147332142Y-115375000D02*
X147389285Y-115403571D01*
X147475000Y-115403571D01*
X147560714Y-115375000D01*
X147617857Y-115317857D01*
X147646428Y-115260714D01*
X147675000Y-115146428D01*
X147675000Y-115060714D01*
X147646428Y-114946428D01*
X147617857Y-114889285D01*
X147560714Y-114832142D01*
X147475000Y-114803571D01*
X147417857Y-114803571D01*
X147332142Y-114832142D01*
X147303571Y-114860714D01*
X147303571Y-115060714D01*
X147417857Y-115060714D01*
X147046428Y-114803571D02*
X147046428Y-115403571D01*
X146703571Y-114803571D01*
X146703571Y-115403571D01*
X146417857Y-114803571D02*
X146417857Y-115403571D01*
X146275000Y-115403571D01*
X146189285Y-115375000D01*
X146132142Y-115317857D01*
X146103571Y-115260714D01*
X146075000Y-115146428D01*
X146075000Y-115060714D01*
X146103571Y-114946428D01*
X146132142Y-114889285D01*
X146189285Y-114832142D01*
X146275000Y-114803571D01*
X146417857Y-114803571D01*
X102832142Y-116625000D02*
X102889285Y-116653571D01*
X102975000Y-116653571D01*
X103060714Y-116625000D01*
X103117857Y-116567857D01*
X103146428Y-116510714D01*
X103175000Y-116396428D01*
X103175000Y-116310714D01*
X103146428Y-116196428D01*
X103117857Y-116139285D01*
X103060714Y-116082142D01*
X102975000Y-116053571D01*
X102917857Y-116053571D01*
X102832142Y-116082142D01*
X102803571Y-116110714D01*
X102803571Y-116310714D01*
X102917857Y-116310714D01*
X102546428Y-116053571D02*
X102546428Y-116653571D01*
X102203571Y-116053571D01*
X102203571Y-116653571D01*
X101917857Y-116053571D02*
X101917857Y-116653571D01*
X101775000Y-116653571D01*
X101689285Y-116625000D01*
X101632142Y-116567857D01*
X101603571Y-116510714D01*
X101575000Y-116396428D01*
X101575000Y-116310714D01*
X101603571Y-116196428D01*
X101632142Y-116139285D01*
X101689285Y-116082142D01*
X101775000Y-116053571D01*
X101917857Y-116053571D01*
X87332142Y-115375000D02*
X87389285Y-115403571D01*
X87475000Y-115403571D01*
X87560714Y-115375000D01*
X87617857Y-115317857D01*
X87646428Y-115260714D01*
X87675000Y-115146428D01*
X87675000Y-115060714D01*
X87646428Y-114946428D01*
X87617857Y-114889285D01*
X87560714Y-114832142D01*
X87475000Y-114803571D01*
X87417857Y-114803571D01*
X87332142Y-114832142D01*
X87303571Y-114860714D01*
X87303571Y-115060714D01*
X87417857Y-115060714D01*
X87046428Y-114803571D02*
X87046428Y-115403571D01*
X86703571Y-114803571D01*
X86703571Y-115403571D01*
X86417857Y-114803571D02*
X86417857Y-115403571D01*
X86275000Y-115403571D01*
X86189285Y-115375000D01*
X86132142Y-115317857D01*
X86103571Y-115260714D01*
X86075000Y-115146428D01*
X86075000Y-115060714D01*
X86103571Y-114946428D01*
X86132142Y-114889285D01*
X86189285Y-114832142D01*
X86275000Y-114803571D01*
X86417857Y-114803571D01*
X99065476Y-124222619D02*
X99398809Y-124698809D01*
X99636904Y-124222619D02*
X99636904Y-125222619D01*
X99255952Y-125222619D01*
X99160714Y-125175000D01*
X99113095Y-125127380D01*
X99065476Y-125032142D01*
X99065476Y-124889285D01*
X99113095Y-124794047D01*
X99160714Y-124746428D01*
X99255952Y-124698809D01*
X99636904Y-124698809D01*
X96589285Y-125175000D02*
X96684523Y-125222619D01*
X96827380Y-125222619D01*
X96970238Y-125175000D01*
X97065476Y-125079761D01*
X97113095Y-124984523D01*
X97160714Y-124794047D01*
X97160714Y-124651190D01*
X97113095Y-124460714D01*
X97065476Y-124365476D01*
X96970238Y-124270238D01*
X96827380Y-124222619D01*
X96732142Y-124222619D01*
X96589285Y-124270238D01*
X96541666Y-124317857D01*
X96541666Y-124651190D01*
X96732142Y-124651190D01*
X94255952Y-124746428D02*
X94113095Y-124698809D01*
X94065476Y-124651190D01*
X94017857Y-124555952D01*
X94017857Y-124413095D01*
X94065476Y-124317857D01*
X94113095Y-124270238D01*
X94208333Y-124222619D01*
X94589285Y-124222619D01*
X94589285Y-125222619D01*
X94255952Y-125222619D01*
X94160714Y-125175000D01*
X94113095Y-125127380D01*
X94065476Y-125032142D01*
X94065476Y-124936904D01*
X94113095Y-124841666D01*
X94160714Y-124794047D01*
X94255952Y-124746428D01*
X94589285Y-124746428D01*
X92065476Y-124222619D02*
X92065476Y-125222619D01*
X92065476Y-124746428D02*
X91494047Y-124746428D01*
X91494047Y-124222619D02*
X91494047Y-125222619D01*
X89636904Y-125222619D02*
X89303571Y-124222619D01*
X88970238Y-125222619D01*
X87332142Y-124875000D02*
X87389285Y-124903571D01*
X87475000Y-124903571D01*
X87560714Y-124875000D01*
X87617857Y-124817857D01*
X87646428Y-124760714D01*
X87675000Y-124646428D01*
X87675000Y-124560714D01*
X87646428Y-124446428D01*
X87617857Y-124389285D01*
X87560714Y-124332142D01*
X87475000Y-124303571D01*
X87417857Y-124303571D01*
X87332142Y-124332142D01*
X87303571Y-124360714D01*
X87303571Y-124560714D01*
X87417857Y-124560714D01*
X87046428Y-124303571D02*
X87046428Y-124903571D01*
X86703571Y-124303571D01*
X86703571Y-124903571D01*
X86417857Y-124303571D02*
X86417857Y-124903571D01*
X86275000Y-124903571D01*
X86189285Y-124875000D01*
X86132142Y-124817857D01*
X86103571Y-124760714D01*
X86075000Y-124646428D01*
X86075000Y-124560714D01*
X86103571Y-124446428D01*
X86132142Y-124389285D01*
X86189285Y-124332142D01*
X86275000Y-124303571D01*
X86417857Y-124303571D01*
X102832142Y-126125000D02*
X102889285Y-126153571D01*
X102975000Y-126153571D01*
X103060714Y-126125000D01*
X103117857Y-126067857D01*
X103146428Y-126010714D01*
X103175000Y-125896428D01*
X103175000Y-125810714D01*
X103146428Y-125696428D01*
X103117857Y-125639285D01*
X103060714Y-125582142D01*
X102975000Y-125553571D01*
X102917857Y-125553571D01*
X102832142Y-125582142D01*
X102803571Y-125610714D01*
X102803571Y-125810714D01*
X102917857Y-125810714D01*
X102546428Y-125553571D02*
X102546428Y-126153571D01*
X102203571Y-125553571D01*
X102203571Y-126153571D01*
X101917857Y-125553571D02*
X101917857Y-126153571D01*
X101775000Y-126153571D01*
X101689285Y-126125000D01*
X101632142Y-126067857D01*
X101603571Y-126010714D01*
X101575000Y-125896428D01*
X101575000Y-125810714D01*
X101603571Y-125696428D01*
X101632142Y-125639285D01*
X101689285Y-125582142D01*
X101775000Y-125553571D01*
X101917857Y-125553571D01*
X115275000Y-125367857D02*
X115303571Y-125310714D01*
X115303571Y-125225000D01*
X115275000Y-125139285D01*
X115217857Y-125082142D01*
X115160714Y-125053571D01*
X115046428Y-125025000D01*
X114960714Y-125025000D01*
X114846428Y-125053571D01*
X114789285Y-125082142D01*
X114732142Y-125139285D01*
X114703571Y-125225000D01*
X114703571Y-125282142D01*
X114732142Y-125367857D01*
X114760714Y-125396428D01*
X114960714Y-125396428D01*
X114960714Y-125282142D01*
X114703571Y-125653571D02*
X115303571Y-125653571D01*
X114703571Y-125996428D01*
X115303571Y-125996428D01*
X114703571Y-126282142D02*
X115303571Y-126282142D01*
X115303571Y-126425000D01*
X115275000Y-126510714D01*
X115217857Y-126567857D01*
X115160714Y-126596428D01*
X115046428Y-126625000D01*
X114960714Y-126625000D01*
X114846428Y-126596428D01*
X114789285Y-126567857D01*
X114732142Y-126510714D01*
X114703571Y-126425000D01*
X114703571Y-126282142D01*
X132832142Y-135625000D02*
X132889285Y-135653571D01*
X132975000Y-135653571D01*
X133060714Y-135625000D01*
X133117857Y-135567857D01*
X133146428Y-135510714D01*
X133175000Y-135396428D01*
X133175000Y-135310714D01*
X133146428Y-135196428D01*
X133117857Y-135139285D01*
X133060714Y-135082142D01*
X132975000Y-135053571D01*
X132917857Y-135053571D01*
X132832142Y-135082142D01*
X132803571Y-135110714D01*
X132803571Y-135310714D01*
X132917857Y-135310714D01*
X132546428Y-135053571D02*
X132546428Y-135653571D01*
X132203571Y-135053571D01*
X132203571Y-135653571D01*
X131917857Y-135053571D02*
X131917857Y-135653571D01*
X131775000Y-135653571D01*
X131689285Y-135625000D01*
X131632142Y-135567857D01*
X131603571Y-135510714D01*
X131575000Y-135396428D01*
X131575000Y-135310714D01*
X131603571Y-135196428D01*
X131632142Y-135139285D01*
X131689285Y-135082142D01*
X131775000Y-135053571D01*
X131917857Y-135053571D01*
X117332142Y-134375000D02*
X117389285Y-134403571D01*
X117475000Y-134403571D01*
X117560714Y-134375000D01*
X117617857Y-134317857D01*
X117646428Y-134260714D01*
X117675000Y-134146428D01*
X117675000Y-134060714D01*
X117646428Y-133946428D01*
X117617857Y-133889285D01*
X117560714Y-133832142D01*
X117475000Y-133803571D01*
X117417857Y-133803571D01*
X117332142Y-133832142D01*
X117303571Y-133860714D01*
X117303571Y-134060714D01*
X117417857Y-134060714D01*
X117046428Y-133803571D02*
X117046428Y-134403571D01*
X116703571Y-133803571D01*
X116703571Y-134403571D01*
X116417857Y-133803571D02*
X116417857Y-134403571D01*
X116275000Y-134403571D01*
X116189285Y-134375000D01*
X116132142Y-134317857D01*
X116103571Y-134260714D01*
X116075000Y-134146428D01*
X116075000Y-134060714D01*
X116103571Y-133946428D01*
X116132142Y-133889285D01*
X116189285Y-133832142D01*
X116275000Y-133803571D01*
X116417857Y-133803571D01*
X145275000Y-134867857D02*
X145303571Y-134810714D01*
X145303571Y-134725000D01*
X145275000Y-134639285D01*
X145217857Y-134582142D01*
X145160714Y-134553571D01*
X145046428Y-134525000D01*
X144960714Y-134525000D01*
X144846428Y-134553571D01*
X144789285Y-134582142D01*
X144732142Y-134639285D01*
X144703571Y-134725000D01*
X144703571Y-134782142D01*
X144732142Y-134867857D01*
X144760714Y-134896428D01*
X144960714Y-134896428D01*
X144960714Y-134782142D01*
X144703571Y-135153571D02*
X145303571Y-135153571D01*
X144703571Y-135496428D01*
X145303571Y-135496428D01*
X144703571Y-135782142D02*
X145303571Y-135782142D01*
X145303571Y-135925000D01*
X145275000Y-136010714D01*
X145217857Y-136067857D01*
X145160714Y-136096428D01*
X145046428Y-136125000D01*
X144960714Y-136125000D01*
X144846428Y-136096428D01*
X144789285Y-136067857D01*
X144732142Y-136010714D01*
X144703571Y-135925000D01*
X144703571Y-135782142D01*
X129065476Y-133722619D02*
X129398809Y-134198809D01*
X129636904Y-133722619D02*
X129636904Y-134722619D01*
X129255952Y-134722619D01*
X129160714Y-134675000D01*
X129113095Y-134627380D01*
X129065476Y-134532142D01*
X129065476Y-134389285D01*
X129113095Y-134294047D01*
X129160714Y-134246428D01*
X129255952Y-134198809D01*
X129636904Y-134198809D01*
X126589285Y-134675000D02*
X126684523Y-134722619D01*
X126827380Y-134722619D01*
X126970238Y-134675000D01*
X127065476Y-134579761D01*
X127113095Y-134484523D01*
X127160714Y-134294047D01*
X127160714Y-134151190D01*
X127113095Y-133960714D01*
X127065476Y-133865476D01*
X126970238Y-133770238D01*
X126827380Y-133722619D01*
X126732142Y-133722619D01*
X126589285Y-133770238D01*
X126541666Y-133817857D01*
X126541666Y-134151190D01*
X126732142Y-134151190D01*
X124255952Y-134246428D02*
X124113095Y-134198809D01*
X124065476Y-134151190D01*
X124017857Y-134055952D01*
X124017857Y-133913095D01*
X124065476Y-133817857D01*
X124113095Y-133770238D01*
X124208333Y-133722619D01*
X124589285Y-133722619D01*
X124589285Y-134722619D01*
X124255952Y-134722619D01*
X124160714Y-134675000D01*
X124113095Y-134627380D01*
X124065476Y-134532142D01*
X124065476Y-134436904D01*
X124113095Y-134341666D01*
X124160714Y-134294047D01*
X124255952Y-134246428D01*
X124589285Y-134246428D01*
X122065476Y-133722619D02*
X122065476Y-134722619D01*
X122065476Y-134246428D02*
X121494047Y-134246428D01*
X121494047Y-133722619D02*
X121494047Y-134722619D01*
X119636904Y-134722619D02*
X119303571Y-133722619D01*
X118970238Y-134722619D01*
X159065476Y-133722619D02*
X159398809Y-134198809D01*
X159636904Y-133722619D02*
X159636904Y-134722619D01*
X159255952Y-134722619D01*
X159160714Y-134675000D01*
X159113095Y-134627380D01*
X159065476Y-134532142D01*
X159065476Y-134389285D01*
X159113095Y-134294047D01*
X159160714Y-134246428D01*
X159255952Y-134198809D01*
X159636904Y-134198809D01*
X156589285Y-134675000D02*
X156684523Y-134722619D01*
X156827380Y-134722619D01*
X156970238Y-134675000D01*
X157065476Y-134579761D01*
X157113095Y-134484523D01*
X157160714Y-134294047D01*
X157160714Y-134151190D01*
X157113095Y-133960714D01*
X157065476Y-133865476D01*
X156970238Y-133770238D01*
X156827380Y-133722619D01*
X156732142Y-133722619D01*
X156589285Y-133770238D01*
X156541666Y-133817857D01*
X156541666Y-134151190D01*
X156732142Y-134151190D01*
X154255952Y-134246428D02*
X154113095Y-134198809D01*
X154065476Y-134151190D01*
X154017857Y-134055952D01*
X154017857Y-133913095D01*
X154065476Y-133817857D01*
X154113095Y-133770238D01*
X154208333Y-133722619D01*
X154589285Y-133722619D01*
X154589285Y-134722619D01*
X154255952Y-134722619D01*
X154160714Y-134675000D01*
X154113095Y-134627380D01*
X154065476Y-134532142D01*
X154065476Y-134436904D01*
X154113095Y-134341666D01*
X154160714Y-134294047D01*
X154255952Y-134246428D01*
X154589285Y-134246428D01*
X152065476Y-133722619D02*
X152065476Y-134722619D01*
X152065476Y-134246428D02*
X151494047Y-134246428D01*
X151494047Y-133722619D02*
X151494047Y-134722619D01*
X149636904Y-134722619D02*
X149303571Y-133722619D01*
X148970238Y-134722619D01*
X147332142Y-134375000D02*
X147389285Y-134403571D01*
X147475000Y-134403571D01*
X147560714Y-134375000D01*
X147617857Y-134317857D01*
X147646428Y-134260714D01*
X147675000Y-134146428D01*
X147675000Y-134060714D01*
X147646428Y-133946428D01*
X147617857Y-133889285D01*
X147560714Y-133832142D01*
X147475000Y-133803571D01*
X147417857Y-133803571D01*
X147332142Y-133832142D01*
X147303571Y-133860714D01*
X147303571Y-134060714D01*
X147417857Y-134060714D01*
X147046428Y-133803571D02*
X147046428Y-134403571D01*
X146703571Y-133803571D01*
X146703571Y-134403571D01*
X146417857Y-133803571D02*
X146417857Y-134403571D01*
X146275000Y-134403571D01*
X146189285Y-134375000D01*
X146132142Y-134317857D01*
X146103571Y-134260714D01*
X146075000Y-134146428D01*
X146075000Y-134060714D01*
X146103571Y-133946428D01*
X146132142Y-133889285D01*
X146189285Y-133832142D01*
X146275000Y-133803571D01*
X146417857Y-133803571D01*
X162832142Y-135625000D02*
X162889285Y-135653571D01*
X162975000Y-135653571D01*
X163060714Y-135625000D01*
X163117857Y-135567857D01*
X163146428Y-135510714D01*
X163175000Y-135396428D01*
X163175000Y-135310714D01*
X163146428Y-135196428D01*
X163117857Y-135139285D01*
X163060714Y-135082142D01*
X162975000Y-135053571D01*
X162917857Y-135053571D01*
X162832142Y-135082142D01*
X162803571Y-135110714D01*
X162803571Y-135310714D01*
X162917857Y-135310714D01*
X162546428Y-135053571D02*
X162546428Y-135653571D01*
X162203571Y-135053571D01*
X162203571Y-135653571D01*
X161917857Y-135053571D02*
X161917857Y-135653571D01*
X161775000Y-135653571D01*
X161689285Y-135625000D01*
X161632142Y-135567857D01*
X161603571Y-135510714D01*
X161575000Y-135396428D01*
X161575000Y-135310714D01*
X161603571Y-135196428D01*
X161632142Y-135139285D01*
X161689285Y-135082142D01*
X161775000Y-135053571D01*
X161917857Y-135053571D01*
X175275000Y-134867857D02*
X175303571Y-134810714D01*
X175303571Y-134725000D01*
X175275000Y-134639285D01*
X175217857Y-134582142D01*
X175160714Y-134553571D01*
X175046428Y-134525000D01*
X174960714Y-134525000D01*
X174846428Y-134553571D01*
X174789285Y-134582142D01*
X174732142Y-134639285D01*
X174703571Y-134725000D01*
X174703571Y-134782142D01*
X174732142Y-134867857D01*
X174760714Y-134896428D01*
X174960714Y-134896428D01*
X174960714Y-134782142D01*
X174703571Y-135153571D02*
X175303571Y-135153571D01*
X174703571Y-135496428D01*
X175303571Y-135496428D01*
X174703571Y-135782142D02*
X175303571Y-135782142D01*
X175303571Y-135925000D01*
X175275000Y-136010714D01*
X175217857Y-136067857D01*
X175160714Y-136096428D01*
X175046428Y-136125000D01*
X174960714Y-136125000D01*
X174846428Y-136096428D01*
X174789285Y-136067857D01*
X174732142Y-136010714D01*
X174703571Y-135925000D01*
X174703571Y-135782142D01*
X99065476Y-133722619D02*
X99398809Y-134198809D01*
X99636904Y-133722619D02*
X99636904Y-134722619D01*
X99255952Y-134722619D01*
X99160714Y-134675000D01*
X99113095Y-134627380D01*
X99065476Y-134532142D01*
X99065476Y-134389285D01*
X99113095Y-134294047D01*
X99160714Y-134246428D01*
X99255952Y-134198809D01*
X99636904Y-134198809D01*
X96589285Y-134675000D02*
X96684523Y-134722619D01*
X96827380Y-134722619D01*
X96970238Y-134675000D01*
X97065476Y-134579761D01*
X97113095Y-134484523D01*
X97160714Y-134294047D01*
X97160714Y-134151190D01*
X97113095Y-133960714D01*
X97065476Y-133865476D01*
X96970238Y-133770238D01*
X96827380Y-133722619D01*
X96732142Y-133722619D01*
X96589285Y-133770238D01*
X96541666Y-133817857D01*
X96541666Y-134151190D01*
X96732142Y-134151190D01*
X94255952Y-134246428D02*
X94113095Y-134198809D01*
X94065476Y-134151190D01*
X94017857Y-134055952D01*
X94017857Y-133913095D01*
X94065476Y-133817857D01*
X94113095Y-133770238D01*
X94208333Y-133722619D01*
X94589285Y-133722619D01*
X94589285Y-134722619D01*
X94255952Y-134722619D01*
X94160714Y-134675000D01*
X94113095Y-134627380D01*
X94065476Y-134532142D01*
X94065476Y-134436904D01*
X94113095Y-134341666D01*
X94160714Y-134294047D01*
X94255952Y-134246428D01*
X94589285Y-134246428D01*
X92065476Y-133722619D02*
X92065476Y-134722619D01*
X92065476Y-134246428D02*
X91494047Y-134246428D01*
X91494047Y-133722619D02*
X91494047Y-134722619D01*
X89636904Y-134722619D02*
X89303571Y-133722619D01*
X88970238Y-134722619D01*
X87332142Y-134375000D02*
X87389285Y-134403571D01*
X87475000Y-134403571D01*
X87560714Y-134375000D01*
X87617857Y-134317857D01*
X87646428Y-134260714D01*
X87675000Y-134146428D01*
X87675000Y-134060714D01*
X87646428Y-133946428D01*
X87617857Y-133889285D01*
X87560714Y-133832142D01*
X87475000Y-133803571D01*
X87417857Y-133803571D01*
X87332142Y-133832142D01*
X87303571Y-133860714D01*
X87303571Y-134060714D01*
X87417857Y-134060714D01*
X87046428Y-133803571D02*
X87046428Y-134403571D01*
X86703571Y-133803571D01*
X86703571Y-134403571D01*
X86417857Y-133803571D02*
X86417857Y-134403571D01*
X86275000Y-134403571D01*
X86189285Y-134375000D01*
X86132142Y-134317857D01*
X86103571Y-134260714D01*
X86075000Y-134146428D01*
X86075000Y-134060714D01*
X86103571Y-133946428D01*
X86132142Y-133889285D01*
X86189285Y-133832142D01*
X86275000Y-133803571D01*
X86417857Y-133803571D01*
X102832142Y-135625000D02*
X102889285Y-135653571D01*
X102975000Y-135653571D01*
X103060714Y-135625000D01*
X103117857Y-135567857D01*
X103146428Y-135510714D01*
X103175000Y-135396428D01*
X103175000Y-135310714D01*
X103146428Y-135196428D01*
X103117857Y-135139285D01*
X103060714Y-135082142D01*
X102975000Y-135053571D01*
X102917857Y-135053571D01*
X102832142Y-135082142D01*
X102803571Y-135110714D01*
X102803571Y-135310714D01*
X102917857Y-135310714D01*
X102546428Y-135053571D02*
X102546428Y-135653571D01*
X102203571Y-135053571D01*
X102203571Y-135653571D01*
X101917857Y-135053571D02*
X101917857Y-135653571D01*
X101775000Y-135653571D01*
X101689285Y-135625000D01*
X101632142Y-135567857D01*
X101603571Y-135510714D01*
X101575000Y-135396428D01*
X101575000Y-135310714D01*
X101603571Y-135196428D01*
X101632142Y-135139285D01*
X101689285Y-135082142D01*
X101775000Y-135053571D01*
X101917857Y-135053571D01*
X115275000Y-134867857D02*
X115303571Y-134810714D01*
X115303571Y-134725000D01*
X115275000Y-134639285D01*
X115217857Y-134582142D01*
X115160714Y-134553571D01*
X115046428Y-134525000D01*
X114960714Y-134525000D01*
X114846428Y-134553571D01*
X114789285Y-134582142D01*
X114732142Y-134639285D01*
X114703571Y-134725000D01*
X114703571Y-134782142D01*
X114732142Y-134867857D01*
X114760714Y-134896428D01*
X114960714Y-134896428D01*
X114960714Y-134782142D01*
X114703571Y-135153571D02*
X115303571Y-135153571D01*
X114703571Y-135496428D01*
X115303571Y-135496428D01*
X114703571Y-135782142D02*
X115303571Y-135782142D01*
X115303571Y-135925000D01*
X115275000Y-136010714D01*
X115217857Y-136067857D01*
X115160714Y-136096428D01*
X115046428Y-136125000D01*
X114960714Y-136125000D01*
X114846428Y-136096428D01*
X114789285Y-136067857D01*
X114732142Y-136010714D01*
X114703571Y-135925000D01*
X114703571Y-135782142D01*
X162832142Y-145125000D02*
X162889285Y-145153571D01*
X162975000Y-145153571D01*
X163060714Y-145125000D01*
X163117857Y-145067857D01*
X163146428Y-145010714D01*
X163175000Y-144896428D01*
X163175000Y-144810714D01*
X163146428Y-144696428D01*
X163117857Y-144639285D01*
X163060714Y-144582142D01*
X162975000Y-144553571D01*
X162917857Y-144553571D01*
X162832142Y-144582142D01*
X162803571Y-144610714D01*
X162803571Y-144810714D01*
X162917857Y-144810714D01*
X162546428Y-144553571D02*
X162546428Y-145153571D01*
X162203571Y-144553571D01*
X162203571Y-145153571D01*
X161917857Y-144553571D02*
X161917857Y-145153571D01*
X161775000Y-145153571D01*
X161689285Y-145125000D01*
X161632142Y-145067857D01*
X161603571Y-145010714D01*
X161575000Y-144896428D01*
X161575000Y-144810714D01*
X161603571Y-144696428D01*
X161632142Y-144639285D01*
X161689285Y-144582142D01*
X161775000Y-144553571D01*
X161917857Y-144553571D01*
X147332142Y-143875000D02*
X147389285Y-143903571D01*
X147475000Y-143903571D01*
X147560714Y-143875000D01*
X147617857Y-143817857D01*
X147646428Y-143760714D01*
X147675000Y-143646428D01*
X147675000Y-143560714D01*
X147646428Y-143446428D01*
X147617857Y-143389285D01*
X147560714Y-143332142D01*
X147475000Y-143303571D01*
X147417857Y-143303571D01*
X147332142Y-143332142D01*
X147303571Y-143360714D01*
X147303571Y-143560714D01*
X147417857Y-143560714D01*
X147046428Y-143303571D02*
X147046428Y-143903571D01*
X146703571Y-143303571D01*
X146703571Y-143903571D01*
X146417857Y-143303571D02*
X146417857Y-143903571D01*
X146275000Y-143903571D01*
X146189285Y-143875000D01*
X146132142Y-143817857D01*
X146103571Y-143760714D01*
X146075000Y-143646428D01*
X146075000Y-143560714D01*
X146103571Y-143446428D01*
X146132142Y-143389285D01*
X146189285Y-143332142D01*
X146275000Y-143303571D01*
X146417857Y-143303571D01*
X175275000Y-144367857D02*
X175303571Y-144310714D01*
X175303571Y-144225000D01*
X175275000Y-144139285D01*
X175217857Y-144082142D01*
X175160714Y-144053571D01*
X175046428Y-144025000D01*
X174960714Y-144025000D01*
X174846428Y-144053571D01*
X174789285Y-144082142D01*
X174732142Y-144139285D01*
X174703571Y-144225000D01*
X174703571Y-144282142D01*
X174732142Y-144367857D01*
X174760714Y-144396428D01*
X174960714Y-144396428D01*
X174960714Y-144282142D01*
X174703571Y-144653571D02*
X175303571Y-144653571D01*
X174703571Y-144996428D01*
X175303571Y-144996428D01*
X174703571Y-145282142D02*
X175303571Y-145282142D01*
X175303571Y-145425000D01*
X175275000Y-145510714D01*
X175217857Y-145567857D01*
X175160714Y-145596428D01*
X175046428Y-145625000D01*
X174960714Y-145625000D01*
X174846428Y-145596428D01*
X174789285Y-145567857D01*
X174732142Y-145510714D01*
X174703571Y-145425000D01*
X174703571Y-145282142D01*
X159065476Y-143222619D02*
X159398809Y-143698809D01*
X159636904Y-143222619D02*
X159636904Y-144222619D01*
X159255952Y-144222619D01*
X159160714Y-144175000D01*
X159113095Y-144127380D01*
X159065476Y-144032142D01*
X159065476Y-143889285D01*
X159113095Y-143794047D01*
X159160714Y-143746428D01*
X159255952Y-143698809D01*
X159636904Y-143698809D01*
X156589285Y-144175000D02*
X156684523Y-144222619D01*
X156827380Y-144222619D01*
X156970238Y-144175000D01*
X157065476Y-144079761D01*
X157113095Y-143984523D01*
X157160714Y-143794047D01*
X157160714Y-143651190D01*
X157113095Y-143460714D01*
X157065476Y-143365476D01*
X156970238Y-143270238D01*
X156827380Y-143222619D01*
X156732142Y-143222619D01*
X156589285Y-143270238D01*
X156541666Y-143317857D01*
X156541666Y-143651190D01*
X156732142Y-143651190D01*
X154255952Y-143746428D02*
X154113095Y-143698809D01*
X154065476Y-143651190D01*
X154017857Y-143555952D01*
X154017857Y-143413095D01*
X154065476Y-143317857D01*
X154113095Y-143270238D01*
X154208333Y-143222619D01*
X154589285Y-143222619D01*
X154589285Y-144222619D01*
X154255952Y-144222619D01*
X154160714Y-144175000D01*
X154113095Y-144127380D01*
X154065476Y-144032142D01*
X154065476Y-143936904D01*
X154113095Y-143841666D01*
X154160714Y-143794047D01*
X154255952Y-143746428D01*
X154589285Y-143746428D01*
X152065476Y-143222619D02*
X152065476Y-144222619D01*
X152065476Y-143746428D02*
X151494047Y-143746428D01*
X151494047Y-143222619D02*
X151494047Y-144222619D01*
X149636904Y-144222619D02*
X149303571Y-143222619D01*
X148970238Y-144222619D01*
X129065476Y-143222619D02*
X129398809Y-143698809D01*
X129636904Y-143222619D02*
X129636904Y-144222619D01*
X129255952Y-144222619D01*
X129160714Y-144175000D01*
X129113095Y-144127380D01*
X129065476Y-144032142D01*
X129065476Y-143889285D01*
X129113095Y-143794047D01*
X129160714Y-143746428D01*
X129255952Y-143698809D01*
X129636904Y-143698809D01*
X126589285Y-144175000D02*
X126684523Y-144222619D01*
X126827380Y-144222619D01*
X126970238Y-144175000D01*
X127065476Y-144079761D01*
X127113095Y-143984523D01*
X127160714Y-143794047D01*
X127160714Y-143651190D01*
X127113095Y-143460714D01*
X127065476Y-143365476D01*
X126970238Y-143270238D01*
X126827380Y-143222619D01*
X126732142Y-143222619D01*
X126589285Y-143270238D01*
X126541666Y-143317857D01*
X126541666Y-143651190D01*
X126732142Y-143651190D01*
X124255952Y-143746428D02*
X124113095Y-143698809D01*
X124065476Y-143651190D01*
X124017857Y-143555952D01*
X124017857Y-143413095D01*
X124065476Y-143317857D01*
X124113095Y-143270238D01*
X124208333Y-143222619D01*
X124589285Y-143222619D01*
X124589285Y-144222619D01*
X124255952Y-144222619D01*
X124160714Y-144175000D01*
X124113095Y-144127380D01*
X124065476Y-144032142D01*
X124065476Y-143936904D01*
X124113095Y-143841666D01*
X124160714Y-143794047D01*
X124255952Y-143746428D01*
X124589285Y-143746428D01*
X122065476Y-143222619D02*
X122065476Y-144222619D01*
X122065476Y-143746428D02*
X121494047Y-143746428D01*
X121494047Y-143222619D02*
X121494047Y-144222619D01*
X119636904Y-144222619D02*
X119303571Y-143222619D01*
X118970238Y-144222619D01*
X117332142Y-143875000D02*
X117389285Y-143903571D01*
X117475000Y-143903571D01*
X117560714Y-143875000D01*
X117617857Y-143817857D01*
X117646428Y-143760714D01*
X117675000Y-143646428D01*
X117675000Y-143560714D01*
X117646428Y-143446428D01*
X117617857Y-143389285D01*
X117560714Y-143332142D01*
X117475000Y-143303571D01*
X117417857Y-143303571D01*
X117332142Y-143332142D01*
X117303571Y-143360714D01*
X117303571Y-143560714D01*
X117417857Y-143560714D01*
X117046428Y-143303571D02*
X117046428Y-143903571D01*
X116703571Y-143303571D01*
X116703571Y-143903571D01*
X116417857Y-143303571D02*
X116417857Y-143903571D01*
X116275000Y-143903571D01*
X116189285Y-143875000D01*
X116132142Y-143817857D01*
X116103571Y-143760714D01*
X116075000Y-143646428D01*
X116075000Y-143560714D01*
X116103571Y-143446428D01*
X116132142Y-143389285D01*
X116189285Y-143332142D01*
X116275000Y-143303571D01*
X116417857Y-143303571D01*
X132832142Y-145125000D02*
X132889285Y-145153571D01*
X132975000Y-145153571D01*
X133060714Y-145125000D01*
X133117857Y-145067857D01*
X133146428Y-145010714D01*
X133175000Y-144896428D01*
X133175000Y-144810714D01*
X133146428Y-144696428D01*
X133117857Y-144639285D01*
X133060714Y-144582142D01*
X132975000Y-144553571D01*
X132917857Y-144553571D01*
X132832142Y-144582142D01*
X132803571Y-144610714D01*
X132803571Y-144810714D01*
X132917857Y-144810714D01*
X132546428Y-144553571D02*
X132546428Y-145153571D01*
X132203571Y-144553571D01*
X132203571Y-145153571D01*
X131917857Y-144553571D02*
X131917857Y-145153571D01*
X131775000Y-145153571D01*
X131689285Y-145125000D01*
X131632142Y-145067857D01*
X131603571Y-145010714D01*
X131575000Y-144896428D01*
X131575000Y-144810714D01*
X131603571Y-144696428D01*
X131632142Y-144639285D01*
X131689285Y-144582142D01*
X131775000Y-144553571D01*
X131917857Y-144553571D01*
X145275000Y-144367857D02*
X145303571Y-144310714D01*
X145303571Y-144225000D01*
X145275000Y-144139285D01*
X145217857Y-144082142D01*
X145160714Y-144053571D01*
X145046428Y-144025000D01*
X144960714Y-144025000D01*
X144846428Y-144053571D01*
X144789285Y-144082142D01*
X144732142Y-144139285D01*
X144703571Y-144225000D01*
X144703571Y-144282142D01*
X144732142Y-144367857D01*
X144760714Y-144396428D01*
X144960714Y-144396428D01*
X144960714Y-144282142D01*
X144703571Y-144653571D02*
X145303571Y-144653571D01*
X144703571Y-144996428D01*
X145303571Y-144996428D01*
X144703571Y-145282142D02*
X145303571Y-145282142D01*
X145303571Y-145425000D01*
X145275000Y-145510714D01*
X145217857Y-145567857D01*
X145160714Y-145596428D01*
X145046428Y-145625000D01*
X144960714Y-145625000D01*
X144846428Y-145596428D01*
X144789285Y-145567857D01*
X144732142Y-145510714D01*
X144703571Y-145425000D01*
X144703571Y-145282142D01*
X102832142Y-145125000D02*
X102889285Y-145153571D01*
X102975000Y-145153571D01*
X103060714Y-145125000D01*
X103117857Y-145067857D01*
X103146428Y-145010714D01*
X103175000Y-144896428D01*
X103175000Y-144810714D01*
X103146428Y-144696428D01*
X103117857Y-144639285D01*
X103060714Y-144582142D01*
X102975000Y-144553571D01*
X102917857Y-144553571D01*
X102832142Y-144582142D01*
X102803571Y-144610714D01*
X102803571Y-144810714D01*
X102917857Y-144810714D01*
X102546428Y-144553571D02*
X102546428Y-145153571D01*
X102203571Y-144553571D01*
X102203571Y-145153571D01*
X101917857Y-144553571D02*
X101917857Y-145153571D01*
X101775000Y-145153571D01*
X101689285Y-145125000D01*
X101632142Y-145067857D01*
X101603571Y-145010714D01*
X101575000Y-144896428D01*
X101575000Y-144810714D01*
X101603571Y-144696428D01*
X101632142Y-144639285D01*
X101689285Y-144582142D01*
X101775000Y-144553571D01*
X101917857Y-144553571D01*
X115275000Y-144367857D02*
X115303571Y-144310714D01*
X115303571Y-144225000D01*
X115275000Y-144139285D01*
X115217857Y-144082142D01*
X115160714Y-144053571D01*
X115046428Y-144025000D01*
X114960714Y-144025000D01*
X114846428Y-144053571D01*
X114789285Y-144082142D01*
X114732142Y-144139285D01*
X114703571Y-144225000D01*
X114703571Y-144282142D01*
X114732142Y-144367857D01*
X114760714Y-144396428D01*
X114960714Y-144396428D01*
X114960714Y-144282142D01*
X114703571Y-144653571D02*
X115303571Y-144653571D01*
X114703571Y-144996428D01*
X115303571Y-144996428D01*
X114703571Y-145282142D02*
X115303571Y-145282142D01*
X115303571Y-145425000D01*
X115275000Y-145510714D01*
X115217857Y-145567857D01*
X115160714Y-145596428D01*
X115046428Y-145625000D01*
X114960714Y-145625000D01*
X114846428Y-145596428D01*
X114789285Y-145567857D01*
X114732142Y-145510714D01*
X114703571Y-145425000D01*
X114703571Y-145282142D01*
X87332142Y-143875000D02*
X87389285Y-143903571D01*
X87475000Y-143903571D01*
X87560714Y-143875000D01*
X87617857Y-143817857D01*
X87646428Y-143760714D01*
X87675000Y-143646428D01*
X87675000Y-143560714D01*
X87646428Y-143446428D01*
X87617857Y-143389285D01*
X87560714Y-143332142D01*
X87475000Y-143303571D01*
X87417857Y-143303571D01*
X87332142Y-143332142D01*
X87303571Y-143360714D01*
X87303571Y-143560714D01*
X87417857Y-143560714D01*
X87046428Y-143303571D02*
X87046428Y-143903571D01*
X86703571Y-143303571D01*
X86703571Y-143903571D01*
X86417857Y-143303571D02*
X86417857Y-143903571D01*
X86275000Y-143903571D01*
X86189285Y-143875000D01*
X86132142Y-143817857D01*
X86103571Y-143760714D01*
X86075000Y-143646428D01*
X86075000Y-143560714D01*
X86103571Y-143446428D01*
X86132142Y-143389285D01*
X86189285Y-143332142D01*
X86275000Y-143303571D01*
X86417857Y-143303571D01*
X99065476Y-143222619D02*
X99398809Y-143698809D01*
X99636904Y-143222619D02*
X99636904Y-144222619D01*
X99255952Y-144222619D01*
X99160714Y-144175000D01*
X99113095Y-144127380D01*
X99065476Y-144032142D01*
X99065476Y-143889285D01*
X99113095Y-143794047D01*
X99160714Y-143746428D01*
X99255952Y-143698809D01*
X99636904Y-143698809D01*
X96589285Y-144175000D02*
X96684523Y-144222619D01*
X96827380Y-144222619D01*
X96970238Y-144175000D01*
X97065476Y-144079761D01*
X97113095Y-143984523D01*
X97160714Y-143794047D01*
X97160714Y-143651190D01*
X97113095Y-143460714D01*
X97065476Y-143365476D01*
X96970238Y-143270238D01*
X96827380Y-143222619D01*
X96732142Y-143222619D01*
X96589285Y-143270238D01*
X96541666Y-143317857D01*
X96541666Y-143651190D01*
X96732142Y-143651190D01*
X94255952Y-143746428D02*
X94113095Y-143698809D01*
X94065476Y-143651190D01*
X94017857Y-143555952D01*
X94017857Y-143413095D01*
X94065476Y-143317857D01*
X94113095Y-143270238D01*
X94208333Y-143222619D01*
X94589285Y-143222619D01*
X94589285Y-144222619D01*
X94255952Y-144222619D01*
X94160714Y-144175000D01*
X94113095Y-144127380D01*
X94065476Y-144032142D01*
X94065476Y-143936904D01*
X94113095Y-143841666D01*
X94160714Y-143794047D01*
X94255952Y-143746428D01*
X94589285Y-143746428D01*
X92065476Y-143222619D02*
X92065476Y-144222619D01*
X92065476Y-143746428D02*
X91494047Y-143746428D01*
X91494047Y-143222619D02*
X91494047Y-144222619D01*
X89636904Y-144222619D02*
X89303571Y-143222619D01*
X88970238Y-144222619D01*
M02*
