M48
; DRILL file {KiCad (5.1.0)-1} date 7/15/2020 4:06:52 PM
; FORMAT={-:-/ absolute / inch / decimal}
; #@! TF.CreationDate,2020-07-15T16:06:52-04:00
; #@! TF.GenerationSoftware,Kicad,Pcbnew,(5.1.0)-1
FMAT,2
INCH
T1C0.0157
T2C0.0394
%
G90
G05
T1
X3.4759Y-2.2869
X3.4759Y-2.6609
X3.4759Y-3.0349
X3.4759Y-3.409
X3.4759Y-3.783
X3.4759Y-4.157
X3.4759Y-4.531
X3.4759Y-4.905
X3.4759Y-5.279
X3.4759Y-5.653
X3.678Y-2.2913
X3.678Y-2.6654
X3.678Y-3.0394
X3.678Y-3.4134
X3.678Y-3.7874
X3.678Y-4.1614
X3.678Y-4.5354
X3.678Y-4.9094
X3.678Y-5.2835
X3.678Y-5.6575
X3.7589Y-2.2943
X3.7589Y-2.6683
X3.7589Y-3.0423
X3.7589Y-3.4163
X3.7589Y-3.7904
X3.7589Y-4.1644
X3.7589Y-4.5384
X3.7589Y-4.9124
X3.7589Y-5.2864
X3.7589Y-5.6604
X3.8612Y-2.2982
X3.8612Y-2.6722
X3.8612Y-3.0463
X3.8612Y-3.4203
X3.8612Y-3.7943
X3.8612Y-4.1683
X3.8612Y-4.5423
X3.8612Y-4.9163
X3.8612Y-5.2904
X3.8612Y-5.6644
X4.1959Y-2.1467
X4.1959Y-2.5207
X4.1959Y-2.8947
X4.1959Y-3.2687
X4.1959Y-3.6427
X4.1959Y-4.0167
X4.1959Y-4.3907
X4.1959Y-4.7648
X4.1959Y-5.1388
X4.1959Y-5.5128
X4.3238Y-2.1467
X4.3238Y-2.5207
X4.3238Y-2.8947
X4.3238Y-3.2687
X4.3238Y-3.6427
X4.3238Y-4.0167
X4.3238Y-4.3907
X4.3238Y-4.7648
X4.3238Y-5.1388
X4.3238Y-5.5128
X4.657Y-2.2869
X4.657Y-2.6609
X4.657Y-3.0349
X4.657Y-3.409
X4.657Y-3.783
X4.657Y-4.157
X4.657Y-4.531
X4.657Y-4.905
X4.657Y-5.279
X4.657Y-5.653
X4.8591Y-2.2913
X4.8591Y-2.6654
X4.8591Y-3.0394
X4.8591Y-3.4134
X4.8591Y-3.7874
X4.8591Y-4.1614
X4.8591Y-4.5354
X4.8591Y-4.9094
X4.8591Y-5.2835
X4.8591Y-5.6575
X4.94Y-2.2943
X4.94Y-2.6683
X4.94Y-3.0423
X4.94Y-3.4163
X4.94Y-3.7904
X4.94Y-4.1644
X4.94Y-4.5384
X4.94Y-4.9124
X4.94Y-5.2864
X4.94Y-5.6604
X5.0423Y-2.2982
X5.0423Y-2.6722
X5.0423Y-3.0463
X5.0423Y-3.4203
X5.0423Y-3.7943
X5.0423Y-4.1683
X5.0423Y-4.5423
X5.0423Y-4.9163
X5.0423Y-5.2904
X5.0423Y-5.6644
X5.377Y-2.1467
X5.377Y-2.5207
X5.377Y-2.8947
X5.377Y-3.2687
X5.377Y-3.6427
X5.377Y-4.0167
X5.377Y-4.3907
X5.377Y-4.7648
X5.377Y-5.1388
X5.377Y-5.5128
X5.5049Y-2.1467
X5.5049Y-2.5207
X5.5049Y-2.8947
X5.5049Y-3.2687
X5.5049Y-3.6427
X5.5049Y-4.0167
X5.5049Y-4.3907
X5.5049Y-4.7648
X5.5049Y-5.1388
X5.5049Y-5.5128
X5.8381Y-2.2869
X5.8381Y-2.6609
X5.8381Y-3.0349
X5.8381Y-3.409
X5.8381Y-3.783
X5.8381Y-4.157
X5.8381Y-4.531
X5.8381Y-4.905
X5.8381Y-5.279
X5.8381Y-5.653
X6.0402Y-2.2913
X6.0402Y-2.6654
X6.0402Y-3.0394
X6.0402Y-3.4134
X6.0402Y-3.7874
X6.0402Y-4.1614
X6.0402Y-4.5354
X6.0402Y-4.9094
X6.0402Y-5.2835
X6.0402Y-5.6575
X6.1211Y-2.2943
X6.1211Y-2.6683
X6.1211Y-3.0423
X6.1211Y-3.4163
X6.1211Y-3.7904
X6.1211Y-4.1644
X6.1211Y-4.5384
X6.1211Y-4.9124
X6.1211Y-5.2864
X6.1211Y-5.6604
X6.2234Y-2.2982
X6.2234Y-2.6722
X6.2234Y-3.0463
X6.2234Y-3.4203
X6.2234Y-3.7943
X6.2234Y-4.1683
X6.2234Y-4.5423
X6.2234Y-4.9163
X6.2234Y-5.2904
X6.2234Y-5.6644
X6.5581Y-2.1467
X6.5581Y-2.5207
X6.5581Y-2.8947
X6.5581Y-3.2687
X6.5581Y-3.6427
X6.5581Y-4.0167
X6.5581Y-4.3907
X6.5581Y-4.7648
X6.5581Y-5.1388
X6.5581Y-5.5128
X6.686Y-2.1467
X6.686Y-2.5207
X6.686Y-2.8947
X6.686Y-3.2687
X6.686Y-3.6427
X6.686Y-4.0167
X6.686Y-4.3907
X6.686Y-4.7648
X6.686Y-5.1388
X6.686Y-5.5128
T2
X5.2453Y-3.0057
X5.2453Y-3.1616
X5.2904Y-3.0837
X5.3354Y-3.0057
X5.3354Y-3.1616
X5.3805Y-3.0837
X5.4256Y-3.0057
X5.4256Y-3.1616
X5.4707Y-3.0837
X5.5157Y-3.0057
X5.5157Y-3.1616
X5.5608Y-3.0837
X5.6059Y-3.0057
X5.6059Y-3.1616
X5.651Y-3.0837
X6.4264Y-4.8758
X6.4264Y-5.0317
X6.4715Y-4.9537
X6.5165Y-4.8758
X6.5165Y-5.0317
X6.5616Y-4.9537
X6.6067Y-4.8758
X6.6067Y-5.0317
X6.6518Y-4.9537
X6.6969Y-4.8758
X6.6969Y-5.0317
X6.7419Y-4.9537
X6.787Y-4.8758
X6.787Y-5.0317
X6.8321Y-4.9537
X5.2453Y-3.7537
X5.2453Y-3.9096
X5.2904Y-3.8317
X5.3354Y-3.7537
X5.3354Y-3.9096
X5.3805Y-3.8317
X5.4256Y-3.7537
X5.4256Y-3.9096
X5.4707Y-3.8317
X5.5157Y-3.7537
X5.5157Y-3.9096
X5.5608Y-3.8317
X5.6059Y-3.7537
X5.6059Y-3.9096
X5.651Y-3.8317
X6.4264Y-4.5018
X6.4264Y-4.6577
X6.4715Y-4.5797
X6.5165Y-4.5018
X6.5165Y-4.6577
X6.5616Y-4.5797
X6.6067Y-4.5018
X6.6067Y-4.6577
X6.6518Y-4.5797
X6.6969Y-4.5018
X6.6969Y-4.6577
X6.7419Y-4.5797
X6.787Y-4.5018
X6.787Y-4.6577
X6.8321Y-4.5797
X5.2453Y-5.2498
X5.2453Y-5.4057
X5.2904Y-5.3278
X5.3354Y-5.2498
X5.3354Y-5.4057
X5.3805Y-5.3278
X5.4256Y-5.2498
X5.4256Y-5.4057
X5.4707Y-5.3278
X5.5157Y-5.2498
X5.5157Y-5.4057
X5.5608Y-5.3278
X5.6059Y-5.2498
X5.6059Y-5.4057
X5.651Y-5.3278
X6.4264Y-4.1278
X6.4264Y-4.2837
X6.4715Y-4.2057
X6.5165Y-4.1278
X6.5165Y-4.2837
X6.5616Y-4.2057
X6.6067Y-4.1278
X6.6067Y-4.2837
X6.6518Y-4.2057
X6.6969Y-4.1278
X6.6969Y-4.2837
X6.7419Y-4.2057
X6.787Y-4.1278
X6.787Y-4.2837
X6.8321Y-4.2057
X4.0642Y-5.2498
X4.0642Y-5.4057
X4.1093Y-5.3278
X4.1543Y-5.2498
X4.1543Y-5.4057
X4.1994Y-5.3278
X4.2445Y-5.2498
X4.2445Y-5.4057
X4.2896Y-5.3278
X4.3346Y-5.2498
X4.3346Y-5.4057
X4.3797Y-5.3278
X4.4248Y-5.2498
X4.4248Y-5.4057
X4.4699Y-5.3278
X6.4264Y-5.6238
X6.4264Y-5.7797
X6.4715Y-5.7018
X6.5165Y-5.6238
X6.5165Y-5.7797
X6.5616Y-5.7018
X6.6067Y-5.6238
X6.6067Y-5.7797
X6.6518Y-5.7018
X6.6969Y-5.6238
X6.6969Y-5.7797
X6.7419Y-5.7018
X6.787Y-5.6238
X6.787Y-5.7797
X6.8321Y-5.7018
X6.4264Y-3.0057
X6.4264Y-3.1616
X6.4715Y-3.0837
X6.5165Y-3.0057
X6.5165Y-3.1616
X6.5616Y-3.0837
X6.6067Y-3.0057
X6.6067Y-3.1616
X6.6518Y-3.0837
X6.6969Y-3.0057
X6.6969Y-3.1616
X6.7419Y-3.0837
X6.787Y-3.0057
X6.787Y-3.1616
X6.8321Y-3.0837
X6.4264Y-2.6317
X6.4264Y-2.7876
X6.4715Y-2.7096
X6.5165Y-2.6317
X6.5165Y-2.7876
X6.5616Y-2.7096
X6.6067Y-2.6317
X6.6067Y-2.7876
X6.6518Y-2.7096
X6.6969Y-2.6317
X6.6969Y-2.7876
X6.7419Y-2.7096
X6.787Y-2.6317
X6.787Y-2.7876
X6.8321Y-2.7096
X4.0642Y-4.1278
X4.0642Y-4.2837
X4.1093Y-4.2057
X4.1543Y-4.1278
X4.1543Y-4.2837
X4.1994Y-4.2057
X4.2445Y-4.1278
X4.2445Y-4.2837
X4.2896Y-4.2057
X4.3346Y-4.1278
X4.3346Y-4.2837
X4.3797Y-4.2057
X4.4248Y-4.1278
X4.4248Y-4.2837
X4.4699Y-4.2057
X6.4264Y-3.7537
X6.4264Y-3.9096
X6.4715Y-3.8317
X6.5165Y-3.7537
X6.5165Y-3.9096
X6.5616Y-3.8317
X6.6067Y-3.7537
X6.6067Y-3.9096
X6.6518Y-3.8317
X6.6969Y-3.7537
X6.6969Y-3.9096
X6.7419Y-3.8317
X6.787Y-3.7537
X6.787Y-3.9096
X6.8321Y-3.8317
X4.0642Y-2.6317
X4.0642Y-2.7876
X4.1093Y-2.7096
X4.1543Y-2.6317
X4.1543Y-2.7876
X4.1994Y-2.7096
X4.2445Y-2.6317
X4.2445Y-2.7876
X4.2896Y-2.7096
X4.3346Y-2.6317
X4.3346Y-2.7876
X4.3797Y-2.7096
X4.4248Y-2.6317
X4.4248Y-2.7876
X4.4699Y-2.7096
X4.0642Y-3.3797
X4.0642Y-3.5356
X4.1093Y-3.4577
X4.1543Y-3.3797
X4.1543Y-3.5356
X4.1994Y-3.4577
X4.2445Y-3.3797
X4.2445Y-3.5356
X4.2896Y-3.4577
X4.3346Y-3.3797
X4.3346Y-3.5356
X4.3797Y-3.4577
X4.4248Y-3.3797
X4.4248Y-3.5356
X4.4699Y-3.4577
X5.2453Y-3.3797
X5.2453Y-3.5356
X5.2904Y-3.4577
X5.3354Y-3.3797
X5.3354Y-3.5356
X5.3805Y-3.4577
X5.4256Y-3.3797
X5.4256Y-3.5356
X5.4707Y-3.4577
X5.5157Y-3.3797
X5.5157Y-3.5356
X5.5608Y-3.4577
X5.6059Y-3.3797
X5.6059Y-3.5356
X5.651Y-3.4577
X6.4264Y-5.2498
X6.4264Y-5.4057
X6.4715Y-5.3278
X6.5165Y-5.2498
X6.5165Y-5.4057
X6.5616Y-5.3278
X6.6067Y-5.2498
X6.6067Y-5.4057
X6.6518Y-5.3278
X6.6969Y-5.2498
X6.6969Y-5.4057
X6.7419Y-5.3278
X6.787Y-5.2498
X6.787Y-5.4057
X6.8321Y-5.3278
X6.4264Y-3.3797
X6.4264Y-3.5356
X6.4715Y-3.4577
X6.5165Y-3.3797
X6.5165Y-3.5356
X6.5616Y-3.4577
X6.6067Y-3.3797
X6.6067Y-3.5356
X6.6518Y-3.4577
X6.6969Y-3.3797
X6.6969Y-3.5356
X6.7419Y-3.4577
X6.787Y-3.3797
X6.787Y-3.5356
X6.8321Y-3.4577
X5.2453Y-4.5018
X5.2453Y-4.6577
X5.2904Y-4.5797
X5.3354Y-4.5018
X5.3354Y-4.6577
X5.3805Y-4.5797
X5.4256Y-4.5018
X5.4256Y-4.6577
X5.4707Y-4.5797
X5.5157Y-4.5018
X5.5157Y-4.6577
X5.5608Y-4.5797
X5.6059Y-4.5018
X5.6059Y-4.6577
X5.651Y-4.5797
X5.2453Y-2.6317
X5.2453Y-2.7876
X5.2904Y-2.7096
X5.3354Y-2.6317
X5.3354Y-2.7876
X5.3805Y-2.7096
X5.4256Y-2.6317
X5.4256Y-2.7876
X5.4707Y-2.7096
X5.5157Y-2.6317
X5.5157Y-2.7876
X5.5608Y-2.7096
X5.6059Y-2.6317
X5.6059Y-2.7876
X5.651Y-2.7096
X5.2453Y-2.2577
X5.2453Y-2.4136
X5.2904Y-2.3356
X5.3354Y-2.2577
X5.3354Y-2.4136
X5.3805Y-2.3356
X5.4256Y-2.2577
X5.4256Y-2.4136
X5.4707Y-2.3356
X5.5157Y-2.2577
X5.5157Y-2.4136
X5.5608Y-2.3356
X5.6059Y-2.2577
X5.6059Y-2.4136
X5.651Y-2.3356
X4.0642Y-3.0057
X4.0642Y-3.1616
X4.1093Y-3.0837
X4.1543Y-3.0057
X4.1543Y-3.1616
X4.1994Y-3.0837
X4.2445Y-3.0057
X4.2445Y-3.1616
X4.2896Y-3.0837
X4.3346Y-3.0057
X4.3346Y-3.1616
X4.3797Y-3.0837
X4.4248Y-3.0057
X4.4248Y-3.1616
X4.4699Y-3.0837
X5.2453Y-4.1278
X5.2453Y-4.2837
X5.2904Y-4.2057
X5.3354Y-4.1278
X5.3354Y-4.2837
X5.3805Y-4.2057
X5.4256Y-4.1278
X5.4256Y-4.2837
X5.4707Y-4.2057
X5.5157Y-4.1278
X5.5157Y-4.2837
X5.5608Y-4.2057
X5.6059Y-4.1278
X5.6059Y-4.2837
X5.651Y-4.2057
X4.0642Y-3.7537
X4.0642Y-3.9096
X4.1093Y-3.8317
X4.1543Y-3.7537
X4.1543Y-3.9096
X4.1994Y-3.8317
X4.2445Y-3.7537
X4.2445Y-3.9096
X4.2896Y-3.8317
X4.3346Y-3.7537
X4.3346Y-3.9096
X4.3797Y-3.8317
X4.4248Y-3.7537
X4.4248Y-3.9096
X4.4699Y-3.8317
X4.0642Y-4.8758
X4.0642Y-5.0317
X4.1093Y-4.9537
X4.1543Y-4.8758
X4.1543Y-5.0317
X4.1994Y-4.9537
X4.2445Y-4.8758
X4.2445Y-5.0317
X4.2896Y-4.9537
X4.3346Y-4.8758
X4.3346Y-5.0317
X4.3797Y-4.9537
X4.4248Y-4.8758
X4.4248Y-5.0317
X4.4699Y-4.9537
X5.2453Y-4.8758
X5.2453Y-5.0317
X5.2904Y-4.9537
X5.3354Y-4.8758
X5.3354Y-5.0317
X5.3805Y-4.9537
X5.4256Y-4.8758
X5.4256Y-5.0317
X5.4707Y-4.9537
X5.5157Y-4.8758
X5.5157Y-5.0317
X5.5608Y-4.9537
X5.6059Y-4.8758
X5.6059Y-5.0317
X5.651Y-4.9537
X6.4264Y-2.2577
X6.4264Y-2.4136
X6.4715Y-2.3356
X6.5165Y-2.2577
X6.5165Y-2.4136
X6.5616Y-2.3356
X6.6067Y-2.2577
X6.6067Y-2.4136
X6.6518Y-2.3356
X6.6969Y-2.2577
X6.6969Y-2.4136
X6.7419Y-2.3356
X6.787Y-2.2577
X6.787Y-2.4136
X6.8321Y-2.3356
X4.0642Y-5.6238
X4.0642Y-5.7797
X4.1093Y-5.7018
X4.1543Y-5.6238
X4.1543Y-5.7797
X4.1994Y-5.7018
X4.2445Y-5.6238
X4.2445Y-5.7797
X4.2896Y-5.7018
X4.3346Y-5.6238
X4.3346Y-5.7797
X4.3797Y-5.7018
X4.4248Y-5.6238
X4.4248Y-5.7797
X4.4699Y-5.7018
X4.0642Y-4.5018
X4.0642Y-4.6577
X4.1093Y-4.5797
X4.1543Y-4.5018
X4.1543Y-4.6577
X4.1994Y-4.5797
X4.2445Y-4.5018
X4.2445Y-4.6577
X4.2896Y-4.5797
X4.3346Y-4.5018
X4.3346Y-4.6577
X4.3797Y-4.5797
X4.4248Y-4.5018
X4.4248Y-4.6577
X4.4699Y-4.5797
X5.2453Y-5.6238
X5.2453Y-5.7797
X5.2904Y-5.7018
X5.3354Y-5.6238
X5.3354Y-5.7797
X5.3805Y-5.7018
X5.4256Y-5.6238
X5.4256Y-5.7797
X5.4707Y-5.7018
X5.5157Y-5.6238
X5.5157Y-5.7797
X5.5608Y-5.7018
X5.6059Y-5.6238
X5.6059Y-5.7797
X5.651Y-5.7018
X4.0642Y-2.2577
X4.0642Y-2.4136
X4.1093Y-2.3356
X4.1543Y-2.2577
X4.1543Y-2.4136
X4.1994Y-2.3356
X4.2445Y-2.2577
X4.2445Y-2.4136
X4.2896Y-2.3356
X4.3346Y-2.2577
X4.3346Y-2.4136
X4.3797Y-2.3356
X4.4248Y-2.2577
X4.4248Y-2.4136
X4.4699Y-2.3356
T0
M30
