G04 #@! TF.GenerationSoftware,KiCad,Pcbnew,(5.1.0)-1*
G04 #@! TF.CreationDate,2020-07-15T16:06:42-04:00*
G04 #@! TF.ProjectId,Breakout Panelized,42726561-6b6f-4757-9420-50616e656c69,rev?*
G04 #@! TF.SameCoordinates,Original*
G04 #@! TF.FileFunction,Copper,L2,Bot*
G04 #@! TF.FilePolarity,Positive*
%FSLAX46Y46*%
G04 Gerber Fmt 4.6, Leading zero omitted, Abs format (unit mm)*
G04 Created by KiCad (PCBNEW (5.1.0)-1) date 2020-07-15 16:06:42*
%MOMM*%
%LPD*%
G04 APERTURE LIST*
%ADD10R,2.500000X3.800000*%
%ADD11C,1.500000*%
%ADD12R,2.300000X3.800000*%
%ADD13C,0.800000*%
%ADD14C,0.250000*%
G04 APERTURE END LIST*
D10*
X91575000Y-70725000D03*
X124825000Y-70725000D03*
D11*
X163230000Y-61305000D03*
X165520000Y-61305000D03*
X167810000Y-61305000D03*
X170100000Y-61305000D03*
X172390000Y-61305000D03*
X164375000Y-59325000D03*
X166665000Y-59325000D03*
X168955000Y-59325000D03*
X171245000Y-59325000D03*
X163230000Y-57345000D03*
X165520000Y-57345000D03*
X167810000Y-57345000D03*
X170100000Y-57345000D03*
X172390000Y-57345000D03*
X173535000Y-59325000D03*
X113535000Y-68825000D03*
X112390000Y-66845000D03*
X110100000Y-66845000D03*
X107810000Y-66845000D03*
X105520000Y-66845000D03*
X103230000Y-66845000D03*
X111245000Y-68825000D03*
X108955000Y-68825000D03*
X106665000Y-68825000D03*
X104375000Y-68825000D03*
X112390000Y-70805000D03*
X110100000Y-70805000D03*
X107810000Y-70805000D03*
X105520000Y-70805000D03*
X103230000Y-70805000D03*
D12*
X98075000Y-70725000D03*
X88325000Y-70725000D03*
D10*
X94825000Y-70725000D03*
D12*
X148325000Y-61225000D03*
X158075000Y-61225000D03*
D10*
X151575000Y-61225000D03*
D12*
X98075000Y-61225000D03*
D11*
X103230000Y-61305000D03*
X105520000Y-61305000D03*
X107810000Y-61305000D03*
X110100000Y-61305000D03*
X112390000Y-61305000D03*
X104375000Y-59325000D03*
X106665000Y-59325000D03*
X108955000Y-59325000D03*
X111245000Y-59325000D03*
X103230000Y-57345000D03*
X105520000Y-57345000D03*
X107810000Y-57345000D03*
X110100000Y-57345000D03*
X112390000Y-57345000D03*
X113535000Y-59325000D03*
D12*
X88325000Y-61225000D03*
D10*
X154825000Y-61225000D03*
X151575000Y-70725000D03*
X121575000Y-61225000D03*
D12*
X158075000Y-70725000D03*
X118325000Y-61225000D03*
X128075000Y-61225000D03*
X118325000Y-70725000D03*
D10*
X121575000Y-70725000D03*
X154825000Y-70725000D03*
D11*
X173535000Y-68825000D03*
X172390000Y-66845000D03*
X170100000Y-66845000D03*
X167810000Y-66845000D03*
X165520000Y-66845000D03*
X163230000Y-66845000D03*
X171245000Y-68825000D03*
X168955000Y-68825000D03*
X166665000Y-68825000D03*
X164375000Y-68825000D03*
X172390000Y-70805000D03*
X170100000Y-70805000D03*
X167810000Y-70805000D03*
X165520000Y-70805000D03*
X163230000Y-70805000D03*
X133230000Y-70805000D03*
X135520000Y-70805000D03*
X137810000Y-70805000D03*
X140100000Y-70805000D03*
X142390000Y-70805000D03*
X134375000Y-68825000D03*
X136665000Y-68825000D03*
X138955000Y-68825000D03*
X141245000Y-68825000D03*
X133230000Y-66845000D03*
X135520000Y-66845000D03*
X137810000Y-66845000D03*
X140100000Y-66845000D03*
X142390000Y-66845000D03*
X143535000Y-68825000D03*
D10*
X94825000Y-61225000D03*
D12*
X148325000Y-70725000D03*
D10*
X124825000Y-61225000D03*
D12*
X128075000Y-70725000D03*
D11*
X143535000Y-59325000D03*
X142390000Y-57345000D03*
X140100000Y-57345000D03*
X137810000Y-57345000D03*
X135520000Y-57345000D03*
X133230000Y-57345000D03*
X141245000Y-59325000D03*
X138955000Y-59325000D03*
X136665000Y-59325000D03*
X134375000Y-59325000D03*
X142390000Y-61305000D03*
X140100000Y-61305000D03*
X137810000Y-61305000D03*
X135520000Y-61305000D03*
X133230000Y-61305000D03*
D10*
X91575000Y-61225000D03*
X124825000Y-89725000D03*
X91575000Y-89725000D03*
X94825000Y-89725000D03*
D12*
X98075000Y-89725000D03*
X88325000Y-89725000D03*
D11*
X173535000Y-78325000D03*
X172390000Y-76345000D03*
X170100000Y-76345000D03*
X167810000Y-76345000D03*
X165520000Y-76345000D03*
X163230000Y-76345000D03*
X171245000Y-78325000D03*
X168955000Y-78325000D03*
X166665000Y-78325000D03*
X164375000Y-78325000D03*
X172390000Y-80305000D03*
X170100000Y-80305000D03*
X167810000Y-80305000D03*
X165520000Y-80305000D03*
X163230000Y-80305000D03*
X103230000Y-89805000D03*
X105520000Y-89805000D03*
X107810000Y-89805000D03*
X110100000Y-89805000D03*
X112390000Y-89805000D03*
X104375000Y-87825000D03*
X106665000Y-87825000D03*
X108955000Y-87825000D03*
X111245000Y-87825000D03*
X103230000Y-85845000D03*
X105520000Y-85845000D03*
X107810000Y-85845000D03*
X110100000Y-85845000D03*
X112390000Y-85845000D03*
X113535000Y-87825000D03*
D12*
X148325000Y-80225000D03*
X158075000Y-80225000D03*
X98075000Y-80225000D03*
D10*
X151575000Y-80225000D03*
D11*
X113535000Y-78325000D03*
X112390000Y-76345000D03*
X110100000Y-76345000D03*
X107810000Y-76345000D03*
X105520000Y-76345000D03*
X103230000Y-76345000D03*
X111245000Y-78325000D03*
X108955000Y-78325000D03*
X106665000Y-78325000D03*
X104375000Y-78325000D03*
X112390000Y-80305000D03*
X110100000Y-80305000D03*
X107810000Y-80305000D03*
X105520000Y-80305000D03*
X103230000Y-80305000D03*
D12*
X88325000Y-80225000D03*
D10*
X154825000Y-80225000D03*
X151575000Y-89725000D03*
D12*
X158075000Y-89725000D03*
X118325000Y-80225000D03*
X128075000Y-80225000D03*
D10*
X121575000Y-80225000D03*
X91575000Y-80225000D03*
X124825000Y-80225000D03*
D11*
X163230000Y-89805000D03*
X165520000Y-89805000D03*
X167810000Y-89805000D03*
X170100000Y-89805000D03*
X172390000Y-89805000D03*
X164375000Y-87825000D03*
X166665000Y-87825000D03*
X168955000Y-87825000D03*
X171245000Y-87825000D03*
X163230000Y-85845000D03*
X165520000Y-85845000D03*
X167810000Y-85845000D03*
X170100000Y-85845000D03*
X172390000Y-85845000D03*
X173535000Y-87825000D03*
D12*
X128075000Y-89725000D03*
D11*
X133230000Y-80305000D03*
X135520000Y-80305000D03*
X137810000Y-80305000D03*
X140100000Y-80305000D03*
X142390000Y-80305000D03*
X134375000Y-78325000D03*
X136665000Y-78325000D03*
X138955000Y-78325000D03*
X141245000Y-78325000D03*
X133230000Y-76345000D03*
X135520000Y-76345000D03*
X137810000Y-76345000D03*
X140100000Y-76345000D03*
X142390000Y-76345000D03*
X143535000Y-78325000D03*
X143535000Y-87825000D03*
X142390000Y-85845000D03*
X140100000Y-85845000D03*
X137810000Y-85845000D03*
X135520000Y-85845000D03*
X133230000Y-85845000D03*
X141245000Y-87825000D03*
X138955000Y-87825000D03*
X136665000Y-87825000D03*
X134375000Y-87825000D03*
X142390000Y-89805000D03*
X140100000Y-89805000D03*
X137810000Y-89805000D03*
X135520000Y-89805000D03*
X133230000Y-89805000D03*
D10*
X94825000Y-80225000D03*
D12*
X148325000Y-89725000D03*
X118325000Y-89725000D03*
D10*
X154825000Y-89725000D03*
X121575000Y-89725000D03*
X151575000Y-108725000D03*
D12*
X158075000Y-108725000D03*
D10*
X154825000Y-108725000D03*
D12*
X118325000Y-99225000D03*
D10*
X121575000Y-108725000D03*
X124825000Y-99225000D03*
D12*
X128075000Y-108725000D03*
X118325000Y-108725000D03*
D10*
X91575000Y-99225000D03*
D11*
X133230000Y-108805000D03*
X135520000Y-108805000D03*
X137810000Y-108805000D03*
X140100000Y-108805000D03*
X142390000Y-108805000D03*
X134375000Y-106825000D03*
X136665000Y-106825000D03*
X138955000Y-106825000D03*
X141245000Y-106825000D03*
X133230000Y-104845000D03*
X135520000Y-104845000D03*
X137810000Y-104845000D03*
X140100000Y-104845000D03*
X142390000Y-104845000D03*
X143535000Y-106825000D03*
X143535000Y-97325000D03*
X142390000Y-95345000D03*
X140100000Y-95345000D03*
X137810000Y-95345000D03*
X135520000Y-95345000D03*
X133230000Y-95345000D03*
X141245000Y-97325000D03*
X138955000Y-97325000D03*
X136665000Y-97325000D03*
X134375000Y-97325000D03*
X142390000Y-99305000D03*
X140100000Y-99305000D03*
X137810000Y-99305000D03*
X135520000Y-99305000D03*
X133230000Y-99305000D03*
D10*
X94825000Y-99225000D03*
D12*
X128075000Y-99225000D03*
D10*
X121575000Y-99225000D03*
D12*
X148325000Y-108725000D03*
D11*
X173535000Y-106825000D03*
X172390000Y-104845000D03*
X170100000Y-104845000D03*
X167810000Y-104845000D03*
X165520000Y-104845000D03*
X163230000Y-104845000D03*
X171245000Y-106825000D03*
X168955000Y-106825000D03*
X166665000Y-106825000D03*
X164375000Y-106825000D03*
X172390000Y-108805000D03*
X170100000Y-108805000D03*
X167810000Y-108805000D03*
X165520000Y-108805000D03*
X163230000Y-108805000D03*
D12*
X98075000Y-108725000D03*
D10*
X124825000Y-108725000D03*
X94825000Y-108725000D03*
X91575000Y-108725000D03*
D12*
X88325000Y-108725000D03*
D11*
X113535000Y-106825000D03*
X112390000Y-104845000D03*
X110100000Y-104845000D03*
X107810000Y-104845000D03*
X105520000Y-104845000D03*
X103230000Y-104845000D03*
X111245000Y-106825000D03*
X108955000Y-106825000D03*
X106665000Y-106825000D03*
X104375000Y-106825000D03*
X112390000Y-108805000D03*
X110100000Y-108805000D03*
X107810000Y-108805000D03*
X105520000Y-108805000D03*
X103230000Y-108805000D03*
X163230000Y-99305000D03*
X165520000Y-99305000D03*
X167810000Y-99305000D03*
X170100000Y-99305000D03*
X172390000Y-99305000D03*
X164375000Y-97325000D03*
X166665000Y-97325000D03*
X168955000Y-97325000D03*
X171245000Y-97325000D03*
X163230000Y-95345000D03*
X165520000Y-95345000D03*
X167810000Y-95345000D03*
X170100000Y-95345000D03*
X172390000Y-95345000D03*
X173535000Y-97325000D03*
D12*
X148325000Y-99225000D03*
X158075000Y-99225000D03*
X88325000Y-99225000D03*
X98075000Y-99225000D03*
D10*
X151575000Y-99225000D03*
X154825000Y-99225000D03*
D11*
X103230000Y-99305000D03*
X105520000Y-99305000D03*
X107810000Y-99305000D03*
X110100000Y-99305000D03*
X112390000Y-99305000D03*
X104375000Y-97325000D03*
X106665000Y-97325000D03*
X108955000Y-97325000D03*
X111245000Y-97325000D03*
X103230000Y-95345000D03*
X105520000Y-95345000D03*
X107810000Y-95345000D03*
X110100000Y-95345000D03*
X112390000Y-95345000D03*
X113535000Y-97325000D03*
D10*
X151575000Y-127725000D03*
D12*
X158075000Y-127725000D03*
D10*
X154825000Y-127725000D03*
D12*
X148325000Y-127725000D03*
D11*
X163230000Y-127805000D03*
X165520000Y-127805000D03*
X167810000Y-127805000D03*
X170100000Y-127805000D03*
X172390000Y-127805000D03*
X164375000Y-125825000D03*
X166665000Y-125825000D03*
X168955000Y-125825000D03*
X171245000Y-125825000D03*
X163230000Y-123845000D03*
X165520000Y-123845000D03*
X167810000Y-123845000D03*
X170100000Y-123845000D03*
X172390000Y-123845000D03*
X173535000Y-125825000D03*
D10*
X124825000Y-118225000D03*
X91575000Y-118225000D03*
D11*
X133230000Y-118305000D03*
X135520000Y-118305000D03*
X137810000Y-118305000D03*
X140100000Y-118305000D03*
X142390000Y-118305000D03*
X134375000Y-116325000D03*
X136665000Y-116325000D03*
X138955000Y-116325000D03*
X141245000Y-116325000D03*
X133230000Y-114345000D03*
X135520000Y-114345000D03*
X137810000Y-114345000D03*
X140100000Y-114345000D03*
X142390000Y-114345000D03*
X143535000Y-116325000D03*
D12*
X118325000Y-118225000D03*
D10*
X94825000Y-118225000D03*
D12*
X128075000Y-118225000D03*
D10*
X121575000Y-118225000D03*
D11*
X143535000Y-125825000D03*
X142390000Y-123845000D03*
X140100000Y-123845000D03*
X137810000Y-123845000D03*
X135520000Y-123845000D03*
X133230000Y-123845000D03*
X141245000Y-125825000D03*
X138955000Y-125825000D03*
X136665000Y-125825000D03*
X134375000Y-125825000D03*
X142390000Y-127805000D03*
X140100000Y-127805000D03*
X137810000Y-127805000D03*
X135520000Y-127805000D03*
X133230000Y-127805000D03*
D12*
X128075000Y-127725000D03*
X118325000Y-127725000D03*
D10*
X121575000Y-127725000D03*
X124825000Y-127725000D03*
X94825000Y-127725000D03*
X91575000Y-127725000D03*
D12*
X98075000Y-127725000D03*
X88325000Y-127725000D03*
D11*
X103230000Y-127805000D03*
X105520000Y-127805000D03*
X107810000Y-127805000D03*
X110100000Y-127805000D03*
X112390000Y-127805000D03*
X104375000Y-125825000D03*
X106665000Y-125825000D03*
X108955000Y-125825000D03*
X111245000Y-125825000D03*
X103230000Y-123845000D03*
X105520000Y-123845000D03*
X107810000Y-123845000D03*
X110100000Y-123845000D03*
X112390000Y-123845000D03*
X113535000Y-125825000D03*
X173535000Y-116325000D03*
X172390000Y-114345000D03*
X170100000Y-114345000D03*
X167810000Y-114345000D03*
X165520000Y-114345000D03*
X163230000Y-114345000D03*
X171245000Y-116325000D03*
X168955000Y-116325000D03*
X166665000Y-116325000D03*
X164375000Y-116325000D03*
X172390000Y-118305000D03*
X170100000Y-118305000D03*
X167810000Y-118305000D03*
X165520000Y-118305000D03*
X163230000Y-118305000D03*
D10*
X151575000Y-118225000D03*
D12*
X148325000Y-118225000D03*
X158075000Y-118225000D03*
D10*
X154825000Y-118225000D03*
D12*
X88325000Y-118225000D03*
X98075000Y-118225000D03*
D11*
X113535000Y-116325000D03*
X112390000Y-114345000D03*
X110100000Y-114345000D03*
X107810000Y-114345000D03*
X105520000Y-114345000D03*
X103230000Y-114345000D03*
X111245000Y-116325000D03*
X108955000Y-116325000D03*
X106665000Y-116325000D03*
X104375000Y-116325000D03*
X112390000Y-118305000D03*
X110100000Y-118305000D03*
X107810000Y-118305000D03*
X105520000Y-118305000D03*
X103230000Y-118305000D03*
D10*
X151575000Y-137225000D03*
D12*
X158075000Y-137225000D03*
D10*
X154825000Y-137225000D03*
D12*
X148325000Y-137225000D03*
D11*
X163230000Y-137305000D03*
X165520000Y-137305000D03*
X167810000Y-137305000D03*
X170100000Y-137305000D03*
X172390000Y-137305000D03*
X164375000Y-135325000D03*
X166665000Y-135325000D03*
X168955000Y-135325000D03*
X171245000Y-135325000D03*
X163230000Y-133345000D03*
X165520000Y-133345000D03*
X167810000Y-133345000D03*
X170100000Y-133345000D03*
X172390000Y-133345000D03*
X173535000Y-135325000D03*
X143535000Y-135325000D03*
X142390000Y-133345000D03*
X140100000Y-133345000D03*
X137810000Y-133345000D03*
X135520000Y-133345000D03*
X133230000Y-133345000D03*
X141245000Y-135325000D03*
X138955000Y-135325000D03*
X136665000Y-135325000D03*
X134375000Y-135325000D03*
X142390000Y-137305000D03*
X140100000Y-137305000D03*
X137810000Y-137305000D03*
X135520000Y-137305000D03*
X133230000Y-137305000D03*
D12*
X128075000Y-137225000D03*
X118325000Y-137225000D03*
D10*
X121575000Y-137225000D03*
X124825000Y-137225000D03*
X94825000Y-137225000D03*
X91575000Y-137225000D03*
D12*
X98075000Y-137225000D03*
X88325000Y-137225000D03*
D11*
X103230000Y-137305000D03*
X105520000Y-137305000D03*
X107810000Y-137305000D03*
X110100000Y-137305000D03*
X112390000Y-137305000D03*
X104375000Y-135325000D03*
X106665000Y-135325000D03*
X108955000Y-135325000D03*
X111245000Y-135325000D03*
X103230000Y-133345000D03*
X105520000Y-133345000D03*
X107810000Y-133345000D03*
X110100000Y-133345000D03*
X112390000Y-133345000D03*
X113535000Y-135325000D03*
X173535000Y-144825000D03*
X172390000Y-142845000D03*
X170100000Y-142845000D03*
X167810000Y-142845000D03*
X165520000Y-142845000D03*
X163230000Y-142845000D03*
X171245000Y-144825000D03*
X168955000Y-144825000D03*
X166665000Y-144825000D03*
X164375000Y-144825000D03*
X172390000Y-146805000D03*
X170100000Y-146805000D03*
X167810000Y-146805000D03*
X165520000Y-146805000D03*
X163230000Y-146805000D03*
D12*
X158075000Y-146725000D03*
X148325000Y-146725000D03*
D10*
X151575000Y-146725000D03*
X154825000Y-146725000D03*
X124825000Y-146725000D03*
X121575000Y-146725000D03*
D12*
X128075000Y-146725000D03*
X118325000Y-146725000D03*
D11*
X133230000Y-146805000D03*
X135520000Y-146805000D03*
X137810000Y-146805000D03*
X140100000Y-146805000D03*
X142390000Y-146805000D03*
X134375000Y-144825000D03*
X136665000Y-144825000D03*
X138955000Y-144825000D03*
X141245000Y-144825000D03*
X133230000Y-142845000D03*
X135520000Y-142845000D03*
X137810000Y-142845000D03*
X140100000Y-142845000D03*
X142390000Y-142845000D03*
X143535000Y-144825000D03*
X113535000Y-144825000D03*
X112390000Y-142845000D03*
X110100000Y-142845000D03*
X107810000Y-142845000D03*
X105520000Y-142845000D03*
X103230000Y-142845000D03*
X111245000Y-144825000D03*
X108955000Y-144825000D03*
X106665000Y-144825000D03*
X104375000Y-144825000D03*
X112390000Y-146805000D03*
X110100000Y-146805000D03*
X107810000Y-146805000D03*
X105520000Y-146805000D03*
X103230000Y-146805000D03*
D12*
X98075000Y-146725000D03*
D10*
X94825000Y-146725000D03*
X91575000Y-146725000D03*
D12*
X88325000Y-146725000D03*
D13*
X88287347Y-143587347D03*
X118287347Y-143587347D03*
X148287347Y-143587347D03*
X88287347Y-134087347D03*
X118287347Y-134087347D03*
X148287347Y-134087347D03*
X88287347Y-124587347D03*
X118287347Y-124587347D03*
X118287347Y-115087347D03*
X148287347Y-115087347D03*
X148287347Y-124587347D03*
X88287347Y-115087347D03*
X118287347Y-96087347D03*
X88287347Y-105587347D03*
X118287347Y-105587347D03*
X148287347Y-96087347D03*
X148287347Y-105587347D03*
X88287347Y-96087347D03*
X148287347Y-86587347D03*
X88287347Y-86587347D03*
X118287347Y-77087347D03*
X148287347Y-77087347D03*
X118287347Y-86587347D03*
X88287347Y-77087347D03*
X148287347Y-67587347D03*
X88287347Y-67587347D03*
X118287347Y-58087347D03*
X148287347Y-58087347D03*
X88287347Y-58087347D03*
X118287347Y-67587347D03*
X109825000Y-140025000D03*
X98075000Y-143875000D03*
X139825000Y-140025000D03*
X128075000Y-143875000D03*
X158075000Y-143875000D03*
X169825000Y-140025000D03*
X109825000Y-130525000D03*
X98075000Y-134375000D03*
X158075000Y-134375000D03*
X128075000Y-134375000D03*
X169825000Y-130525000D03*
X139825000Y-130525000D03*
X109825000Y-121025000D03*
X98075000Y-124875000D03*
X158075000Y-115375000D03*
X158075000Y-124875000D03*
X128075000Y-115375000D03*
X169825000Y-111525000D03*
X128075000Y-124875000D03*
X109825000Y-111525000D03*
X169825000Y-121025000D03*
X139825000Y-111525000D03*
X139825000Y-121025000D03*
X98075000Y-115375000D03*
X109825000Y-92525000D03*
X98075000Y-96375000D03*
X158075000Y-96375000D03*
X109825000Y-102025000D03*
X128075000Y-96375000D03*
X169825000Y-92525000D03*
X98075000Y-105875000D03*
X139825000Y-92525000D03*
X169825000Y-102025000D03*
X128075000Y-105875000D03*
X139825000Y-102025000D03*
X158075000Y-105875000D03*
X109825000Y-73525000D03*
X98075000Y-86875000D03*
X139825000Y-83025000D03*
X98075000Y-77375000D03*
X128075000Y-86875000D03*
X158075000Y-86875000D03*
X128075000Y-77375000D03*
X158075000Y-77375000D03*
X109825000Y-83025000D03*
X139825000Y-73525000D03*
X169825000Y-83025000D03*
X169825000Y-73525000D03*
X98075000Y-67875000D03*
X139825000Y-64025000D03*
X128075000Y-67875000D03*
X98075000Y-58375000D03*
X158075000Y-67875000D03*
X109825000Y-54525000D03*
X128075000Y-58375000D03*
X158075000Y-58375000D03*
X169825000Y-54525000D03*
X109825000Y-64025000D03*
X139825000Y-54525000D03*
X169825000Y-64025000D03*
X106575000Y-140025000D03*
X95475000Y-143775000D03*
X125475000Y-143775000D03*
X136575000Y-140025000D03*
X155475000Y-143775000D03*
X166575000Y-140025000D03*
X95475000Y-134275000D03*
X106575000Y-130525000D03*
X125475000Y-134275000D03*
X155475000Y-134275000D03*
X166575000Y-130525000D03*
X136575000Y-130525000D03*
X95475000Y-124775000D03*
X106575000Y-121025000D03*
X125475000Y-124775000D03*
X106575000Y-111525000D03*
X155475000Y-115275000D03*
X95475000Y-115275000D03*
X155475000Y-124775000D03*
X166575000Y-121025000D03*
X136575000Y-111525000D03*
X125475000Y-115275000D03*
X136575000Y-121025000D03*
X166575000Y-111525000D03*
X95475000Y-105775000D03*
X166575000Y-102025000D03*
X95475000Y-96275000D03*
X125475000Y-105775000D03*
X125475000Y-96275000D03*
X106575000Y-102025000D03*
X106575000Y-92525000D03*
X155475000Y-96275000D03*
X136575000Y-102025000D03*
X155475000Y-105775000D03*
X166575000Y-92525000D03*
X136575000Y-92525000D03*
X95475000Y-86775000D03*
X136575000Y-73525000D03*
X155475000Y-86775000D03*
X95475000Y-77275000D03*
X125475000Y-77275000D03*
X166575000Y-73525000D03*
X155475000Y-77275000D03*
X106575000Y-83025000D03*
X125475000Y-86775000D03*
X136575000Y-83025000D03*
X106575000Y-73525000D03*
X166575000Y-83025000D03*
X95475000Y-67775000D03*
X155475000Y-67775000D03*
X125475000Y-58275000D03*
X166575000Y-54525000D03*
X136575000Y-54525000D03*
X95475000Y-58275000D03*
X136575000Y-64025000D03*
X106575000Y-54525000D03*
X155475000Y-58275000D03*
X125475000Y-67775000D03*
X166575000Y-64025000D03*
X106575000Y-64025000D03*
X93420153Y-143700010D03*
X123420153Y-143700010D03*
X153420153Y-143700010D03*
X93420153Y-134200010D03*
X123420153Y-134200010D03*
X153420153Y-134200010D03*
X93420153Y-124700010D03*
X123420153Y-124700010D03*
X123420153Y-115200010D03*
X153420153Y-115200010D03*
X153420153Y-124700010D03*
X93420153Y-115200010D03*
X123420153Y-105700010D03*
X93420153Y-96200010D03*
X153420153Y-96200010D03*
X123420153Y-96200010D03*
X93420153Y-105700010D03*
X153420153Y-105700010D03*
X123420153Y-86700010D03*
X123420153Y-77200010D03*
X153420153Y-86700010D03*
X93420153Y-77200010D03*
X153420153Y-77200010D03*
X93420153Y-86700010D03*
X123420153Y-67700010D03*
X123420153Y-58200010D03*
X153420153Y-67700010D03*
X153420153Y-58200010D03*
X93420153Y-58200010D03*
X93420153Y-67700010D03*
D14*
X108205001Y-144075001D02*
X108955000Y-144825000D01*
X107448999Y-144075001D02*
X108205001Y-144075001D01*
X106898998Y-143525000D02*
X107448999Y-144075001D01*
X106373998Y-143525000D02*
X106898998Y-143525000D01*
X105823997Y-144075001D02*
X106373998Y-143525000D01*
X105124999Y-144075001D02*
X105823997Y-144075001D01*
X104375000Y-144825000D02*
X105124999Y-144075001D01*
X88899694Y-142975000D02*
X88287347Y-143587347D01*
X98248002Y-142975000D02*
X88899694Y-142975000D01*
X98800001Y-145349999D02*
X98800001Y-143526999D01*
X98075000Y-146825000D02*
X98075000Y-146075000D01*
X98075000Y-146075000D02*
X98800001Y-145349999D01*
X98800001Y-143526999D02*
X98248002Y-142975000D01*
X136373998Y-143525000D02*
X136898998Y-143525000D01*
X128075000Y-146075000D02*
X128800001Y-145349999D01*
X128800001Y-143526999D02*
X128248002Y-142975000D01*
X135823997Y-144075001D02*
X136373998Y-143525000D01*
X135124999Y-144075001D02*
X135823997Y-144075001D01*
X128800001Y-145349999D02*
X128800001Y-143526999D01*
X134375000Y-144825000D02*
X135124999Y-144075001D01*
X128075000Y-146825000D02*
X128075000Y-146075000D01*
X118899694Y-142975000D02*
X118287347Y-143587347D01*
X128248002Y-142975000D02*
X118899694Y-142975000D01*
X138205001Y-144075001D02*
X138955000Y-144825000D01*
X137448999Y-144075001D02*
X138205001Y-144075001D01*
X136898998Y-143525000D02*
X137448999Y-144075001D01*
X164375000Y-144825000D02*
X165124999Y-144075001D01*
X158075000Y-146075000D02*
X158800001Y-145349999D01*
X158248002Y-142975000D02*
X148899694Y-142975000D01*
X165124999Y-144075001D02*
X165823997Y-144075001D01*
X166373998Y-143525000D02*
X166898998Y-143525000D01*
X158800001Y-145349999D02*
X158800001Y-143526999D01*
X165823997Y-144075001D02*
X166373998Y-143525000D01*
X158075000Y-146825000D02*
X158075000Y-146075000D01*
X158800001Y-143526999D02*
X158248002Y-142975000D01*
X148899694Y-142975000D02*
X148287347Y-143587347D01*
X167448999Y-144075001D02*
X168205001Y-144075001D01*
X168205001Y-144075001D02*
X168955000Y-144825000D01*
X166898998Y-143525000D02*
X167448999Y-144075001D01*
X106373998Y-134025000D02*
X106898998Y-134025000D01*
X98075000Y-136575000D02*
X98800001Y-135849999D01*
X98800001Y-134026999D02*
X98248002Y-133475000D01*
X105823997Y-134575001D02*
X106373998Y-134025000D01*
X105124999Y-134575001D02*
X105823997Y-134575001D01*
X98800001Y-135849999D02*
X98800001Y-134026999D01*
X104375000Y-135325000D02*
X105124999Y-134575001D01*
X98075000Y-137325000D02*
X98075000Y-136575000D01*
X88899694Y-133475000D02*
X88287347Y-134087347D01*
X98248002Y-133475000D02*
X88899694Y-133475000D01*
X108205001Y-134575001D02*
X108955000Y-135325000D01*
X107448999Y-134575001D02*
X108205001Y-134575001D01*
X106898998Y-134025000D02*
X107448999Y-134575001D01*
X158075000Y-136575000D02*
X158800001Y-135849999D01*
X164375000Y-135325000D02*
X165124999Y-134575001D01*
X165124999Y-134575001D02*
X165823997Y-134575001D01*
X158248002Y-133475000D02*
X148899694Y-133475000D01*
X166373998Y-134025000D02*
X166898998Y-134025000D01*
X158800001Y-134026999D02*
X158248002Y-133475000D01*
X168205001Y-134575001D02*
X168955000Y-135325000D01*
X166898998Y-134025000D02*
X167448999Y-134575001D01*
X165823997Y-134575001D02*
X166373998Y-134025000D01*
X158800001Y-135849999D02*
X158800001Y-134026999D01*
X158075000Y-137325000D02*
X158075000Y-136575000D01*
X148899694Y-133475000D02*
X148287347Y-134087347D01*
X167448999Y-134575001D02*
X168205001Y-134575001D01*
X134375000Y-135325000D02*
X135124999Y-134575001D01*
X128075000Y-136575000D02*
X128800001Y-135849999D01*
X128248002Y-133475000D02*
X118899694Y-133475000D01*
X135124999Y-134575001D02*
X135823997Y-134575001D01*
X136373998Y-134025000D02*
X136898998Y-134025000D01*
X128800001Y-135849999D02*
X128800001Y-134026999D01*
X135823997Y-134575001D02*
X136373998Y-134025000D01*
X128075000Y-137325000D02*
X128075000Y-136575000D01*
X128800001Y-134026999D02*
X128248002Y-133475000D01*
X118899694Y-133475000D02*
X118287347Y-134087347D01*
X137448999Y-134575001D02*
X138205001Y-134575001D01*
X138205001Y-134575001D02*
X138955000Y-135325000D01*
X136898998Y-134025000D02*
X137448999Y-134575001D01*
X106373998Y-124525000D02*
X106898998Y-124525000D01*
X98075000Y-127075000D02*
X98800001Y-126349999D01*
X98800001Y-124526999D02*
X98248002Y-123975000D01*
X105823997Y-125075001D02*
X106373998Y-124525000D01*
X105124999Y-125075001D02*
X105823997Y-125075001D01*
X98800001Y-126349999D02*
X98800001Y-124526999D01*
X104375000Y-125825000D02*
X105124999Y-125075001D01*
X98075000Y-127825000D02*
X98075000Y-127075000D01*
X88899694Y-123975000D02*
X88287347Y-124587347D01*
X98248002Y-123975000D02*
X88899694Y-123975000D01*
X108205001Y-125075001D02*
X108955000Y-125825000D01*
X107448999Y-125075001D02*
X108205001Y-125075001D01*
X106898998Y-124525000D02*
X107448999Y-125075001D01*
X148899694Y-114475000D02*
X148287347Y-115087347D01*
X158800001Y-116849999D02*
X158800001Y-115026999D01*
X167448999Y-115575001D02*
X168205001Y-115575001D01*
X166898998Y-115025000D02*
X167448999Y-115575001D01*
X134375000Y-116325000D02*
X135124999Y-115575001D01*
X165823997Y-115575001D02*
X166373998Y-115025000D01*
X158075000Y-118325000D02*
X158075000Y-117575000D01*
X128075000Y-117575000D02*
X128800001Y-116849999D01*
X168205001Y-115575001D02*
X168955000Y-116325000D01*
X128248002Y-114475000D02*
X118899694Y-114475000D01*
X128800001Y-116849999D02*
X128800001Y-115026999D01*
X135823997Y-115575001D02*
X136373998Y-115025000D01*
X128075000Y-118325000D02*
X128075000Y-117575000D01*
X135124999Y-115575001D02*
X135823997Y-115575001D01*
X128800001Y-115026999D02*
X128248002Y-114475000D01*
X136373998Y-115025000D02*
X136898998Y-115025000D01*
X138205001Y-115575001D02*
X138955000Y-116325000D01*
X137448999Y-115575001D02*
X138205001Y-115575001D01*
X118899694Y-114475000D02*
X118287347Y-115087347D01*
X136898998Y-115025000D02*
X137448999Y-115575001D01*
X158075000Y-127075000D02*
X158800001Y-126349999D01*
X164375000Y-125825000D02*
X165124999Y-125075001D01*
X165124999Y-125075001D02*
X165823997Y-125075001D01*
X158248002Y-123975000D02*
X148899694Y-123975000D01*
X166373998Y-124525000D02*
X166898998Y-124525000D01*
X158800001Y-124526999D02*
X158248002Y-123975000D01*
X168205001Y-125075001D02*
X168955000Y-125825000D01*
X166898998Y-124525000D02*
X167448999Y-125075001D01*
X165823997Y-125075001D02*
X166373998Y-124525000D01*
X158800001Y-126349999D02*
X158800001Y-124526999D01*
X158075000Y-127825000D02*
X158075000Y-127075000D01*
X148899694Y-123975000D02*
X148287347Y-124587347D01*
X167448999Y-125075001D02*
X168205001Y-125075001D01*
X158800001Y-115026999D02*
X158248002Y-114475000D01*
X98800001Y-116849999D02*
X98800001Y-115026999D01*
X106373998Y-115025000D02*
X106898998Y-115025000D01*
X104375000Y-116325000D02*
X105124999Y-115575001D01*
X105823997Y-115575001D02*
X106373998Y-115025000D01*
X98800001Y-115026999D02*
X98248002Y-114475000D01*
X105124999Y-115575001D02*
X105823997Y-115575001D01*
X98075000Y-118325000D02*
X98075000Y-117575000D01*
X98075000Y-117575000D02*
X98800001Y-116849999D01*
X88899694Y-114475000D02*
X88287347Y-115087347D01*
X98248002Y-114475000D02*
X88899694Y-114475000D01*
X108205001Y-115575001D02*
X108955000Y-116325000D01*
X158248002Y-114475000D02*
X148899694Y-114475000D01*
X164375000Y-116325000D02*
X165124999Y-115575001D01*
X158075000Y-117575000D02*
X158800001Y-116849999D01*
X107448999Y-115575001D02*
X108205001Y-115575001D01*
X106898998Y-115025000D02*
X107448999Y-115575001D01*
X165124999Y-115575001D02*
X165823997Y-115575001D01*
X134375000Y-125825000D02*
X135124999Y-125075001D01*
X128075000Y-127075000D02*
X128800001Y-126349999D01*
X128248002Y-123975000D02*
X118899694Y-123975000D01*
X135124999Y-125075001D02*
X135823997Y-125075001D01*
X136373998Y-124525000D02*
X136898998Y-124525000D01*
X128800001Y-126349999D02*
X128800001Y-124526999D01*
X135823997Y-125075001D02*
X136373998Y-124525000D01*
X128075000Y-127825000D02*
X128075000Y-127075000D01*
X128800001Y-124526999D02*
X128248002Y-123975000D01*
X118899694Y-123975000D02*
X118287347Y-124587347D01*
X137448999Y-125075001D02*
X138205001Y-125075001D01*
X138205001Y-125075001D02*
X138955000Y-125825000D01*
X166373998Y-115025000D02*
X166898998Y-115025000D01*
X136898998Y-124525000D02*
X137448999Y-125075001D01*
X128800001Y-97849999D02*
X128800001Y-96026999D01*
X135124999Y-96575001D02*
X135823997Y-96575001D01*
X128075000Y-98575000D02*
X128800001Y-97849999D01*
X134375000Y-97325000D02*
X135124999Y-96575001D01*
X158075000Y-99325000D02*
X158075000Y-98575000D01*
X128248002Y-95475000D02*
X118899694Y-95475000D01*
X168205001Y-96575001D02*
X168955000Y-97325000D01*
X128075000Y-99325000D02*
X128075000Y-98575000D01*
X165823997Y-96575001D02*
X166373998Y-96025000D01*
X135823997Y-96575001D02*
X136373998Y-96025000D01*
X98075000Y-108825000D02*
X98075000Y-108075000D01*
X98075000Y-108075000D02*
X98800001Y-107349999D01*
X98800001Y-107349999D02*
X98800001Y-105526999D01*
X98248002Y-104975000D02*
X88899694Y-104975000D01*
X88899694Y-104975000D02*
X88287347Y-105587347D01*
X106373998Y-105525000D02*
X106898998Y-105525000D01*
X98800001Y-105526999D02*
X98248002Y-104975000D01*
X105823997Y-106075001D02*
X106373998Y-105525000D01*
X105124999Y-106075001D02*
X105823997Y-106075001D01*
X104375000Y-106825000D02*
X105124999Y-106075001D01*
X166898998Y-96025000D02*
X167448999Y-96575001D01*
X107448999Y-106075001D02*
X108205001Y-106075001D01*
X158800001Y-97849999D02*
X158800001Y-96026999D01*
X167448999Y-96575001D02*
X168205001Y-96575001D01*
X148899694Y-95475000D02*
X148287347Y-96087347D01*
X108205001Y-106075001D02*
X108955000Y-106825000D01*
X106898998Y-105525000D02*
X107448999Y-106075001D01*
X128800001Y-96026999D02*
X128248002Y-95475000D01*
X135823997Y-106075001D02*
X136373998Y-105525000D01*
X128075000Y-108825000D02*
X128075000Y-108075000D01*
X128800001Y-105526999D02*
X128248002Y-104975000D01*
X136373998Y-105525000D02*
X136898998Y-105525000D01*
X128800001Y-107349999D02*
X128800001Y-105526999D01*
X134375000Y-106825000D02*
X135124999Y-106075001D01*
X128248002Y-104975000D02*
X118899694Y-104975000D01*
X135124999Y-106075001D02*
X135823997Y-106075001D01*
X128075000Y-108075000D02*
X128800001Y-107349999D01*
X118899694Y-104975000D02*
X118287347Y-105587347D01*
X137448999Y-106075001D02*
X138205001Y-106075001D01*
X136898998Y-105525000D02*
X137448999Y-106075001D01*
X166373998Y-96025000D02*
X166898998Y-96025000D01*
X138205001Y-106075001D02*
X138955000Y-106825000D01*
X158075000Y-98575000D02*
X158800001Y-97849999D01*
X164375000Y-97325000D02*
X165124999Y-96575001D01*
X107448999Y-96575001D02*
X108205001Y-96575001D01*
X106898998Y-96025000D02*
X107448999Y-96575001D01*
X88899694Y-95475000D02*
X88287347Y-96087347D01*
X158248002Y-95475000D02*
X148899694Y-95475000D01*
X165124999Y-96575001D02*
X165823997Y-96575001D01*
X98248002Y-95475000D02*
X88899694Y-95475000D01*
X108205001Y-96575001D02*
X108955000Y-97325000D01*
X137448999Y-96575001D02*
X138205001Y-96575001D01*
X158075000Y-108075000D02*
X158800001Y-107349999D01*
X136898998Y-96025000D02*
X137448999Y-96575001D01*
X158248002Y-104975000D02*
X148899694Y-104975000D01*
X166373998Y-105525000D02*
X166898998Y-105525000D01*
X136373998Y-96025000D02*
X136898998Y-96025000D01*
X138205001Y-96575001D02*
X138955000Y-97325000D01*
X118899694Y-95475000D02*
X118287347Y-96087347D01*
X164375000Y-106825000D02*
X165124999Y-106075001D01*
X165124999Y-106075001D02*
X165823997Y-106075001D01*
X98800001Y-97849999D02*
X98800001Y-96026999D01*
X106373998Y-96025000D02*
X106898998Y-96025000D01*
X158800001Y-105526999D02*
X158248002Y-104975000D01*
X158800001Y-96026999D02*
X158248002Y-95475000D01*
X148899694Y-104975000D02*
X148287347Y-105587347D01*
X166898998Y-105525000D02*
X167448999Y-106075001D01*
X165823997Y-106075001D02*
X166373998Y-105525000D01*
X167448999Y-106075001D02*
X168205001Y-106075001D01*
X158800001Y-107349999D02*
X158800001Y-105526999D01*
X168205001Y-106075001D02*
X168955000Y-106825000D01*
X158075000Y-108825000D02*
X158075000Y-108075000D01*
X98075000Y-99325000D02*
X98075000Y-98575000D01*
X98075000Y-98575000D02*
X98800001Y-97849999D01*
X105823997Y-96575001D02*
X106373998Y-96025000D01*
X98800001Y-96026999D02*
X98248002Y-95475000D01*
X104375000Y-97325000D02*
X105124999Y-96575001D01*
X105124999Y-96575001D02*
X105823997Y-96575001D01*
X98800001Y-78849999D02*
X98800001Y-77026999D01*
X166373998Y-86525000D02*
X166898998Y-86525000D01*
X136373998Y-77025000D02*
X136898998Y-77025000D01*
X118899694Y-76475000D02*
X118287347Y-77087347D01*
X164375000Y-87825000D02*
X165124999Y-87075001D01*
X136898998Y-77025000D02*
X137448999Y-77575001D01*
X158248002Y-85975000D02*
X148899694Y-85975000D01*
X165124999Y-87075001D02*
X165823997Y-87075001D01*
X158075000Y-89075000D02*
X158800001Y-88349999D01*
X138205001Y-77575001D02*
X138955000Y-78325000D01*
X158800001Y-88349999D02*
X158800001Y-86526999D01*
X98075000Y-79575000D02*
X98800001Y-78849999D01*
X158075000Y-89825000D02*
X158075000Y-89075000D01*
X105823997Y-77575001D02*
X106373998Y-77025000D01*
X167448999Y-87075001D02*
X168205001Y-87075001D01*
X98075000Y-80325000D02*
X98075000Y-79575000D01*
X166898998Y-86525000D02*
X167448999Y-87075001D01*
X165823997Y-87075001D02*
X166373998Y-86525000D01*
X168205001Y-87075001D02*
X168955000Y-87825000D01*
X158800001Y-77026999D02*
X158248002Y-76475000D01*
X106373998Y-77025000D02*
X106898998Y-77025000D01*
X158800001Y-86526999D02*
X158248002Y-85975000D01*
X148899694Y-85975000D02*
X148287347Y-86587347D01*
X98800001Y-77026999D02*
X98248002Y-76475000D01*
X105124999Y-77575001D02*
X105823997Y-77575001D01*
X104375000Y-78325000D02*
X105124999Y-77575001D01*
X137448999Y-77575001D02*
X138205001Y-77575001D01*
X128075000Y-79575000D02*
X128800001Y-78849999D01*
X128800001Y-78849999D02*
X128800001Y-77026999D01*
X135124999Y-77575001D02*
X135823997Y-77575001D01*
X134375000Y-78325000D02*
X135124999Y-77575001D01*
X158075000Y-80325000D02*
X158075000Y-79575000D01*
X128075000Y-80325000D02*
X128075000Y-79575000D01*
X135823997Y-77575001D02*
X136373998Y-77025000D01*
X88899694Y-85975000D02*
X88287347Y-86587347D01*
X98800001Y-88349999D02*
X98800001Y-86526999D01*
X165823997Y-77575001D02*
X166373998Y-77025000D01*
X98075000Y-89825000D02*
X98075000Y-89075000D01*
X128248002Y-76475000D02*
X118899694Y-76475000D01*
X98075000Y-89075000D02*
X98800001Y-88349999D01*
X168205001Y-77575001D02*
X168955000Y-78325000D01*
X106373998Y-86525000D02*
X106898998Y-86525000D01*
X98248002Y-85975000D02*
X88899694Y-85975000D01*
X98800001Y-86526999D02*
X98248002Y-85975000D01*
X105823997Y-87075001D02*
X106373998Y-86525000D01*
X105124999Y-87075001D02*
X105823997Y-87075001D01*
X148899694Y-76475000D02*
X148287347Y-77087347D01*
X108205001Y-87075001D02*
X108955000Y-87825000D01*
X107448999Y-87075001D02*
X108205001Y-87075001D01*
X104375000Y-87825000D02*
X105124999Y-87075001D01*
X167448999Y-77575001D02*
X168205001Y-77575001D01*
X106898998Y-86525000D02*
X107448999Y-87075001D01*
X158800001Y-78849999D02*
X158800001Y-77026999D01*
X166898998Y-77025000D02*
X167448999Y-77575001D01*
X136373998Y-86525000D02*
X136898998Y-86525000D01*
X135124999Y-87075001D02*
X135823997Y-87075001D01*
X135823997Y-87075001D02*
X136373998Y-86525000D01*
X128248002Y-85975000D02*
X118899694Y-85975000D01*
X128800001Y-77026999D02*
X128248002Y-76475000D01*
X128075000Y-89075000D02*
X128800001Y-88349999D01*
X128075000Y-89825000D02*
X128075000Y-89075000D01*
X128800001Y-86526999D02*
X128248002Y-85975000D01*
X128800001Y-88349999D02*
X128800001Y-86526999D01*
X134375000Y-87825000D02*
X135124999Y-87075001D01*
X136898998Y-86525000D02*
X137448999Y-87075001D01*
X118899694Y-85975000D02*
X118287347Y-86587347D01*
X158075000Y-79575000D02*
X158800001Y-78849999D01*
X107448999Y-77575001D02*
X108205001Y-77575001D01*
X106898998Y-77025000D02*
X107448999Y-77575001D01*
X137448999Y-87075001D02*
X138205001Y-87075001D01*
X164375000Y-78325000D02*
X165124999Y-77575001D01*
X166373998Y-77025000D02*
X166898998Y-77025000D01*
X138205001Y-87075001D02*
X138955000Y-87825000D01*
X88899694Y-76475000D02*
X88287347Y-77087347D01*
X165124999Y-77575001D02*
X165823997Y-77575001D01*
X108205001Y-77575001D02*
X108955000Y-78325000D01*
X98248002Y-76475000D02*
X88899694Y-76475000D01*
X158248002Y-76475000D02*
X148899694Y-76475000D01*
X106898998Y-67525000D02*
X107448999Y-68075001D01*
X107448999Y-68075001D02*
X108205001Y-68075001D01*
X167448999Y-58575001D02*
X168205001Y-58575001D01*
X148899694Y-57475000D02*
X148287347Y-58087347D01*
X104375000Y-68825000D02*
X105124999Y-68075001D01*
X108205001Y-68075001D02*
X108955000Y-68825000D01*
X98800001Y-59849999D02*
X98800001Y-58026999D01*
X158248002Y-66975000D02*
X148899694Y-66975000D01*
X98075000Y-60575000D02*
X98800001Y-59849999D01*
X118899694Y-57475000D02*
X118287347Y-58087347D01*
X165124999Y-68075001D02*
X165823997Y-68075001D01*
X158075000Y-70075000D02*
X158800001Y-69349999D01*
X158075000Y-70825000D02*
X158075000Y-70075000D01*
X166373998Y-67525000D02*
X166898998Y-67525000D01*
X136373998Y-58025000D02*
X136898998Y-58025000D01*
X136898998Y-58025000D02*
X137448999Y-58575001D01*
X138205001Y-58575001D02*
X138955000Y-59325000D01*
X164375000Y-68825000D02*
X165124999Y-68075001D01*
X158800001Y-69349999D02*
X158800001Y-67526999D01*
X105823997Y-58575001D02*
X106373998Y-58025000D01*
X167448999Y-68075001D02*
X168205001Y-68075001D01*
X98075000Y-61325000D02*
X98075000Y-60575000D01*
X166898998Y-58025000D02*
X167448999Y-58575001D01*
X158800001Y-59849999D02*
X158800001Y-58026999D01*
X106373998Y-58025000D02*
X106898998Y-58025000D01*
X98800001Y-58026999D02*
X98248002Y-57475000D01*
X158800001Y-67526999D02*
X158248002Y-66975000D01*
X148899694Y-66975000D02*
X148287347Y-67587347D01*
X104375000Y-59325000D02*
X105124999Y-58575001D01*
X137448999Y-58575001D02*
X138205001Y-58575001D01*
X105124999Y-58575001D02*
X105823997Y-58575001D01*
X128075000Y-61325000D02*
X128075000Y-60575000D01*
X134375000Y-59325000D02*
X135124999Y-58575001D01*
X128075000Y-60575000D02*
X128800001Y-59849999D01*
X135823997Y-58575001D02*
X136373998Y-58025000D01*
X88899694Y-66975000D02*
X88287347Y-67587347D01*
X128800001Y-59849999D02*
X128800001Y-58026999D01*
X135124999Y-58575001D02*
X135823997Y-58575001D01*
X158075000Y-61325000D02*
X158075000Y-60575000D01*
X98800001Y-67526999D02*
X98248002Y-66975000D01*
X98075000Y-70075000D02*
X98800001Y-69349999D01*
X165823997Y-58575001D02*
X166373998Y-58025000D01*
X168205001Y-58575001D02*
X168955000Y-59325000D01*
X98248002Y-66975000D02*
X88899694Y-66975000D01*
X106373998Y-67525000D02*
X106898998Y-67525000D01*
X105823997Y-68075001D02*
X106373998Y-67525000D01*
X105124999Y-68075001D02*
X105823997Y-68075001D01*
X98075000Y-70825000D02*
X98075000Y-70075000D01*
X98800001Y-69349999D02*
X98800001Y-67526999D01*
X128248002Y-57475000D02*
X118899694Y-57475000D01*
X166898998Y-67525000D02*
X167448999Y-68075001D01*
X165823997Y-68075001D02*
X166373998Y-67525000D01*
X168205001Y-68075001D02*
X168955000Y-68825000D01*
X158800001Y-58026999D02*
X158248002Y-57475000D01*
X128800001Y-58026999D02*
X128248002Y-57475000D01*
X128800001Y-67526999D02*
X128248002Y-66975000D01*
X135124999Y-68075001D02*
X135823997Y-68075001D01*
X128075000Y-70825000D02*
X128075000Y-70075000D01*
X128075000Y-70075000D02*
X128800001Y-69349999D01*
X128800001Y-69349999D02*
X128800001Y-67526999D01*
X134375000Y-68825000D02*
X135124999Y-68075001D01*
X128248002Y-66975000D02*
X118899694Y-66975000D01*
X135823997Y-68075001D02*
X136373998Y-67525000D01*
X136898998Y-67525000D02*
X137448999Y-68075001D01*
X118899694Y-66975000D02*
X118287347Y-67587347D01*
X136373998Y-67525000D02*
X136898998Y-67525000D01*
X164375000Y-59325000D02*
X165124999Y-58575001D01*
X106898998Y-58025000D02*
X107448999Y-58575001D01*
X137448999Y-68075001D02*
X138205001Y-68075001D01*
X138205001Y-68075001D02*
X138955000Y-68825000D01*
X158075000Y-60575000D02*
X158800001Y-59849999D01*
X88899694Y-57475000D02*
X88287347Y-58087347D01*
X166373998Y-58025000D02*
X166898998Y-58025000D01*
X107448999Y-58575001D02*
X108205001Y-58575001D01*
X165124999Y-58575001D02*
X165823997Y-58575001D01*
X158248002Y-57475000D02*
X148899694Y-57475000D01*
X108205001Y-58575001D02*
X108955000Y-59325000D01*
X98248002Y-57475000D02*
X88899694Y-57475000D01*
X113450660Y-146805000D02*
X114975000Y-145280660D01*
X112390000Y-146805000D02*
X113450660Y-146805000D01*
X114244988Y-140025000D02*
X109825000Y-140025000D01*
X114975000Y-140755012D02*
X114244988Y-140025000D01*
X114975000Y-145280660D02*
X114975000Y-140755012D01*
X94825000Y-146825000D02*
X94825000Y-146075000D01*
X97025000Y-143875000D02*
X98075000Y-143875000D01*
X94825000Y-146075000D02*
X97025000Y-143875000D01*
X142390000Y-146805000D02*
X143450660Y-146805000D01*
X144975000Y-145280660D02*
X144975000Y-140755012D01*
X144244988Y-140025000D02*
X139825000Y-140025000D01*
X127025000Y-143875000D02*
X128075000Y-143875000D01*
X144975000Y-140755012D02*
X144244988Y-140025000D01*
X124825000Y-146825000D02*
X124825000Y-146075000D01*
X143450660Y-146805000D02*
X144975000Y-145280660D01*
X124825000Y-146075000D02*
X127025000Y-143875000D01*
X172390000Y-146805000D02*
X173450660Y-146805000D01*
X154825000Y-146075000D02*
X157025000Y-143875000D01*
X157025000Y-143875000D02*
X158075000Y-143875000D01*
X174244988Y-140025000D02*
X169825000Y-140025000D01*
X174975000Y-140755012D02*
X174244988Y-140025000D01*
X154825000Y-146825000D02*
X154825000Y-146075000D01*
X173450660Y-146805000D02*
X174975000Y-145280660D01*
X174975000Y-145280660D02*
X174975000Y-140755012D01*
X112390000Y-137305000D02*
X113450660Y-137305000D01*
X114975000Y-135780660D02*
X114975000Y-131255012D01*
X114244988Y-130525000D02*
X109825000Y-130525000D01*
X97025000Y-134375000D02*
X98075000Y-134375000D01*
X114975000Y-131255012D02*
X114244988Y-130525000D01*
X94825000Y-137325000D02*
X94825000Y-136575000D01*
X113450660Y-137305000D02*
X114975000Y-135780660D01*
X94825000Y-136575000D02*
X97025000Y-134375000D01*
X154825000Y-136575000D02*
X157025000Y-134375000D01*
X172390000Y-137305000D02*
X173450660Y-137305000D01*
X154825000Y-137325000D02*
X154825000Y-136575000D01*
X174975000Y-135780660D02*
X174975000Y-131255012D01*
X174975000Y-131255012D02*
X174244988Y-130525000D01*
X174244988Y-130525000D02*
X169825000Y-130525000D01*
X157025000Y-134375000D02*
X158075000Y-134375000D01*
X173450660Y-137305000D02*
X174975000Y-135780660D01*
X142390000Y-137305000D02*
X143450660Y-137305000D01*
X124825000Y-136575000D02*
X127025000Y-134375000D01*
X127025000Y-134375000D02*
X128075000Y-134375000D01*
X144244988Y-130525000D02*
X139825000Y-130525000D01*
X144975000Y-131255012D02*
X144244988Y-130525000D01*
X124825000Y-137325000D02*
X124825000Y-136575000D01*
X143450660Y-137305000D02*
X144975000Y-135780660D01*
X144975000Y-135780660D02*
X144975000Y-131255012D01*
X112390000Y-127805000D02*
X113450660Y-127805000D01*
X114975000Y-126280660D02*
X114975000Y-121755012D01*
X114244988Y-121025000D02*
X109825000Y-121025000D01*
X97025000Y-124875000D02*
X98075000Y-124875000D01*
X114975000Y-121755012D02*
X114244988Y-121025000D01*
X94825000Y-127825000D02*
X94825000Y-127075000D01*
X113450660Y-127805000D02*
X114975000Y-126280660D01*
X94825000Y-127075000D02*
X97025000Y-124875000D01*
X173450660Y-118305000D02*
X174975000Y-116780660D01*
X157025000Y-115375000D02*
X158075000Y-115375000D01*
X174244988Y-111525000D02*
X169825000Y-111525000D01*
X174975000Y-112255012D02*
X174244988Y-111525000D01*
X174975000Y-116780660D02*
X174975000Y-112255012D01*
X142390000Y-118305000D02*
X143450660Y-118305000D01*
X124825000Y-117575000D02*
X127025000Y-115375000D01*
X143450660Y-118305000D02*
X144975000Y-116780660D01*
X144975000Y-116780660D02*
X144975000Y-112255012D01*
X144244988Y-111525000D02*
X139825000Y-111525000D01*
X144975000Y-112255012D02*
X144244988Y-111525000D01*
X124825000Y-118325000D02*
X124825000Y-117575000D01*
X127025000Y-115375000D02*
X128075000Y-115375000D01*
X154825000Y-127075000D02*
X157025000Y-124875000D01*
X172390000Y-127805000D02*
X173450660Y-127805000D01*
X154825000Y-127825000D02*
X154825000Y-127075000D01*
X174975000Y-126280660D02*
X174975000Y-121755012D01*
X174975000Y-121755012D02*
X174244988Y-121025000D01*
X174244988Y-121025000D02*
X169825000Y-121025000D01*
X154825000Y-118325000D02*
X154825000Y-117575000D01*
X157025000Y-124875000D02*
X158075000Y-124875000D01*
X173450660Y-127805000D02*
X174975000Y-126280660D01*
X94825000Y-118325000D02*
X94825000Y-117575000D01*
X113450660Y-118305000D02*
X114975000Y-116780660D01*
X114975000Y-112255012D02*
X114244988Y-111525000D01*
X112390000Y-118305000D02*
X113450660Y-118305000D01*
X114244988Y-111525000D02*
X109825000Y-111525000D01*
X114975000Y-116780660D02*
X114975000Y-112255012D01*
X97025000Y-115375000D02*
X98075000Y-115375000D01*
X94825000Y-117575000D02*
X97025000Y-115375000D01*
X154825000Y-117575000D02*
X157025000Y-115375000D01*
X172390000Y-118305000D02*
X173450660Y-118305000D01*
X142390000Y-127805000D02*
X143450660Y-127805000D01*
X124825000Y-127075000D02*
X127025000Y-124875000D01*
X127025000Y-124875000D02*
X128075000Y-124875000D01*
X144244988Y-121025000D02*
X139825000Y-121025000D01*
X144975000Y-121755012D02*
X144244988Y-121025000D01*
X124825000Y-127825000D02*
X124825000Y-127075000D01*
X143450660Y-127805000D02*
X144975000Y-126280660D01*
X144975000Y-126280660D02*
X144975000Y-121755012D01*
X124825000Y-98575000D02*
X127025000Y-96375000D01*
X174975000Y-97780660D02*
X174975000Y-93255012D01*
X174975000Y-93255012D02*
X174244988Y-92525000D01*
X142390000Y-99305000D02*
X143450660Y-99305000D01*
X174244988Y-92525000D02*
X169825000Y-92525000D01*
X94825000Y-108075000D02*
X97025000Y-105875000D01*
X114975000Y-102755012D02*
X114244988Y-102025000D01*
X114244988Y-102025000D02*
X109825000Y-102025000D01*
X97025000Y-105875000D02*
X98075000Y-105875000D01*
X112390000Y-108805000D02*
X113450660Y-108805000D01*
X113450660Y-108805000D02*
X114975000Y-107280660D01*
X114975000Y-107280660D02*
X114975000Y-102755012D01*
X94825000Y-108825000D02*
X94825000Y-108075000D01*
X173450660Y-99305000D02*
X174975000Y-97780660D01*
X157025000Y-96375000D02*
X158075000Y-96375000D01*
X144975000Y-102755012D02*
X144244988Y-102025000D01*
X124825000Y-108825000D02*
X124825000Y-108075000D01*
X142390000Y-108805000D02*
X143450660Y-108805000D01*
X127025000Y-105875000D02*
X128075000Y-105875000D01*
X124825000Y-108075000D02*
X127025000Y-105875000D01*
X144244988Y-102025000D02*
X139825000Y-102025000D01*
X144975000Y-107280660D02*
X144975000Y-102755012D01*
X143450660Y-108805000D02*
X144975000Y-107280660D01*
X94825000Y-98575000D02*
X97025000Y-96375000D01*
X172390000Y-99305000D02*
X173450660Y-99305000D01*
X154825000Y-98575000D02*
X157025000Y-96375000D01*
X144975000Y-97780660D02*
X144975000Y-93255012D01*
X127025000Y-96375000D02*
X128075000Y-96375000D01*
X154825000Y-108075000D02*
X157025000Y-105875000D01*
X124825000Y-99325000D02*
X124825000Y-98575000D01*
X172390000Y-108805000D02*
X173450660Y-108805000D01*
X143450660Y-99305000D02*
X144975000Y-97780660D01*
X144244988Y-92525000D02*
X139825000Y-92525000D01*
X144975000Y-93255012D02*
X144244988Y-92525000D01*
X157025000Y-105875000D02*
X158075000Y-105875000D01*
X154825000Y-108825000D02*
X154825000Y-108075000D01*
X173450660Y-108805000D02*
X174975000Y-107280660D01*
X174975000Y-107280660D02*
X174975000Y-102755012D01*
X174244988Y-102025000D02*
X169825000Y-102025000D01*
X174975000Y-102755012D02*
X174244988Y-102025000D01*
X154825000Y-99325000D02*
X154825000Y-98575000D01*
X94825000Y-99325000D02*
X94825000Y-98575000D01*
X97025000Y-96375000D02*
X98075000Y-96375000D01*
X114975000Y-97780660D02*
X114975000Y-93255012D01*
X112390000Y-99305000D02*
X113450660Y-99305000D01*
X114975000Y-93255012D02*
X114244988Y-92525000D01*
X113450660Y-99305000D02*
X114975000Y-97780660D01*
X114244988Y-92525000D02*
X109825000Y-92525000D01*
X173450660Y-89805000D02*
X174975000Y-88280660D01*
X172390000Y-89805000D02*
X173450660Y-89805000D01*
X144975000Y-74255012D02*
X144244988Y-73525000D01*
X143450660Y-80305000D02*
X144975000Y-78780660D01*
X124825000Y-80325000D02*
X124825000Y-79575000D01*
X157025000Y-86875000D02*
X158075000Y-86875000D01*
X144244988Y-73525000D02*
X139825000Y-73525000D01*
X154825000Y-89825000D02*
X154825000Y-89075000D01*
X174975000Y-88280660D02*
X174975000Y-83755012D01*
X154825000Y-80325000D02*
X154825000Y-79575000D01*
X174975000Y-83755012D02*
X174244988Y-83025000D01*
X174244988Y-83025000D02*
X169825000Y-83025000D01*
X94825000Y-80325000D02*
X94825000Y-79575000D01*
X114244988Y-73525000D02*
X109825000Y-73525000D01*
X113450660Y-80305000D02*
X114975000Y-78780660D01*
X112390000Y-80305000D02*
X113450660Y-80305000D01*
X114975000Y-78780660D02*
X114975000Y-74255012D01*
X97025000Y-77375000D02*
X98075000Y-77375000D01*
X114975000Y-74255012D02*
X114244988Y-73525000D01*
X144975000Y-78780660D02*
X144975000Y-74255012D01*
X154825000Y-89075000D02*
X157025000Y-86875000D01*
X127025000Y-77375000D02*
X128075000Y-77375000D01*
X154825000Y-79575000D02*
X157025000Y-77375000D01*
X174975000Y-78780660D02*
X174975000Y-74255012D01*
X174975000Y-74255012D02*
X174244988Y-73525000D01*
X124825000Y-79575000D02*
X127025000Y-77375000D01*
X94825000Y-89825000D02*
X94825000Y-89075000D01*
X114975000Y-83755012D02*
X114244988Y-83025000D01*
X142390000Y-80305000D02*
X143450660Y-80305000D01*
X94825000Y-89075000D02*
X97025000Y-86875000D01*
X112390000Y-89805000D02*
X113450660Y-89805000D01*
X113450660Y-89805000D02*
X114975000Y-88280660D01*
X174244988Y-73525000D02*
X169825000Y-73525000D01*
X114975000Y-88280660D02*
X114975000Y-83755012D01*
X114244988Y-83025000D02*
X109825000Y-83025000D01*
X97025000Y-86875000D02*
X98075000Y-86875000D01*
X173450660Y-80305000D02*
X174975000Y-78780660D01*
X157025000Y-77375000D02*
X158075000Y-77375000D01*
X142390000Y-89805000D02*
X143450660Y-89805000D01*
X127025000Y-86875000D02*
X128075000Y-86875000D01*
X124825000Y-89825000D02*
X124825000Y-89075000D01*
X144975000Y-83755012D02*
X144244988Y-83025000D01*
X144244988Y-83025000D02*
X139825000Y-83025000D01*
X144975000Y-88280660D02*
X144975000Y-83755012D01*
X143450660Y-89805000D02*
X144975000Y-88280660D01*
X94825000Y-79575000D02*
X97025000Y-77375000D01*
X124825000Y-89075000D02*
X127025000Y-86875000D01*
X172390000Y-80305000D02*
X173450660Y-80305000D01*
X173450660Y-61305000D02*
X174975000Y-59780660D01*
X157025000Y-58375000D02*
X158075000Y-58375000D01*
X172390000Y-70805000D02*
X173450660Y-70805000D01*
X173450660Y-70805000D02*
X174975000Y-69280660D01*
X144975000Y-55255012D02*
X144244988Y-54525000D01*
X144244988Y-54525000D02*
X139825000Y-54525000D01*
X154825000Y-70825000D02*
X154825000Y-70075000D01*
X143450660Y-61305000D02*
X144975000Y-59780660D01*
X157025000Y-67875000D02*
X158075000Y-67875000D01*
X124825000Y-61325000D02*
X124825000Y-60575000D01*
X127025000Y-58375000D02*
X128075000Y-58375000D01*
X114975000Y-55255012D02*
X114244988Y-54525000D01*
X94825000Y-61325000D02*
X94825000Y-60575000D01*
X114975000Y-59780660D02*
X114975000Y-55255012D01*
X174244988Y-64025000D02*
X169825000Y-64025000D01*
X154825000Y-60575000D02*
X157025000Y-58375000D01*
X112390000Y-61305000D02*
X113450660Y-61305000D01*
X113450660Y-61305000D02*
X114975000Y-59780660D01*
X174975000Y-64755012D02*
X174244988Y-64025000D01*
X97025000Y-58375000D02*
X98075000Y-58375000D01*
X144975000Y-59780660D02*
X144975000Y-55255012D01*
X154825000Y-70075000D02*
X157025000Y-67875000D01*
X114244988Y-54525000D02*
X109825000Y-54525000D01*
X124825000Y-60575000D02*
X127025000Y-58375000D01*
X94825000Y-70825000D02*
X94825000Y-70075000D01*
X174975000Y-59780660D02*
X174975000Y-55255012D01*
X174975000Y-55255012D02*
X174244988Y-54525000D01*
X114244988Y-64025000D02*
X109825000Y-64025000D01*
X97025000Y-67875000D02*
X98075000Y-67875000D01*
X112390000Y-70805000D02*
X113450660Y-70805000D01*
X113450660Y-70805000D02*
X114975000Y-69280660D01*
X174244988Y-54525000D02*
X169825000Y-54525000D01*
X142390000Y-61305000D02*
X143450660Y-61305000D01*
X114975000Y-69280660D02*
X114975000Y-64755012D01*
X114975000Y-64755012D02*
X114244988Y-64025000D01*
X94825000Y-70075000D02*
X97025000Y-67875000D01*
X174975000Y-69280660D02*
X174975000Y-64755012D01*
X154825000Y-61325000D02*
X154825000Y-60575000D01*
X127025000Y-67875000D02*
X128075000Y-67875000D01*
X124825000Y-70825000D02*
X124825000Y-70075000D01*
X144975000Y-64755012D02*
X144244988Y-64025000D01*
X142390000Y-70805000D02*
X143450660Y-70805000D01*
X144975000Y-69280660D02*
X144975000Y-64755012D01*
X94825000Y-60575000D02*
X97025000Y-58375000D01*
X143450660Y-70805000D02*
X144975000Y-69280660D01*
X124825000Y-70075000D02*
X127025000Y-67875000D01*
X144244988Y-64025000D02*
X139825000Y-64025000D01*
X172390000Y-61305000D02*
X173450660Y-61305000D01*
X101224990Y-140705022D02*
X101905012Y-140025000D01*
X101224990Y-143265992D02*
X101224990Y-140705022D01*
X108326001Y-145729999D02*
X107351003Y-145729999D01*
X110100000Y-146805000D02*
X109195001Y-145900001D01*
X108496003Y-145900001D02*
X108326001Y-145729999D01*
X107351003Y-145729999D02*
X106956002Y-146125000D01*
X109195001Y-145900001D02*
X108496003Y-145900001D01*
X106956002Y-146125000D02*
X106431002Y-146125000D01*
X106036001Y-145729999D02*
X105061003Y-145729999D01*
X105061003Y-145729999D02*
X104891001Y-145900001D01*
X104891001Y-145900001D02*
X103858999Y-145900001D01*
X106431002Y-146125000D02*
X106036001Y-145729999D01*
X103858999Y-145900001D02*
X101224990Y-143265992D01*
X101905012Y-140025000D02*
X106575000Y-140025000D01*
X95075001Y-144174999D02*
X95475000Y-143775000D01*
X94824989Y-144425011D02*
X95075001Y-144174999D01*
X91575000Y-144575000D02*
X91724989Y-144425011D01*
X91575000Y-146825000D02*
X91575000Y-144575000D01*
X91724989Y-144425011D02*
X94824989Y-144425011D01*
X135061003Y-145729999D02*
X134891001Y-145900001D01*
X131224990Y-143265992D02*
X131224990Y-140705022D01*
X136956002Y-146125000D02*
X136431002Y-146125000D01*
X138326001Y-145729999D02*
X137351003Y-145729999D01*
X136431002Y-146125000D02*
X136036001Y-145729999D01*
X131224990Y-140705022D02*
X131905012Y-140025000D01*
X136036001Y-145729999D02*
X135061003Y-145729999D01*
X139195001Y-145900001D02*
X138496003Y-145900001D01*
X138496003Y-145900001D02*
X138326001Y-145729999D01*
X137351003Y-145729999D02*
X136956002Y-146125000D01*
X134891001Y-145900001D02*
X133858999Y-145900001D01*
X140100000Y-146805000D02*
X139195001Y-145900001D01*
X133858999Y-145900001D02*
X131224990Y-143265992D01*
X131905012Y-140025000D02*
X136575000Y-140025000D01*
X125075001Y-144174999D02*
X125475000Y-143775000D01*
X121724989Y-144425011D02*
X124824989Y-144425011D01*
X121575000Y-144575000D02*
X121724989Y-144425011D01*
X121575000Y-146825000D02*
X121575000Y-144575000D01*
X124824989Y-144425011D02*
X125075001Y-144174999D01*
X166431002Y-146125000D02*
X166036001Y-145729999D01*
X161224990Y-143265992D02*
X161224990Y-140705022D01*
X168326001Y-145729999D02*
X167351003Y-145729999D01*
X170100000Y-146805000D02*
X169195001Y-145900001D01*
X168496003Y-145900001D02*
X168326001Y-145729999D01*
X155075001Y-144174999D02*
X155475000Y-143775000D01*
X167351003Y-145729999D02*
X166956002Y-146125000D01*
X161905012Y-140025000D02*
X166575000Y-140025000D01*
X169195001Y-145900001D02*
X168496003Y-145900001D01*
X164891001Y-145900001D02*
X163858999Y-145900001D01*
X161224990Y-140705022D02*
X161905012Y-140025000D01*
X163858999Y-145900001D02*
X161224990Y-143265992D01*
X165061003Y-145729999D02*
X164891001Y-145900001D01*
X166956002Y-146125000D02*
X166431002Y-146125000D01*
X151724989Y-144425011D02*
X154824989Y-144425011D01*
X166036001Y-145729999D02*
X165061003Y-145729999D01*
X151575000Y-144575000D02*
X151724989Y-144425011D01*
X154824989Y-144425011D02*
X155075001Y-144174999D01*
X151575000Y-146825000D02*
X151575000Y-144575000D01*
X105061003Y-136229999D02*
X104891001Y-136400001D01*
X101224990Y-133765992D02*
X101224990Y-131205022D01*
X106956002Y-136625000D02*
X106431002Y-136625000D01*
X108326001Y-136229999D02*
X107351003Y-136229999D01*
X106431002Y-136625000D02*
X106036001Y-136229999D01*
X101224990Y-131205022D02*
X101905012Y-130525000D01*
X106036001Y-136229999D02*
X105061003Y-136229999D01*
X109195001Y-136400001D02*
X108496003Y-136400001D01*
X108496003Y-136400001D02*
X108326001Y-136229999D01*
X107351003Y-136229999D02*
X106956002Y-136625000D01*
X104891001Y-136400001D02*
X103858999Y-136400001D01*
X110100000Y-137305000D02*
X109195001Y-136400001D01*
X103858999Y-136400001D02*
X101224990Y-133765992D01*
X101905012Y-130525000D02*
X106575000Y-130525000D01*
X95075001Y-134674999D02*
X95475000Y-134275000D01*
X91724989Y-134925011D02*
X94824989Y-134925011D01*
X91575000Y-135075000D02*
X91724989Y-134925011D01*
X91575000Y-137325000D02*
X91575000Y-135075000D01*
X94824989Y-134925011D02*
X95075001Y-134674999D01*
X168326001Y-136229999D02*
X167351003Y-136229999D01*
X170100000Y-137305000D02*
X169195001Y-136400001D01*
X168496003Y-136400001D02*
X168326001Y-136229999D01*
X166431002Y-136625000D02*
X166036001Y-136229999D01*
X161224990Y-133765992D02*
X161224990Y-131205022D01*
X155075001Y-134674999D02*
X155475000Y-134275000D01*
X167351003Y-136229999D02*
X166956002Y-136625000D01*
X161905012Y-130525000D02*
X166575000Y-130525000D01*
X165061003Y-136229999D02*
X164891001Y-136400001D01*
X169195001Y-136400001D02*
X168496003Y-136400001D01*
X166036001Y-136229999D02*
X165061003Y-136229999D01*
X161224990Y-131205022D02*
X161905012Y-130525000D01*
X164891001Y-136400001D02*
X163858999Y-136400001D01*
X151575000Y-137325000D02*
X151575000Y-135075000D01*
X151575000Y-135075000D02*
X151724989Y-134925011D01*
X154824989Y-134925011D02*
X155075001Y-134674999D01*
X163858999Y-136400001D02*
X161224990Y-133765992D01*
X151724989Y-134925011D02*
X154824989Y-134925011D01*
X166956002Y-136625000D02*
X166431002Y-136625000D01*
X136431002Y-136625000D02*
X136036001Y-136229999D01*
X131224990Y-133765992D02*
X131224990Y-131205022D01*
X138326001Y-136229999D02*
X137351003Y-136229999D01*
X140100000Y-137305000D02*
X139195001Y-136400001D01*
X138496003Y-136400001D02*
X138326001Y-136229999D01*
X125075001Y-134674999D02*
X125475000Y-134275000D01*
X137351003Y-136229999D02*
X136956002Y-136625000D01*
X131905012Y-130525000D02*
X136575000Y-130525000D01*
X139195001Y-136400001D02*
X138496003Y-136400001D01*
X134891001Y-136400001D02*
X133858999Y-136400001D01*
X131224990Y-131205022D02*
X131905012Y-130525000D01*
X133858999Y-136400001D02*
X131224990Y-133765992D01*
X135061003Y-136229999D02*
X134891001Y-136400001D01*
X136956002Y-136625000D02*
X136431002Y-136625000D01*
X121724989Y-134925011D02*
X124824989Y-134925011D01*
X136036001Y-136229999D02*
X135061003Y-136229999D01*
X121575000Y-135075000D02*
X121724989Y-134925011D01*
X124824989Y-134925011D02*
X125075001Y-134674999D01*
X121575000Y-137325000D02*
X121575000Y-135075000D01*
X105061003Y-126729999D02*
X104891001Y-126900001D01*
X101224990Y-124265992D02*
X101224990Y-121705022D01*
X106956002Y-127125000D02*
X106431002Y-127125000D01*
X108326001Y-126729999D02*
X107351003Y-126729999D01*
X106431002Y-127125000D02*
X106036001Y-126729999D01*
X101224990Y-121705022D02*
X101905012Y-121025000D01*
X106036001Y-126729999D02*
X105061003Y-126729999D01*
X109195001Y-126900001D02*
X108496003Y-126900001D01*
X108496003Y-126900001D02*
X108326001Y-126729999D01*
X107351003Y-126729999D02*
X106956002Y-127125000D01*
X104891001Y-126900001D02*
X103858999Y-126900001D01*
X110100000Y-127805000D02*
X109195001Y-126900001D01*
X103858999Y-126900001D02*
X101224990Y-124265992D01*
X101905012Y-121025000D02*
X106575000Y-121025000D01*
X95075001Y-125174999D02*
X95475000Y-124775000D01*
X91724989Y-125425011D02*
X94824989Y-125425011D01*
X91575000Y-125575000D02*
X91724989Y-125425011D01*
X91575000Y-127825000D02*
X91575000Y-125575000D01*
X94824989Y-125425011D02*
X95075001Y-125174999D01*
X166036001Y-117229999D02*
X165061003Y-117229999D01*
X136431002Y-117625000D02*
X136036001Y-117229999D01*
X131224990Y-114765992D02*
X131224990Y-112205022D01*
X169195001Y-117400001D02*
X168496003Y-117400001D01*
X164891001Y-117400001D02*
X163858999Y-117400001D01*
X151575000Y-116075000D02*
X151724989Y-115925011D01*
X138326001Y-117229999D02*
X137351003Y-117229999D01*
X166956002Y-117625000D02*
X166431002Y-117625000D01*
X151575000Y-118325000D02*
X151575000Y-116075000D01*
X154824989Y-115925011D02*
X155075001Y-115674999D01*
X163858999Y-117400001D02*
X161224990Y-114765992D01*
X140100000Y-118305000D02*
X139195001Y-117400001D01*
X151724989Y-115925011D02*
X154824989Y-115925011D01*
X161224990Y-112205022D02*
X161905012Y-111525000D01*
X135061003Y-117229999D02*
X134891001Y-117400001D01*
X136956002Y-117625000D02*
X136431002Y-117625000D01*
X134891001Y-117400001D02*
X133858999Y-117400001D01*
X139195001Y-117400001D02*
X138496003Y-117400001D01*
X136036001Y-117229999D02*
X135061003Y-117229999D01*
X125075001Y-115674999D02*
X125475000Y-115275000D01*
X121575000Y-116075000D02*
X121724989Y-115925011D01*
X131905012Y-111525000D02*
X136575000Y-111525000D01*
X131224990Y-112205022D02*
X131905012Y-111525000D01*
X121724989Y-115925011D02*
X124824989Y-115925011D01*
X138496003Y-117400001D02*
X138326001Y-117229999D01*
X137351003Y-117229999D02*
X136956002Y-117625000D01*
X133858999Y-117400001D02*
X131224990Y-114765992D01*
X124824989Y-115925011D02*
X125075001Y-115674999D01*
X121575000Y-118325000D02*
X121575000Y-116075000D01*
X168326001Y-126729999D02*
X167351003Y-126729999D01*
X170100000Y-127805000D02*
X169195001Y-126900001D01*
X168496003Y-126900001D02*
X168326001Y-126729999D01*
X166431002Y-127125000D02*
X166036001Y-126729999D01*
X161224990Y-124265992D02*
X161224990Y-121705022D01*
X155075001Y-125174999D02*
X155475000Y-124775000D01*
X167351003Y-126729999D02*
X166956002Y-127125000D01*
X161905012Y-121025000D02*
X166575000Y-121025000D01*
X165061003Y-126729999D02*
X164891001Y-126900001D01*
X169195001Y-126900001D02*
X168496003Y-126900001D01*
X166036001Y-126729999D02*
X165061003Y-126729999D01*
X161224990Y-121705022D02*
X161905012Y-121025000D01*
X164891001Y-126900001D02*
X163858999Y-126900001D01*
X151575000Y-127825000D02*
X151575000Y-125575000D01*
X151575000Y-125575000D02*
X151724989Y-125425011D01*
X154824989Y-125425011D02*
X155075001Y-125174999D01*
X163858999Y-126900001D02*
X161224990Y-124265992D01*
X151724989Y-125425011D02*
X154824989Y-125425011D01*
X166956002Y-127125000D02*
X166431002Y-127125000D01*
X91724989Y-115925011D02*
X94824989Y-115925011D01*
X105061003Y-117229999D02*
X104891001Y-117400001D01*
X110100000Y-118305000D02*
X109195001Y-117400001D01*
X106431002Y-117625000D02*
X106036001Y-117229999D01*
X108496003Y-117400001D02*
X108326001Y-117229999D01*
X104891001Y-117400001D02*
X103858999Y-117400001D01*
X107351003Y-117229999D02*
X106956002Y-117625000D01*
X109195001Y-117400001D02*
X108496003Y-117400001D01*
X101224990Y-114765992D02*
X101224990Y-112205022D01*
X106956002Y-117625000D02*
X106431002Y-117625000D01*
X108326001Y-117229999D02*
X107351003Y-117229999D01*
X101224990Y-112205022D02*
X101905012Y-111525000D01*
X106036001Y-117229999D02*
X105061003Y-117229999D01*
X101905012Y-111525000D02*
X106575000Y-111525000D01*
X103858999Y-117400001D02*
X101224990Y-114765992D01*
X95075001Y-115674999D02*
X95475000Y-115275000D01*
X91575000Y-116075000D02*
X91724989Y-115925011D01*
X91575000Y-118325000D02*
X91575000Y-116075000D01*
X166431002Y-117625000D02*
X166036001Y-117229999D01*
X155075001Y-115674999D02*
X155475000Y-115275000D01*
X94824989Y-115925011D02*
X95075001Y-115674999D01*
X168326001Y-117229999D02*
X167351003Y-117229999D01*
X168496003Y-117400001D02*
X168326001Y-117229999D01*
X167351003Y-117229999D02*
X166956002Y-117625000D01*
X161905012Y-111525000D02*
X166575000Y-111525000D01*
X161224990Y-114765992D02*
X161224990Y-112205022D01*
X170100000Y-118305000D02*
X169195001Y-117400001D01*
X136431002Y-127125000D02*
X136036001Y-126729999D01*
X131224990Y-124265992D02*
X131224990Y-121705022D01*
X138326001Y-126729999D02*
X137351003Y-126729999D01*
X140100000Y-127805000D02*
X139195001Y-126900001D01*
X138496003Y-126900001D02*
X138326001Y-126729999D01*
X125075001Y-125174999D02*
X125475000Y-124775000D01*
X137351003Y-126729999D02*
X136956002Y-127125000D01*
X131905012Y-121025000D02*
X136575000Y-121025000D01*
X139195001Y-126900001D02*
X138496003Y-126900001D01*
X134891001Y-126900001D02*
X133858999Y-126900001D01*
X131224990Y-121705022D02*
X131905012Y-121025000D01*
X133858999Y-126900001D02*
X131224990Y-124265992D01*
X135061003Y-126729999D02*
X134891001Y-126900001D01*
X136956002Y-127125000D02*
X136431002Y-127125000D01*
X121724989Y-125425011D02*
X124824989Y-125425011D01*
X136036001Y-126729999D02*
X135061003Y-126729999D01*
X121575000Y-125575000D02*
X121724989Y-125425011D01*
X124824989Y-125425011D02*
X125075001Y-125174999D01*
X121575000Y-127825000D02*
X121575000Y-125575000D01*
X165061003Y-117229999D02*
X164891001Y-117400001D01*
X121724989Y-96925011D02*
X124824989Y-96925011D01*
X131905012Y-92525000D02*
X136575000Y-92525000D01*
X131224990Y-93205022D02*
X131905012Y-92525000D01*
X151724989Y-96925011D02*
X154824989Y-96925011D01*
X134891001Y-98400001D02*
X133858999Y-98400001D01*
X154824989Y-96925011D02*
X155075001Y-96674999D01*
X166956002Y-98625000D02*
X166431002Y-98625000D01*
X138326001Y-98229999D02*
X137351003Y-98229999D01*
X136036001Y-98229999D02*
X135061003Y-98229999D01*
X161224990Y-93205022D02*
X161905012Y-92525000D01*
X136956002Y-98625000D02*
X136431002Y-98625000D01*
X140100000Y-99305000D02*
X139195001Y-98400001D01*
X135061003Y-98229999D02*
X134891001Y-98400001D01*
X139195001Y-98400001D02*
X138496003Y-98400001D01*
X121575000Y-97075000D02*
X121724989Y-96925011D01*
X151575000Y-99325000D02*
X151575000Y-97075000D01*
X151575000Y-97075000D02*
X151724989Y-96925011D01*
X125075001Y-96674999D02*
X125475000Y-96275000D01*
X163858999Y-98400001D02*
X161224990Y-95765992D01*
X105061003Y-107729999D02*
X104891001Y-107900001D01*
X106956002Y-108125000D02*
X106431002Y-108125000D01*
X106431002Y-108125000D02*
X106036001Y-107729999D01*
X109195001Y-107900001D02*
X108496003Y-107900001D01*
X104891001Y-107900001D02*
X103858999Y-107900001D01*
X110100000Y-108805000D02*
X109195001Y-107900001D01*
X103858999Y-107900001D02*
X101224990Y-105265992D01*
X108496003Y-107900001D02*
X108326001Y-107729999D01*
X108326001Y-107729999D02*
X107351003Y-107729999D01*
X101224990Y-102705022D02*
X101905012Y-102025000D01*
X91724989Y-106425011D02*
X94824989Y-106425011D01*
X95075001Y-106174999D02*
X95475000Y-105775000D01*
X101905012Y-102025000D02*
X106575000Y-102025000D01*
X106036001Y-107729999D02*
X105061003Y-107729999D01*
X101224990Y-105265992D02*
X101224990Y-102705022D01*
X107351003Y-107729999D02*
X106956002Y-108125000D01*
X91575000Y-106575000D02*
X91724989Y-106425011D01*
X91575000Y-108825000D02*
X91575000Y-106575000D01*
X94824989Y-106425011D02*
X95075001Y-106174999D01*
X166036001Y-98229999D02*
X165061003Y-98229999D01*
X136431002Y-98625000D02*
X136036001Y-98229999D01*
X131224990Y-95765992D02*
X131224990Y-93205022D01*
X164891001Y-98400001D02*
X163858999Y-98400001D01*
X169195001Y-98400001D02*
X168496003Y-98400001D01*
X138496003Y-107900001D02*
X138326001Y-107729999D01*
X138326001Y-107729999D02*
X137351003Y-107729999D01*
X133858999Y-107900001D02*
X131224990Y-105265992D01*
X131224990Y-102705022D02*
X131905012Y-102025000D01*
X170100000Y-99305000D02*
X169195001Y-98400001D01*
X137351003Y-107729999D02*
X136956002Y-108125000D01*
X140100000Y-108805000D02*
X139195001Y-107900001D01*
X139195001Y-107900001D02*
X138496003Y-107900001D01*
X136956002Y-108125000D02*
X136431002Y-108125000D01*
X131905012Y-102025000D02*
X136575000Y-102025000D01*
X136431002Y-108125000D02*
X136036001Y-107729999D01*
X135061003Y-107729999D02*
X134891001Y-107900001D01*
X121724989Y-106425011D02*
X124824989Y-106425011D01*
X125075001Y-106174999D02*
X125475000Y-105775000D01*
X134891001Y-107900001D02*
X133858999Y-107900001D01*
X136036001Y-107729999D02*
X135061003Y-107729999D01*
X131224990Y-105265992D02*
X131224990Y-102705022D01*
X121575000Y-108825000D02*
X121575000Y-106575000D01*
X121575000Y-106575000D02*
X121724989Y-106425011D01*
X165061003Y-98229999D02*
X164891001Y-98400001D01*
X124824989Y-106425011D02*
X125075001Y-106174999D01*
X94824989Y-96925011D02*
X95075001Y-96674999D01*
X155075001Y-96674999D02*
X155475000Y-96275000D01*
X168326001Y-98229999D02*
X167351003Y-98229999D01*
X91575000Y-97075000D02*
X91724989Y-96925011D01*
X161905012Y-92525000D02*
X166575000Y-92525000D01*
X161224990Y-95765992D02*
X161224990Y-93205022D01*
X168496003Y-98400001D02*
X168326001Y-98229999D01*
X95075001Y-96674999D02*
X95475000Y-96275000D01*
X103858999Y-98400001D02*
X101224990Y-95765992D01*
X167351003Y-98229999D02*
X166956002Y-98625000D01*
X166431002Y-98625000D02*
X166036001Y-98229999D01*
X91575000Y-99325000D02*
X91575000Y-97075000D01*
X166431002Y-108125000D02*
X166036001Y-107729999D01*
X170100000Y-108805000D02*
X169195001Y-107900001D01*
X137351003Y-98229999D02*
X136956002Y-98625000D01*
X161224990Y-105265992D02*
X161224990Y-102705022D01*
X155075001Y-106174999D02*
X155475000Y-105775000D01*
X168496003Y-107900001D02*
X168326001Y-107729999D01*
X167351003Y-107729999D02*
X166956002Y-108125000D01*
X161905012Y-102025000D02*
X166575000Y-102025000D01*
X165061003Y-107729999D02*
X164891001Y-107900001D01*
X138496003Y-98400001D02*
X138326001Y-98229999D01*
X133858999Y-98400001D02*
X131224990Y-95765992D01*
X121575000Y-99325000D02*
X121575000Y-97075000D01*
X168326001Y-107729999D02*
X167351003Y-107729999D01*
X124824989Y-96925011D02*
X125075001Y-96674999D01*
X166956002Y-108125000D02*
X166431002Y-108125000D01*
X91724989Y-96925011D02*
X94824989Y-96925011D01*
X151575000Y-106575000D02*
X151724989Y-106425011D01*
X161224990Y-102705022D02*
X161905012Y-102025000D01*
X163858999Y-107900001D02*
X161224990Y-105265992D01*
X164891001Y-107900001D02*
X163858999Y-107900001D01*
X105061003Y-98229999D02*
X104891001Y-98400001D01*
X166036001Y-107729999D02*
X165061003Y-107729999D01*
X169195001Y-107900001D02*
X168496003Y-107900001D01*
X154824989Y-106425011D02*
X155075001Y-106174999D01*
X151575000Y-108825000D02*
X151575000Y-106575000D01*
X151724989Y-106425011D02*
X154824989Y-106425011D01*
X110100000Y-99305000D02*
X109195001Y-98400001D01*
X107351003Y-98229999D02*
X106956002Y-98625000D01*
X109195001Y-98400001D02*
X108496003Y-98400001D01*
X108326001Y-98229999D02*
X107351003Y-98229999D01*
X106431002Y-98625000D02*
X106036001Y-98229999D01*
X106036001Y-98229999D02*
X105061003Y-98229999D01*
X106956002Y-98625000D02*
X106431002Y-98625000D01*
X101905012Y-92525000D02*
X106575000Y-92525000D01*
X108496003Y-98400001D02*
X108326001Y-98229999D01*
X104891001Y-98400001D02*
X103858999Y-98400001D01*
X101224990Y-93205022D02*
X101905012Y-92525000D01*
X101224990Y-95765992D02*
X101224990Y-93205022D01*
X138496003Y-79400001D02*
X138326001Y-79229999D01*
X124824989Y-77925011D02*
X125075001Y-77674999D01*
X155075001Y-87174999D02*
X155475000Y-86775000D01*
X121575000Y-80325000D02*
X121575000Y-78075000D01*
X161905012Y-83025000D02*
X166575000Y-83025000D01*
X133858999Y-79400001D02*
X131224990Y-76765992D01*
X166956002Y-89125000D02*
X166431002Y-89125000D01*
X91724989Y-77925011D02*
X94824989Y-77925011D01*
X165061003Y-88729999D02*
X164891001Y-88900001D01*
X168326001Y-88729999D02*
X167351003Y-88729999D01*
X151575000Y-87575000D02*
X151724989Y-87425011D01*
X167351003Y-88729999D02*
X166956002Y-89125000D01*
X168496003Y-88900001D02*
X168326001Y-88729999D01*
X161224990Y-83705022D02*
X161905012Y-83025000D01*
X110100000Y-80305000D02*
X109195001Y-79400001D01*
X109195001Y-79400001D02*
X108496003Y-79400001D01*
X108326001Y-79229999D02*
X107351003Y-79229999D01*
X154824989Y-87425011D02*
X155075001Y-87174999D01*
X106431002Y-79625000D02*
X106036001Y-79229999D01*
X105061003Y-79229999D02*
X104891001Y-79400001D01*
X164891001Y-88900001D02*
X163858999Y-88900001D01*
X151575000Y-89825000D02*
X151575000Y-87575000D01*
X107351003Y-79229999D02*
X106956002Y-79625000D01*
X151724989Y-87425011D02*
X154824989Y-87425011D01*
X169195001Y-88900001D02*
X168496003Y-88900001D01*
X166036001Y-88729999D02*
X165061003Y-88729999D01*
X163858999Y-88900001D02*
X161224990Y-86265992D01*
X101905012Y-73525000D02*
X106575000Y-73525000D01*
X104891001Y-79400001D02*
X103858999Y-79400001D01*
X106036001Y-79229999D02*
X105061003Y-79229999D01*
X101224990Y-74205022D02*
X101905012Y-73525000D01*
X101224990Y-76765992D02*
X101224990Y-74205022D01*
X106956002Y-79625000D02*
X106431002Y-79625000D01*
X108496003Y-79400001D02*
X108326001Y-79229999D01*
X166431002Y-89125000D02*
X166036001Y-88729999D01*
X137351003Y-79229999D02*
X136956002Y-79625000D01*
X161224990Y-86265992D02*
X161224990Y-83705022D01*
X170100000Y-89805000D02*
X169195001Y-88900001D01*
X166956002Y-79625000D02*
X166431002Y-79625000D01*
X138326001Y-79229999D02*
X137351003Y-79229999D01*
X134891001Y-79400001D02*
X133858999Y-79400001D01*
X136036001Y-79229999D02*
X135061003Y-79229999D01*
X136956002Y-79625000D02*
X136431002Y-79625000D01*
X140100000Y-80305000D02*
X139195001Y-79400001D01*
X135061003Y-79229999D02*
X134891001Y-79400001D01*
X131224990Y-74205022D02*
X131905012Y-73525000D01*
X161224990Y-74205022D02*
X161905012Y-73525000D01*
X151575000Y-80325000D02*
X151575000Y-78075000D01*
X121575000Y-78075000D02*
X121724989Y-77925011D01*
X151575000Y-78075000D02*
X151724989Y-77925011D01*
X139195001Y-79400001D02*
X138496003Y-79400001D01*
X151724989Y-77925011D02*
X154824989Y-77925011D01*
X154824989Y-77925011D02*
X155075001Y-77674999D01*
X131905012Y-73525000D02*
X136575000Y-73525000D01*
X121724989Y-77925011D02*
X124824989Y-77925011D01*
X109195001Y-88900001D02*
X108496003Y-88900001D01*
X105061003Y-88729999D02*
X104891001Y-88900001D01*
X106956002Y-89125000D02*
X106431002Y-89125000D01*
X91724989Y-87425011D02*
X94824989Y-87425011D01*
X104891001Y-88900001D02*
X103858999Y-88900001D01*
X108496003Y-88900001D02*
X108326001Y-88729999D01*
X163858999Y-79400001D02*
X161224990Y-76765992D01*
X125075001Y-77674999D02*
X125475000Y-77275000D01*
X101224990Y-83705022D02*
X101905012Y-83025000D01*
X95075001Y-87174999D02*
X95475000Y-86775000D01*
X106431002Y-89125000D02*
X106036001Y-88729999D01*
X110100000Y-89805000D02*
X109195001Y-88900001D01*
X103858999Y-88900001D02*
X101224990Y-86265992D01*
X108326001Y-88729999D02*
X107351003Y-88729999D01*
X106036001Y-88729999D02*
X105061003Y-88729999D01*
X101905012Y-83025000D02*
X106575000Y-83025000D01*
X101224990Y-86265992D02*
X101224990Y-83705022D01*
X166036001Y-79229999D02*
X165061003Y-79229999D01*
X91575000Y-89825000D02*
X91575000Y-87575000D01*
X107351003Y-88729999D02*
X106956002Y-89125000D01*
X136431002Y-79625000D02*
X136036001Y-79229999D01*
X94824989Y-87425011D02*
X95075001Y-87174999D01*
X91575000Y-87575000D02*
X91724989Y-87425011D01*
X139195001Y-88900001D02*
X138496003Y-88900001D01*
X138496003Y-88900001D02*
X138326001Y-88729999D01*
X140100000Y-89805000D02*
X139195001Y-88900001D01*
X136956002Y-89125000D02*
X136431002Y-89125000D01*
X138326001Y-88729999D02*
X137351003Y-88729999D01*
X133858999Y-88900001D02*
X131224990Y-86265992D01*
X131224990Y-76765992D02*
X131224990Y-74205022D01*
X137351003Y-88729999D02*
X136956002Y-89125000D01*
X131905012Y-83025000D02*
X136575000Y-83025000D01*
X170100000Y-80305000D02*
X169195001Y-79400001D01*
X136431002Y-89125000D02*
X136036001Y-88729999D01*
X131224990Y-83705022D02*
X131905012Y-83025000D01*
X169195001Y-79400001D02*
X168496003Y-79400001D01*
X164891001Y-79400001D02*
X163858999Y-79400001D01*
X124824989Y-87425011D02*
X125075001Y-87174999D01*
X121575000Y-89825000D02*
X121575000Y-87575000D01*
X165061003Y-79229999D02*
X164891001Y-79400001D01*
X131224990Y-86265992D02*
X131224990Y-83705022D01*
X125075001Y-87174999D02*
X125475000Y-86775000D01*
X136036001Y-88729999D02*
X135061003Y-88729999D01*
X121575000Y-87575000D02*
X121724989Y-87425011D01*
X121724989Y-87425011D02*
X124824989Y-87425011D01*
X94824989Y-77925011D02*
X95075001Y-77674999D01*
X155075001Y-77674999D02*
X155475000Y-77275000D01*
X168326001Y-79229999D02*
X167351003Y-79229999D01*
X134891001Y-88900001D02*
X133858999Y-88900001D01*
X135061003Y-88729999D02*
X134891001Y-88900001D01*
X166431002Y-79625000D02*
X166036001Y-79229999D01*
X103858999Y-79400001D02*
X101224990Y-76765992D01*
X95075001Y-77674999D02*
X95475000Y-77275000D01*
X91575000Y-80325000D02*
X91575000Y-78075000D01*
X167351003Y-79229999D02*
X166956002Y-79625000D01*
X161224990Y-76765992D02*
X161224990Y-74205022D01*
X91575000Y-78075000D02*
X91724989Y-77925011D01*
X161905012Y-73525000D02*
X166575000Y-73525000D01*
X168496003Y-79400001D02*
X168326001Y-79229999D01*
X94824989Y-68425011D02*
X95075001Y-68174999D01*
X91575000Y-70825000D02*
X91575000Y-68575000D01*
X107351003Y-69729999D02*
X106956002Y-70125000D01*
X136431002Y-60625000D02*
X136036001Y-60229999D01*
X166036001Y-60229999D02*
X165061003Y-60229999D01*
X121575000Y-61325000D02*
X121575000Y-59075000D01*
X138496003Y-60400001D02*
X138326001Y-60229999D01*
X155075001Y-68174999D02*
X155475000Y-67775000D01*
X124824989Y-58925011D02*
X125075001Y-58674999D01*
X164891001Y-69900001D02*
X163858999Y-69900001D01*
X167351003Y-69729999D02*
X166956002Y-70125000D01*
X165061003Y-69729999D02*
X164891001Y-69900001D01*
X110100000Y-61305000D02*
X109195001Y-60400001D01*
X154824989Y-68425011D02*
X155075001Y-68174999D01*
X105061003Y-60229999D02*
X104891001Y-60400001D01*
X168326001Y-69729999D02*
X167351003Y-69729999D01*
X108326001Y-60229999D02*
X107351003Y-60229999D01*
X168496003Y-69900001D02*
X168326001Y-69729999D01*
X107351003Y-60229999D02*
X106956002Y-60625000D01*
X151575000Y-70825000D02*
X151575000Y-68575000D01*
X133858999Y-60400001D02*
X131224990Y-57765992D01*
X161905012Y-64025000D02*
X166575000Y-64025000D01*
X151575000Y-68575000D02*
X151724989Y-68425011D01*
X109195001Y-60400001D02*
X108496003Y-60400001D01*
X166956002Y-70125000D02*
X166431002Y-70125000D01*
X161224990Y-64705022D02*
X161905012Y-64025000D01*
X91724989Y-58925011D02*
X94824989Y-58925011D01*
X106431002Y-60625000D02*
X106036001Y-60229999D01*
X91575000Y-68575000D02*
X91724989Y-68425011D01*
X101905012Y-54525000D02*
X106575000Y-54525000D01*
X106956002Y-60625000D02*
X106431002Y-60625000D01*
X163858999Y-69900001D02*
X161224990Y-67265992D01*
X161224990Y-67265992D02*
X161224990Y-64705022D01*
X169195001Y-69900001D02*
X168496003Y-69900001D01*
X170100000Y-70805000D02*
X169195001Y-69900001D01*
X137351003Y-60229999D02*
X136956002Y-60625000D01*
X104891001Y-60400001D02*
X103858999Y-60400001D01*
X106036001Y-60229999D02*
X105061003Y-60229999D01*
X108496003Y-60400001D02*
X108326001Y-60229999D01*
X101224990Y-55205022D02*
X101905012Y-54525000D01*
X151724989Y-68425011D02*
X154824989Y-68425011D01*
X166431002Y-70125000D02*
X166036001Y-69729999D01*
X166036001Y-69729999D02*
X165061003Y-69729999D01*
X101224990Y-57765992D02*
X101224990Y-55205022D01*
X166956002Y-60625000D02*
X166431002Y-60625000D01*
X161224990Y-55205022D02*
X161905012Y-54525000D01*
X154824989Y-58925011D02*
X155075001Y-58674999D01*
X134891001Y-60400001D02*
X133858999Y-60400001D01*
X138326001Y-60229999D02*
X137351003Y-60229999D01*
X121724989Y-58925011D02*
X124824989Y-58925011D01*
X105061003Y-69729999D02*
X104891001Y-69900001D01*
X131905012Y-54525000D02*
X136575000Y-54525000D01*
X140100000Y-61305000D02*
X139195001Y-60400001D01*
X136956002Y-60625000D02*
X136431002Y-60625000D01*
X135061003Y-60229999D02*
X134891001Y-60400001D01*
X121575000Y-59075000D02*
X121724989Y-58925011D01*
X151575000Y-59075000D02*
X151724989Y-58925011D01*
X139195001Y-60400001D02*
X138496003Y-60400001D01*
X151724989Y-58925011D02*
X154824989Y-58925011D01*
X151575000Y-61325000D02*
X151575000Y-59075000D01*
X109195001Y-69900001D02*
X108496003Y-69900001D01*
X136036001Y-60229999D02*
X135061003Y-60229999D01*
X131224990Y-55205022D02*
X131905012Y-54525000D01*
X163858999Y-60400001D02*
X161224990Y-57765992D01*
X106431002Y-70125000D02*
X106036001Y-69729999D01*
X91724989Y-68425011D02*
X94824989Y-68425011D01*
X108496003Y-69900001D02*
X108326001Y-69729999D01*
X104891001Y-69900001D02*
X103858999Y-69900001D01*
X103858999Y-69900001D02*
X101224990Y-67265992D01*
X106956002Y-70125000D02*
X106431002Y-70125000D01*
X95075001Y-68174999D02*
X95475000Y-67775000D01*
X101905012Y-64025000D02*
X106575000Y-64025000D01*
X110100000Y-70805000D02*
X109195001Y-69900001D01*
X108326001Y-69729999D02*
X107351003Y-69729999D01*
X106036001Y-69729999D02*
X105061003Y-69729999D01*
X101224990Y-64705022D02*
X101905012Y-64025000D01*
X101224990Y-67265992D02*
X101224990Y-64705022D01*
X125075001Y-58674999D02*
X125475000Y-58275000D01*
X169195001Y-60400001D02*
X168496003Y-60400001D01*
X137351003Y-69729999D02*
X136956002Y-70125000D01*
X139195001Y-69900001D02*
X138496003Y-69900001D01*
X131905012Y-64025000D02*
X136575000Y-64025000D01*
X140100000Y-70805000D02*
X139195001Y-69900001D01*
X133858999Y-69900001D02*
X131224990Y-67265992D01*
X170100000Y-61305000D02*
X169195001Y-60400001D01*
X164891001Y-60400001D02*
X163858999Y-60400001D01*
X136431002Y-70125000D02*
X136036001Y-69729999D01*
X136956002Y-70125000D02*
X136431002Y-70125000D01*
X131224990Y-57765992D02*
X131224990Y-55205022D01*
X131224990Y-64705022D02*
X131905012Y-64025000D01*
X124824989Y-68425011D02*
X125075001Y-68174999D01*
X138496003Y-69900001D02*
X138326001Y-69729999D01*
X121575000Y-70825000D02*
X121575000Y-68575000D01*
X138326001Y-69729999D02*
X137351003Y-69729999D01*
X155075001Y-58674999D02*
X155475000Y-58275000D01*
X135061003Y-69729999D02*
X134891001Y-69900001D01*
X168326001Y-60229999D02*
X167351003Y-60229999D01*
X134891001Y-69900001D02*
X133858999Y-69900001D01*
X166431002Y-60625000D02*
X166036001Y-60229999D01*
X165061003Y-60229999D02*
X164891001Y-60400001D01*
X125075001Y-68174999D02*
X125475000Y-67775000D01*
X136036001Y-69729999D02*
X135061003Y-69729999D01*
X94824989Y-58925011D02*
X95075001Y-58674999D01*
X121575000Y-68575000D02*
X121724989Y-68425011D01*
X131224990Y-67265992D02*
X131224990Y-64705022D01*
X121724989Y-68425011D02*
X124824989Y-68425011D01*
X161224990Y-57765992D02*
X161224990Y-55205022D01*
X95075001Y-58674999D02*
X95475000Y-58275000D01*
X91575000Y-59075000D02*
X91724989Y-58925011D01*
X161905012Y-54525000D02*
X166575000Y-54525000D01*
X168496003Y-60400001D02*
X168326001Y-60229999D01*
X103858999Y-60400001D02*
X101224990Y-57765992D01*
X167351003Y-60229999D02*
X166956002Y-60625000D01*
X91575000Y-61325000D02*
X91575000Y-59075000D01*
X88325000Y-144575000D02*
X89270153Y-143629847D01*
X92854468Y-143700010D02*
X93420153Y-143700010D01*
X92784305Y-143629847D02*
X92854468Y-143700010D01*
X88325000Y-146825000D02*
X88325000Y-144575000D01*
X89270153Y-143629847D02*
X92784305Y-143629847D01*
X118325000Y-144575000D02*
X119270153Y-143629847D01*
X118325000Y-146825000D02*
X118325000Y-144575000D01*
X119270153Y-143629847D02*
X122784305Y-143629847D01*
X122784305Y-143629847D02*
X122854468Y-143700010D01*
X122854468Y-143700010D02*
X123420153Y-143700010D01*
X148325000Y-144575000D02*
X149270153Y-143629847D01*
X148325000Y-146825000D02*
X148325000Y-144575000D01*
X149270153Y-143629847D02*
X152784305Y-143629847D01*
X152854468Y-143700010D02*
X153420153Y-143700010D01*
X152784305Y-143629847D02*
X152854468Y-143700010D01*
X88325000Y-135075000D02*
X89270153Y-134129847D01*
X88325000Y-137325000D02*
X88325000Y-135075000D01*
X89270153Y-134129847D02*
X92784305Y-134129847D01*
X92784305Y-134129847D02*
X92854468Y-134200010D01*
X92854468Y-134200010D02*
X93420153Y-134200010D01*
X148325000Y-137325000D02*
X148325000Y-135075000D01*
X148325000Y-135075000D02*
X149270153Y-134129847D01*
X152854468Y-134200010D02*
X153420153Y-134200010D01*
X149270153Y-134129847D02*
X152784305Y-134129847D01*
X152784305Y-134129847D02*
X152854468Y-134200010D01*
X118325000Y-135075000D02*
X119270153Y-134129847D01*
X118325000Y-137325000D02*
X118325000Y-135075000D01*
X119270153Y-134129847D02*
X122784305Y-134129847D01*
X122854468Y-134200010D02*
X123420153Y-134200010D01*
X122784305Y-134129847D02*
X122854468Y-134200010D01*
X88325000Y-125575000D02*
X89270153Y-124629847D01*
X88325000Y-127825000D02*
X88325000Y-125575000D01*
X89270153Y-124629847D02*
X92784305Y-124629847D01*
X92784305Y-124629847D02*
X92854468Y-124700010D01*
X92854468Y-124700010D02*
X93420153Y-124700010D01*
X152854468Y-115200010D02*
X153420153Y-115200010D01*
X118325000Y-116075000D02*
X119270153Y-115129847D01*
X149270153Y-115129847D02*
X152784305Y-115129847D01*
X152784305Y-115129847D02*
X152854468Y-115200010D01*
X119270153Y-115129847D02*
X122784305Y-115129847D01*
X118325000Y-118325000D02*
X118325000Y-116075000D01*
X122784305Y-115129847D02*
X122854468Y-115200010D01*
X122854468Y-115200010D02*
X123420153Y-115200010D01*
X148325000Y-127825000D02*
X148325000Y-125575000D01*
X148325000Y-125575000D02*
X149270153Y-124629847D01*
X152854468Y-124700010D02*
X153420153Y-124700010D01*
X149270153Y-124629847D02*
X152784305Y-124629847D01*
X152784305Y-124629847D02*
X152854468Y-124700010D01*
X148325000Y-118325000D02*
X148325000Y-116075000D01*
X148325000Y-116075000D02*
X149270153Y-115129847D01*
X88325000Y-116075000D02*
X89270153Y-115129847D01*
X89270153Y-115129847D02*
X92784305Y-115129847D01*
X92784305Y-115129847D02*
X92854468Y-115200010D01*
X88325000Y-118325000D02*
X88325000Y-116075000D01*
X92854468Y-115200010D02*
X93420153Y-115200010D01*
X118325000Y-125575000D02*
X119270153Y-124629847D01*
X118325000Y-127825000D02*
X118325000Y-125575000D01*
X119270153Y-124629847D02*
X122784305Y-124629847D01*
X122854468Y-124700010D02*
X123420153Y-124700010D01*
X122784305Y-124629847D02*
X122854468Y-124700010D01*
X88325000Y-108825000D02*
X88325000Y-106575000D01*
X88325000Y-106575000D02*
X89270153Y-105629847D01*
X89270153Y-105629847D02*
X92784305Y-105629847D01*
X152854468Y-96200010D02*
X153420153Y-96200010D01*
X118325000Y-97075000D02*
X119270153Y-96129847D01*
X92784305Y-105629847D02*
X92854468Y-105700010D01*
X149270153Y-96129847D02*
X152784305Y-96129847D01*
X92854468Y-105700010D02*
X93420153Y-105700010D01*
X152784305Y-96129847D02*
X152854468Y-96200010D01*
X119270153Y-105629847D02*
X122784305Y-105629847D01*
X118325000Y-106575000D02*
X119270153Y-105629847D01*
X118325000Y-108825000D02*
X118325000Y-106575000D01*
X122784305Y-105629847D02*
X122854468Y-105700010D01*
X122854468Y-105700010D02*
X123420153Y-105700010D01*
X88325000Y-99325000D02*
X88325000Y-97075000D01*
X92784305Y-96129847D02*
X92854468Y-96200010D01*
X89270153Y-96129847D02*
X92784305Y-96129847D01*
X92854468Y-96200010D02*
X93420153Y-96200010D01*
X88325000Y-97075000D02*
X89270153Y-96129847D01*
X148325000Y-99325000D02*
X148325000Y-97075000D01*
X148325000Y-97075000D02*
X149270153Y-96129847D01*
X148325000Y-108825000D02*
X148325000Y-106575000D01*
X119270153Y-96129847D02*
X122784305Y-96129847D01*
X122854468Y-96200010D02*
X123420153Y-96200010D01*
X118325000Y-99325000D02*
X118325000Y-97075000D01*
X122784305Y-96129847D02*
X122854468Y-96200010D01*
X148325000Y-106575000D02*
X149270153Y-105629847D01*
X152784305Y-105629847D02*
X152854468Y-105700010D01*
X152854468Y-105700010D02*
X153420153Y-105700010D01*
X149270153Y-105629847D02*
X152784305Y-105629847D01*
X118325000Y-80325000D02*
X118325000Y-78075000D01*
X122854468Y-77200010D02*
X123420153Y-77200010D01*
X122784305Y-77129847D02*
X122854468Y-77200010D01*
X119270153Y-77129847D02*
X122784305Y-77129847D01*
X148325000Y-87575000D02*
X149270153Y-86629847D01*
X149270153Y-86629847D02*
X152784305Y-86629847D01*
X152784305Y-86629847D02*
X152854468Y-86700010D01*
X152854468Y-86700010D02*
X153420153Y-86700010D01*
X148325000Y-89825000D02*
X148325000Y-87575000D01*
X152854468Y-77200010D02*
X153420153Y-77200010D01*
X88325000Y-89825000D02*
X88325000Y-87575000D01*
X89270153Y-86629847D02*
X92784305Y-86629847D01*
X118325000Y-78075000D02*
X119270153Y-77129847D01*
X92784305Y-86629847D02*
X92854468Y-86700010D01*
X92854468Y-86700010D02*
X93420153Y-86700010D01*
X149270153Y-77129847D02*
X152784305Y-77129847D01*
X88325000Y-87575000D02*
X89270153Y-86629847D01*
X119270153Y-86629847D02*
X122784305Y-86629847D01*
X152784305Y-77129847D02*
X152854468Y-77200010D01*
X118325000Y-87575000D02*
X119270153Y-86629847D01*
X122854468Y-86700010D02*
X123420153Y-86700010D01*
X122784305Y-86629847D02*
X122854468Y-86700010D01*
X88325000Y-80325000D02*
X88325000Y-78075000D01*
X118325000Y-89825000D02*
X118325000Y-87575000D01*
X92784305Y-77129847D02*
X92854468Y-77200010D01*
X88325000Y-78075000D02*
X89270153Y-77129847D01*
X148325000Y-80325000D02*
X148325000Y-78075000D01*
X148325000Y-78075000D02*
X149270153Y-77129847D01*
X92854468Y-77200010D02*
X93420153Y-77200010D01*
X89270153Y-77129847D02*
X92784305Y-77129847D01*
X89270153Y-67629847D02*
X92784305Y-67629847D01*
X118325000Y-59075000D02*
X119270153Y-58129847D01*
X92854468Y-67700010D02*
X93420153Y-67700010D01*
X88325000Y-70825000D02*
X88325000Y-68575000D01*
X92784305Y-67629847D02*
X92854468Y-67700010D01*
X88325000Y-68575000D02*
X89270153Y-67629847D01*
X119270153Y-58129847D02*
X122784305Y-58129847D01*
X122854468Y-58200010D02*
X123420153Y-58200010D01*
X118325000Y-61325000D02*
X118325000Y-59075000D01*
X122784305Y-58129847D02*
X122854468Y-58200010D01*
X148325000Y-68575000D02*
X149270153Y-67629847D01*
X149270153Y-67629847D02*
X152784305Y-67629847D01*
X152784305Y-67629847D02*
X152854468Y-67700010D01*
X149270153Y-58129847D02*
X152784305Y-58129847D01*
X148325000Y-70825000D02*
X148325000Y-68575000D01*
X152854468Y-67700010D02*
X153420153Y-67700010D01*
X152854468Y-58200010D02*
X153420153Y-58200010D01*
X152784305Y-58129847D02*
X152854468Y-58200010D01*
X118325000Y-68575000D02*
X119270153Y-67629847D01*
X119270153Y-67629847D02*
X122784305Y-67629847D01*
X122854468Y-67700010D02*
X123420153Y-67700010D01*
X122784305Y-67629847D02*
X122854468Y-67700010D01*
X92784305Y-58129847D02*
X92854468Y-58200010D01*
X88325000Y-59075000D02*
X89270153Y-58129847D01*
X88325000Y-61325000D02*
X88325000Y-59075000D01*
X118325000Y-70825000D02*
X118325000Y-68575000D01*
X89270153Y-58129847D02*
X92784305Y-58129847D01*
X148325000Y-59075000D02*
X149270153Y-58129847D01*
X148325000Y-61325000D02*
X148325000Y-59075000D01*
X92854468Y-58200010D02*
X93420153Y-58200010D01*
M02*
