G04 #@! TF.GenerationSoftware,KiCad,Pcbnew,(5.1.0)-1*
G04 #@! TF.CreationDate,2020-07-15T16:06:42-04:00*
G04 #@! TF.ProjectId,Breakout Panelized,42726561-6b6f-4757-9420-50616e656c69,rev?*
G04 #@! TF.SameCoordinates,Original*
G04 #@! TF.FileFunction,Legend,Bot*
G04 #@! TF.FilePolarity,Positive*
%FSLAX46Y46*%
G04 Gerber Fmt 4.6, Leading zero omitted, Abs format (unit mm)*
G04 Created by KiCad (PCBNEW (5.1.0)-1) date 2020-07-15 16:06:42*
%MOMM*%
%LPD*%
G04 APERTURE LIST*
%ADD10C,0.150000*%
G04 APERTURE END LIST*
D10*
X128275000Y-55402380D02*
X128751190Y-55402380D01*
X128751190Y-54402380D01*
X127941666Y-55402380D02*
X127941666Y-54735714D01*
X127941666Y-54402380D02*
X127989285Y-54450000D01*
X127941666Y-54497619D01*
X127894047Y-54450000D01*
X127941666Y-54402380D01*
X127941666Y-54497619D01*
X127036904Y-55354761D02*
X127132142Y-55402380D01*
X127322619Y-55402380D01*
X127417857Y-55354761D01*
X127465476Y-55307142D01*
X127513095Y-55211904D01*
X127513095Y-54926190D01*
X127465476Y-54830952D01*
X127417857Y-54783333D01*
X127322619Y-54735714D01*
X127132142Y-54735714D01*
X127036904Y-54783333D01*
X126227380Y-55354761D02*
X126322619Y-55402380D01*
X126513095Y-55402380D01*
X126608333Y-55354761D01*
X126655952Y-55259523D01*
X126655952Y-54878571D01*
X126608333Y-54783333D01*
X126513095Y-54735714D01*
X126322619Y-54735714D01*
X126227380Y-54783333D01*
X126179761Y-54878571D01*
X126179761Y-54973809D01*
X126655952Y-55069047D01*
X125751190Y-54735714D02*
X125751190Y-55402380D01*
X125751190Y-54830952D02*
X125703571Y-54783333D01*
X125608333Y-54735714D01*
X125465476Y-54735714D01*
X125370238Y-54783333D01*
X125322619Y-54878571D01*
X125322619Y-55402380D01*
X124894047Y-55354761D02*
X124798809Y-55402380D01*
X124608333Y-55402380D01*
X124513095Y-55354761D01*
X124465476Y-55259523D01*
X124465476Y-55211904D01*
X124513095Y-55116666D01*
X124608333Y-55069047D01*
X124751190Y-55069047D01*
X124846428Y-55021428D01*
X124894047Y-54926190D01*
X124894047Y-54878571D01*
X124846428Y-54783333D01*
X124751190Y-54735714D01*
X124608333Y-54735714D01*
X124513095Y-54783333D01*
X123655952Y-55354761D02*
X123751190Y-55402380D01*
X123941666Y-55402380D01*
X124036904Y-55354761D01*
X124084523Y-55259523D01*
X124084523Y-54878571D01*
X124036904Y-54783333D01*
X123941666Y-54735714D01*
X123751190Y-54735714D01*
X123655952Y-54783333D01*
X123608333Y-54878571D01*
X123608333Y-54973809D01*
X124084523Y-55069047D01*
X122751190Y-55402380D02*
X122751190Y-54402380D01*
X122751190Y-55354761D02*
X122846428Y-55402380D01*
X123036904Y-55402380D01*
X123132142Y-55354761D01*
X123179761Y-55307142D01*
X123227380Y-55211904D01*
X123227380Y-54926190D01*
X123179761Y-54830952D01*
X123132142Y-54783333D01*
X123036904Y-54735714D01*
X122846428Y-54735714D01*
X122751190Y-54783333D01*
X121084523Y-54735714D02*
X121084523Y-55402380D01*
X121513095Y-54735714D02*
X121513095Y-55259523D01*
X121465476Y-55354761D01*
X121370238Y-55402380D01*
X121227380Y-55402380D01*
X121132142Y-55354761D01*
X121084523Y-55307142D01*
X120608333Y-54735714D02*
X120608333Y-55402380D01*
X120608333Y-54830952D02*
X120560714Y-54783333D01*
X120465476Y-54735714D01*
X120322619Y-54735714D01*
X120227380Y-54783333D01*
X120179761Y-54878571D01*
X120179761Y-55402380D01*
X119275000Y-55402380D02*
X119275000Y-54402380D01*
X119275000Y-55354761D02*
X119370238Y-55402380D01*
X119560714Y-55402380D01*
X119655952Y-55354761D01*
X119703571Y-55307142D01*
X119751190Y-55211904D01*
X119751190Y-54926190D01*
X119703571Y-54830952D01*
X119655952Y-54783333D01*
X119560714Y-54735714D01*
X119370238Y-54735714D01*
X119275000Y-54783333D01*
X118417857Y-55354761D02*
X118513095Y-55402380D01*
X118703571Y-55402380D01*
X118798809Y-55354761D01*
X118846428Y-55259523D01*
X118846428Y-54878571D01*
X118798809Y-54783333D01*
X118703571Y-54735714D01*
X118513095Y-54735714D01*
X118417857Y-54783333D01*
X118370238Y-54878571D01*
X118370238Y-54973809D01*
X118846428Y-55069047D01*
X117941666Y-55402380D02*
X117941666Y-54735714D01*
X117941666Y-54926190D02*
X117894047Y-54830952D01*
X117846428Y-54783333D01*
X117751190Y-54735714D01*
X117655952Y-54735714D01*
X128846428Y-56957142D02*
X128894047Y-57004761D01*
X129036904Y-57052380D01*
X129132142Y-57052380D01*
X129275000Y-57004761D01*
X129370238Y-56909523D01*
X129417857Y-56814285D01*
X129465476Y-56623809D01*
X129465476Y-56480952D01*
X129417857Y-56290476D01*
X129370238Y-56195238D01*
X129275000Y-56100000D01*
X129132142Y-56052380D01*
X129036904Y-56052380D01*
X128894047Y-56100000D01*
X128846428Y-56147619D01*
X128417857Y-56528571D02*
X128084523Y-56528571D01*
X127941666Y-57052380D02*
X128417857Y-57052380D01*
X128417857Y-56052380D01*
X127941666Y-56052380D01*
X126941666Y-57052380D02*
X127275000Y-56576190D01*
X127513095Y-57052380D02*
X127513095Y-56052380D01*
X127132142Y-56052380D01*
X127036904Y-56100000D01*
X126989285Y-56147619D01*
X126941666Y-56242857D01*
X126941666Y-56385714D01*
X126989285Y-56480952D01*
X127036904Y-56528571D01*
X127132142Y-56576190D01*
X127513095Y-56576190D01*
X126513095Y-57052380D02*
X126513095Y-56052380D01*
X125941666Y-57052380D01*
X125941666Y-56052380D01*
X125465476Y-56671428D02*
X124703571Y-56671428D01*
X124036904Y-56052380D02*
X123846428Y-56052380D01*
X123751190Y-56100000D01*
X123655952Y-56195238D01*
X123608333Y-56385714D01*
X123608333Y-56719047D01*
X123655952Y-56909523D01*
X123751190Y-57004761D01*
X123846428Y-57052380D01*
X124036904Y-57052380D01*
X124132142Y-57004761D01*
X124227380Y-56909523D01*
X124275000Y-56719047D01*
X124275000Y-56385714D01*
X124227380Y-56195238D01*
X124132142Y-56100000D01*
X124036904Y-56052380D01*
X123179761Y-57052380D02*
X123179761Y-56052380D01*
X123179761Y-56528571D02*
X122608333Y-56528571D01*
X122608333Y-57052380D02*
X122608333Y-56052380D01*
X121655952Y-57052380D02*
X122132142Y-57052380D01*
X122132142Y-56052380D01*
X121322619Y-56671428D02*
X120560714Y-56671428D01*
X120132142Y-57004761D02*
X119989285Y-57052380D01*
X119751190Y-57052380D01*
X119655952Y-57004761D01*
X119608333Y-56957142D01*
X119560714Y-56861904D01*
X119560714Y-56766666D01*
X119608333Y-56671428D01*
X119655952Y-56623809D01*
X119751190Y-56576190D01*
X119941666Y-56528571D01*
X120036904Y-56480952D01*
X120084523Y-56433333D01*
X120132142Y-56338095D01*
X120132142Y-56242857D01*
X120084523Y-56147619D01*
X120036904Y-56100000D01*
X119941666Y-56052380D01*
X119703571Y-56052380D01*
X119560714Y-56100000D01*
X118465476Y-56385714D02*
X118227380Y-57052380D01*
X117989285Y-56385714D01*
X117655952Y-56147619D02*
X117608333Y-56100000D01*
X117513095Y-56052380D01*
X117275000Y-56052380D01*
X117179761Y-56100000D01*
X117132142Y-56147619D01*
X117084523Y-56242857D01*
X117084523Y-56338095D01*
X117132142Y-56480952D01*
X117703571Y-57052380D01*
X117084523Y-57052380D01*
X158275000Y-64902380D02*
X158751190Y-64902380D01*
X158751190Y-63902380D01*
X157941666Y-64902380D02*
X157941666Y-64235714D01*
X157941666Y-63902380D02*
X157989285Y-63950000D01*
X157941666Y-63997619D01*
X157894047Y-63950000D01*
X157941666Y-63902380D01*
X157941666Y-63997619D01*
X157036904Y-64854761D02*
X157132142Y-64902380D01*
X157322619Y-64902380D01*
X157417857Y-64854761D01*
X157465476Y-64807142D01*
X157513095Y-64711904D01*
X157513095Y-64426190D01*
X157465476Y-64330952D01*
X157417857Y-64283333D01*
X157322619Y-64235714D01*
X157132142Y-64235714D01*
X157036904Y-64283333D01*
X156227380Y-64854761D02*
X156322619Y-64902380D01*
X156513095Y-64902380D01*
X156608333Y-64854761D01*
X156655952Y-64759523D01*
X156655952Y-64378571D01*
X156608333Y-64283333D01*
X156513095Y-64235714D01*
X156322619Y-64235714D01*
X156227380Y-64283333D01*
X156179761Y-64378571D01*
X156179761Y-64473809D01*
X156655952Y-64569047D01*
X155751190Y-64235714D02*
X155751190Y-64902380D01*
X155751190Y-64330952D02*
X155703571Y-64283333D01*
X155608333Y-64235714D01*
X155465476Y-64235714D01*
X155370238Y-64283333D01*
X155322619Y-64378571D01*
X155322619Y-64902380D01*
X154894047Y-64854761D02*
X154798809Y-64902380D01*
X154608333Y-64902380D01*
X154513095Y-64854761D01*
X154465476Y-64759523D01*
X154465476Y-64711904D01*
X154513095Y-64616666D01*
X154608333Y-64569047D01*
X154751190Y-64569047D01*
X154846428Y-64521428D01*
X154894047Y-64426190D01*
X154894047Y-64378571D01*
X154846428Y-64283333D01*
X154751190Y-64235714D01*
X154608333Y-64235714D01*
X154513095Y-64283333D01*
X153655952Y-64854761D02*
X153751190Y-64902380D01*
X153941666Y-64902380D01*
X154036904Y-64854761D01*
X154084523Y-64759523D01*
X154084523Y-64378571D01*
X154036904Y-64283333D01*
X153941666Y-64235714D01*
X153751190Y-64235714D01*
X153655952Y-64283333D01*
X153608333Y-64378571D01*
X153608333Y-64473809D01*
X154084523Y-64569047D01*
X152751190Y-64902380D02*
X152751190Y-63902380D01*
X152751190Y-64854761D02*
X152846428Y-64902380D01*
X153036904Y-64902380D01*
X153132142Y-64854761D01*
X153179761Y-64807142D01*
X153227380Y-64711904D01*
X153227380Y-64426190D01*
X153179761Y-64330952D01*
X153132142Y-64283333D01*
X153036904Y-64235714D01*
X152846428Y-64235714D01*
X152751190Y-64283333D01*
X151084523Y-64235714D02*
X151084523Y-64902380D01*
X151513095Y-64235714D02*
X151513095Y-64759523D01*
X151465476Y-64854761D01*
X151370238Y-64902380D01*
X151227380Y-64902380D01*
X151132142Y-64854761D01*
X151084523Y-64807142D01*
X150608333Y-64235714D02*
X150608333Y-64902380D01*
X150608333Y-64330952D02*
X150560714Y-64283333D01*
X150465476Y-64235714D01*
X150322619Y-64235714D01*
X150227380Y-64283333D01*
X150179761Y-64378571D01*
X150179761Y-64902380D01*
X149275000Y-64902380D02*
X149275000Y-63902380D01*
X149275000Y-64854761D02*
X149370238Y-64902380D01*
X149560714Y-64902380D01*
X149655952Y-64854761D01*
X149703571Y-64807142D01*
X149751190Y-64711904D01*
X149751190Y-64426190D01*
X149703571Y-64330952D01*
X149655952Y-64283333D01*
X149560714Y-64235714D01*
X149370238Y-64235714D01*
X149275000Y-64283333D01*
X148417857Y-64854761D02*
X148513095Y-64902380D01*
X148703571Y-64902380D01*
X148798809Y-64854761D01*
X148846428Y-64759523D01*
X148846428Y-64378571D01*
X148798809Y-64283333D01*
X148703571Y-64235714D01*
X148513095Y-64235714D01*
X148417857Y-64283333D01*
X148370238Y-64378571D01*
X148370238Y-64473809D01*
X148846428Y-64569047D01*
X147941666Y-64902380D02*
X147941666Y-64235714D01*
X147941666Y-64426190D02*
X147894047Y-64330952D01*
X147846428Y-64283333D01*
X147751190Y-64235714D01*
X147655952Y-64235714D01*
X158846428Y-66457142D02*
X158894047Y-66504761D01*
X159036904Y-66552380D01*
X159132142Y-66552380D01*
X159275000Y-66504761D01*
X159370238Y-66409523D01*
X159417857Y-66314285D01*
X159465476Y-66123809D01*
X159465476Y-65980952D01*
X159417857Y-65790476D01*
X159370238Y-65695238D01*
X159275000Y-65600000D01*
X159132142Y-65552380D01*
X159036904Y-65552380D01*
X158894047Y-65600000D01*
X158846428Y-65647619D01*
X158417857Y-66028571D02*
X158084523Y-66028571D01*
X157941666Y-66552380D02*
X158417857Y-66552380D01*
X158417857Y-65552380D01*
X157941666Y-65552380D01*
X156941666Y-66552380D02*
X157275000Y-66076190D01*
X157513095Y-66552380D02*
X157513095Y-65552380D01*
X157132142Y-65552380D01*
X157036904Y-65600000D01*
X156989285Y-65647619D01*
X156941666Y-65742857D01*
X156941666Y-65885714D01*
X156989285Y-65980952D01*
X157036904Y-66028571D01*
X157132142Y-66076190D01*
X157513095Y-66076190D01*
X156513095Y-66552380D02*
X156513095Y-65552380D01*
X155941666Y-66552380D01*
X155941666Y-65552380D01*
X155465476Y-66171428D02*
X154703571Y-66171428D01*
X154036904Y-65552380D02*
X153846428Y-65552380D01*
X153751190Y-65600000D01*
X153655952Y-65695238D01*
X153608333Y-65885714D01*
X153608333Y-66219047D01*
X153655952Y-66409523D01*
X153751190Y-66504761D01*
X153846428Y-66552380D01*
X154036904Y-66552380D01*
X154132142Y-66504761D01*
X154227380Y-66409523D01*
X154275000Y-66219047D01*
X154275000Y-65885714D01*
X154227380Y-65695238D01*
X154132142Y-65600000D01*
X154036904Y-65552380D01*
X153179761Y-66552380D02*
X153179761Y-65552380D01*
X153179761Y-66028571D02*
X152608333Y-66028571D01*
X152608333Y-66552380D02*
X152608333Y-65552380D01*
X151655952Y-66552380D02*
X152132142Y-66552380D01*
X152132142Y-65552380D01*
X151322619Y-66171428D02*
X150560714Y-66171428D01*
X150132142Y-66504761D02*
X149989285Y-66552380D01*
X149751190Y-66552380D01*
X149655952Y-66504761D01*
X149608333Y-66457142D01*
X149560714Y-66361904D01*
X149560714Y-66266666D01*
X149608333Y-66171428D01*
X149655952Y-66123809D01*
X149751190Y-66076190D01*
X149941666Y-66028571D01*
X150036904Y-65980952D01*
X150084523Y-65933333D01*
X150132142Y-65838095D01*
X150132142Y-65742857D01*
X150084523Y-65647619D01*
X150036904Y-65600000D01*
X149941666Y-65552380D01*
X149703571Y-65552380D01*
X149560714Y-65600000D01*
X148465476Y-65885714D02*
X148227380Y-66552380D01*
X147989285Y-65885714D01*
X147655952Y-65647619D02*
X147608333Y-65600000D01*
X147513095Y-65552380D01*
X147275000Y-65552380D01*
X147179761Y-65600000D01*
X147132142Y-65647619D01*
X147084523Y-65742857D01*
X147084523Y-65838095D01*
X147132142Y-65980952D01*
X147703571Y-66552380D01*
X147084523Y-66552380D01*
X98275000Y-55402380D02*
X98751190Y-55402380D01*
X98751190Y-54402380D01*
X97941666Y-55402380D02*
X97941666Y-54735714D01*
X97941666Y-54402380D02*
X97989285Y-54450000D01*
X97941666Y-54497619D01*
X97894047Y-54450000D01*
X97941666Y-54402380D01*
X97941666Y-54497619D01*
X97036904Y-55354761D02*
X97132142Y-55402380D01*
X97322619Y-55402380D01*
X97417857Y-55354761D01*
X97465476Y-55307142D01*
X97513095Y-55211904D01*
X97513095Y-54926190D01*
X97465476Y-54830952D01*
X97417857Y-54783333D01*
X97322619Y-54735714D01*
X97132142Y-54735714D01*
X97036904Y-54783333D01*
X96227380Y-55354761D02*
X96322619Y-55402380D01*
X96513095Y-55402380D01*
X96608333Y-55354761D01*
X96655952Y-55259523D01*
X96655952Y-54878571D01*
X96608333Y-54783333D01*
X96513095Y-54735714D01*
X96322619Y-54735714D01*
X96227380Y-54783333D01*
X96179761Y-54878571D01*
X96179761Y-54973809D01*
X96655952Y-55069047D01*
X95751190Y-54735714D02*
X95751190Y-55402380D01*
X95751190Y-54830952D02*
X95703571Y-54783333D01*
X95608333Y-54735714D01*
X95465476Y-54735714D01*
X95370238Y-54783333D01*
X95322619Y-54878571D01*
X95322619Y-55402380D01*
X94894047Y-55354761D02*
X94798809Y-55402380D01*
X94608333Y-55402380D01*
X94513095Y-55354761D01*
X94465476Y-55259523D01*
X94465476Y-55211904D01*
X94513095Y-55116666D01*
X94608333Y-55069047D01*
X94751190Y-55069047D01*
X94846428Y-55021428D01*
X94894047Y-54926190D01*
X94894047Y-54878571D01*
X94846428Y-54783333D01*
X94751190Y-54735714D01*
X94608333Y-54735714D01*
X94513095Y-54783333D01*
X93655952Y-55354761D02*
X93751190Y-55402380D01*
X93941666Y-55402380D01*
X94036904Y-55354761D01*
X94084523Y-55259523D01*
X94084523Y-54878571D01*
X94036904Y-54783333D01*
X93941666Y-54735714D01*
X93751190Y-54735714D01*
X93655952Y-54783333D01*
X93608333Y-54878571D01*
X93608333Y-54973809D01*
X94084523Y-55069047D01*
X92751190Y-55402380D02*
X92751190Y-54402380D01*
X92751190Y-55354761D02*
X92846428Y-55402380D01*
X93036904Y-55402380D01*
X93132142Y-55354761D01*
X93179761Y-55307142D01*
X93227380Y-55211904D01*
X93227380Y-54926190D01*
X93179761Y-54830952D01*
X93132142Y-54783333D01*
X93036904Y-54735714D01*
X92846428Y-54735714D01*
X92751190Y-54783333D01*
X91084523Y-54735714D02*
X91084523Y-55402380D01*
X91513095Y-54735714D02*
X91513095Y-55259523D01*
X91465476Y-55354761D01*
X91370238Y-55402380D01*
X91227380Y-55402380D01*
X91132142Y-55354761D01*
X91084523Y-55307142D01*
X90608333Y-54735714D02*
X90608333Y-55402380D01*
X90608333Y-54830952D02*
X90560714Y-54783333D01*
X90465476Y-54735714D01*
X90322619Y-54735714D01*
X90227380Y-54783333D01*
X90179761Y-54878571D01*
X90179761Y-55402380D01*
X89275000Y-55402380D02*
X89275000Y-54402380D01*
X89275000Y-55354761D02*
X89370238Y-55402380D01*
X89560714Y-55402380D01*
X89655952Y-55354761D01*
X89703571Y-55307142D01*
X89751190Y-55211904D01*
X89751190Y-54926190D01*
X89703571Y-54830952D01*
X89655952Y-54783333D01*
X89560714Y-54735714D01*
X89370238Y-54735714D01*
X89275000Y-54783333D01*
X88417857Y-55354761D02*
X88513095Y-55402380D01*
X88703571Y-55402380D01*
X88798809Y-55354761D01*
X88846428Y-55259523D01*
X88846428Y-54878571D01*
X88798809Y-54783333D01*
X88703571Y-54735714D01*
X88513095Y-54735714D01*
X88417857Y-54783333D01*
X88370238Y-54878571D01*
X88370238Y-54973809D01*
X88846428Y-55069047D01*
X87941666Y-55402380D02*
X87941666Y-54735714D01*
X87941666Y-54926190D02*
X87894047Y-54830952D01*
X87846428Y-54783333D01*
X87751190Y-54735714D01*
X87655952Y-54735714D01*
X98846428Y-56957142D02*
X98894047Y-57004761D01*
X99036904Y-57052380D01*
X99132142Y-57052380D01*
X99275000Y-57004761D01*
X99370238Y-56909523D01*
X99417857Y-56814285D01*
X99465476Y-56623809D01*
X99465476Y-56480952D01*
X99417857Y-56290476D01*
X99370238Y-56195238D01*
X99275000Y-56100000D01*
X99132142Y-56052380D01*
X99036904Y-56052380D01*
X98894047Y-56100000D01*
X98846428Y-56147619D01*
X98417857Y-56528571D02*
X98084523Y-56528571D01*
X97941666Y-57052380D02*
X98417857Y-57052380D01*
X98417857Y-56052380D01*
X97941666Y-56052380D01*
X96941666Y-57052380D02*
X97275000Y-56576190D01*
X97513095Y-57052380D02*
X97513095Y-56052380D01*
X97132142Y-56052380D01*
X97036904Y-56100000D01*
X96989285Y-56147619D01*
X96941666Y-56242857D01*
X96941666Y-56385714D01*
X96989285Y-56480952D01*
X97036904Y-56528571D01*
X97132142Y-56576190D01*
X97513095Y-56576190D01*
X96513095Y-57052380D02*
X96513095Y-56052380D01*
X95941666Y-57052380D01*
X95941666Y-56052380D01*
X95465476Y-56671428D02*
X94703571Y-56671428D01*
X94036904Y-56052380D02*
X93846428Y-56052380D01*
X93751190Y-56100000D01*
X93655952Y-56195238D01*
X93608333Y-56385714D01*
X93608333Y-56719047D01*
X93655952Y-56909523D01*
X93751190Y-57004761D01*
X93846428Y-57052380D01*
X94036904Y-57052380D01*
X94132142Y-57004761D01*
X94227380Y-56909523D01*
X94275000Y-56719047D01*
X94275000Y-56385714D01*
X94227380Y-56195238D01*
X94132142Y-56100000D01*
X94036904Y-56052380D01*
X93179761Y-57052380D02*
X93179761Y-56052380D01*
X93179761Y-56528571D02*
X92608333Y-56528571D01*
X92608333Y-57052380D02*
X92608333Y-56052380D01*
X91655952Y-57052380D02*
X92132142Y-57052380D01*
X92132142Y-56052380D01*
X91322619Y-56671428D02*
X90560714Y-56671428D01*
X90132142Y-57004761D02*
X89989285Y-57052380D01*
X89751190Y-57052380D01*
X89655952Y-57004761D01*
X89608333Y-56957142D01*
X89560714Y-56861904D01*
X89560714Y-56766666D01*
X89608333Y-56671428D01*
X89655952Y-56623809D01*
X89751190Y-56576190D01*
X89941666Y-56528571D01*
X90036904Y-56480952D01*
X90084523Y-56433333D01*
X90132142Y-56338095D01*
X90132142Y-56242857D01*
X90084523Y-56147619D01*
X90036904Y-56100000D01*
X89941666Y-56052380D01*
X89703571Y-56052380D01*
X89560714Y-56100000D01*
X88465476Y-56385714D02*
X88227380Y-57052380D01*
X87989285Y-56385714D01*
X87655952Y-56147619D02*
X87608333Y-56100000D01*
X87513095Y-56052380D01*
X87275000Y-56052380D01*
X87179761Y-56100000D01*
X87132142Y-56147619D01*
X87084523Y-56242857D01*
X87084523Y-56338095D01*
X87132142Y-56480952D01*
X87703571Y-57052380D01*
X87084523Y-57052380D01*
X128275000Y-64902380D02*
X128751190Y-64902380D01*
X128751190Y-63902380D01*
X127941666Y-64902380D02*
X127941666Y-64235714D01*
X127941666Y-63902380D02*
X127989285Y-63950000D01*
X127941666Y-63997619D01*
X127894047Y-63950000D01*
X127941666Y-63902380D01*
X127941666Y-63997619D01*
X127036904Y-64854761D02*
X127132142Y-64902380D01*
X127322619Y-64902380D01*
X127417857Y-64854761D01*
X127465476Y-64807142D01*
X127513095Y-64711904D01*
X127513095Y-64426190D01*
X127465476Y-64330952D01*
X127417857Y-64283333D01*
X127322619Y-64235714D01*
X127132142Y-64235714D01*
X127036904Y-64283333D01*
X126227380Y-64854761D02*
X126322619Y-64902380D01*
X126513095Y-64902380D01*
X126608333Y-64854761D01*
X126655952Y-64759523D01*
X126655952Y-64378571D01*
X126608333Y-64283333D01*
X126513095Y-64235714D01*
X126322619Y-64235714D01*
X126227380Y-64283333D01*
X126179761Y-64378571D01*
X126179761Y-64473809D01*
X126655952Y-64569047D01*
X125751190Y-64235714D02*
X125751190Y-64902380D01*
X125751190Y-64330952D02*
X125703571Y-64283333D01*
X125608333Y-64235714D01*
X125465476Y-64235714D01*
X125370238Y-64283333D01*
X125322619Y-64378571D01*
X125322619Y-64902380D01*
X124894047Y-64854761D02*
X124798809Y-64902380D01*
X124608333Y-64902380D01*
X124513095Y-64854761D01*
X124465476Y-64759523D01*
X124465476Y-64711904D01*
X124513095Y-64616666D01*
X124608333Y-64569047D01*
X124751190Y-64569047D01*
X124846428Y-64521428D01*
X124894047Y-64426190D01*
X124894047Y-64378571D01*
X124846428Y-64283333D01*
X124751190Y-64235714D01*
X124608333Y-64235714D01*
X124513095Y-64283333D01*
X123655952Y-64854761D02*
X123751190Y-64902380D01*
X123941666Y-64902380D01*
X124036904Y-64854761D01*
X124084523Y-64759523D01*
X124084523Y-64378571D01*
X124036904Y-64283333D01*
X123941666Y-64235714D01*
X123751190Y-64235714D01*
X123655952Y-64283333D01*
X123608333Y-64378571D01*
X123608333Y-64473809D01*
X124084523Y-64569047D01*
X122751190Y-64902380D02*
X122751190Y-63902380D01*
X122751190Y-64854761D02*
X122846428Y-64902380D01*
X123036904Y-64902380D01*
X123132142Y-64854761D01*
X123179761Y-64807142D01*
X123227380Y-64711904D01*
X123227380Y-64426190D01*
X123179761Y-64330952D01*
X123132142Y-64283333D01*
X123036904Y-64235714D01*
X122846428Y-64235714D01*
X122751190Y-64283333D01*
X121084523Y-64235714D02*
X121084523Y-64902380D01*
X121513095Y-64235714D02*
X121513095Y-64759523D01*
X121465476Y-64854761D01*
X121370238Y-64902380D01*
X121227380Y-64902380D01*
X121132142Y-64854761D01*
X121084523Y-64807142D01*
X120608333Y-64235714D02*
X120608333Y-64902380D01*
X120608333Y-64330952D02*
X120560714Y-64283333D01*
X120465476Y-64235714D01*
X120322619Y-64235714D01*
X120227380Y-64283333D01*
X120179761Y-64378571D01*
X120179761Y-64902380D01*
X119275000Y-64902380D02*
X119275000Y-63902380D01*
X119275000Y-64854761D02*
X119370238Y-64902380D01*
X119560714Y-64902380D01*
X119655952Y-64854761D01*
X119703571Y-64807142D01*
X119751190Y-64711904D01*
X119751190Y-64426190D01*
X119703571Y-64330952D01*
X119655952Y-64283333D01*
X119560714Y-64235714D01*
X119370238Y-64235714D01*
X119275000Y-64283333D01*
X118417857Y-64854761D02*
X118513095Y-64902380D01*
X118703571Y-64902380D01*
X118798809Y-64854761D01*
X118846428Y-64759523D01*
X118846428Y-64378571D01*
X118798809Y-64283333D01*
X118703571Y-64235714D01*
X118513095Y-64235714D01*
X118417857Y-64283333D01*
X118370238Y-64378571D01*
X118370238Y-64473809D01*
X118846428Y-64569047D01*
X117941666Y-64902380D02*
X117941666Y-64235714D01*
X117941666Y-64426190D02*
X117894047Y-64330952D01*
X117846428Y-64283333D01*
X117751190Y-64235714D01*
X117655952Y-64235714D01*
X128846428Y-66457142D02*
X128894047Y-66504761D01*
X129036904Y-66552380D01*
X129132142Y-66552380D01*
X129275000Y-66504761D01*
X129370238Y-66409523D01*
X129417857Y-66314285D01*
X129465476Y-66123809D01*
X129465476Y-65980952D01*
X129417857Y-65790476D01*
X129370238Y-65695238D01*
X129275000Y-65600000D01*
X129132142Y-65552380D01*
X129036904Y-65552380D01*
X128894047Y-65600000D01*
X128846428Y-65647619D01*
X128417857Y-66028571D02*
X128084523Y-66028571D01*
X127941666Y-66552380D02*
X128417857Y-66552380D01*
X128417857Y-65552380D01*
X127941666Y-65552380D01*
X126941666Y-66552380D02*
X127275000Y-66076190D01*
X127513095Y-66552380D02*
X127513095Y-65552380D01*
X127132142Y-65552380D01*
X127036904Y-65600000D01*
X126989285Y-65647619D01*
X126941666Y-65742857D01*
X126941666Y-65885714D01*
X126989285Y-65980952D01*
X127036904Y-66028571D01*
X127132142Y-66076190D01*
X127513095Y-66076190D01*
X126513095Y-66552380D02*
X126513095Y-65552380D01*
X125941666Y-66552380D01*
X125941666Y-65552380D01*
X125465476Y-66171428D02*
X124703571Y-66171428D01*
X124036904Y-65552380D02*
X123846428Y-65552380D01*
X123751190Y-65600000D01*
X123655952Y-65695238D01*
X123608333Y-65885714D01*
X123608333Y-66219047D01*
X123655952Y-66409523D01*
X123751190Y-66504761D01*
X123846428Y-66552380D01*
X124036904Y-66552380D01*
X124132142Y-66504761D01*
X124227380Y-66409523D01*
X124275000Y-66219047D01*
X124275000Y-65885714D01*
X124227380Y-65695238D01*
X124132142Y-65600000D01*
X124036904Y-65552380D01*
X123179761Y-66552380D02*
X123179761Y-65552380D01*
X123179761Y-66028571D02*
X122608333Y-66028571D01*
X122608333Y-66552380D02*
X122608333Y-65552380D01*
X121655952Y-66552380D02*
X122132142Y-66552380D01*
X122132142Y-65552380D01*
X121322619Y-66171428D02*
X120560714Y-66171428D01*
X120132142Y-66504761D02*
X119989285Y-66552380D01*
X119751190Y-66552380D01*
X119655952Y-66504761D01*
X119608333Y-66457142D01*
X119560714Y-66361904D01*
X119560714Y-66266666D01*
X119608333Y-66171428D01*
X119655952Y-66123809D01*
X119751190Y-66076190D01*
X119941666Y-66028571D01*
X120036904Y-65980952D01*
X120084523Y-65933333D01*
X120132142Y-65838095D01*
X120132142Y-65742857D01*
X120084523Y-65647619D01*
X120036904Y-65600000D01*
X119941666Y-65552380D01*
X119703571Y-65552380D01*
X119560714Y-65600000D01*
X118465476Y-65885714D02*
X118227380Y-66552380D01*
X117989285Y-65885714D01*
X117655952Y-65647619D02*
X117608333Y-65600000D01*
X117513095Y-65552380D01*
X117275000Y-65552380D01*
X117179761Y-65600000D01*
X117132142Y-65647619D01*
X117084523Y-65742857D01*
X117084523Y-65838095D01*
X117132142Y-65980952D01*
X117703571Y-66552380D01*
X117084523Y-66552380D01*
X98275000Y-64902380D02*
X98751190Y-64902380D01*
X98751190Y-63902380D01*
X97941666Y-64902380D02*
X97941666Y-64235714D01*
X97941666Y-63902380D02*
X97989285Y-63950000D01*
X97941666Y-63997619D01*
X97894047Y-63950000D01*
X97941666Y-63902380D01*
X97941666Y-63997619D01*
X97036904Y-64854761D02*
X97132142Y-64902380D01*
X97322619Y-64902380D01*
X97417857Y-64854761D01*
X97465476Y-64807142D01*
X97513095Y-64711904D01*
X97513095Y-64426190D01*
X97465476Y-64330952D01*
X97417857Y-64283333D01*
X97322619Y-64235714D01*
X97132142Y-64235714D01*
X97036904Y-64283333D01*
X96227380Y-64854761D02*
X96322619Y-64902380D01*
X96513095Y-64902380D01*
X96608333Y-64854761D01*
X96655952Y-64759523D01*
X96655952Y-64378571D01*
X96608333Y-64283333D01*
X96513095Y-64235714D01*
X96322619Y-64235714D01*
X96227380Y-64283333D01*
X96179761Y-64378571D01*
X96179761Y-64473809D01*
X96655952Y-64569047D01*
X95751190Y-64235714D02*
X95751190Y-64902380D01*
X95751190Y-64330952D02*
X95703571Y-64283333D01*
X95608333Y-64235714D01*
X95465476Y-64235714D01*
X95370238Y-64283333D01*
X95322619Y-64378571D01*
X95322619Y-64902380D01*
X94894047Y-64854761D02*
X94798809Y-64902380D01*
X94608333Y-64902380D01*
X94513095Y-64854761D01*
X94465476Y-64759523D01*
X94465476Y-64711904D01*
X94513095Y-64616666D01*
X94608333Y-64569047D01*
X94751190Y-64569047D01*
X94846428Y-64521428D01*
X94894047Y-64426190D01*
X94894047Y-64378571D01*
X94846428Y-64283333D01*
X94751190Y-64235714D01*
X94608333Y-64235714D01*
X94513095Y-64283333D01*
X93655952Y-64854761D02*
X93751190Y-64902380D01*
X93941666Y-64902380D01*
X94036904Y-64854761D01*
X94084523Y-64759523D01*
X94084523Y-64378571D01*
X94036904Y-64283333D01*
X93941666Y-64235714D01*
X93751190Y-64235714D01*
X93655952Y-64283333D01*
X93608333Y-64378571D01*
X93608333Y-64473809D01*
X94084523Y-64569047D01*
X92751190Y-64902380D02*
X92751190Y-63902380D01*
X92751190Y-64854761D02*
X92846428Y-64902380D01*
X93036904Y-64902380D01*
X93132142Y-64854761D01*
X93179761Y-64807142D01*
X93227380Y-64711904D01*
X93227380Y-64426190D01*
X93179761Y-64330952D01*
X93132142Y-64283333D01*
X93036904Y-64235714D01*
X92846428Y-64235714D01*
X92751190Y-64283333D01*
X91084523Y-64235714D02*
X91084523Y-64902380D01*
X91513095Y-64235714D02*
X91513095Y-64759523D01*
X91465476Y-64854761D01*
X91370238Y-64902380D01*
X91227380Y-64902380D01*
X91132142Y-64854761D01*
X91084523Y-64807142D01*
X90608333Y-64235714D02*
X90608333Y-64902380D01*
X90608333Y-64330952D02*
X90560714Y-64283333D01*
X90465476Y-64235714D01*
X90322619Y-64235714D01*
X90227380Y-64283333D01*
X90179761Y-64378571D01*
X90179761Y-64902380D01*
X89275000Y-64902380D02*
X89275000Y-63902380D01*
X89275000Y-64854761D02*
X89370238Y-64902380D01*
X89560714Y-64902380D01*
X89655952Y-64854761D01*
X89703571Y-64807142D01*
X89751190Y-64711904D01*
X89751190Y-64426190D01*
X89703571Y-64330952D01*
X89655952Y-64283333D01*
X89560714Y-64235714D01*
X89370238Y-64235714D01*
X89275000Y-64283333D01*
X88417857Y-64854761D02*
X88513095Y-64902380D01*
X88703571Y-64902380D01*
X88798809Y-64854761D01*
X88846428Y-64759523D01*
X88846428Y-64378571D01*
X88798809Y-64283333D01*
X88703571Y-64235714D01*
X88513095Y-64235714D01*
X88417857Y-64283333D01*
X88370238Y-64378571D01*
X88370238Y-64473809D01*
X88846428Y-64569047D01*
X87941666Y-64902380D02*
X87941666Y-64235714D01*
X87941666Y-64426190D02*
X87894047Y-64330952D01*
X87846428Y-64283333D01*
X87751190Y-64235714D01*
X87655952Y-64235714D01*
X98846428Y-66457142D02*
X98894047Y-66504761D01*
X99036904Y-66552380D01*
X99132142Y-66552380D01*
X99275000Y-66504761D01*
X99370238Y-66409523D01*
X99417857Y-66314285D01*
X99465476Y-66123809D01*
X99465476Y-65980952D01*
X99417857Y-65790476D01*
X99370238Y-65695238D01*
X99275000Y-65600000D01*
X99132142Y-65552380D01*
X99036904Y-65552380D01*
X98894047Y-65600000D01*
X98846428Y-65647619D01*
X98417857Y-66028571D02*
X98084523Y-66028571D01*
X97941666Y-66552380D02*
X98417857Y-66552380D01*
X98417857Y-65552380D01*
X97941666Y-65552380D01*
X96941666Y-66552380D02*
X97275000Y-66076190D01*
X97513095Y-66552380D02*
X97513095Y-65552380D01*
X97132142Y-65552380D01*
X97036904Y-65600000D01*
X96989285Y-65647619D01*
X96941666Y-65742857D01*
X96941666Y-65885714D01*
X96989285Y-65980952D01*
X97036904Y-66028571D01*
X97132142Y-66076190D01*
X97513095Y-66076190D01*
X96513095Y-66552380D02*
X96513095Y-65552380D01*
X95941666Y-66552380D01*
X95941666Y-65552380D01*
X95465476Y-66171428D02*
X94703571Y-66171428D01*
X94036904Y-65552380D02*
X93846428Y-65552380D01*
X93751190Y-65600000D01*
X93655952Y-65695238D01*
X93608333Y-65885714D01*
X93608333Y-66219047D01*
X93655952Y-66409523D01*
X93751190Y-66504761D01*
X93846428Y-66552380D01*
X94036904Y-66552380D01*
X94132142Y-66504761D01*
X94227380Y-66409523D01*
X94275000Y-66219047D01*
X94275000Y-65885714D01*
X94227380Y-65695238D01*
X94132142Y-65600000D01*
X94036904Y-65552380D01*
X93179761Y-66552380D02*
X93179761Y-65552380D01*
X93179761Y-66028571D02*
X92608333Y-66028571D01*
X92608333Y-66552380D02*
X92608333Y-65552380D01*
X91655952Y-66552380D02*
X92132142Y-66552380D01*
X92132142Y-65552380D01*
X91322619Y-66171428D02*
X90560714Y-66171428D01*
X90132142Y-66504761D02*
X89989285Y-66552380D01*
X89751190Y-66552380D01*
X89655952Y-66504761D01*
X89608333Y-66457142D01*
X89560714Y-66361904D01*
X89560714Y-66266666D01*
X89608333Y-66171428D01*
X89655952Y-66123809D01*
X89751190Y-66076190D01*
X89941666Y-66028571D01*
X90036904Y-65980952D01*
X90084523Y-65933333D01*
X90132142Y-65838095D01*
X90132142Y-65742857D01*
X90084523Y-65647619D01*
X90036904Y-65600000D01*
X89941666Y-65552380D01*
X89703571Y-65552380D01*
X89560714Y-65600000D01*
X88465476Y-65885714D02*
X88227380Y-66552380D01*
X87989285Y-65885714D01*
X87655952Y-65647619D02*
X87608333Y-65600000D01*
X87513095Y-65552380D01*
X87275000Y-65552380D01*
X87179761Y-65600000D01*
X87132142Y-65647619D01*
X87084523Y-65742857D01*
X87084523Y-65838095D01*
X87132142Y-65980952D01*
X87703571Y-66552380D01*
X87084523Y-66552380D01*
X158275000Y-55402380D02*
X158751190Y-55402380D01*
X158751190Y-54402380D01*
X157941666Y-55402380D02*
X157941666Y-54735714D01*
X157941666Y-54402380D02*
X157989285Y-54450000D01*
X157941666Y-54497619D01*
X157894047Y-54450000D01*
X157941666Y-54402380D01*
X157941666Y-54497619D01*
X157036904Y-55354761D02*
X157132142Y-55402380D01*
X157322619Y-55402380D01*
X157417857Y-55354761D01*
X157465476Y-55307142D01*
X157513095Y-55211904D01*
X157513095Y-54926190D01*
X157465476Y-54830952D01*
X157417857Y-54783333D01*
X157322619Y-54735714D01*
X157132142Y-54735714D01*
X157036904Y-54783333D01*
X156227380Y-55354761D02*
X156322619Y-55402380D01*
X156513095Y-55402380D01*
X156608333Y-55354761D01*
X156655952Y-55259523D01*
X156655952Y-54878571D01*
X156608333Y-54783333D01*
X156513095Y-54735714D01*
X156322619Y-54735714D01*
X156227380Y-54783333D01*
X156179761Y-54878571D01*
X156179761Y-54973809D01*
X156655952Y-55069047D01*
X155751190Y-54735714D02*
X155751190Y-55402380D01*
X155751190Y-54830952D02*
X155703571Y-54783333D01*
X155608333Y-54735714D01*
X155465476Y-54735714D01*
X155370238Y-54783333D01*
X155322619Y-54878571D01*
X155322619Y-55402380D01*
X154894047Y-55354761D02*
X154798809Y-55402380D01*
X154608333Y-55402380D01*
X154513095Y-55354761D01*
X154465476Y-55259523D01*
X154465476Y-55211904D01*
X154513095Y-55116666D01*
X154608333Y-55069047D01*
X154751190Y-55069047D01*
X154846428Y-55021428D01*
X154894047Y-54926190D01*
X154894047Y-54878571D01*
X154846428Y-54783333D01*
X154751190Y-54735714D01*
X154608333Y-54735714D01*
X154513095Y-54783333D01*
X153655952Y-55354761D02*
X153751190Y-55402380D01*
X153941666Y-55402380D01*
X154036904Y-55354761D01*
X154084523Y-55259523D01*
X154084523Y-54878571D01*
X154036904Y-54783333D01*
X153941666Y-54735714D01*
X153751190Y-54735714D01*
X153655952Y-54783333D01*
X153608333Y-54878571D01*
X153608333Y-54973809D01*
X154084523Y-55069047D01*
X152751190Y-55402380D02*
X152751190Y-54402380D01*
X152751190Y-55354761D02*
X152846428Y-55402380D01*
X153036904Y-55402380D01*
X153132142Y-55354761D01*
X153179761Y-55307142D01*
X153227380Y-55211904D01*
X153227380Y-54926190D01*
X153179761Y-54830952D01*
X153132142Y-54783333D01*
X153036904Y-54735714D01*
X152846428Y-54735714D01*
X152751190Y-54783333D01*
X151084523Y-54735714D02*
X151084523Y-55402380D01*
X151513095Y-54735714D02*
X151513095Y-55259523D01*
X151465476Y-55354761D01*
X151370238Y-55402380D01*
X151227380Y-55402380D01*
X151132142Y-55354761D01*
X151084523Y-55307142D01*
X150608333Y-54735714D02*
X150608333Y-55402380D01*
X150608333Y-54830952D02*
X150560714Y-54783333D01*
X150465476Y-54735714D01*
X150322619Y-54735714D01*
X150227380Y-54783333D01*
X150179761Y-54878571D01*
X150179761Y-55402380D01*
X149275000Y-55402380D02*
X149275000Y-54402380D01*
X149275000Y-55354761D02*
X149370238Y-55402380D01*
X149560714Y-55402380D01*
X149655952Y-55354761D01*
X149703571Y-55307142D01*
X149751190Y-55211904D01*
X149751190Y-54926190D01*
X149703571Y-54830952D01*
X149655952Y-54783333D01*
X149560714Y-54735714D01*
X149370238Y-54735714D01*
X149275000Y-54783333D01*
X148417857Y-55354761D02*
X148513095Y-55402380D01*
X148703571Y-55402380D01*
X148798809Y-55354761D01*
X148846428Y-55259523D01*
X148846428Y-54878571D01*
X148798809Y-54783333D01*
X148703571Y-54735714D01*
X148513095Y-54735714D01*
X148417857Y-54783333D01*
X148370238Y-54878571D01*
X148370238Y-54973809D01*
X148846428Y-55069047D01*
X147941666Y-55402380D02*
X147941666Y-54735714D01*
X147941666Y-54926190D02*
X147894047Y-54830952D01*
X147846428Y-54783333D01*
X147751190Y-54735714D01*
X147655952Y-54735714D01*
X158846428Y-56957142D02*
X158894047Y-57004761D01*
X159036904Y-57052380D01*
X159132142Y-57052380D01*
X159275000Y-57004761D01*
X159370238Y-56909523D01*
X159417857Y-56814285D01*
X159465476Y-56623809D01*
X159465476Y-56480952D01*
X159417857Y-56290476D01*
X159370238Y-56195238D01*
X159275000Y-56100000D01*
X159132142Y-56052380D01*
X159036904Y-56052380D01*
X158894047Y-56100000D01*
X158846428Y-56147619D01*
X158417857Y-56528571D02*
X158084523Y-56528571D01*
X157941666Y-57052380D02*
X158417857Y-57052380D01*
X158417857Y-56052380D01*
X157941666Y-56052380D01*
X156941666Y-57052380D02*
X157275000Y-56576190D01*
X157513095Y-57052380D02*
X157513095Y-56052380D01*
X157132142Y-56052380D01*
X157036904Y-56100000D01*
X156989285Y-56147619D01*
X156941666Y-56242857D01*
X156941666Y-56385714D01*
X156989285Y-56480952D01*
X157036904Y-56528571D01*
X157132142Y-56576190D01*
X157513095Y-56576190D01*
X156513095Y-57052380D02*
X156513095Y-56052380D01*
X155941666Y-57052380D01*
X155941666Y-56052380D01*
X155465476Y-56671428D02*
X154703571Y-56671428D01*
X154036904Y-56052380D02*
X153846428Y-56052380D01*
X153751190Y-56100000D01*
X153655952Y-56195238D01*
X153608333Y-56385714D01*
X153608333Y-56719047D01*
X153655952Y-56909523D01*
X153751190Y-57004761D01*
X153846428Y-57052380D01*
X154036904Y-57052380D01*
X154132142Y-57004761D01*
X154227380Y-56909523D01*
X154275000Y-56719047D01*
X154275000Y-56385714D01*
X154227380Y-56195238D01*
X154132142Y-56100000D01*
X154036904Y-56052380D01*
X153179761Y-57052380D02*
X153179761Y-56052380D01*
X153179761Y-56528571D02*
X152608333Y-56528571D01*
X152608333Y-57052380D02*
X152608333Y-56052380D01*
X151655952Y-57052380D02*
X152132142Y-57052380D01*
X152132142Y-56052380D01*
X151322619Y-56671428D02*
X150560714Y-56671428D01*
X150132142Y-57004761D02*
X149989285Y-57052380D01*
X149751190Y-57052380D01*
X149655952Y-57004761D01*
X149608333Y-56957142D01*
X149560714Y-56861904D01*
X149560714Y-56766666D01*
X149608333Y-56671428D01*
X149655952Y-56623809D01*
X149751190Y-56576190D01*
X149941666Y-56528571D01*
X150036904Y-56480952D01*
X150084523Y-56433333D01*
X150132142Y-56338095D01*
X150132142Y-56242857D01*
X150084523Y-56147619D01*
X150036904Y-56100000D01*
X149941666Y-56052380D01*
X149703571Y-56052380D01*
X149560714Y-56100000D01*
X148465476Y-56385714D02*
X148227380Y-57052380D01*
X147989285Y-56385714D01*
X147655952Y-56147619D02*
X147608333Y-56100000D01*
X147513095Y-56052380D01*
X147275000Y-56052380D01*
X147179761Y-56100000D01*
X147132142Y-56147619D01*
X147084523Y-56242857D01*
X147084523Y-56338095D01*
X147132142Y-56480952D01*
X147703571Y-57052380D01*
X147084523Y-57052380D01*
X128275000Y-83902380D02*
X128751190Y-83902380D01*
X128751190Y-82902380D01*
X127941666Y-83902380D02*
X127941666Y-83235714D01*
X127941666Y-82902380D02*
X127989285Y-82950000D01*
X127941666Y-82997619D01*
X127894047Y-82950000D01*
X127941666Y-82902380D01*
X127941666Y-82997619D01*
X127036904Y-83854761D02*
X127132142Y-83902380D01*
X127322619Y-83902380D01*
X127417857Y-83854761D01*
X127465476Y-83807142D01*
X127513095Y-83711904D01*
X127513095Y-83426190D01*
X127465476Y-83330952D01*
X127417857Y-83283333D01*
X127322619Y-83235714D01*
X127132142Y-83235714D01*
X127036904Y-83283333D01*
X126227380Y-83854761D02*
X126322619Y-83902380D01*
X126513095Y-83902380D01*
X126608333Y-83854761D01*
X126655952Y-83759523D01*
X126655952Y-83378571D01*
X126608333Y-83283333D01*
X126513095Y-83235714D01*
X126322619Y-83235714D01*
X126227380Y-83283333D01*
X126179761Y-83378571D01*
X126179761Y-83473809D01*
X126655952Y-83569047D01*
X125751190Y-83235714D02*
X125751190Y-83902380D01*
X125751190Y-83330952D02*
X125703571Y-83283333D01*
X125608333Y-83235714D01*
X125465476Y-83235714D01*
X125370238Y-83283333D01*
X125322619Y-83378571D01*
X125322619Y-83902380D01*
X124894047Y-83854761D02*
X124798809Y-83902380D01*
X124608333Y-83902380D01*
X124513095Y-83854761D01*
X124465476Y-83759523D01*
X124465476Y-83711904D01*
X124513095Y-83616666D01*
X124608333Y-83569047D01*
X124751190Y-83569047D01*
X124846428Y-83521428D01*
X124894047Y-83426190D01*
X124894047Y-83378571D01*
X124846428Y-83283333D01*
X124751190Y-83235714D01*
X124608333Y-83235714D01*
X124513095Y-83283333D01*
X123655952Y-83854761D02*
X123751190Y-83902380D01*
X123941666Y-83902380D01*
X124036904Y-83854761D01*
X124084523Y-83759523D01*
X124084523Y-83378571D01*
X124036904Y-83283333D01*
X123941666Y-83235714D01*
X123751190Y-83235714D01*
X123655952Y-83283333D01*
X123608333Y-83378571D01*
X123608333Y-83473809D01*
X124084523Y-83569047D01*
X122751190Y-83902380D02*
X122751190Y-82902380D01*
X122751190Y-83854761D02*
X122846428Y-83902380D01*
X123036904Y-83902380D01*
X123132142Y-83854761D01*
X123179761Y-83807142D01*
X123227380Y-83711904D01*
X123227380Y-83426190D01*
X123179761Y-83330952D01*
X123132142Y-83283333D01*
X123036904Y-83235714D01*
X122846428Y-83235714D01*
X122751190Y-83283333D01*
X121084523Y-83235714D02*
X121084523Y-83902380D01*
X121513095Y-83235714D02*
X121513095Y-83759523D01*
X121465476Y-83854761D01*
X121370238Y-83902380D01*
X121227380Y-83902380D01*
X121132142Y-83854761D01*
X121084523Y-83807142D01*
X120608333Y-83235714D02*
X120608333Y-83902380D01*
X120608333Y-83330952D02*
X120560714Y-83283333D01*
X120465476Y-83235714D01*
X120322619Y-83235714D01*
X120227380Y-83283333D01*
X120179761Y-83378571D01*
X120179761Y-83902380D01*
X119275000Y-83902380D02*
X119275000Y-82902380D01*
X119275000Y-83854761D02*
X119370238Y-83902380D01*
X119560714Y-83902380D01*
X119655952Y-83854761D01*
X119703571Y-83807142D01*
X119751190Y-83711904D01*
X119751190Y-83426190D01*
X119703571Y-83330952D01*
X119655952Y-83283333D01*
X119560714Y-83235714D01*
X119370238Y-83235714D01*
X119275000Y-83283333D01*
X118417857Y-83854761D02*
X118513095Y-83902380D01*
X118703571Y-83902380D01*
X118798809Y-83854761D01*
X118846428Y-83759523D01*
X118846428Y-83378571D01*
X118798809Y-83283333D01*
X118703571Y-83235714D01*
X118513095Y-83235714D01*
X118417857Y-83283333D01*
X118370238Y-83378571D01*
X118370238Y-83473809D01*
X118846428Y-83569047D01*
X117941666Y-83902380D02*
X117941666Y-83235714D01*
X117941666Y-83426190D02*
X117894047Y-83330952D01*
X117846428Y-83283333D01*
X117751190Y-83235714D01*
X117655952Y-83235714D01*
X128846428Y-85457142D02*
X128894047Y-85504761D01*
X129036904Y-85552380D01*
X129132142Y-85552380D01*
X129275000Y-85504761D01*
X129370238Y-85409523D01*
X129417857Y-85314285D01*
X129465476Y-85123809D01*
X129465476Y-84980952D01*
X129417857Y-84790476D01*
X129370238Y-84695238D01*
X129275000Y-84600000D01*
X129132142Y-84552380D01*
X129036904Y-84552380D01*
X128894047Y-84600000D01*
X128846428Y-84647619D01*
X128417857Y-85028571D02*
X128084523Y-85028571D01*
X127941666Y-85552380D02*
X128417857Y-85552380D01*
X128417857Y-84552380D01*
X127941666Y-84552380D01*
X126941666Y-85552380D02*
X127275000Y-85076190D01*
X127513095Y-85552380D02*
X127513095Y-84552380D01*
X127132142Y-84552380D01*
X127036904Y-84600000D01*
X126989285Y-84647619D01*
X126941666Y-84742857D01*
X126941666Y-84885714D01*
X126989285Y-84980952D01*
X127036904Y-85028571D01*
X127132142Y-85076190D01*
X127513095Y-85076190D01*
X126513095Y-85552380D02*
X126513095Y-84552380D01*
X125941666Y-85552380D01*
X125941666Y-84552380D01*
X125465476Y-85171428D02*
X124703571Y-85171428D01*
X124036904Y-84552380D02*
X123846428Y-84552380D01*
X123751190Y-84600000D01*
X123655952Y-84695238D01*
X123608333Y-84885714D01*
X123608333Y-85219047D01*
X123655952Y-85409523D01*
X123751190Y-85504761D01*
X123846428Y-85552380D01*
X124036904Y-85552380D01*
X124132142Y-85504761D01*
X124227380Y-85409523D01*
X124275000Y-85219047D01*
X124275000Y-84885714D01*
X124227380Y-84695238D01*
X124132142Y-84600000D01*
X124036904Y-84552380D01*
X123179761Y-85552380D02*
X123179761Y-84552380D01*
X123179761Y-85028571D02*
X122608333Y-85028571D01*
X122608333Y-85552380D02*
X122608333Y-84552380D01*
X121655952Y-85552380D02*
X122132142Y-85552380D01*
X122132142Y-84552380D01*
X121322619Y-85171428D02*
X120560714Y-85171428D01*
X120132142Y-85504761D02*
X119989285Y-85552380D01*
X119751190Y-85552380D01*
X119655952Y-85504761D01*
X119608333Y-85457142D01*
X119560714Y-85361904D01*
X119560714Y-85266666D01*
X119608333Y-85171428D01*
X119655952Y-85123809D01*
X119751190Y-85076190D01*
X119941666Y-85028571D01*
X120036904Y-84980952D01*
X120084523Y-84933333D01*
X120132142Y-84838095D01*
X120132142Y-84742857D01*
X120084523Y-84647619D01*
X120036904Y-84600000D01*
X119941666Y-84552380D01*
X119703571Y-84552380D01*
X119560714Y-84600000D01*
X118465476Y-84885714D02*
X118227380Y-85552380D01*
X117989285Y-84885714D01*
X117655952Y-84647619D02*
X117608333Y-84600000D01*
X117513095Y-84552380D01*
X117275000Y-84552380D01*
X117179761Y-84600000D01*
X117132142Y-84647619D01*
X117084523Y-84742857D01*
X117084523Y-84838095D01*
X117132142Y-84980952D01*
X117703571Y-85552380D01*
X117084523Y-85552380D01*
X158275000Y-83902380D02*
X158751190Y-83902380D01*
X158751190Y-82902380D01*
X157941666Y-83902380D02*
X157941666Y-83235714D01*
X157941666Y-82902380D02*
X157989285Y-82950000D01*
X157941666Y-82997619D01*
X157894047Y-82950000D01*
X157941666Y-82902380D01*
X157941666Y-82997619D01*
X157036904Y-83854761D02*
X157132142Y-83902380D01*
X157322619Y-83902380D01*
X157417857Y-83854761D01*
X157465476Y-83807142D01*
X157513095Y-83711904D01*
X157513095Y-83426190D01*
X157465476Y-83330952D01*
X157417857Y-83283333D01*
X157322619Y-83235714D01*
X157132142Y-83235714D01*
X157036904Y-83283333D01*
X156227380Y-83854761D02*
X156322619Y-83902380D01*
X156513095Y-83902380D01*
X156608333Y-83854761D01*
X156655952Y-83759523D01*
X156655952Y-83378571D01*
X156608333Y-83283333D01*
X156513095Y-83235714D01*
X156322619Y-83235714D01*
X156227380Y-83283333D01*
X156179761Y-83378571D01*
X156179761Y-83473809D01*
X156655952Y-83569047D01*
X155751190Y-83235714D02*
X155751190Y-83902380D01*
X155751190Y-83330952D02*
X155703571Y-83283333D01*
X155608333Y-83235714D01*
X155465476Y-83235714D01*
X155370238Y-83283333D01*
X155322619Y-83378571D01*
X155322619Y-83902380D01*
X154894047Y-83854761D02*
X154798809Y-83902380D01*
X154608333Y-83902380D01*
X154513095Y-83854761D01*
X154465476Y-83759523D01*
X154465476Y-83711904D01*
X154513095Y-83616666D01*
X154608333Y-83569047D01*
X154751190Y-83569047D01*
X154846428Y-83521428D01*
X154894047Y-83426190D01*
X154894047Y-83378571D01*
X154846428Y-83283333D01*
X154751190Y-83235714D01*
X154608333Y-83235714D01*
X154513095Y-83283333D01*
X153655952Y-83854761D02*
X153751190Y-83902380D01*
X153941666Y-83902380D01*
X154036904Y-83854761D01*
X154084523Y-83759523D01*
X154084523Y-83378571D01*
X154036904Y-83283333D01*
X153941666Y-83235714D01*
X153751190Y-83235714D01*
X153655952Y-83283333D01*
X153608333Y-83378571D01*
X153608333Y-83473809D01*
X154084523Y-83569047D01*
X152751190Y-83902380D02*
X152751190Y-82902380D01*
X152751190Y-83854761D02*
X152846428Y-83902380D01*
X153036904Y-83902380D01*
X153132142Y-83854761D01*
X153179761Y-83807142D01*
X153227380Y-83711904D01*
X153227380Y-83426190D01*
X153179761Y-83330952D01*
X153132142Y-83283333D01*
X153036904Y-83235714D01*
X152846428Y-83235714D01*
X152751190Y-83283333D01*
X151084523Y-83235714D02*
X151084523Y-83902380D01*
X151513095Y-83235714D02*
X151513095Y-83759523D01*
X151465476Y-83854761D01*
X151370238Y-83902380D01*
X151227380Y-83902380D01*
X151132142Y-83854761D01*
X151084523Y-83807142D01*
X150608333Y-83235714D02*
X150608333Y-83902380D01*
X150608333Y-83330952D02*
X150560714Y-83283333D01*
X150465476Y-83235714D01*
X150322619Y-83235714D01*
X150227380Y-83283333D01*
X150179761Y-83378571D01*
X150179761Y-83902380D01*
X149275000Y-83902380D02*
X149275000Y-82902380D01*
X149275000Y-83854761D02*
X149370238Y-83902380D01*
X149560714Y-83902380D01*
X149655952Y-83854761D01*
X149703571Y-83807142D01*
X149751190Y-83711904D01*
X149751190Y-83426190D01*
X149703571Y-83330952D01*
X149655952Y-83283333D01*
X149560714Y-83235714D01*
X149370238Y-83235714D01*
X149275000Y-83283333D01*
X148417857Y-83854761D02*
X148513095Y-83902380D01*
X148703571Y-83902380D01*
X148798809Y-83854761D01*
X148846428Y-83759523D01*
X148846428Y-83378571D01*
X148798809Y-83283333D01*
X148703571Y-83235714D01*
X148513095Y-83235714D01*
X148417857Y-83283333D01*
X148370238Y-83378571D01*
X148370238Y-83473809D01*
X148846428Y-83569047D01*
X147941666Y-83902380D02*
X147941666Y-83235714D01*
X147941666Y-83426190D02*
X147894047Y-83330952D01*
X147846428Y-83283333D01*
X147751190Y-83235714D01*
X147655952Y-83235714D01*
X158846428Y-85457142D02*
X158894047Y-85504761D01*
X159036904Y-85552380D01*
X159132142Y-85552380D01*
X159275000Y-85504761D01*
X159370238Y-85409523D01*
X159417857Y-85314285D01*
X159465476Y-85123809D01*
X159465476Y-84980952D01*
X159417857Y-84790476D01*
X159370238Y-84695238D01*
X159275000Y-84600000D01*
X159132142Y-84552380D01*
X159036904Y-84552380D01*
X158894047Y-84600000D01*
X158846428Y-84647619D01*
X158417857Y-85028571D02*
X158084523Y-85028571D01*
X157941666Y-85552380D02*
X158417857Y-85552380D01*
X158417857Y-84552380D01*
X157941666Y-84552380D01*
X156941666Y-85552380D02*
X157275000Y-85076190D01*
X157513095Y-85552380D02*
X157513095Y-84552380D01*
X157132142Y-84552380D01*
X157036904Y-84600000D01*
X156989285Y-84647619D01*
X156941666Y-84742857D01*
X156941666Y-84885714D01*
X156989285Y-84980952D01*
X157036904Y-85028571D01*
X157132142Y-85076190D01*
X157513095Y-85076190D01*
X156513095Y-85552380D02*
X156513095Y-84552380D01*
X155941666Y-85552380D01*
X155941666Y-84552380D01*
X155465476Y-85171428D02*
X154703571Y-85171428D01*
X154036904Y-84552380D02*
X153846428Y-84552380D01*
X153751190Y-84600000D01*
X153655952Y-84695238D01*
X153608333Y-84885714D01*
X153608333Y-85219047D01*
X153655952Y-85409523D01*
X153751190Y-85504761D01*
X153846428Y-85552380D01*
X154036904Y-85552380D01*
X154132142Y-85504761D01*
X154227380Y-85409523D01*
X154275000Y-85219047D01*
X154275000Y-84885714D01*
X154227380Y-84695238D01*
X154132142Y-84600000D01*
X154036904Y-84552380D01*
X153179761Y-85552380D02*
X153179761Y-84552380D01*
X153179761Y-85028571D02*
X152608333Y-85028571D01*
X152608333Y-85552380D02*
X152608333Y-84552380D01*
X151655952Y-85552380D02*
X152132142Y-85552380D01*
X152132142Y-84552380D01*
X151322619Y-85171428D02*
X150560714Y-85171428D01*
X150132142Y-85504761D02*
X149989285Y-85552380D01*
X149751190Y-85552380D01*
X149655952Y-85504761D01*
X149608333Y-85457142D01*
X149560714Y-85361904D01*
X149560714Y-85266666D01*
X149608333Y-85171428D01*
X149655952Y-85123809D01*
X149751190Y-85076190D01*
X149941666Y-85028571D01*
X150036904Y-84980952D01*
X150084523Y-84933333D01*
X150132142Y-84838095D01*
X150132142Y-84742857D01*
X150084523Y-84647619D01*
X150036904Y-84600000D01*
X149941666Y-84552380D01*
X149703571Y-84552380D01*
X149560714Y-84600000D01*
X148465476Y-84885714D02*
X148227380Y-85552380D01*
X147989285Y-84885714D01*
X147655952Y-84647619D02*
X147608333Y-84600000D01*
X147513095Y-84552380D01*
X147275000Y-84552380D01*
X147179761Y-84600000D01*
X147132142Y-84647619D01*
X147084523Y-84742857D01*
X147084523Y-84838095D01*
X147132142Y-84980952D01*
X147703571Y-85552380D01*
X147084523Y-85552380D01*
X128275000Y-74402380D02*
X128751190Y-74402380D01*
X128751190Y-73402380D01*
X127941666Y-74402380D02*
X127941666Y-73735714D01*
X127941666Y-73402380D02*
X127989285Y-73450000D01*
X127941666Y-73497619D01*
X127894047Y-73450000D01*
X127941666Y-73402380D01*
X127941666Y-73497619D01*
X127036904Y-74354761D02*
X127132142Y-74402380D01*
X127322619Y-74402380D01*
X127417857Y-74354761D01*
X127465476Y-74307142D01*
X127513095Y-74211904D01*
X127513095Y-73926190D01*
X127465476Y-73830952D01*
X127417857Y-73783333D01*
X127322619Y-73735714D01*
X127132142Y-73735714D01*
X127036904Y-73783333D01*
X126227380Y-74354761D02*
X126322619Y-74402380D01*
X126513095Y-74402380D01*
X126608333Y-74354761D01*
X126655952Y-74259523D01*
X126655952Y-73878571D01*
X126608333Y-73783333D01*
X126513095Y-73735714D01*
X126322619Y-73735714D01*
X126227380Y-73783333D01*
X126179761Y-73878571D01*
X126179761Y-73973809D01*
X126655952Y-74069047D01*
X125751190Y-73735714D02*
X125751190Y-74402380D01*
X125751190Y-73830952D02*
X125703571Y-73783333D01*
X125608333Y-73735714D01*
X125465476Y-73735714D01*
X125370238Y-73783333D01*
X125322619Y-73878571D01*
X125322619Y-74402380D01*
X124894047Y-74354761D02*
X124798809Y-74402380D01*
X124608333Y-74402380D01*
X124513095Y-74354761D01*
X124465476Y-74259523D01*
X124465476Y-74211904D01*
X124513095Y-74116666D01*
X124608333Y-74069047D01*
X124751190Y-74069047D01*
X124846428Y-74021428D01*
X124894047Y-73926190D01*
X124894047Y-73878571D01*
X124846428Y-73783333D01*
X124751190Y-73735714D01*
X124608333Y-73735714D01*
X124513095Y-73783333D01*
X123655952Y-74354761D02*
X123751190Y-74402380D01*
X123941666Y-74402380D01*
X124036904Y-74354761D01*
X124084523Y-74259523D01*
X124084523Y-73878571D01*
X124036904Y-73783333D01*
X123941666Y-73735714D01*
X123751190Y-73735714D01*
X123655952Y-73783333D01*
X123608333Y-73878571D01*
X123608333Y-73973809D01*
X124084523Y-74069047D01*
X122751190Y-74402380D02*
X122751190Y-73402380D01*
X122751190Y-74354761D02*
X122846428Y-74402380D01*
X123036904Y-74402380D01*
X123132142Y-74354761D01*
X123179761Y-74307142D01*
X123227380Y-74211904D01*
X123227380Y-73926190D01*
X123179761Y-73830952D01*
X123132142Y-73783333D01*
X123036904Y-73735714D01*
X122846428Y-73735714D01*
X122751190Y-73783333D01*
X121084523Y-73735714D02*
X121084523Y-74402380D01*
X121513095Y-73735714D02*
X121513095Y-74259523D01*
X121465476Y-74354761D01*
X121370238Y-74402380D01*
X121227380Y-74402380D01*
X121132142Y-74354761D01*
X121084523Y-74307142D01*
X120608333Y-73735714D02*
X120608333Y-74402380D01*
X120608333Y-73830952D02*
X120560714Y-73783333D01*
X120465476Y-73735714D01*
X120322619Y-73735714D01*
X120227380Y-73783333D01*
X120179761Y-73878571D01*
X120179761Y-74402380D01*
X119275000Y-74402380D02*
X119275000Y-73402380D01*
X119275000Y-74354761D02*
X119370238Y-74402380D01*
X119560714Y-74402380D01*
X119655952Y-74354761D01*
X119703571Y-74307142D01*
X119751190Y-74211904D01*
X119751190Y-73926190D01*
X119703571Y-73830952D01*
X119655952Y-73783333D01*
X119560714Y-73735714D01*
X119370238Y-73735714D01*
X119275000Y-73783333D01*
X118417857Y-74354761D02*
X118513095Y-74402380D01*
X118703571Y-74402380D01*
X118798809Y-74354761D01*
X118846428Y-74259523D01*
X118846428Y-73878571D01*
X118798809Y-73783333D01*
X118703571Y-73735714D01*
X118513095Y-73735714D01*
X118417857Y-73783333D01*
X118370238Y-73878571D01*
X118370238Y-73973809D01*
X118846428Y-74069047D01*
X117941666Y-74402380D02*
X117941666Y-73735714D01*
X117941666Y-73926190D02*
X117894047Y-73830952D01*
X117846428Y-73783333D01*
X117751190Y-73735714D01*
X117655952Y-73735714D01*
X128846428Y-75957142D02*
X128894047Y-76004761D01*
X129036904Y-76052380D01*
X129132142Y-76052380D01*
X129275000Y-76004761D01*
X129370238Y-75909523D01*
X129417857Y-75814285D01*
X129465476Y-75623809D01*
X129465476Y-75480952D01*
X129417857Y-75290476D01*
X129370238Y-75195238D01*
X129275000Y-75100000D01*
X129132142Y-75052380D01*
X129036904Y-75052380D01*
X128894047Y-75100000D01*
X128846428Y-75147619D01*
X128417857Y-75528571D02*
X128084523Y-75528571D01*
X127941666Y-76052380D02*
X128417857Y-76052380D01*
X128417857Y-75052380D01*
X127941666Y-75052380D01*
X126941666Y-76052380D02*
X127275000Y-75576190D01*
X127513095Y-76052380D02*
X127513095Y-75052380D01*
X127132142Y-75052380D01*
X127036904Y-75100000D01*
X126989285Y-75147619D01*
X126941666Y-75242857D01*
X126941666Y-75385714D01*
X126989285Y-75480952D01*
X127036904Y-75528571D01*
X127132142Y-75576190D01*
X127513095Y-75576190D01*
X126513095Y-76052380D02*
X126513095Y-75052380D01*
X125941666Y-76052380D01*
X125941666Y-75052380D01*
X125465476Y-75671428D02*
X124703571Y-75671428D01*
X124036904Y-75052380D02*
X123846428Y-75052380D01*
X123751190Y-75100000D01*
X123655952Y-75195238D01*
X123608333Y-75385714D01*
X123608333Y-75719047D01*
X123655952Y-75909523D01*
X123751190Y-76004761D01*
X123846428Y-76052380D01*
X124036904Y-76052380D01*
X124132142Y-76004761D01*
X124227380Y-75909523D01*
X124275000Y-75719047D01*
X124275000Y-75385714D01*
X124227380Y-75195238D01*
X124132142Y-75100000D01*
X124036904Y-75052380D01*
X123179761Y-76052380D02*
X123179761Y-75052380D01*
X123179761Y-75528571D02*
X122608333Y-75528571D01*
X122608333Y-76052380D02*
X122608333Y-75052380D01*
X121655952Y-76052380D02*
X122132142Y-76052380D01*
X122132142Y-75052380D01*
X121322619Y-75671428D02*
X120560714Y-75671428D01*
X120132142Y-76004761D02*
X119989285Y-76052380D01*
X119751190Y-76052380D01*
X119655952Y-76004761D01*
X119608333Y-75957142D01*
X119560714Y-75861904D01*
X119560714Y-75766666D01*
X119608333Y-75671428D01*
X119655952Y-75623809D01*
X119751190Y-75576190D01*
X119941666Y-75528571D01*
X120036904Y-75480952D01*
X120084523Y-75433333D01*
X120132142Y-75338095D01*
X120132142Y-75242857D01*
X120084523Y-75147619D01*
X120036904Y-75100000D01*
X119941666Y-75052380D01*
X119703571Y-75052380D01*
X119560714Y-75100000D01*
X118465476Y-75385714D02*
X118227380Y-76052380D01*
X117989285Y-75385714D01*
X117655952Y-75147619D02*
X117608333Y-75100000D01*
X117513095Y-75052380D01*
X117275000Y-75052380D01*
X117179761Y-75100000D01*
X117132142Y-75147619D01*
X117084523Y-75242857D01*
X117084523Y-75338095D01*
X117132142Y-75480952D01*
X117703571Y-76052380D01*
X117084523Y-76052380D01*
X98275000Y-74402380D02*
X98751190Y-74402380D01*
X98751190Y-73402380D01*
X97941666Y-74402380D02*
X97941666Y-73735714D01*
X97941666Y-73402380D02*
X97989285Y-73450000D01*
X97941666Y-73497619D01*
X97894047Y-73450000D01*
X97941666Y-73402380D01*
X97941666Y-73497619D01*
X97036904Y-74354761D02*
X97132142Y-74402380D01*
X97322619Y-74402380D01*
X97417857Y-74354761D01*
X97465476Y-74307142D01*
X97513095Y-74211904D01*
X97513095Y-73926190D01*
X97465476Y-73830952D01*
X97417857Y-73783333D01*
X97322619Y-73735714D01*
X97132142Y-73735714D01*
X97036904Y-73783333D01*
X96227380Y-74354761D02*
X96322619Y-74402380D01*
X96513095Y-74402380D01*
X96608333Y-74354761D01*
X96655952Y-74259523D01*
X96655952Y-73878571D01*
X96608333Y-73783333D01*
X96513095Y-73735714D01*
X96322619Y-73735714D01*
X96227380Y-73783333D01*
X96179761Y-73878571D01*
X96179761Y-73973809D01*
X96655952Y-74069047D01*
X95751190Y-73735714D02*
X95751190Y-74402380D01*
X95751190Y-73830952D02*
X95703571Y-73783333D01*
X95608333Y-73735714D01*
X95465476Y-73735714D01*
X95370238Y-73783333D01*
X95322619Y-73878571D01*
X95322619Y-74402380D01*
X94894047Y-74354761D02*
X94798809Y-74402380D01*
X94608333Y-74402380D01*
X94513095Y-74354761D01*
X94465476Y-74259523D01*
X94465476Y-74211904D01*
X94513095Y-74116666D01*
X94608333Y-74069047D01*
X94751190Y-74069047D01*
X94846428Y-74021428D01*
X94894047Y-73926190D01*
X94894047Y-73878571D01*
X94846428Y-73783333D01*
X94751190Y-73735714D01*
X94608333Y-73735714D01*
X94513095Y-73783333D01*
X93655952Y-74354761D02*
X93751190Y-74402380D01*
X93941666Y-74402380D01*
X94036904Y-74354761D01*
X94084523Y-74259523D01*
X94084523Y-73878571D01*
X94036904Y-73783333D01*
X93941666Y-73735714D01*
X93751190Y-73735714D01*
X93655952Y-73783333D01*
X93608333Y-73878571D01*
X93608333Y-73973809D01*
X94084523Y-74069047D01*
X92751190Y-74402380D02*
X92751190Y-73402380D01*
X92751190Y-74354761D02*
X92846428Y-74402380D01*
X93036904Y-74402380D01*
X93132142Y-74354761D01*
X93179761Y-74307142D01*
X93227380Y-74211904D01*
X93227380Y-73926190D01*
X93179761Y-73830952D01*
X93132142Y-73783333D01*
X93036904Y-73735714D01*
X92846428Y-73735714D01*
X92751190Y-73783333D01*
X91084523Y-73735714D02*
X91084523Y-74402380D01*
X91513095Y-73735714D02*
X91513095Y-74259523D01*
X91465476Y-74354761D01*
X91370238Y-74402380D01*
X91227380Y-74402380D01*
X91132142Y-74354761D01*
X91084523Y-74307142D01*
X90608333Y-73735714D02*
X90608333Y-74402380D01*
X90608333Y-73830952D02*
X90560714Y-73783333D01*
X90465476Y-73735714D01*
X90322619Y-73735714D01*
X90227380Y-73783333D01*
X90179761Y-73878571D01*
X90179761Y-74402380D01*
X89275000Y-74402380D02*
X89275000Y-73402380D01*
X89275000Y-74354761D02*
X89370238Y-74402380D01*
X89560714Y-74402380D01*
X89655952Y-74354761D01*
X89703571Y-74307142D01*
X89751190Y-74211904D01*
X89751190Y-73926190D01*
X89703571Y-73830952D01*
X89655952Y-73783333D01*
X89560714Y-73735714D01*
X89370238Y-73735714D01*
X89275000Y-73783333D01*
X88417857Y-74354761D02*
X88513095Y-74402380D01*
X88703571Y-74402380D01*
X88798809Y-74354761D01*
X88846428Y-74259523D01*
X88846428Y-73878571D01*
X88798809Y-73783333D01*
X88703571Y-73735714D01*
X88513095Y-73735714D01*
X88417857Y-73783333D01*
X88370238Y-73878571D01*
X88370238Y-73973809D01*
X88846428Y-74069047D01*
X87941666Y-74402380D02*
X87941666Y-73735714D01*
X87941666Y-73926190D02*
X87894047Y-73830952D01*
X87846428Y-73783333D01*
X87751190Y-73735714D01*
X87655952Y-73735714D01*
X98846428Y-75957142D02*
X98894047Y-76004761D01*
X99036904Y-76052380D01*
X99132142Y-76052380D01*
X99275000Y-76004761D01*
X99370238Y-75909523D01*
X99417857Y-75814285D01*
X99465476Y-75623809D01*
X99465476Y-75480952D01*
X99417857Y-75290476D01*
X99370238Y-75195238D01*
X99275000Y-75100000D01*
X99132142Y-75052380D01*
X99036904Y-75052380D01*
X98894047Y-75100000D01*
X98846428Y-75147619D01*
X98417857Y-75528571D02*
X98084523Y-75528571D01*
X97941666Y-76052380D02*
X98417857Y-76052380D01*
X98417857Y-75052380D01*
X97941666Y-75052380D01*
X96941666Y-76052380D02*
X97275000Y-75576190D01*
X97513095Y-76052380D02*
X97513095Y-75052380D01*
X97132142Y-75052380D01*
X97036904Y-75100000D01*
X96989285Y-75147619D01*
X96941666Y-75242857D01*
X96941666Y-75385714D01*
X96989285Y-75480952D01*
X97036904Y-75528571D01*
X97132142Y-75576190D01*
X97513095Y-75576190D01*
X96513095Y-76052380D02*
X96513095Y-75052380D01*
X95941666Y-76052380D01*
X95941666Y-75052380D01*
X95465476Y-75671428D02*
X94703571Y-75671428D01*
X94036904Y-75052380D02*
X93846428Y-75052380D01*
X93751190Y-75100000D01*
X93655952Y-75195238D01*
X93608333Y-75385714D01*
X93608333Y-75719047D01*
X93655952Y-75909523D01*
X93751190Y-76004761D01*
X93846428Y-76052380D01*
X94036904Y-76052380D01*
X94132142Y-76004761D01*
X94227380Y-75909523D01*
X94275000Y-75719047D01*
X94275000Y-75385714D01*
X94227380Y-75195238D01*
X94132142Y-75100000D01*
X94036904Y-75052380D01*
X93179761Y-76052380D02*
X93179761Y-75052380D01*
X93179761Y-75528571D02*
X92608333Y-75528571D01*
X92608333Y-76052380D02*
X92608333Y-75052380D01*
X91655952Y-76052380D02*
X92132142Y-76052380D01*
X92132142Y-75052380D01*
X91322619Y-75671428D02*
X90560714Y-75671428D01*
X90132142Y-76004761D02*
X89989285Y-76052380D01*
X89751190Y-76052380D01*
X89655952Y-76004761D01*
X89608333Y-75957142D01*
X89560714Y-75861904D01*
X89560714Y-75766666D01*
X89608333Y-75671428D01*
X89655952Y-75623809D01*
X89751190Y-75576190D01*
X89941666Y-75528571D01*
X90036904Y-75480952D01*
X90084523Y-75433333D01*
X90132142Y-75338095D01*
X90132142Y-75242857D01*
X90084523Y-75147619D01*
X90036904Y-75100000D01*
X89941666Y-75052380D01*
X89703571Y-75052380D01*
X89560714Y-75100000D01*
X88465476Y-75385714D02*
X88227380Y-76052380D01*
X87989285Y-75385714D01*
X87655952Y-75147619D02*
X87608333Y-75100000D01*
X87513095Y-75052380D01*
X87275000Y-75052380D01*
X87179761Y-75100000D01*
X87132142Y-75147619D01*
X87084523Y-75242857D01*
X87084523Y-75338095D01*
X87132142Y-75480952D01*
X87703571Y-76052380D01*
X87084523Y-76052380D01*
X158275000Y-74402380D02*
X158751190Y-74402380D01*
X158751190Y-73402380D01*
X157941666Y-74402380D02*
X157941666Y-73735714D01*
X157941666Y-73402380D02*
X157989285Y-73450000D01*
X157941666Y-73497619D01*
X157894047Y-73450000D01*
X157941666Y-73402380D01*
X157941666Y-73497619D01*
X157036904Y-74354761D02*
X157132142Y-74402380D01*
X157322619Y-74402380D01*
X157417857Y-74354761D01*
X157465476Y-74307142D01*
X157513095Y-74211904D01*
X157513095Y-73926190D01*
X157465476Y-73830952D01*
X157417857Y-73783333D01*
X157322619Y-73735714D01*
X157132142Y-73735714D01*
X157036904Y-73783333D01*
X156227380Y-74354761D02*
X156322619Y-74402380D01*
X156513095Y-74402380D01*
X156608333Y-74354761D01*
X156655952Y-74259523D01*
X156655952Y-73878571D01*
X156608333Y-73783333D01*
X156513095Y-73735714D01*
X156322619Y-73735714D01*
X156227380Y-73783333D01*
X156179761Y-73878571D01*
X156179761Y-73973809D01*
X156655952Y-74069047D01*
X155751190Y-73735714D02*
X155751190Y-74402380D01*
X155751190Y-73830952D02*
X155703571Y-73783333D01*
X155608333Y-73735714D01*
X155465476Y-73735714D01*
X155370238Y-73783333D01*
X155322619Y-73878571D01*
X155322619Y-74402380D01*
X154894047Y-74354761D02*
X154798809Y-74402380D01*
X154608333Y-74402380D01*
X154513095Y-74354761D01*
X154465476Y-74259523D01*
X154465476Y-74211904D01*
X154513095Y-74116666D01*
X154608333Y-74069047D01*
X154751190Y-74069047D01*
X154846428Y-74021428D01*
X154894047Y-73926190D01*
X154894047Y-73878571D01*
X154846428Y-73783333D01*
X154751190Y-73735714D01*
X154608333Y-73735714D01*
X154513095Y-73783333D01*
X153655952Y-74354761D02*
X153751190Y-74402380D01*
X153941666Y-74402380D01*
X154036904Y-74354761D01*
X154084523Y-74259523D01*
X154084523Y-73878571D01*
X154036904Y-73783333D01*
X153941666Y-73735714D01*
X153751190Y-73735714D01*
X153655952Y-73783333D01*
X153608333Y-73878571D01*
X153608333Y-73973809D01*
X154084523Y-74069047D01*
X152751190Y-74402380D02*
X152751190Y-73402380D01*
X152751190Y-74354761D02*
X152846428Y-74402380D01*
X153036904Y-74402380D01*
X153132142Y-74354761D01*
X153179761Y-74307142D01*
X153227380Y-74211904D01*
X153227380Y-73926190D01*
X153179761Y-73830952D01*
X153132142Y-73783333D01*
X153036904Y-73735714D01*
X152846428Y-73735714D01*
X152751190Y-73783333D01*
X151084523Y-73735714D02*
X151084523Y-74402380D01*
X151513095Y-73735714D02*
X151513095Y-74259523D01*
X151465476Y-74354761D01*
X151370238Y-74402380D01*
X151227380Y-74402380D01*
X151132142Y-74354761D01*
X151084523Y-74307142D01*
X150608333Y-73735714D02*
X150608333Y-74402380D01*
X150608333Y-73830952D02*
X150560714Y-73783333D01*
X150465476Y-73735714D01*
X150322619Y-73735714D01*
X150227380Y-73783333D01*
X150179761Y-73878571D01*
X150179761Y-74402380D01*
X149275000Y-74402380D02*
X149275000Y-73402380D01*
X149275000Y-74354761D02*
X149370238Y-74402380D01*
X149560714Y-74402380D01*
X149655952Y-74354761D01*
X149703571Y-74307142D01*
X149751190Y-74211904D01*
X149751190Y-73926190D01*
X149703571Y-73830952D01*
X149655952Y-73783333D01*
X149560714Y-73735714D01*
X149370238Y-73735714D01*
X149275000Y-73783333D01*
X148417857Y-74354761D02*
X148513095Y-74402380D01*
X148703571Y-74402380D01*
X148798809Y-74354761D01*
X148846428Y-74259523D01*
X148846428Y-73878571D01*
X148798809Y-73783333D01*
X148703571Y-73735714D01*
X148513095Y-73735714D01*
X148417857Y-73783333D01*
X148370238Y-73878571D01*
X148370238Y-73973809D01*
X148846428Y-74069047D01*
X147941666Y-74402380D02*
X147941666Y-73735714D01*
X147941666Y-73926190D02*
X147894047Y-73830952D01*
X147846428Y-73783333D01*
X147751190Y-73735714D01*
X147655952Y-73735714D01*
X158846428Y-75957142D02*
X158894047Y-76004761D01*
X159036904Y-76052380D01*
X159132142Y-76052380D01*
X159275000Y-76004761D01*
X159370238Y-75909523D01*
X159417857Y-75814285D01*
X159465476Y-75623809D01*
X159465476Y-75480952D01*
X159417857Y-75290476D01*
X159370238Y-75195238D01*
X159275000Y-75100000D01*
X159132142Y-75052380D01*
X159036904Y-75052380D01*
X158894047Y-75100000D01*
X158846428Y-75147619D01*
X158417857Y-75528571D02*
X158084523Y-75528571D01*
X157941666Y-76052380D02*
X158417857Y-76052380D01*
X158417857Y-75052380D01*
X157941666Y-75052380D01*
X156941666Y-76052380D02*
X157275000Y-75576190D01*
X157513095Y-76052380D02*
X157513095Y-75052380D01*
X157132142Y-75052380D01*
X157036904Y-75100000D01*
X156989285Y-75147619D01*
X156941666Y-75242857D01*
X156941666Y-75385714D01*
X156989285Y-75480952D01*
X157036904Y-75528571D01*
X157132142Y-75576190D01*
X157513095Y-75576190D01*
X156513095Y-76052380D02*
X156513095Y-75052380D01*
X155941666Y-76052380D01*
X155941666Y-75052380D01*
X155465476Y-75671428D02*
X154703571Y-75671428D01*
X154036904Y-75052380D02*
X153846428Y-75052380D01*
X153751190Y-75100000D01*
X153655952Y-75195238D01*
X153608333Y-75385714D01*
X153608333Y-75719047D01*
X153655952Y-75909523D01*
X153751190Y-76004761D01*
X153846428Y-76052380D01*
X154036904Y-76052380D01*
X154132142Y-76004761D01*
X154227380Y-75909523D01*
X154275000Y-75719047D01*
X154275000Y-75385714D01*
X154227380Y-75195238D01*
X154132142Y-75100000D01*
X154036904Y-75052380D01*
X153179761Y-76052380D02*
X153179761Y-75052380D01*
X153179761Y-75528571D02*
X152608333Y-75528571D01*
X152608333Y-76052380D02*
X152608333Y-75052380D01*
X151655952Y-76052380D02*
X152132142Y-76052380D01*
X152132142Y-75052380D01*
X151322619Y-75671428D02*
X150560714Y-75671428D01*
X150132142Y-76004761D02*
X149989285Y-76052380D01*
X149751190Y-76052380D01*
X149655952Y-76004761D01*
X149608333Y-75957142D01*
X149560714Y-75861904D01*
X149560714Y-75766666D01*
X149608333Y-75671428D01*
X149655952Y-75623809D01*
X149751190Y-75576190D01*
X149941666Y-75528571D01*
X150036904Y-75480952D01*
X150084523Y-75433333D01*
X150132142Y-75338095D01*
X150132142Y-75242857D01*
X150084523Y-75147619D01*
X150036904Y-75100000D01*
X149941666Y-75052380D01*
X149703571Y-75052380D01*
X149560714Y-75100000D01*
X148465476Y-75385714D02*
X148227380Y-76052380D01*
X147989285Y-75385714D01*
X147655952Y-75147619D02*
X147608333Y-75100000D01*
X147513095Y-75052380D01*
X147275000Y-75052380D01*
X147179761Y-75100000D01*
X147132142Y-75147619D01*
X147084523Y-75242857D01*
X147084523Y-75338095D01*
X147132142Y-75480952D01*
X147703571Y-76052380D01*
X147084523Y-76052380D01*
X98275000Y-83902380D02*
X98751190Y-83902380D01*
X98751190Y-82902380D01*
X97941666Y-83902380D02*
X97941666Y-83235714D01*
X97941666Y-82902380D02*
X97989285Y-82950000D01*
X97941666Y-82997619D01*
X97894047Y-82950000D01*
X97941666Y-82902380D01*
X97941666Y-82997619D01*
X97036904Y-83854761D02*
X97132142Y-83902380D01*
X97322619Y-83902380D01*
X97417857Y-83854761D01*
X97465476Y-83807142D01*
X97513095Y-83711904D01*
X97513095Y-83426190D01*
X97465476Y-83330952D01*
X97417857Y-83283333D01*
X97322619Y-83235714D01*
X97132142Y-83235714D01*
X97036904Y-83283333D01*
X96227380Y-83854761D02*
X96322619Y-83902380D01*
X96513095Y-83902380D01*
X96608333Y-83854761D01*
X96655952Y-83759523D01*
X96655952Y-83378571D01*
X96608333Y-83283333D01*
X96513095Y-83235714D01*
X96322619Y-83235714D01*
X96227380Y-83283333D01*
X96179761Y-83378571D01*
X96179761Y-83473809D01*
X96655952Y-83569047D01*
X95751190Y-83235714D02*
X95751190Y-83902380D01*
X95751190Y-83330952D02*
X95703571Y-83283333D01*
X95608333Y-83235714D01*
X95465476Y-83235714D01*
X95370238Y-83283333D01*
X95322619Y-83378571D01*
X95322619Y-83902380D01*
X94894047Y-83854761D02*
X94798809Y-83902380D01*
X94608333Y-83902380D01*
X94513095Y-83854761D01*
X94465476Y-83759523D01*
X94465476Y-83711904D01*
X94513095Y-83616666D01*
X94608333Y-83569047D01*
X94751190Y-83569047D01*
X94846428Y-83521428D01*
X94894047Y-83426190D01*
X94894047Y-83378571D01*
X94846428Y-83283333D01*
X94751190Y-83235714D01*
X94608333Y-83235714D01*
X94513095Y-83283333D01*
X93655952Y-83854761D02*
X93751190Y-83902380D01*
X93941666Y-83902380D01*
X94036904Y-83854761D01*
X94084523Y-83759523D01*
X94084523Y-83378571D01*
X94036904Y-83283333D01*
X93941666Y-83235714D01*
X93751190Y-83235714D01*
X93655952Y-83283333D01*
X93608333Y-83378571D01*
X93608333Y-83473809D01*
X94084523Y-83569047D01*
X92751190Y-83902380D02*
X92751190Y-82902380D01*
X92751190Y-83854761D02*
X92846428Y-83902380D01*
X93036904Y-83902380D01*
X93132142Y-83854761D01*
X93179761Y-83807142D01*
X93227380Y-83711904D01*
X93227380Y-83426190D01*
X93179761Y-83330952D01*
X93132142Y-83283333D01*
X93036904Y-83235714D01*
X92846428Y-83235714D01*
X92751190Y-83283333D01*
X91084523Y-83235714D02*
X91084523Y-83902380D01*
X91513095Y-83235714D02*
X91513095Y-83759523D01*
X91465476Y-83854761D01*
X91370238Y-83902380D01*
X91227380Y-83902380D01*
X91132142Y-83854761D01*
X91084523Y-83807142D01*
X90608333Y-83235714D02*
X90608333Y-83902380D01*
X90608333Y-83330952D02*
X90560714Y-83283333D01*
X90465476Y-83235714D01*
X90322619Y-83235714D01*
X90227380Y-83283333D01*
X90179761Y-83378571D01*
X90179761Y-83902380D01*
X89275000Y-83902380D02*
X89275000Y-82902380D01*
X89275000Y-83854761D02*
X89370238Y-83902380D01*
X89560714Y-83902380D01*
X89655952Y-83854761D01*
X89703571Y-83807142D01*
X89751190Y-83711904D01*
X89751190Y-83426190D01*
X89703571Y-83330952D01*
X89655952Y-83283333D01*
X89560714Y-83235714D01*
X89370238Y-83235714D01*
X89275000Y-83283333D01*
X88417857Y-83854761D02*
X88513095Y-83902380D01*
X88703571Y-83902380D01*
X88798809Y-83854761D01*
X88846428Y-83759523D01*
X88846428Y-83378571D01*
X88798809Y-83283333D01*
X88703571Y-83235714D01*
X88513095Y-83235714D01*
X88417857Y-83283333D01*
X88370238Y-83378571D01*
X88370238Y-83473809D01*
X88846428Y-83569047D01*
X87941666Y-83902380D02*
X87941666Y-83235714D01*
X87941666Y-83426190D02*
X87894047Y-83330952D01*
X87846428Y-83283333D01*
X87751190Y-83235714D01*
X87655952Y-83235714D01*
X98846428Y-85457142D02*
X98894047Y-85504761D01*
X99036904Y-85552380D01*
X99132142Y-85552380D01*
X99275000Y-85504761D01*
X99370238Y-85409523D01*
X99417857Y-85314285D01*
X99465476Y-85123809D01*
X99465476Y-84980952D01*
X99417857Y-84790476D01*
X99370238Y-84695238D01*
X99275000Y-84600000D01*
X99132142Y-84552380D01*
X99036904Y-84552380D01*
X98894047Y-84600000D01*
X98846428Y-84647619D01*
X98417857Y-85028571D02*
X98084523Y-85028571D01*
X97941666Y-85552380D02*
X98417857Y-85552380D01*
X98417857Y-84552380D01*
X97941666Y-84552380D01*
X96941666Y-85552380D02*
X97275000Y-85076190D01*
X97513095Y-85552380D02*
X97513095Y-84552380D01*
X97132142Y-84552380D01*
X97036904Y-84600000D01*
X96989285Y-84647619D01*
X96941666Y-84742857D01*
X96941666Y-84885714D01*
X96989285Y-84980952D01*
X97036904Y-85028571D01*
X97132142Y-85076190D01*
X97513095Y-85076190D01*
X96513095Y-85552380D02*
X96513095Y-84552380D01*
X95941666Y-85552380D01*
X95941666Y-84552380D01*
X95465476Y-85171428D02*
X94703571Y-85171428D01*
X94036904Y-84552380D02*
X93846428Y-84552380D01*
X93751190Y-84600000D01*
X93655952Y-84695238D01*
X93608333Y-84885714D01*
X93608333Y-85219047D01*
X93655952Y-85409523D01*
X93751190Y-85504761D01*
X93846428Y-85552380D01*
X94036904Y-85552380D01*
X94132142Y-85504761D01*
X94227380Y-85409523D01*
X94275000Y-85219047D01*
X94275000Y-84885714D01*
X94227380Y-84695238D01*
X94132142Y-84600000D01*
X94036904Y-84552380D01*
X93179761Y-85552380D02*
X93179761Y-84552380D01*
X93179761Y-85028571D02*
X92608333Y-85028571D01*
X92608333Y-85552380D02*
X92608333Y-84552380D01*
X91655952Y-85552380D02*
X92132142Y-85552380D01*
X92132142Y-84552380D01*
X91322619Y-85171428D02*
X90560714Y-85171428D01*
X90132142Y-85504761D02*
X89989285Y-85552380D01*
X89751190Y-85552380D01*
X89655952Y-85504761D01*
X89608333Y-85457142D01*
X89560714Y-85361904D01*
X89560714Y-85266666D01*
X89608333Y-85171428D01*
X89655952Y-85123809D01*
X89751190Y-85076190D01*
X89941666Y-85028571D01*
X90036904Y-84980952D01*
X90084523Y-84933333D01*
X90132142Y-84838095D01*
X90132142Y-84742857D01*
X90084523Y-84647619D01*
X90036904Y-84600000D01*
X89941666Y-84552380D01*
X89703571Y-84552380D01*
X89560714Y-84600000D01*
X88465476Y-84885714D02*
X88227380Y-85552380D01*
X87989285Y-84885714D01*
X87655952Y-84647619D02*
X87608333Y-84600000D01*
X87513095Y-84552380D01*
X87275000Y-84552380D01*
X87179761Y-84600000D01*
X87132142Y-84647619D01*
X87084523Y-84742857D01*
X87084523Y-84838095D01*
X87132142Y-84980952D01*
X87703571Y-85552380D01*
X87084523Y-85552380D01*
X128275000Y-102902380D02*
X128751190Y-102902380D01*
X128751190Y-101902380D01*
X127941666Y-102902380D02*
X127941666Y-102235714D01*
X127941666Y-101902380D02*
X127989285Y-101950000D01*
X127941666Y-101997619D01*
X127894047Y-101950000D01*
X127941666Y-101902380D01*
X127941666Y-101997619D01*
X127036904Y-102854761D02*
X127132142Y-102902380D01*
X127322619Y-102902380D01*
X127417857Y-102854761D01*
X127465476Y-102807142D01*
X127513095Y-102711904D01*
X127513095Y-102426190D01*
X127465476Y-102330952D01*
X127417857Y-102283333D01*
X127322619Y-102235714D01*
X127132142Y-102235714D01*
X127036904Y-102283333D01*
X126227380Y-102854761D02*
X126322619Y-102902380D01*
X126513095Y-102902380D01*
X126608333Y-102854761D01*
X126655952Y-102759523D01*
X126655952Y-102378571D01*
X126608333Y-102283333D01*
X126513095Y-102235714D01*
X126322619Y-102235714D01*
X126227380Y-102283333D01*
X126179761Y-102378571D01*
X126179761Y-102473809D01*
X126655952Y-102569047D01*
X125751190Y-102235714D02*
X125751190Y-102902380D01*
X125751190Y-102330952D02*
X125703571Y-102283333D01*
X125608333Y-102235714D01*
X125465476Y-102235714D01*
X125370238Y-102283333D01*
X125322619Y-102378571D01*
X125322619Y-102902380D01*
X124894047Y-102854761D02*
X124798809Y-102902380D01*
X124608333Y-102902380D01*
X124513095Y-102854761D01*
X124465476Y-102759523D01*
X124465476Y-102711904D01*
X124513095Y-102616666D01*
X124608333Y-102569047D01*
X124751190Y-102569047D01*
X124846428Y-102521428D01*
X124894047Y-102426190D01*
X124894047Y-102378571D01*
X124846428Y-102283333D01*
X124751190Y-102235714D01*
X124608333Y-102235714D01*
X124513095Y-102283333D01*
X123655952Y-102854761D02*
X123751190Y-102902380D01*
X123941666Y-102902380D01*
X124036904Y-102854761D01*
X124084523Y-102759523D01*
X124084523Y-102378571D01*
X124036904Y-102283333D01*
X123941666Y-102235714D01*
X123751190Y-102235714D01*
X123655952Y-102283333D01*
X123608333Y-102378571D01*
X123608333Y-102473809D01*
X124084523Y-102569047D01*
X122751190Y-102902380D02*
X122751190Y-101902380D01*
X122751190Y-102854761D02*
X122846428Y-102902380D01*
X123036904Y-102902380D01*
X123132142Y-102854761D01*
X123179761Y-102807142D01*
X123227380Y-102711904D01*
X123227380Y-102426190D01*
X123179761Y-102330952D01*
X123132142Y-102283333D01*
X123036904Y-102235714D01*
X122846428Y-102235714D01*
X122751190Y-102283333D01*
X121084523Y-102235714D02*
X121084523Y-102902380D01*
X121513095Y-102235714D02*
X121513095Y-102759523D01*
X121465476Y-102854761D01*
X121370238Y-102902380D01*
X121227380Y-102902380D01*
X121132142Y-102854761D01*
X121084523Y-102807142D01*
X120608333Y-102235714D02*
X120608333Y-102902380D01*
X120608333Y-102330952D02*
X120560714Y-102283333D01*
X120465476Y-102235714D01*
X120322619Y-102235714D01*
X120227380Y-102283333D01*
X120179761Y-102378571D01*
X120179761Y-102902380D01*
X119275000Y-102902380D02*
X119275000Y-101902380D01*
X119275000Y-102854761D02*
X119370238Y-102902380D01*
X119560714Y-102902380D01*
X119655952Y-102854761D01*
X119703571Y-102807142D01*
X119751190Y-102711904D01*
X119751190Y-102426190D01*
X119703571Y-102330952D01*
X119655952Y-102283333D01*
X119560714Y-102235714D01*
X119370238Y-102235714D01*
X119275000Y-102283333D01*
X118417857Y-102854761D02*
X118513095Y-102902380D01*
X118703571Y-102902380D01*
X118798809Y-102854761D01*
X118846428Y-102759523D01*
X118846428Y-102378571D01*
X118798809Y-102283333D01*
X118703571Y-102235714D01*
X118513095Y-102235714D01*
X118417857Y-102283333D01*
X118370238Y-102378571D01*
X118370238Y-102473809D01*
X118846428Y-102569047D01*
X117941666Y-102902380D02*
X117941666Y-102235714D01*
X117941666Y-102426190D02*
X117894047Y-102330952D01*
X117846428Y-102283333D01*
X117751190Y-102235714D01*
X117655952Y-102235714D01*
X128846428Y-104457142D02*
X128894047Y-104504761D01*
X129036904Y-104552380D01*
X129132142Y-104552380D01*
X129275000Y-104504761D01*
X129370238Y-104409523D01*
X129417857Y-104314285D01*
X129465476Y-104123809D01*
X129465476Y-103980952D01*
X129417857Y-103790476D01*
X129370238Y-103695238D01*
X129275000Y-103600000D01*
X129132142Y-103552380D01*
X129036904Y-103552380D01*
X128894047Y-103600000D01*
X128846428Y-103647619D01*
X128417857Y-104028571D02*
X128084523Y-104028571D01*
X127941666Y-104552380D02*
X128417857Y-104552380D01*
X128417857Y-103552380D01*
X127941666Y-103552380D01*
X126941666Y-104552380D02*
X127275000Y-104076190D01*
X127513095Y-104552380D02*
X127513095Y-103552380D01*
X127132142Y-103552380D01*
X127036904Y-103600000D01*
X126989285Y-103647619D01*
X126941666Y-103742857D01*
X126941666Y-103885714D01*
X126989285Y-103980952D01*
X127036904Y-104028571D01*
X127132142Y-104076190D01*
X127513095Y-104076190D01*
X126513095Y-104552380D02*
X126513095Y-103552380D01*
X125941666Y-104552380D01*
X125941666Y-103552380D01*
X125465476Y-104171428D02*
X124703571Y-104171428D01*
X124036904Y-103552380D02*
X123846428Y-103552380D01*
X123751190Y-103600000D01*
X123655952Y-103695238D01*
X123608333Y-103885714D01*
X123608333Y-104219047D01*
X123655952Y-104409523D01*
X123751190Y-104504761D01*
X123846428Y-104552380D01*
X124036904Y-104552380D01*
X124132142Y-104504761D01*
X124227380Y-104409523D01*
X124275000Y-104219047D01*
X124275000Y-103885714D01*
X124227380Y-103695238D01*
X124132142Y-103600000D01*
X124036904Y-103552380D01*
X123179761Y-104552380D02*
X123179761Y-103552380D01*
X123179761Y-104028571D02*
X122608333Y-104028571D01*
X122608333Y-104552380D02*
X122608333Y-103552380D01*
X121655952Y-104552380D02*
X122132142Y-104552380D01*
X122132142Y-103552380D01*
X121322619Y-104171428D02*
X120560714Y-104171428D01*
X120132142Y-104504761D02*
X119989285Y-104552380D01*
X119751190Y-104552380D01*
X119655952Y-104504761D01*
X119608333Y-104457142D01*
X119560714Y-104361904D01*
X119560714Y-104266666D01*
X119608333Y-104171428D01*
X119655952Y-104123809D01*
X119751190Y-104076190D01*
X119941666Y-104028571D01*
X120036904Y-103980952D01*
X120084523Y-103933333D01*
X120132142Y-103838095D01*
X120132142Y-103742857D01*
X120084523Y-103647619D01*
X120036904Y-103600000D01*
X119941666Y-103552380D01*
X119703571Y-103552380D01*
X119560714Y-103600000D01*
X118465476Y-103885714D02*
X118227380Y-104552380D01*
X117989285Y-103885714D01*
X117655952Y-103647619D02*
X117608333Y-103600000D01*
X117513095Y-103552380D01*
X117275000Y-103552380D01*
X117179761Y-103600000D01*
X117132142Y-103647619D01*
X117084523Y-103742857D01*
X117084523Y-103838095D01*
X117132142Y-103980952D01*
X117703571Y-104552380D01*
X117084523Y-104552380D01*
X128275000Y-93402380D02*
X128751190Y-93402380D01*
X128751190Y-92402380D01*
X127941666Y-93402380D02*
X127941666Y-92735714D01*
X127941666Y-92402380D02*
X127989285Y-92450000D01*
X127941666Y-92497619D01*
X127894047Y-92450000D01*
X127941666Y-92402380D01*
X127941666Y-92497619D01*
X127036904Y-93354761D02*
X127132142Y-93402380D01*
X127322619Y-93402380D01*
X127417857Y-93354761D01*
X127465476Y-93307142D01*
X127513095Y-93211904D01*
X127513095Y-92926190D01*
X127465476Y-92830952D01*
X127417857Y-92783333D01*
X127322619Y-92735714D01*
X127132142Y-92735714D01*
X127036904Y-92783333D01*
X126227380Y-93354761D02*
X126322619Y-93402380D01*
X126513095Y-93402380D01*
X126608333Y-93354761D01*
X126655952Y-93259523D01*
X126655952Y-92878571D01*
X126608333Y-92783333D01*
X126513095Y-92735714D01*
X126322619Y-92735714D01*
X126227380Y-92783333D01*
X126179761Y-92878571D01*
X126179761Y-92973809D01*
X126655952Y-93069047D01*
X125751190Y-92735714D02*
X125751190Y-93402380D01*
X125751190Y-92830952D02*
X125703571Y-92783333D01*
X125608333Y-92735714D01*
X125465476Y-92735714D01*
X125370238Y-92783333D01*
X125322619Y-92878571D01*
X125322619Y-93402380D01*
X124894047Y-93354761D02*
X124798809Y-93402380D01*
X124608333Y-93402380D01*
X124513095Y-93354761D01*
X124465476Y-93259523D01*
X124465476Y-93211904D01*
X124513095Y-93116666D01*
X124608333Y-93069047D01*
X124751190Y-93069047D01*
X124846428Y-93021428D01*
X124894047Y-92926190D01*
X124894047Y-92878571D01*
X124846428Y-92783333D01*
X124751190Y-92735714D01*
X124608333Y-92735714D01*
X124513095Y-92783333D01*
X123655952Y-93354761D02*
X123751190Y-93402380D01*
X123941666Y-93402380D01*
X124036904Y-93354761D01*
X124084523Y-93259523D01*
X124084523Y-92878571D01*
X124036904Y-92783333D01*
X123941666Y-92735714D01*
X123751190Y-92735714D01*
X123655952Y-92783333D01*
X123608333Y-92878571D01*
X123608333Y-92973809D01*
X124084523Y-93069047D01*
X122751190Y-93402380D02*
X122751190Y-92402380D01*
X122751190Y-93354761D02*
X122846428Y-93402380D01*
X123036904Y-93402380D01*
X123132142Y-93354761D01*
X123179761Y-93307142D01*
X123227380Y-93211904D01*
X123227380Y-92926190D01*
X123179761Y-92830952D01*
X123132142Y-92783333D01*
X123036904Y-92735714D01*
X122846428Y-92735714D01*
X122751190Y-92783333D01*
X121084523Y-92735714D02*
X121084523Y-93402380D01*
X121513095Y-92735714D02*
X121513095Y-93259523D01*
X121465476Y-93354761D01*
X121370238Y-93402380D01*
X121227380Y-93402380D01*
X121132142Y-93354761D01*
X121084523Y-93307142D01*
X120608333Y-92735714D02*
X120608333Y-93402380D01*
X120608333Y-92830952D02*
X120560714Y-92783333D01*
X120465476Y-92735714D01*
X120322619Y-92735714D01*
X120227380Y-92783333D01*
X120179761Y-92878571D01*
X120179761Y-93402380D01*
X119275000Y-93402380D02*
X119275000Y-92402380D01*
X119275000Y-93354761D02*
X119370238Y-93402380D01*
X119560714Y-93402380D01*
X119655952Y-93354761D01*
X119703571Y-93307142D01*
X119751190Y-93211904D01*
X119751190Y-92926190D01*
X119703571Y-92830952D01*
X119655952Y-92783333D01*
X119560714Y-92735714D01*
X119370238Y-92735714D01*
X119275000Y-92783333D01*
X118417857Y-93354761D02*
X118513095Y-93402380D01*
X118703571Y-93402380D01*
X118798809Y-93354761D01*
X118846428Y-93259523D01*
X118846428Y-92878571D01*
X118798809Y-92783333D01*
X118703571Y-92735714D01*
X118513095Y-92735714D01*
X118417857Y-92783333D01*
X118370238Y-92878571D01*
X118370238Y-92973809D01*
X118846428Y-93069047D01*
X117941666Y-93402380D02*
X117941666Y-92735714D01*
X117941666Y-92926190D02*
X117894047Y-92830952D01*
X117846428Y-92783333D01*
X117751190Y-92735714D01*
X117655952Y-92735714D01*
X128846428Y-94957142D02*
X128894047Y-95004761D01*
X129036904Y-95052380D01*
X129132142Y-95052380D01*
X129275000Y-95004761D01*
X129370238Y-94909523D01*
X129417857Y-94814285D01*
X129465476Y-94623809D01*
X129465476Y-94480952D01*
X129417857Y-94290476D01*
X129370238Y-94195238D01*
X129275000Y-94100000D01*
X129132142Y-94052380D01*
X129036904Y-94052380D01*
X128894047Y-94100000D01*
X128846428Y-94147619D01*
X128417857Y-94528571D02*
X128084523Y-94528571D01*
X127941666Y-95052380D02*
X128417857Y-95052380D01*
X128417857Y-94052380D01*
X127941666Y-94052380D01*
X126941666Y-95052380D02*
X127275000Y-94576190D01*
X127513095Y-95052380D02*
X127513095Y-94052380D01*
X127132142Y-94052380D01*
X127036904Y-94100000D01*
X126989285Y-94147619D01*
X126941666Y-94242857D01*
X126941666Y-94385714D01*
X126989285Y-94480952D01*
X127036904Y-94528571D01*
X127132142Y-94576190D01*
X127513095Y-94576190D01*
X126513095Y-95052380D02*
X126513095Y-94052380D01*
X125941666Y-95052380D01*
X125941666Y-94052380D01*
X125465476Y-94671428D02*
X124703571Y-94671428D01*
X124036904Y-94052380D02*
X123846428Y-94052380D01*
X123751190Y-94100000D01*
X123655952Y-94195238D01*
X123608333Y-94385714D01*
X123608333Y-94719047D01*
X123655952Y-94909523D01*
X123751190Y-95004761D01*
X123846428Y-95052380D01*
X124036904Y-95052380D01*
X124132142Y-95004761D01*
X124227380Y-94909523D01*
X124275000Y-94719047D01*
X124275000Y-94385714D01*
X124227380Y-94195238D01*
X124132142Y-94100000D01*
X124036904Y-94052380D01*
X123179761Y-95052380D02*
X123179761Y-94052380D01*
X123179761Y-94528571D02*
X122608333Y-94528571D01*
X122608333Y-95052380D02*
X122608333Y-94052380D01*
X121655952Y-95052380D02*
X122132142Y-95052380D01*
X122132142Y-94052380D01*
X121322619Y-94671428D02*
X120560714Y-94671428D01*
X120132142Y-95004761D02*
X119989285Y-95052380D01*
X119751190Y-95052380D01*
X119655952Y-95004761D01*
X119608333Y-94957142D01*
X119560714Y-94861904D01*
X119560714Y-94766666D01*
X119608333Y-94671428D01*
X119655952Y-94623809D01*
X119751190Y-94576190D01*
X119941666Y-94528571D01*
X120036904Y-94480952D01*
X120084523Y-94433333D01*
X120132142Y-94338095D01*
X120132142Y-94242857D01*
X120084523Y-94147619D01*
X120036904Y-94100000D01*
X119941666Y-94052380D01*
X119703571Y-94052380D01*
X119560714Y-94100000D01*
X118465476Y-94385714D02*
X118227380Y-95052380D01*
X117989285Y-94385714D01*
X117655952Y-94147619D02*
X117608333Y-94100000D01*
X117513095Y-94052380D01*
X117275000Y-94052380D01*
X117179761Y-94100000D01*
X117132142Y-94147619D01*
X117084523Y-94242857D01*
X117084523Y-94338095D01*
X117132142Y-94480952D01*
X117703571Y-95052380D01*
X117084523Y-95052380D01*
X158275000Y-102902380D02*
X158751190Y-102902380D01*
X158751190Y-101902380D01*
X157941666Y-102902380D02*
X157941666Y-102235714D01*
X157941666Y-101902380D02*
X157989285Y-101950000D01*
X157941666Y-101997619D01*
X157894047Y-101950000D01*
X157941666Y-101902380D01*
X157941666Y-101997619D01*
X157036904Y-102854761D02*
X157132142Y-102902380D01*
X157322619Y-102902380D01*
X157417857Y-102854761D01*
X157465476Y-102807142D01*
X157513095Y-102711904D01*
X157513095Y-102426190D01*
X157465476Y-102330952D01*
X157417857Y-102283333D01*
X157322619Y-102235714D01*
X157132142Y-102235714D01*
X157036904Y-102283333D01*
X156227380Y-102854761D02*
X156322619Y-102902380D01*
X156513095Y-102902380D01*
X156608333Y-102854761D01*
X156655952Y-102759523D01*
X156655952Y-102378571D01*
X156608333Y-102283333D01*
X156513095Y-102235714D01*
X156322619Y-102235714D01*
X156227380Y-102283333D01*
X156179761Y-102378571D01*
X156179761Y-102473809D01*
X156655952Y-102569047D01*
X155751190Y-102235714D02*
X155751190Y-102902380D01*
X155751190Y-102330952D02*
X155703571Y-102283333D01*
X155608333Y-102235714D01*
X155465476Y-102235714D01*
X155370238Y-102283333D01*
X155322619Y-102378571D01*
X155322619Y-102902380D01*
X154894047Y-102854761D02*
X154798809Y-102902380D01*
X154608333Y-102902380D01*
X154513095Y-102854761D01*
X154465476Y-102759523D01*
X154465476Y-102711904D01*
X154513095Y-102616666D01*
X154608333Y-102569047D01*
X154751190Y-102569047D01*
X154846428Y-102521428D01*
X154894047Y-102426190D01*
X154894047Y-102378571D01*
X154846428Y-102283333D01*
X154751190Y-102235714D01*
X154608333Y-102235714D01*
X154513095Y-102283333D01*
X153655952Y-102854761D02*
X153751190Y-102902380D01*
X153941666Y-102902380D01*
X154036904Y-102854761D01*
X154084523Y-102759523D01*
X154084523Y-102378571D01*
X154036904Y-102283333D01*
X153941666Y-102235714D01*
X153751190Y-102235714D01*
X153655952Y-102283333D01*
X153608333Y-102378571D01*
X153608333Y-102473809D01*
X154084523Y-102569047D01*
X152751190Y-102902380D02*
X152751190Y-101902380D01*
X152751190Y-102854761D02*
X152846428Y-102902380D01*
X153036904Y-102902380D01*
X153132142Y-102854761D01*
X153179761Y-102807142D01*
X153227380Y-102711904D01*
X153227380Y-102426190D01*
X153179761Y-102330952D01*
X153132142Y-102283333D01*
X153036904Y-102235714D01*
X152846428Y-102235714D01*
X152751190Y-102283333D01*
X151084523Y-102235714D02*
X151084523Y-102902380D01*
X151513095Y-102235714D02*
X151513095Y-102759523D01*
X151465476Y-102854761D01*
X151370238Y-102902380D01*
X151227380Y-102902380D01*
X151132142Y-102854761D01*
X151084523Y-102807142D01*
X150608333Y-102235714D02*
X150608333Y-102902380D01*
X150608333Y-102330952D02*
X150560714Y-102283333D01*
X150465476Y-102235714D01*
X150322619Y-102235714D01*
X150227380Y-102283333D01*
X150179761Y-102378571D01*
X150179761Y-102902380D01*
X149275000Y-102902380D02*
X149275000Y-101902380D01*
X149275000Y-102854761D02*
X149370238Y-102902380D01*
X149560714Y-102902380D01*
X149655952Y-102854761D01*
X149703571Y-102807142D01*
X149751190Y-102711904D01*
X149751190Y-102426190D01*
X149703571Y-102330952D01*
X149655952Y-102283333D01*
X149560714Y-102235714D01*
X149370238Y-102235714D01*
X149275000Y-102283333D01*
X148417857Y-102854761D02*
X148513095Y-102902380D01*
X148703571Y-102902380D01*
X148798809Y-102854761D01*
X148846428Y-102759523D01*
X148846428Y-102378571D01*
X148798809Y-102283333D01*
X148703571Y-102235714D01*
X148513095Y-102235714D01*
X148417857Y-102283333D01*
X148370238Y-102378571D01*
X148370238Y-102473809D01*
X148846428Y-102569047D01*
X147941666Y-102902380D02*
X147941666Y-102235714D01*
X147941666Y-102426190D02*
X147894047Y-102330952D01*
X147846428Y-102283333D01*
X147751190Y-102235714D01*
X147655952Y-102235714D01*
X158846428Y-104457142D02*
X158894047Y-104504761D01*
X159036904Y-104552380D01*
X159132142Y-104552380D01*
X159275000Y-104504761D01*
X159370238Y-104409523D01*
X159417857Y-104314285D01*
X159465476Y-104123809D01*
X159465476Y-103980952D01*
X159417857Y-103790476D01*
X159370238Y-103695238D01*
X159275000Y-103600000D01*
X159132142Y-103552380D01*
X159036904Y-103552380D01*
X158894047Y-103600000D01*
X158846428Y-103647619D01*
X158417857Y-104028571D02*
X158084523Y-104028571D01*
X157941666Y-104552380D02*
X158417857Y-104552380D01*
X158417857Y-103552380D01*
X157941666Y-103552380D01*
X156941666Y-104552380D02*
X157275000Y-104076190D01*
X157513095Y-104552380D02*
X157513095Y-103552380D01*
X157132142Y-103552380D01*
X157036904Y-103600000D01*
X156989285Y-103647619D01*
X156941666Y-103742857D01*
X156941666Y-103885714D01*
X156989285Y-103980952D01*
X157036904Y-104028571D01*
X157132142Y-104076190D01*
X157513095Y-104076190D01*
X156513095Y-104552380D02*
X156513095Y-103552380D01*
X155941666Y-104552380D01*
X155941666Y-103552380D01*
X155465476Y-104171428D02*
X154703571Y-104171428D01*
X154036904Y-103552380D02*
X153846428Y-103552380D01*
X153751190Y-103600000D01*
X153655952Y-103695238D01*
X153608333Y-103885714D01*
X153608333Y-104219047D01*
X153655952Y-104409523D01*
X153751190Y-104504761D01*
X153846428Y-104552380D01*
X154036904Y-104552380D01*
X154132142Y-104504761D01*
X154227380Y-104409523D01*
X154275000Y-104219047D01*
X154275000Y-103885714D01*
X154227380Y-103695238D01*
X154132142Y-103600000D01*
X154036904Y-103552380D01*
X153179761Y-104552380D02*
X153179761Y-103552380D01*
X153179761Y-104028571D02*
X152608333Y-104028571D01*
X152608333Y-104552380D02*
X152608333Y-103552380D01*
X151655952Y-104552380D02*
X152132142Y-104552380D01*
X152132142Y-103552380D01*
X151322619Y-104171428D02*
X150560714Y-104171428D01*
X150132142Y-104504761D02*
X149989285Y-104552380D01*
X149751190Y-104552380D01*
X149655952Y-104504761D01*
X149608333Y-104457142D01*
X149560714Y-104361904D01*
X149560714Y-104266666D01*
X149608333Y-104171428D01*
X149655952Y-104123809D01*
X149751190Y-104076190D01*
X149941666Y-104028571D01*
X150036904Y-103980952D01*
X150084523Y-103933333D01*
X150132142Y-103838095D01*
X150132142Y-103742857D01*
X150084523Y-103647619D01*
X150036904Y-103600000D01*
X149941666Y-103552380D01*
X149703571Y-103552380D01*
X149560714Y-103600000D01*
X148465476Y-103885714D02*
X148227380Y-104552380D01*
X147989285Y-103885714D01*
X147655952Y-103647619D02*
X147608333Y-103600000D01*
X147513095Y-103552380D01*
X147275000Y-103552380D01*
X147179761Y-103600000D01*
X147132142Y-103647619D01*
X147084523Y-103742857D01*
X147084523Y-103838095D01*
X147132142Y-103980952D01*
X147703571Y-104552380D01*
X147084523Y-104552380D01*
X98275000Y-93402380D02*
X98751190Y-93402380D01*
X98751190Y-92402380D01*
X97941666Y-93402380D02*
X97941666Y-92735714D01*
X97941666Y-92402380D02*
X97989285Y-92450000D01*
X97941666Y-92497619D01*
X97894047Y-92450000D01*
X97941666Y-92402380D01*
X97941666Y-92497619D01*
X97036904Y-93354761D02*
X97132142Y-93402380D01*
X97322619Y-93402380D01*
X97417857Y-93354761D01*
X97465476Y-93307142D01*
X97513095Y-93211904D01*
X97513095Y-92926190D01*
X97465476Y-92830952D01*
X97417857Y-92783333D01*
X97322619Y-92735714D01*
X97132142Y-92735714D01*
X97036904Y-92783333D01*
X96227380Y-93354761D02*
X96322619Y-93402380D01*
X96513095Y-93402380D01*
X96608333Y-93354761D01*
X96655952Y-93259523D01*
X96655952Y-92878571D01*
X96608333Y-92783333D01*
X96513095Y-92735714D01*
X96322619Y-92735714D01*
X96227380Y-92783333D01*
X96179761Y-92878571D01*
X96179761Y-92973809D01*
X96655952Y-93069047D01*
X95751190Y-92735714D02*
X95751190Y-93402380D01*
X95751190Y-92830952D02*
X95703571Y-92783333D01*
X95608333Y-92735714D01*
X95465476Y-92735714D01*
X95370238Y-92783333D01*
X95322619Y-92878571D01*
X95322619Y-93402380D01*
X94894047Y-93354761D02*
X94798809Y-93402380D01*
X94608333Y-93402380D01*
X94513095Y-93354761D01*
X94465476Y-93259523D01*
X94465476Y-93211904D01*
X94513095Y-93116666D01*
X94608333Y-93069047D01*
X94751190Y-93069047D01*
X94846428Y-93021428D01*
X94894047Y-92926190D01*
X94894047Y-92878571D01*
X94846428Y-92783333D01*
X94751190Y-92735714D01*
X94608333Y-92735714D01*
X94513095Y-92783333D01*
X93655952Y-93354761D02*
X93751190Y-93402380D01*
X93941666Y-93402380D01*
X94036904Y-93354761D01*
X94084523Y-93259523D01*
X94084523Y-92878571D01*
X94036904Y-92783333D01*
X93941666Y-92735714D01*
X93751190Y-92735714D01*
X93655952Y-92783333D01*
X93608333Y-92878571D01*
X93608333Y-92973809D01*
X94084523Y-93069047D01*
X92751190Y-93402380D02*
X92751190Y-92402380D01*
X92751190Y-93354761D02*
X92846428Y-93402380D01*
X93036904Y-93402380D01*
X93132142Y-93354761D01*
X93179761Y-93307142D01*
X93227380Y-93211904D01*
X93227380Y-92926190D01*
X93179761Y-92830952D01*
X93132142Y-92783333D01*
X93036904Y-92735714D01*
X92846428Y-92735714D01*
X92751190Y-92783333D01*
X91084523Y-92735714D02*
X91084523Y-93402380D01*
X91513095Y-92735714D02*
X91513095Y-93259523D01*
X91465476Y-93354761D01*
X91370238Y-93402380D01*
X91227380Y-93402380D01*
X91132142Y-93354761D01*
X91084523Y-93307142D01*
X90608333Y-92735714D02*
X90608333Y-93402380D01*
X90608333Y-92830952D02*
X90560714Y-92783333D01*
X90465476Y-92735714D01*
X90322619Y-92735714D01*
X90227380Y-92783333D01*
X90179761Y-92878571D01*
X90179761Y-93402380D01*
X89275000Y-93402380D02*
X89275000Y-92402380D01*
X89275000Y-93354761D02*
X89370238Y-93402380D01*
X89560714Y-93402380D01*
X89655952Y-93354761D01*
X89703571Y-93307142D01*
X89751190Y-93211904D01*
X89751190Y-92926190D01*
X89703571Y-92830952D01*
X89655952Y-92783333D01*
X89560714Y-92735714D01*
X89370238Y-92735714D01*
X89275000Y-92783333D01*
X88417857Y-93354761D02*
X88513095Y-93402380D01*
X88703571Y-93402380D01*
X88798809Y-93354761D01*
X88846428Y-93259523D01*
X88846428Y-92878571D01*
X88798809Y-92783333D01*
X88703571Y-92735714D01*
X88513095Y-92735714D01*
X88417857Y-92783333D01*
X88370238Y-92878571D01*
X88370238Y-92973809D01*
X88846428Y-93069047D01*
X87941666Y-93402380D02*
X87941666Y-92735714D01*
X87941666Y-92926190D02*
X87894047Y-92830952D01*
X87846428Y-92783333D01*
X87751190Y-92735714D01*
X87655952Y-92735714D01*
X98846428Y-94957142D02*
X98894047Y-95004761D01*
X99036904Y-95052380D01*
X99132142Y-95052380D01*
X99275000Y-95004761D01*
X99370238Y-94909523D01*
X99417857Y-94814285D01*
X99465476Y-94623809D01*
X99465476Y-94480952D01*
X99417857Y-94290476D01*
X99370238Y-94195238D01*
X99275000Y-94100000D01*
X99132142Y-94052380D01*
X99036904Y-94052380D01*
X98894047Y-94100000D01*
X98846428Y-94147619D01*
X98417857Y-94528571D02*
X98084523Y-94528571D01*
X97941666Y-95052380D02*
X98417857Y-95052380D01*
X98417857Y-94052380D01*
X97941666Y-94052380D01*
X96941666Y-95052380D02*
X97275000Y-94576190D01*
X97513095Y-95052380D02*
X97513095Y-94052380D01*
X97132142Y-94052380D01*
X97036904Y-94100000D01*
X96989285Y-94147619D01*
X96941666Y-94242857D01*
X96941666Y-94385714D01*
X96989285Y-94480952D01*
X97036904Y-94528571D01*
X97132142Y-94576190D01*
X97513095Y-94576190D01*
X96513095Y-95052380D02*
X96513095Y-94052380D01*
X95941666Y-95052380D01*
X95941666Y-94052380D01*
X95465476Y-94671428D02*
X94703571Y-94671428D01*
X94036904Y-94052380D02*
X93846428Y-94052380D01*
X93751190Y-94100000D01*
X93655952Y-94195238D01*
X93608333Y-94385714D01*
X93608333Y-94719047D01*
X93655952Y-94909523D01*
X93751190Y-95004761D01*
X93846428Y-95052380D01*
X94036904Y-95052380D01*
X94132142Y-95004761D01*
X94227380Y-94909523D01*
X94275000Y-94719047D01*
X94275000Y-94385714D01*
X94227380Y-94195238D01*
X94132142Y-94100000D01*
X94036904Y-94052380D01*
X93179761Y-95052380D02*
X93179761Y-94052380D01*
X93179761Y-94528571D02*
X92608333Y-94528571D01*
X92608333Y-95052380D02*
X92608333Y-94052380D01*
X91655952Y-95052380D02*
X92132142Y-95052380D01*
X92132142Y-94052380D01*
X91322619Y-94671428D02*
X90560714Y-94671428D01*
X90132142Y-95004761D02*
X89989285Y-95052380D01*
X89751190Y-95052380D01*
X89655952Y-95004761D01*
X89608333Y-94957142D01*
X89560714Y-94861904D01*
X89560714Y-94766666D01*
X89608333Y-94671428D01*
X89655952Y-94623809D01*
X89751190Y-94576190D01*
X89941666Y-94528571D01*
X90036904Y-94480952D01*
X90084523Y-94433333D01*
X90132142Y-94338095D01*
X90132142Y-94242857D01*
X90084523Y-94147619D01*
X90036904Y-94100000D01*
X89941666Y-94052380D01*
X89703571Y-94052380D01*
X89560714Y-94100000D01*
X88465476Y-94385714D02*
X88227380Y-95052380D01*
X87989285Y-94385714D01*
X87655952Y-94147619D02*
X87608333Y-94100000D01*
X87513095Y-94052380D01*
X87275000Y-94052380D01*
X87179761Y-94100000D01*
X87132142Y-94147619D01*
X87084523Y-94242857D01*
X87084523Y-94338095D01*
X87132142Y-94480952D01*
X87703571Y-95052380D01*
X87084523Y-95052380D01*
X158275000Y-93402380D02*
X158751190Y-93402380D01*
X158751190Y-92402380D01*
X157941666Y-93402380D02*
X157941666Y-92735714D01*
X157941666Y-92402380D02*
X157989285Y-92450000D01*
X157941666Y-92497619D01*
X157894047Y-92450000D01*
X157941666Y-92402380D01*
X157941666Y-92497619D01*
X157036904Y-93354761D02*
X157132142Y-93402380D01*
X157322619Y-93402380D01*
X157417857Y-93354761D01*
X157465476Y-93307142D01*
X157513095Y-93211904D01*
X157513095Y-92926190D01*
X157465476Y-92830952D01*
X157417857Y-92783333D01*
X157322619Y-92735714D01*
X157132142Y-92735714D01*
X157036904Y-92783333D01*
X156227380Y-93354761D02*
X156322619Y-93402380D01*
X156513095Y-93402380D01*
X156608333Y-93354761D01*
X156655952Y-93259523D01*
X156655952Y-92878571D01*
X156608333Y-92783333D01*
X156513095Y-92735714D01*
X156322619Y-92735714D01*
X156227380Y-92783333D01*
X156179761Y-92878571D01*
X156179761Y-92973809D01*
X156655952Y-93069047D01*
X155751190Y-92735714D02*
X155751190Y-93402380D01*
X155751190Y-92830952D02*
X155703571Y-92783333D01*
X155608333Y-92735714D01*
X155465476Y-92735714D01*
X155370238Y-92783333D01*
X155322619Y-92878571D01*
X155322619Y-93402380D01*
X154894047Y-93354761D02*
X154798809Y-93402380D01*
X154608333Y-93402380D01*
X154513095Y-93354761D01*
X154465476Y-93259523D01*
X154465476Y-93211904D01*
X154513095Y-93116666D01*
X154608333Y-93069047D01*
X154751190Y-93069047D01*
X154846428Y-93021428D01*
X154894047Y-92926190D01*
X154894047Y-92878571D01*
X154846428Y-92783333D01*
X154751190Y-92735714D01*
X154608333Y-92735714D01*
X154513095Y-92783333D01*
X153655952Y-93354761D02*
X153751190Y-93402380D01*
X153941666Y-93402380D01*
X154036904Y-93354761D01*
X154084523Y-93259523D01*
X154084523Y-92878571D01*
X154036904Y-92783333D01*
X153941666Y-92735714D01*
X153751190Y-92735714D01*
X153655952Y-92783333D01*
X153608333Y-92878571D01*
X153608333Y-92973809D01*
X154084523Y-93069047D01*
X152751190Y-93402380D02*
X152751190Y-92402380D01*
X152751190Y-93354761D02*
X152846428Y-93402380D01*
X153036904Y-93402380D01*
X153132142Y-93354761D01*
X153179761Y-93307142D01*
X153227380Y-93211904D01*
X153227380Y-92926190D01*
X153179761Y-92830952D01*
X153132142Y-92783333D01*
X153036904Y-92735714D01*
X152846428Y-92735714D01*
X152751190Y-92783333D01*
X151084523Y-92735714D02*
X151084523Y-93402380D01*
X151513095Y-92735714D02*
X151513095Y-93259523D01*
X151465476Y-93354761D01*
X151370238Y-93402380D01*
X151227380Y-93402380D01*
X151132142Y-93354761D01*
X151084523Y-93307142D01*
X150608333Y-92735714D02*
X150608333Y-93402380D01*
X150608333Y-92830952D02*
X150560714Y-92783333D01*
X150465476Y-92735714D01*
X150322619Y-92735714D01*
X150227380Y-92783333D01*
X150179761Y-92878571D01*
X150179761Y-93402380D01*
X149275000Y-93402380D02*
X149275000Y-92402380D01*
X149275000Y-93354761D02*
X149370238Y-93402380D01*
X149560714Y-93402380D01*
X149655952Y-93354761D01*
X149703571Y-93307142D01*
X149751190Y-93211904D01*
X149751190Y-92926190D01*
X149703571Y-92830952D01*
X149655952Y-92783333D01*
X149560714Y-92735714D01*
X149370238Y-92735714D01*
X149275000Y-92783333D01*
X148417857Y-93354761D02*
X148513095Y-93402380D01*
X148703571Y-93402380D01*
X148798809Y-93354761D01*
X148846428Y-93259523D01*
X148846428Y-92878571D01*
X148798809Y-92783333D01*
X148703571Y-92735714D01*
X148513095Y-92735714D01*
X148417857Y-92783333D01*
X148370238Y-92878571D01*
X148370238Y-92973809D01*
X148846428Y-93069047D01*
X147941666Y-93402380D02*
X147941666Y-92735714D01*
X147941666Y-92926190D02*
X147894047Y-92830952D01*
X147846428Y-92783333D01*
X147751190Y-92735714D01*
X147655952Y-92735714D01*
X158846428Y-94957142D02*
X158894047Y-95004761D01*
X159036904Y-95052380D01*
X159132142Y-95052380D01*
X159275000Y-95004761D01*
X159370238Y-94909523D01*
X159417857Y-94814285D01*
X159465476Y-94623809D01*
X159465476Y-94480952D01*
X159417857Y-94290476D01*
X159370238Y-94195238D01*
X159275000Y-94100000D01*
X159132142Y-94052380D01*
X159036904Y-94052380D01*
X158894047Y-94100000D01*
X158846428Y-94147619D01*
X158417857Y-94528571D02*
X158084523Y-94528571D01*
X157941666Y-95052380D02*
X158417857Y-95052380D01*
X158417857Y-94052380D01*
X157941666Y-94052380D01*
X156941666Y-95052380D02*
X157275000Y-94576190D01*
X157513095Y-95052380D02*
X157513095Y-94052380D01*
X157132142Y-94052380D01*
X157036904Y-94100000D01*
X156989285Y-94147619D01*
X156941666Y-94242857D01*
X156941666Y-94385714D01*
X156989285Y-94480952D01*
X157036904Y-94528571D01*
X157132142Y-94576190D01*
X157513095Y-94576190D01*
X156513095Y-95052380D02*
X156513095Y-94052380D01*
X155941666Y-95052380D01*
X155941666Y-94052380D01*
X155465476Y-94671428D02*
X154703571Y-94671428D01*
X154036904Y-94052380D02*
X153846428Y-94052380D01*
X153751190Y-94100000D01*
X153655952Y-94195238D01*
X153608333Y-94385714D01*
X153608333Y-94719047D01*
X153655952Y-94909523D01*
X153751190Y-95004761D01*
X153846428Y-95052380D01*
X154036904Y-95052380D01*
X154132142Y-95004761D01*
X154227380Y-94909523D01*
X154275000Y-94719047D01*
X154275000Y-94385714D01*
X154227380Y-94195238D01*
X154132142Y-94100000D01*
X154036904Y-94052380D01*
X153179761Y-95052380D02*
X153179761Y-94052380D01*
X153179761Y-94528571D02*
X152608333Y-94528571D01*
X152608333Y-95052380D02*
X152608333Y-94052380D01*
X151655952Y-95052380D02*
X152132142Y-95052380D01*
X152132142Y-94052380D01*
X151322619Y-94671428D02*
X150560714Y-94671428D01*
X150132142Y-95004761D02*
X149989285Y-95052380D01*
X149751190Y-95052380D01*
X149655952Y-95004761D01*
X149608333Y-94957142D01*
X149560714Y-94861904D01*
X149560714Y-94766666D01*
X149608333Y-94671428D01*
X149655952Y-94623809D01*
X149751190Y-94576190D01*
X149941666Y-94528571D01*
X150036904Y-94480952D01*
X150084523Y-94433333D01*
X150132142Y-94338095D01*
X150132142Y-94242857D01*
X150084523Y-94147619D01*
X150036904Y-94100000D01*
X149941666Y-94052380D01*
X149703571Y-94052380D01*
X149560714Y-94100000D01*
X148465476Y-94385714D02*
X148227380Y-95052380D01*
X147989285Y-94385714D01*
X147655952Y-94147619D02*
X147608333Y-94100000D01*
X147513095Y-94052380D01*
X147275000Y-94052380D01*
X147179761Y-94100000D01*
X147132142Y-94147619D01*
X147084523Y-94242857D01*
X147084523Y-94338095D01*
X147132142Y-94480952D01*
X147703571Y-95052380D01*
X147084523Y-95052380D01*
X98275000Y-102902380D02*
X98751190Y-102902380D01*
X98751190Y-101902380D01*
X97941666Y-102902380D02*
X97941666Y-102235714D01*
X97941666Y-101902380D02*
X97989285Y-101950000D01*
X97941666Y-101997619D01*
X97894047Y-101950000D01*
X97941666Y-101902380D01*
X97941666Y-101997619D01*
X97036904Y-102854761D02*
X97132142Y-102902380D01*
X97322619Y-102902380D01*
X97417857Y-102854761D01*
X97465476Y-102807142D01*
X97513095Y-102711904D01*
X97513095Y-102426190D01*
X97465476Y-102330952D01*
X97417857Y-102283333D01*
X97322619Y-102235714D01*
X97132142Y-102235714D01*
X97036904Y-102283333D01*
X96227380Y-102854761D02*
X96322619Y-102902380D01*
X96513095Y-102902380D01*
X96608333Y-102854761D01*
X96655952Y-102759523D01*
X96655952Y-102378571D01*
X96608333Y-102283333D01*
X96513095Y-102235714D01*
X96322619Y-102235714D01*
X96227380Y-102283333D01*
X96179761Y-102378571D01*
X96179761Y-102473809D01*
X96655952Y-102569047D01*
X95751190Y-102235714D02*
X95751190Y-102902380D01*
X95751190Y-102330952D02*
X95703571Y-102283333D01*
X95608333Y-102235714D01*
X95465476Y-102235714D01*
X95370238Y-102283333D01*
X95322619Y-102378571D01*
X95322619Y-102902380D01*
X94894047Y-102854761D02*
X94798809Y-102902380D01*
X94608333Y-102902380D01*
X94513095Y-102854761D01*
X94465476Y-102759523D01*
X94465476Y-102711904D01*
X94513095Y-102616666D01*
X94608333Y-102569047D01*
X94751190Y-102569047D01*
X94846428Y-102521428D01*
X94894047Y-102426190D01*
X94894047Y-102378571D01*
X94846428Y-102283333D01*
X94751190Y-102235714D01*
X94608333Y-102235714D01*
X94513095Y-102283333D01*
X93655952Y-102854761D02*
X93751190Y-102902380D01*
X93941666Y-102902380D01*
X94036904Y-102854761D01*
X94084523Y-102759523D01*
X94084523Y-102378571D01*
X94036904Y-102283333D01*
X93941666Y-102235714D01*
X93751190Y-102235714D01*
X93655952Y-102283333D01*
X93608333Y-102378571D01*
X93608333Y-102473809D01*
X94084523Y-102569047D01*
X92751190Y-102902380D02*
X92751190Y-101902380D01*
X92751190Y-102854761D02*
X92846428Y-102902380D01*
X93036904Y-102902380D01*
X93132142Y-102854761D01*
X93179761Y-102807142D01*
X93227380Y-102711904D01*
X93227380Y-102426190D01*
X93179761Y-102330952D01*
X93132142Y-102283333D01*
X93036904Y-102235714D01*
X92846428Y-102235714D01*
X92751190Y-102283333D01*
X91084523Y-102235714D02*
X91084523Y-102902380D01*
X91513095Y-102235714D02*
X91513095Y-102759523D01*
X91465476Y-102854761D01*
X91370238Y-102902380D01*
X91227380Y-102902380D01*
X91132142Y-102854761D01*
X91084523Y-102807142D01*
X90608333Y-102235714D02*
X90608333Y-102902380D01*
X90608333Y-102330952D02*
X90560714Y-102283333D01*
X90465476Y-102235714D01*
X90322619Y-102235714D01*
X90227380Y-102283333D01*
X90179761Y-102378571D01*
X90179761Y-102902380D01*
X89275000Y-102902380D02*
X89275000Y-101902380D01*
X89275000Y-102854761D02*
X89370238Y-102902380D01*
X89560714Y-102902380D01*
X89655952Y-102854761D01*
X89703571Y-102807142D01*
X89751190Y-102711904D01*
X89751190Y-102426190D01*
X89703571Y-102330952D01*
X89655952Y-102283333D01*
X89560714Y-102235714D01*
X89370238Y-102235714D01*
X89275000Y-102283333D01*
X88417857Y-102854761D02*
X88513095Y-102902380D01*
X88703571Y-102902380D01*
X88798809Y-102854761D01*
X88846428Y-102759523D01*
X88846428Y-102378571D01*
X88798809Y-102283333D01*
X88703571Y-102235714D01*
X88513095Y-102235714D01*
X88417857Y-102283333D01*
X88370238Y-102378571D01*
X88370238Y-102473809D01*
X88846428Y-102569047D01*
X87941666Y-102902380D02*
X87941666Y-102235714D01*
X87941666Y-102426190D02*
X87894047Y-102330952D01*
X87846428Y-102283333D01*
X87751190Y-102235714D01*
X87655952Y-102235714D01*
X98846428Y-104457142D02*
X98894047Y-104504761D01*
X99036904Y-104552380D01*
X99132142Y-104552380D01*
X99275000Y-104504761D01*
X99370238Y-104409523D01*
X99417857Y-104314285D01*
X99465476Y-104123809D01*
X99465476Y-103980952D01*
X99417857Y-103790476D01*
X99370238Y-103695238D01*
X99275000Y-103600000D01*
X99132142Y-103552380D01*
X99036904Y-103552380D01*
X98894047Y-103600000D01*
X98846428Y-103647619D01*
X98417857Y-104028571D02*
X98084523Y-104028571D01*
X97941666Y-104552380D02*
X98417857Y-104552380D01*
X98417857Y-103552380D01*
X97941666Y-103552380D01*
X96941666Y-104552380D02*
X97275000Y-104076190D01*
X97513095Y-104552380D02*
X97513095Y-103552380D01*
X97132142Y-103552380D01*
X97036904Y-103600000D01*
X96989285Y-103647619D01*
X96941666Y-103742857D01*
X96941666Y-103885714D01*
X96989285Y-103980952D01*
X97036904Y-104028571D01*
X97132142Y-104076190D01*
X97513095Y-104076190D01*
X96513095Y-104552380D02*
X96513095Y-103552380D01*
X95941666Y-104552380D01*
X95941666Y-103552380D01*
X95465476Y-104171428D02*
X94703571Y-104171428D01*
X94036904Y-103552380D02*
X93846428Y-103552380D01*
X93751190Y-103600000D01*
X93655952Y-103695238D01*
X93608333Y-103885714D01*
X93608333Y-104219047D01*
X93655952Y-104409523D01*
X93751190Y-104504761D01*
X93846428Y-104552380D01*
X94036904Y-104552380D01*
X94132142Y-104504761D01*
X94227380Y-104409523D01*
X94275000Y-104219047D01*
X94275000Y-103885714D01*
X94227380Y-103695238D01*
X94132142Y-103600000D01*
X94036904Y-103552380D01*
X93179761Y-104552380D02*
X93179761Y-103552380D01*
X93179761Y-104028571D02*
X92608333Y-104028571D01*
X92608333Y-104552380D02*
X92608333Y-103552380D01*
X91655952Y-104552380D02*
X92132142Y-104552380D01*
X92132142Y-103552380D01*
X91322619Y-104171428D02*
X90560714Y-104171428D01*
X90132142Y-104504761D02*
X89989285Y-104552380D01*
X89751190Y-104552380D01*
X89655952Y-104504761D01*
X89608333Y-104457142D01*
X89560714Y-104361904D01*
X89560714Y-104266666D01*
X89608333Y-104171428D01*
X89655952Y-104123809D01*
X89751190Y-104076190D01*
X89941666Y-104028571D01*
X90036904Y-103980952D01*
X90084523Y-103933333D01*
X90132142Y-103838095D01*
X90132142Y-103742857D01*
X90084523Y-103647619D01*
X90036904Y-103600000D01*
X89941666Y-103552380D01*
X89703571Y-103552380D01*
X89560714Y-103600000D01*
X88465476Y-103885714D02*
X88227380Y-104552380D01*
X87989285Y-103885714D01*
X87655952Y-103647619D02*
X87608333Y-103600000D01*
X87513095Y-103552380D01*
X87275000Y-103552380D01*
X87179761Y-103600000D01*
X87132142Y-103647619D01*
X87084523Y-103742857D01*
X87084523Y-103838095D01*
X87132142Y-103980952D01*
X87703571Y-104552380D01*
X87084523Y-104552380D01*
X128275000Y-121902380D02*
X128751190Y-121902380D01*
X128751190Y-120902380D01*
X127941666Y-121902380D02*
X127941666Y-121235714D01*
X127941666Y-120902380D02*
X127989285Y-120950000D01*
X127941666Y-120997619D01*
X127894047Y-120950000D01*
X127941666Y-120902380D01*
X127941666Y-120997619D01*
X127036904Y-121854761D02*
X127132142Y-121902380D01*
X127322619Y-121902380D01*
X127417857Y-121854761D01*
X127465476Y-121807142D01*
X127513095Y-121711904D01*
X127513095Y-121426190D01*
X127465476Y-121330952D01*
X127417857Y-121283333D01*
X127322619Y-121235714D01*
X127132142Y-121235714D01*
X127036904Y-121283333D01*
X126227380Y-121854761D02*
X126322619Y-121902380D01*
X126513095Y-121902380D01*
X126608333Y-121854761D01*
X126655952Y-121759523D01*
X126655952Y-121378571D01*
X126608333Y-121283333D01*
X126513095Y-121235714D01*
X126322619Y-121235714D01*
X126227380Y-121283333D01*
X126179761Y-121378571D01*
X126179761Y-121473809D01*
X126655952Y-121569047D01*
X125751190Y-121235714D02*
X125751190Y-121902380D01*
X125751190Y-121330952D02*
X125703571Y-121283333D01*
X125608333Y-121235714D01*
X125465476Y-121235714D01*
X125370238Y-121283333D01*
X125322619Y-121378571D01*
X125322619Y-121902380D01*
X124894047Y-121854761D02*
X124798809Y-121902380D01*
X124608333Y-121902380D01*
X124513095Y-121854761D01*
X124465476Y-121759523D01*
X124465476Y-121711904D01*
X124513095Y-121616666D01*
X124608333Y-121569047D01*
X124751190Y-121569047D01*
X124846428Y-121521428D01*
X124894047Y-121426190D01*
X124894047Y-121378571D01*
X124846428Y-121283333D01*
X124751190Y-121235714D01*
X124608333Y-121235714D01*
X124513095Y-121283333D01*
X123655952Y-121854761D02*
X123751190Y-121902380D01*
X123941666Y-121902380D01*
X124036904Y-121854761D01*
X124084523Y-121759523D01*
X124084523Y-121378571D01*
X124036904Y-121283333D01*
X123941666Y-121235714D01*
X123751190Y-121235714D01*
X123655952Y-121283333D01*
X123608333Y-121378571D01*
X123608333Y-121473809D01*
X124084523Y-121569047D01*
X122751190Y-121902380D02*
X122751190Y-120902380D01*
X122751190Y-121854761D02*
X122846428Y-121902380D01*
X123036904Y-121902380D01*
X123132142Y-121854761D01*
X123179761Y-121807142D01*
X123227380Y-121711904D01*
X123227380Y-121426190D01*
X123179761Y-121330952D01*
X123132142Y-121283333D01*
X123036904Y-121235714D01*
X122846428Y-121235714D01*
X122751190Y-121283333D01*
X121084523Y-121235714D02*
X121084523Y-121902380D01*
X121513095Y-121235714D02*
X121513095Y-121759523D01*
X121465476Y-121854761D01*
X121370238Y-121902380D01*
X121227380Y-121902380D01*
X121132142Y-121854761D01*
X121084523Y-121807142D01*
X120608333Y-121235714D02*
X120608333Y-121902380D01*
X120608333Y-121330952D02*
X120560714Y-121283333D01*
X120465476Y-121235714D01*
X120322619Y-121235714D01*
X120227380Y-121283333D01*
X120179761Y-121378571D01*
X120179761Y-121902380D01*
X119275000Y-121902380D02*
X119275000Y-120902380D01*
X119275000Y-121854761D02*
X119370238Y-121902380D01*
X119560714Y-121902380D01*
X119655952Y-121854761D01*
X119703571Y-121807142D01*
X119751190Y-121711904D01*
X119751190Y-121426190D01*
X119703571Y-121330952D01*
X119655952Y-121283333D01*
X119560714Y-121235714D01*
X119370238Y-121235714D01*
X119275000Y-121283333D01*
X118417857Y-121854761D02*
X118513095Y-121902380D01*
X118703571Y-121902380D01*
X118798809Y-121854761D01*
X118846428Y-121759523D01*
X118846428Y-121378571D01*
X118798809Y-121283333D01*
X118703571Y-121235714D01*
X118513095Y-121235714D01*
X118417857Y-121283333D01*
X118370238Y-121378571D01*
X118370238Y-121473809D01*
X118846428Y-121569047D01*
X117941666Y-121902380D02*
X117941666Y-121235714D01*
X117941666Y-121426190D02*
X117894047Y-121330952D01*
X117846428Y-121283333D01*
X117751190Y-121235714D01*
X117655952Y-121235714D01*
X128846428Y-123457142D02*
X128894047Y-123504761D01*
X129036904Y-123552380D01*
X129132142Y-123552380D01*
X129275000Y-123504761D01*
X129370238Y-123409523D01*
X129417857Y-123314285D01*
X129465476Y-123123809D01*
X129465476Y-122980952D01*
X129417857Y-122790476D01*
X129370238Y-122695238D01*
X129275000Y-122600000D01*
X129132142Y-122552380D01*
X129036904Y-122552380D01*
X128894047Y-122600000D01*
X128846428Y-122647619D01*
X128417857Y-123028571D02*
X128084523Y-123028571D01*
X127941666Y-123552380D02*
X128417857Y-123552380D01*
X128417857Y-122552380D01*
X127941666Y-122552380D01*
X126941666Y-123552380D02*
X127275000Y-123076190D01*
X127513095Y-123552380D02*
X127513095Y-122552380D01*
X127132142Y-122552380D01*
X127036904Y-122600000D01*
X126989285Y-122647619D01*
X126941666Y-122742857D01*
X126941666Y-122885714D01*
X126989285Y-122980952D01*
X127036904Y-123028571D01*
X127132142Y-123076190D01*
X127513095Y-123076190D01*
X126513095Y-123552380D02*
X126513095Y-122552380D01*
X125941666Y-123552380D01*
X125941666Y-122552380D01*
X125465476Y-123171428D02*
X124703571Y-123171428D01*
X124036904Y-122552380D02*
X123846428Y-122552380D01*
X123751190Y-122600000D01*
X123655952Y-122695238D01*
X123608333Y-122885714D01*
X123608333Y-123219047D01*
X123655952Y-123409523D01*
X123751190Y-123504761D01*
X123846428Y-123552380D01*
X124036904Y-123552380D01*
X124132142Y-123504761D01*
X124227380Y-123409523D01*
X124275000Y-123219047D01*
X124275000Y-122885714D01*
X124227380Y-122695238D01*
X124132142Y-122600000D01*
X124036904Y-122552380D01*
X123179761Y-123552380D02*
X123179761Y-122552380D01*
X123179761Y-123028571D02*
X122608333Y-123028571D01*
X122608333Y-123552380D02*
X122608333Y-122552380D01*
X121655952Y-123552380D02*
X122132142Y-123552380D01*
X122132142Y-122552380D01*
X121322619Y-123171428D02*
X120560714Y-123171428D01*
X120132142Y-123504761D02*
X119989285Y-123552380D01*
X119751190Y-123552380D01*
X119655952Y-123504761D01*
X119608333Y-123457142D01*
X119560714Y-123361904D01*
X119560714Y-123266666D01*
X119608333Y-123171428D01*
X119655952Y-123123809D01*
X119751190Y-123076190D01*
X119941666Y-123028571D01*
X120036904Y-122980952D01*
X120084523Y-122933333D01*
X120132142Y-122838095D01*
X120132142Y-122742857D01*
X120084523Y-122647619D01*
X120036904Y-122600000D01*
X119941666Y-122552380D01*
X119703571Y-122552380D01*
X119560714Y-122600000D01*
X118465476Y-122885714D02*
X118227380Y-123552380D01*
X117989285Y-122885714D01*
X117655952Y-122647619D02*
X117608333Y-122600000D01*
X117513095Y-122552380D01*
X117275000Y-122552380D01*
X117179761Y-122600000D01*
X117132142Y-122647619D01*
X117084523Y-122742857D01*
X117084523Y-122838095D01*
X117132142Y-122980952D01*
X117703571Y-123552380D01*
X117084523Y-123552380D01*
X158275000Y-121902380D02*
X158751190Y-121902380D01*
X158751190Y-120902380D01*
X157941666Y-121902380D02*
X157941666Y-121235714D01*
X157941666Y-120902380D02*
X157989285Y-120950000D01*
X157941666Y-120997619D01*
X157894047Y-120950000D01*
X157941666Y-120902380D01*
X157941666Y-120997619D01*
X157036904Y-121854761D02*
X157132142Y-121902380D01*
X157322619Y-121902380D01*
X157417857Y-121854761D01*
X157465476Y-121807142D01*
X157513095Y-121711904D01*
X157513095Y-121426190D01*
X157465476Y-121330952D01*
X157417857Y-121283333D01*
X157322619Y-121235714D01*
X157132142Y-121235714D01*
X157036904Y-121283333D01*
X156227380Y-121854761D02*
X156322619Y-121902380D01*
X156513095Y-121902380D01*
X156608333Y-121854761D01*
X156655952Y-121759523D01*
X156655952Y-121378571D01*
X156608333Y-121283333D01*
X156513095Y-121235714D01*
X156322619Y-121235714D01*
X156227380Y-121283333D01*
X156179761Y-121378571D01*
X156179761Y-121473809D01*
X156655952Y-121569047D01*
X155751190Y-121235714D02*
X155751190Y-121902380D01*
X155751190Y-121330952D02*
X155703571Y-121283333D01*
X155608333Y-121235714D01*
X155465476Y-121235714D01*
X155370238Y-121283333D01*
X155322619Y-121378571D01*
X155322619Y-121902380D01*
X154894047Y-121854761D02*
X154798809Y-121902380D01*
X154608333Y-121902380D01*
X154513095Y-121854761D01*
X154465476Y-121759523D01*
X154465476Y-121711904D01*
X154513095Y-121616666D01*
X154608333Y-121569047D01*
X154751190Y-121569047D01*
X154846428Y-121521428D01*
X154894047Y-121426190D01*
X154894047Y-121378571D01*
X154846428Y-121283333D01*
X154751190Y-121235714D01*
X154608333Y-121235714D01*
X154513095Y-121283333D01*
X153655952Y-121854761D02*
X153751190Y-121902380D01*
X153941666Y-121902380D01*
X154036904Y-121854761D01*
X154084523Y-121759523D01*
X154084523Y-121378571D01*
X154036904Y-121283333D01*
X153941666Y-121235714D01*
X153751190Y-121235714D01*
X153655952Y-121283333D01*
X153608333Y-121378571D01*
X153608333Y-121473809D01*
X154084523Y-121569047D01*
X152751190Y-121902380D02*
X152751190Y-120902380D01*
X152751190Y-121854761D02*
X152846428Y-121902380D01*
X153036904Y-121902380D01*
X153132142Y-121854761D01*
X153179761Y-121807142D01*
X153227380Y-121711904D01*
X153227380Y-121426190D01*
X153179761Y-121330952D01*
X153132142Y-121283333D01*
X153036904Y-121235714D01*
X152846428Y-121235714D01*
X152751190Y-121283333D01*
X151084523Y-121235714D02*
X151084523Y-121902380D01*
X151513095Y-121235714D02*
X151513095Y-121759523D01*
X151465476Y-121854761D01*
X151370238Y-121902380D01*
X151227380Y-121902380D01*
X151132142Y-121854761D01*
X151084523Y-121807142D01*
X150608333Y-121235714D02*
X150608333Y-121902380D01*
X150608333Y-121330952D02*
X150560714Y-121283333D01*
X150465476Y-121235714D01*
X150322619Y-121235714D01*
X150227380Y-121283333D01*
X150179761Y-121378571D01*
X150179761Y-121902380D01*
X149275000Y-121902380D02*
X149275000Y-120902380D01*
X149275000Y-121854761D02*
X149370238Y-121902380D01*
X149560714Y-121902380D01*
X149655952Y-121854761D01*
X149703571Y-121807142D01*
X149751190Y-121711904D01*
X149751190Y-121426190D01*
X149703571Y-121330952D01*
X149655952Y-121283333D01*
X149560714Y-121235714D01*
X149370238Y-121235714D01*
X149275000Y-121283333D01*
X148417857Y-121854761D02*
X148513095Y-121902380D01*
X148703571Y-121902380D01*
X148798809Y-121854761D01*
X148846428Y-121759523D01*
X148846428Y-121378571D01*
X148798809Y-121283333D01*
X148703571Y-121235714D01*
X148513095Y-121235714D01*
X148417857Y-121283333D01*
X148370238Y-121378571D01*
X148370238Y-121473809D01*
X148846428Y-121569047D01*
X147941666Y-121902380D02*
X147941666Y-121235714D01*
X147941666Y-121426190D02*
X147894047Y-121330952D01*
X147846428Y-121283333D01*
X147751190Y-121235714D01*
X147655952Y-121235714D01*
X158846428Y-123457142D02*
X158894047Y-123504761D01*
X159036904Y-123552380D01*
X159132142Y-123552380D01*
X159275000Y-123504761D01*
X159370238Y-123409523D01*
X159417857Y-123314285D01*
X159465476Y-123123809D01*
X159465476Y-122980952D01*
X159417857Y-122790476D01*
X159370238Y-122695238D01*
X159275000Y-122600000D01*
X159132142Y-122552380D01*
X159036904Y-122552380D01*
X158894047Y-122600000D01*
X158846428Y-122647619D01*
X158417857Y-123028571D02*
X158084523Y-123028571D01*
X157941666Y-123552380D02*
X158417857Y-123552380D01*
X158417857Y-122552380D01*
X157941666Y-122552380D01*
X156941666Y-123552380D02*
X157275000Y-123076190D01*
X157513095Y-123552380D02*
X157513095Y-122552380D01*
X157132142Y-122552380D01*
X157036904Y-122600000D01*
X156989285Y-122647619D01*
X156941666Y-122742857D01*
X156941666Y-122885714D01*
X156989285Y-122980952D01*
X157036904Y-123028571D01*
X157132142Y-123076190D01*
X157513095Y-123076190D01*
X156513095Y-123552380D02*
X156513095Y-122552380D01*
X155941666Y-123552380D01*
X155941666Y-122552380D01*
X155465476Y-123171428D02*
X154703571Y-123171428D01*
X154036904Y-122552380D02*
X153846428Y-122552380D01*
X153751190Y-122600000D01*
X153655952Y-122695238D01*
X153608333Y-122885714D01*
X153608333Y-123219047D01*
X153655952Y-123409523D01*
X153751190Y-123504761D01*
X153846428Y-123552380D01*
X154036904Y-123552380D01*
X154132142Y-123504761D01*
X154227380Y-123409523D01*
X154275000Y-123219047D01*
X154275000Y-122885714D01*
X154227380Y-122695238D01*
X154132142Y-122600000D01*
X154036904Y-122552380D01*
X153179761Y-123552380D02*
X153179761Y-122552380D01*
X153179761Y-123028571D02*
X152608333Y-123028571D01*
X152608333Y-123552380D02*
X152608333Y-122552380D01*
X151655952Y-123552380D02*
X152132142Y-123552380D01*
X152132142Y-122552380D01*
X151322619Y-123171428D02*
X150560714Y-123171428D01*
X150132142Y-123504761D02*
X149989285Y-123552380D01*
X149751190Y-123552380D01*
X149655952Y-123504761D01*
X149608333Y-123457142D01*
X149560714Y-123361904D01*
X149560714Y-123266666D01*
X149608333Y-123171428D01*
X149655952Y-123123809D01*
X149751190Y-123076190D01*
X149941666Y-123028571D01*
X150036904Y-122980952D01*
X150084523Y-122933333D01*
X150132142Y-122838095D01*
X150132142Y-122742857D01*
X150084523Y-122647619D01*
X150036904Y-122600000D01*
X149941666Y-122552380D01*
X149703571Y-122552380D01*
X149560714Y-122600000D01*
X148465476Y-122885714D02*
X148227380Y-123552380D01*
X147989285Y-122885714D01*
X147655952Y-122647619D02*
X147608333Y-122600000D01*
X147513095Y-122552380D01*
X147275000Y-122552380D01*
X147179761Y-122600000D01*
X147132142Y-122647619D01*
X147084523Y-122742857D01*
X147084523Y-122838095D01*
X147132142Y-122980952D01*
X147703571Y-123552380D01*
X147084523Y-123552380D01*
X158275000Y-112402380D02*
X158751190Y-112402380D01*
X158751190Y-111402380D01*
X157941666Y-112402380D02*
X157941666Y-111735714D01*
X157941666Y-111402380D02*
X157989285Y-111450000D01*
X157941666Y-111497619D01*
X157894047Y-111450000D01*
X157941666Y-111402380D01*
X157941666Y-111497619D01*
X157036904Y-112354761D02*
X157132142Y-112402380D01*
X157322619Y-112402380D01*
X157417857Y-112354761D01*
X157465476Y-112307142D01*
X157513095Y-112211904D01*
X157513095Y-111926190D01*
X157465476Y-111830952D01*
X157417857Y-111783333D01*
X157322619Y-111735714D01*
X157132142Y-111735714D01*
X157036904Y-111783333D01*
X156227380Y-112354761D02*
X156322619Y-112402380D01*
X156513095Y-112402380D01*
X156608333Y-112354761D01*
X156655952Y-112259523D01*
X156655952Y-111878571D01*
X156608333Y-111783333D01*
X156513095Y-111735714D01*
X156322619Y-111735714D01*
X156227380Y-111783333D01*
X156179761Y-111878571D01*
X156179761Y-111973809D01*
X156655952Y-112069047D01*
X155751190Y-111735714D02*
X155751190Y-112402380D01*
X155751190Y-111830952D02*
X155703571Y-111783333D01*
X155608333Y-111735714D01*
X155465476Y-111735714D01*
X155370238Y-111783333D01*
X155322619Y-111878571D01*
X155322619Y-112402380D01*
X154894047Y-112354761D02*
X154798809Y-112402380D01*
X154608333Y-112402380D01*
X154513095Y-112354761D01*
X154465476Y-112259523D01*
X154465476Y-112211904D01*
X154513095Y-112116666D01*
X154608333Y-112069047D01*
X154751190Y-112069047D01*
X154846428Y-112021428D01*
X154894047Y-111926190D01*
X154894047Y-111878571D01*
X154846428Y-111783333D01*
X154751190Y-111735714D01*
X154608333Y-111735714D01*
X154513095Y-111783333D01*
X153655952Y-112354761D02*
X153751190Y-112402380D01*
X153941666Y-112402380D01*
X154036904Y-112354761D01*
X154084523Y-112259523D01*
X154084523Y-111878571D01*
X154036904Y-111783333D01*
X153941666Y-111735714D01*
X153751190Y-111735714D01*
X153655952Y-111783333D01*
X153608333Y-111878571D01*
X153608333Y-111973809D01*
X154084523Y-112069047D01*
X152751190Y-112402380D02*
X152751190Y-111402380D01*
X152751190Y-112354761D02*
X152846428Y-112402380D01*
X153036904Y-112402380D01*
X153132142Y-112354761D01*
X153179761Y-112307142D01*
X153227380Y-112211904D01*
X153227380Y-111926190D01*
X153179761Y-111830952D01*
X153132142Y-111783333D01*
X153036904Y-111735714D01*
X152846428Y-111735714D01*
X152751190Y-111783333D01*
X151084523Y-111735714D02*
X151084523Y-112402380D01*
X151513095Y-111735714D02*
X151513095Y-112259523D01*
X151465476Y-112354761D01*
X151370238Y-112402380D01*
X151227380Y-112402380D01*
X151132142Y-112354761D01*
X151084523Y-112307142D01*
X150608333Y-111735714D02*
X150608333Y-112402380D01*
X150608333Y-111830952D02*
X150560714Y-111783333D01*
X150465476Y-111735714D01*
X150322619Y-111735714D01*
X150227380Y-111783333D01*
X150179761Y-111878571D01*
X150179761Y-112402380D01*
X149275000Y-112402380D02*
X149275000Y-111402380D01*
X149275000Y-112354761D02*
X149370238Y-112402380D01*
X149560714Y-112402380D01*
X149655952Y-112354761D01*
X149703571Y-112307142D01*
X149751190Y-112211904D01*
X149751190Y-111926190D01*
X149703571Y-111830952D01*
X149655952Y-111783333D01*
X149560714Y-111735714D01*
X149370238Y-111735714D01*
X149275000Y-111783333D01*
X148417857Y-112354761D02*
X148513095Y-112402380D01*
X148703571Y-112402380D01*
X148798809Y-112354761D01*
X148846428Y-112259523D01*
X148846428Y-111878571D01*
X148798809Y-111783333D01*
X148703571Y-111735714D01*
X148513095Y-111735714D01*
X148417857Y-111783333D01*
X148370238Y-111878571D01*
X148370238Y-111973809D01*
X148846428Y-112069047D01*
X147941666Y-112402380D02*
X147941666Y-111735714D01*
X147941666Y-111926190D02*
X147894047Y-111830952D01*
X147846428Y-111783333D01*
X147751190Y-111735714D01*
X147655952Y-111735714D01*
X158846428Y-113957142D02*
X158894047Y-114004761D01*
X159036904Y-114052380D01*
X159132142Y-114052380D01*
X159275000Y-114004761D01*
X159370238Y-113909523D01*
X159417857Y-113814285D01*
X159465476Y-113623809D01*
X159465476Y-113480952D01*
X159417857Y-113290476D01*
X159370238Y-113195238D01*
X159275000Y-113100000D01*
X159132142Y-113052380D01*
X159036904Y-113052380D01*
X158894047Y-113100000D01*
X158846428Y-113147619D01*
X158417857Y-113528571D02*
X158084523Y-113528571D01*
X157941666Y-114052380D02*
X158417857Y-114052380D01*
X158417857Y-113052380D01*
X157941666Y-113052380D01*
X156941666Y-114052380D02*
X157275000Y-113576190D01*
X157513095Y-114052380D02*
X157513095Y-113052380D01*
X157132142Y-113052380D01*
X157036904Y-113100000D01*
X156989285Y-113147619D01*
X156941666Y-113242857D01*
X156941666Y-113385714D01*
X156989285Y-113480952D01*
X157036904Y-113528571D01*
X157132142Y-113576190D01*
X157513095Y-113576190D01*
X156513095Y-114052380D02*
X156513095Y-113052380D01*
X155941666Y-114052380D01*
X155941666Y-113052380D01*
X155465476Y-113671428D02*
X154703571Y-113671428D01*
X154036904Y-113052380D02*
X153846428Y-113052380D01*
X153751190Y-113100000D01*
X153655952Y-113195238D01*
X153608333Y-113385714D01*
X153608333Y-113719047D01*
X153655952Y-113909523D01*
X153751190Y-114004761D01*
X153846428Y-114052380D01*
X154036904Y-114052380D01*
X154132142Y-114004761D01*
X154227380Y-113909523D01*
X154275000Y-113719047D01*
X154275000Y-113385714D01*
X154227380Y-113195238D01*
X154132142Y-113100000D01*
X154036904Y-113052380D01*
X153179761Y-114052380D02*
X153179761Y-113052380D01*
X153179761Y-113528571D02*
X152608333Y-113528571D01*
X152608333Y-114052380D02*
X152608333Y-113052380D01*
X151655952Y-114052380D02*
X152132142Y-114052380D01*
X152132142Y-113052380D01*
X151322619Y-113671428D02*
X150560714Y-113671428D01*
X150132142Y-114004761D02*
X149989285Y-114052380D01*
X149751190Y-114052380D01*
X149655952Y-114004761D01*
X149608333Y-113957142D01*
X149560714Y-113861904D01*
X149560714Y-113766666D01*
X149608333Y-113671428D01*
X149655952Y-113623809D01*
X149751190Y-113576190D01*
X149941666Y-113528571D01*
X150036904Y-113480952D01*
X150084523Y-113433333D01*
X150132142Y-113338095D01*
X150132142Y-113242857D01*
X150084523Y-113147619D01*
X150036904Y-113100000D01*
X149941666Y-113052380D01*
X149703571Y-113052380D01*
X149560714Y-113100000D01*
X148465476Y-113385714D02*
X148227380Y-114052380D01*
X147989285Y-113385714D01*
X147655952Y-113147619D02*
X147608333Y-113100000D01*
X147513095Y-113052380D01*
X147275000Y-113052380D01*
X147179761Y-113100000D01*
X147132142Y-113147619D01*
X147084523Y-113242857D01*
X147084523Y-113338095D01*
X147132142Y-113480952D01*
X147703571Y-114052380D01*
X147084523Y-114052380D01*
X98275000Y-112402380D02*
X98751190Y-112402380D01*
X98751190Y-111402380D01*
X97941666Y-112402380D02*
X97941666Y-111735714D01*
X97941666Y-111402380D02*
X97989285Y-111450000D01*
X97941666Y-111497619D01*
X97894047Y-111450000D01*
X97941666Y-111402380D01*
X97941666Y-111497619D01*
X97036904Y-112354761D02*
X97132142Y-112402380D01*
X97322619Y-112402380D01*
X97417857Y-112354761D01*
X97465476Y-112307142D01*
X97513095Y-112211904D01*
X97513095Y-111926190D01*
X97465476Y-111830952D01*
X97417857Y-111783333D01*
X97322619Y-111735714D01*
X97132142Y-111735714D01*
X97036904Y-111783333D01*
X96227380Y-112354761D02*
X96322619Y-112402380D01*
X96513095Y-112402380D01*
X96608333Y-112354761D01*
X96655952Y-112259523D01*
X96655952Y-111878571D01*
X96608333Y-111783333D01*
X96513095Y-111735714D01*
X96322619Y-111735714D01*
X96227380Y-111783333D01*
X96179761Y-111878571D01*
X96179761Y-111973809D01*
X96655952Y-112069047D01*
X95751190Y-111735714D02*
X95751190Y-112402380D01*
X95751190Y-111830952D02*
X95703571Y-111783333D01*
X95608333Y-111735714D01*
X95465476Y-111735714D01*
X95370238Y-111783333D01*
X95322619Y-111878571D01*
X95322619Y-112402380D01*
X94894047Y-112354761D02*
X94798809Y-112402380D01*
X94608333Y-112402380D01*
X94513095Y-112354761D01*
X94465476Y-112259523D01*
X94465476Y-112211904D01*
X94513095Y-112116666D01*
X94608333Y-112069047D01*
X94751190Y-112069047D01*
X94846428Y-112021428D01*
X94894047Y-111926190D01*
X94894047Y-111878571D01*
X94846428Y-111783333D01*
X94751190Y-111735714D01*
X94608333Y-111735714D01*
X94513095Y-111783333D01*
X93655952Y-112354761D02*
X93751190Y-112402380D01*
X93941666Y-112402380D01*
X94036904Y-112354761D01*
X94084523Y-112259523D01*
X94084523Y-111878571D01*
X94036904Y-111783333D01*
X93941666Y-111735714D01*
X93751190Y-111735714D01*
X93655952Y-111783333D01*
X93608333Y-111878571D01*
X93608333Y-111973809D01*
X94084523Y-112069047D01*
X92751190Y-112402380D02*
X92751190Y-111402380D01*
X92751190Y-112354761D02*
X92846428Y-112402380D01*
X93036904Y-112402380D01*
X93132142Y-112354761D01*
X93179761Y-112307142D01*
X93227380Y-112211904D01*
X93227380Y-111926190D01*
X93179761Y-111830952D01*
X93132142Y-111783333D01*
X93036904Y-111735714D01*
X92846428Y-111735714D01*
X92751190Y-111783333D01*
X91084523Y-111735714D02*
X91084523Y-112402380D01*
X91513095Y-111735714D02*
X91513095Y-112259523D01*
X91465476Y-112354761D01*
X91370238Y-112402380D01*
X91227380Y-112402380D01*
X91132142Y-112354761D01*
X91084523Y-112307142D01*
X90608333Y-111735714D02*
X90608333Y-112402380D01*
X90608333Y-111830952D02*
X90560714Y-111783333D01*
X90465476Y-111735714D01*
X90322619Y-111735714D01*
X90227380Y-111783333D01*
X90179761Y-111878571D01*
X90179761Y-112402380D01*
X89275000Y-112402380D02*
X89275000Y-111402380D01*
X89275000Y-112354761D02*
X89370238Y-112402380D01*
X89560714Y-112402380D01*
X89655952Y-112354761D01*
X89703571Y-112307142D01*
X89751190Y-112211904D01*
X89751190Y-111926190D01*
X89703571Y-111830952D01*
X89655952Y-111783333D01*
X89560714Y-111735714D01*
X89370238Y-111735714D01*
X89275000Y-111783333D01*
X88417857Y-112354761D02*
X88513095Y-112402380D01*
X88703571Y-112402380D01*
X88798809Y-112354761D01*
X88846428Y-112259523D01*
X88846428Y-111878571D01*
X88798809Y-111783333D01*
X88703571Y-111735714D01*
X88513095Y-111735714D01*
X88417857Y-111783333D01*
X88370238Y-111878571D01*
X88370238Y-111973809D01*
X88846428Y-112069047D01*
X87941666Y-112402380D02*
X87941666Y-111735714D01*
X87941666Y-111926190D02*
X87894047Y-111830952D01*
X87846428Y-111783333D01*
X87751190Y-111735714D01*
X87655952Y-111735714D01*
X98846428Y-113957142D02*
X98894047Y-114004761D01*
X99036904Y-114052380D01*
X99132142Y-114052380D01*
X99275000Y-114004761D01*
X99370238Y-113909523D01*
X99417857Y-113814285D01*
X99465476Y-113623809D01*
X99465476Y-113480952D01*
X99417857Y-113290476D01*
X99370238Y-113195238D01*
X99275000Y-113100000D01*
X99132142Y-113052380D01*
X99036904Y-113052380D01*
X98894047Y-113100000D01*
X98846428Y-113147619D01*
X98417857Y-113528571D02*
X98084523Y-113528571D01*
X97941666Y-114052380D02*
X98417857Y-114052380D01*
X98417857Y-113052380D01*
X97941666Y-113052380D01*
X96941666Y-114052380D02*
X97275000Y-113576190D01*
X97513095Y-114052380D02*
X97513095Y-113052380D01*
X97132142Y-113052380D01*
X97036904Y-113100000D01*
X96989285Y-113147619D01*
X96941666Y-113242857D01*
X96941666Y-113385714D01*
X96989285Y-113480952D01*
X97036904Y-113528571D01*
X97132142Y-113576190D01*
X97513095Y-113576190D01*
X96513095Y-114052380D02*
X96513095Y-113052380D01*
X95941666Y-114052380D01*
X95941666Y-113052380D01*
X95465476Y-113671428D02*
X94703571Y-113671428D01*
X94036904Y-113052380D02*
X93846428Y-113052380D01*
X93751190Y-113100000D01*
X93655952Y-113195238D01*
X93608333Y-113385714D01*
X93608333Y-113719047D01*
X93655952Y-113909523D01*
X93751190Y-114004761D01*
X93846428Y-114052380D01*
X94036904Y-114052380D01*
X94132142Y-114004761D01*
X94227380Y-113909523D01*
X94275000Y-113719047D01*
X94275000Y-113385714D01*
X94227380Y-113195238D01*
X94132142Y-113100000D01*
X94036904Y-113052380D01*
X93179761Y-114052380D02*
X93179761Y-113052380D01*
X93179761Y-113528571D02*
X92608333Y-113528571D01*
X92608333Y-114052380D02*
X92608333Y-113052380D01*
X91655952Y-114052380D02*
X92132142Y-114052380D01*
X92132142Y-113052380D01*
X91322619Y-113671428D02*
X90560714Y-113671428D01*
X90132142Y-114004761D02*
X89989285Y-114052380D01*
X89751190Y-114052380D01*
X89655952Y-114004761D01*
X89608333Y-113957142D01*
X89560714Y-113861904D01*
X89560714Y-113766666D01*
X89608333Y-113671428D01*
X89655952Y-113623809D01*
X89751190Y-113576190D01*
X89941666Y-113528571D01*
X90036904Y-113480952D01*
X90084523Y-113433333D01*
X90132142Y-113338095D01*
X90132142Y-113242857D01*
X90084523Y-113147619D01*
X90036904Y-113100000D01*
X89941666Y-113052380D01*
X89703571Y-113052380D01*
X89560714Y-113100000D01*
X88465476Y-113385714D02*
X88227380Y-114052380D01*
X87989285Y-113385714D01*
X87655952Y-113147619D02*
X87608333Y-113100000D01*
X87513095Y-113052380D01*
X87275000Y-113052380D01*
X87179761Y-113100000D01*
X87132142Y-113147619D01*
X87084523Y-113242857D01*
X87084523Y-113338095D01*
X87132142Y-113480952D01*
X87703571Y-114052380D01*
X87084523Y-114052380D01*
X128275000Y-112402380D02*
X128751190Y-112402380D01*
X128751190Y-111402380D01*
X127941666Y-112402380D02*
X127941666Y-111735714D01*
X127941666Y-111402380D02*
X127989285Y-111450000D01*
X127941666Y-111497619D01*
X127894047Y-111450000D01*
X127941666Y-111402380D01*
X127941666Y-111497619D01*
X127036904Y-112354761D02*
X127132142Y-112402380D01*
X127322619Y-112402380D01*
X127417857Y-112354761D01*
X127465476Y-112307142D01*
X127513095Y-112211904D01*
X127513095Y-111926190D01*
X127465476Y-111830952D01*
X127417857Y-111783333D01*
X127322619Y-111735714D01*
X127132142Y-111735714D01*
X127036904Y-111783333D01*
X126227380Y-112354761D02*
X126322619Y-112402380D01*
X126513095Y-112402380D01*
X126608333Y-112354761D01*
X126655952Y-112259523D01*
X126655952Y-111878571D01*
X126608333Y-111783333D01*
X126513095Y-111735714D01*
X126322619Y-111735714D01*
X126227380Y-111783333D01*
X126179761Y-111878571D01*
X126179761Y-111973809D01*
X126655952Y-112069047D01*
X125751190Y-111735714D02*
X125751190Y-112402380D01*
X125751190Y-111830952D02*
X125703571Y-111783333D01*
X125608333Y-111735714D01*
X125465476Y-111735714D01*
X125370238Y-111783333D01*
X125322619Y-111878571D01*
X125322619Y-112402380D01*
X124894047Y-112354761D02*
X124798809Y-112402380D01*
X124608333Y-112402380D01*
X124513095Y-112354761D01*
X124465476Y-112259523D01*
X124465476Y-112211904D01*
X124513095Y-112116666D01*
X124608333Y-112069047D01*
X124751190Y-112069047D01*
X124846428Y-112021428D01*
X124894047Y-111926190D01*
X124894047Y-111878571D01*
X124846428Y-111783333D01*
X124751190Y-111735714D01*
X124608333Y-111735714D01*
X124513095Y-111783333D01*
X123655952Y-112354761D02*
X123751190Y-112402380D01*
X123941666Y-112402380D01*
X124036904Y-112354761D01*
X124084523Y-112259523D01*
X124084523Y-111878571D01*
X124036904Y-111783333D01*
X123941666Y-111735714D01*
X123751190Y-111735714D01*
X123655952Y-111783333D01*
X123608333Y-111878571D01*
X123608333Y-111973809D01*
X124084523Y-112069047D01*
X122751190Y-112402380D02*
X122751190Y-111402380D01*
X122751190Y-112354761D02*
X122846428Y-112402380D01*
X123036904Y-112402380D01*
X123132142Y-112354761D01*
X123179761Y-112307142D01*
X123227380Y-112211904D01*
X123227380Y-111926190D01*
X123179761Y-111830952D01*
X123132142Y-111783333D01*
X123036904Y-111735714D01*
X122846428Y-111735714D01*
X122751190Y-111783333D01*
X121084523Y-111735714D02*
X121084523Y-112402380D01*
X121513095Y-111735714D02*
X121513095Y-112259523D01*
X121465476Y-112354761D01*
X121370238Y-112402380D01*
X121227380Y-112402380D01*
X121132142Y-112354761D01*
X121084523Y-112307142D01*
X120608333Y-111735714D02*
X120608333Y-112402380D01*
X120608333Y-111830952D02*
X120560714Y-111783333D01*
X120465476Y-111735714D01*
X120322619Y-111735714D01*
X120227380Y-111783333D01*
X120179761Y-111878571D01*
X120179761Y-112402380D01*
X119275000Y-112402380D02*
X119275000Y-111402380D01*
X119275000Y-112354761D02*
X119370238Y-112402380D01*
X119560714Y-112402380D01*
X119655952Y-112354761D01*
X119703571Y-112307142D01*
X119751190Y-112211904D01*
X119751190Y-111926190D01*
X119703571Y-111830952D01*
X119655952Y-111783333D01*
X119560714Y-111735714D01*
X119370238Y-111735714D01*
X119275000Y-111783333D01*
X118417857Y-112354761D02*
X118513095Y-112402380D01*
X118703571Y-112402380D01*
X118798809Y-112354761D01*
X118846428Y-112259523D01*
X118846428Y-111878571D01*
X118798809Y-111783333D01*
X118703571Y-111735714D01*
X118513095Y-111735714D01*
X118417857Y-111783333D01*
X118370238Y-111878571D01*
X118370238Y-111973809D01*
X118846428Y-112069047D01*
X117941666Y-112402380D02*
X117941666Y-111735714D01*
X117941666Y-111926190D02*
X117894047Y-111830952D01*
X117846428Y-111783333D01*
X117751190Y-111735714D01*
X117655952Y-111735714D01*
X128846428Y-113957142D02*
X128894047Y-114004761D01*
X129036904Y-114052380D01*
X129132142Y-114052380D01*
X129275000Y-114004761D01*
X129370238Y-113909523D01*
X129417857Y-113814285D01*
X129465476Y-113623809D01*
X129465476Y-113480952D01*
X129417857Y-113290476D01*
X129370238Y-113195238D01*
X129275000Y-113100000D01*
X129132142Y-113052380D01*
X129036904Y-113052380D01*
X128894047Y-113100000D01*
X128846428Y-113147619D01*
X128417857Y-113528571D02*
X128084523Y-113528571D01*
X127941666Y-114052380D02*
X128417857Y-114052380D01*
X128417857Y-113052380D01*
X127941666Y-113052380D01*
X126941666Y-114052380D02*
X127275000Y-113576190D01*
X127513095Y-114052380D02*
X127513095Y-113052380D01*
X127132142Y-113052380D01*
X127036904Y-113100000D01*
X126989285Y-113147619D01*
X126941666Y-113242857D01*
X126941666Y-113385714D01*
X126989285Y-113480952D01*
X127036904Y-113528571D01*
X127132142Y-113576190D01*
X127513095Y-113576190D01*
X126513095Y-114052380D02*
X126513095Y-113052380D01*
X125941666Y-114052380D01*
X125941666Y-113052380D01*
X125465476Y-113671428D02*
X124703571Y-113671428D01*
X124036904Y-113052380D02*
X123846428Y-113052380D01*
X123751190Y-113100000D01*
X123655952Y-113195238D01*
X123608333Y-113385714D01*
X123608333Y-113719047D01*
X123655952Y-113909523D01*
X123751190Y-114004761D01*
X123846428Y-114052380D01*
X124036904Y-114052380D01*
X124132142Y-114004761D01*
X124227380Y-113909523D01*
X124275000Y-113719047D01*
X124275000Y-113385714D01*
X124227380Y-113195238D01*
X124132142Y-113100000D01*
X124036904Y-113052380D01*
X123179761Y-114052380D02*
X123179761Y-113052380D01*
X123179761Y-113528571D02*
X122608333Y-113528571D01*
X122608333Y-114052380D02*
X122608333Y-113052380D01*
X121655952Y-114052380D02*
X122132142Y-114052380D01*
X122132142Y-113052380D01*
X121322619Y-113671428D02*
X120560714Y-113671428D01*
X120132142Y-114004761D02*
X119989285Y-114052380D01*
X119751190Y-114052380D01*
X119655952Y-114004761D01*
X119608333Y-113957142D01*
X119560714Y-113861904D01*
X119560714Y-113766666D01*
X119608333Y-113671428D01*
X119655952Y-113623809D01*
X119751190Y-113576190D01*
X119941666Y-113528571D01*
X120036904Y-113480952D01*
X120084523Y-113433333D01*
X120132142Y-113338095D01*
X120132142Y-113242857D01*
X120084523Y-113147619D01*
X120036904Y-113100000D01*
X119941666Y-113052380D01*
X119703571Y-113052380D01*
X119560714Y-113100000D01*
X118465476Y-113385714D02*
X118227380Y-114052380D01*
X117989285Y-113385714D01*
X117655952Y-113147619D02*
X117608333Y-113100000D01*
X117513095Y-113052380D01*
X117275000Y-113052380D01*
X117179761Y-113100000D01*
X117132142Y-113147619D01*
X117084523Y-113242857D01*
X117084523Y-113338095D01*
X117132142Y-113480952D01*
X117703571Y-114052380D01*
X117084523Y-114052380D01*
X98275000Y-121902380D02*
X98751190Y-121902380D01*
X98751190Y-120902380D01*
X97941666Y-121902380D02*
X97941666Y-121235714D01*
X97941666Y-120902380D02*
X97989285Y-120950000D01*
X97941666Y-120997619D01*
X97894047Y-120950000D01*
X97941666Y-120902380D01*
X97941666Y-120997619D01*
X97036904Y-121854761D02*
X97132142Y-121902380D01*
X97322619Y-121902380D01*
X97417857Y-121854761D01*
X97465476Y-121807142D01*
X97513095Y-121711904D01*
X97513095Y-121426190D01*
X97465476Y-121330952D01*
X97417857Y-121283333D01*
X97322619Y-121235714D01*
X97132142Y-121235714D01*
X97036904Y-121283333D01*
X96227380Y-121854761D02*
X96322619Y-121902380D01*
X96513095Y-121902380D01*
X96608333Y-121854761D01*
X96655952Y-121759523D01*
X96655952Y-121378571D01*
X96608333Y-121283333D01*
X96513095Y-121235714D01*
X96322619Y-121235714D01*
X96227380Y-121283333D01*
X96179761Y-121378571D01*
X96179761Y-121473809D01*
X96655952Y-121569047D01*
X95751190Y-121235714D02*
X95751190Y-121902380D01*
X95751190Y-121330952D02*
X95703571Y-121283333D01*
X95608333Y-121235714D01*
X95465476Y-121235714D01*
X95370238Y-121283333D01*
X95322619Y-121378571D01*
X95322619Y-121902380D01*
X94894047Y-121854761D02*
X94798809Y-121902380D01*
X94608333Y-121902380D01*
X94513095Y-121854761D01*
X94465476Y-121759523D01*
X94465476Y-121711904D01*
X94513095Y-121616666D01*
X94608333Y-121569047D01*
X94751190Y-121569047D01*
X94846428Y-121521428D01*
X94894047Y-121426190D01*
X94894047Y-121378571D01*
X94846428Y-121283333D01*
X94751190Y-121235714D01*
X94608333Y-121235714D01*
X94513095Y-121283333D01*
X93655952Y-121854761D02*
X93751190Y-121902380D01*
X93941666Y-121902380D01*
X94036904Y-121854761D01*
X94084523Y-121759523D01*
X94084523Y-121378571D01*
X94036904Y-121283333D01*
X93941666Y-121235714D01*
X93751190Y-121235714D01*
X93655952Y-121283333D01*
X93608333Y-121378571D01*
X93608333Y-121473809D01*
X94084523Y-121569047D01*
X92751190Y-121902380D02*
X92751190Y-120902380D01*
X92751190Y-121854761D02*
X92846428Y-121902380D01*
X93036904Y-121902380D01*
X93132142Y-121854761D01*
X93179761Y-121807142D01*
X93227380Y-121711904D01*
X93227380Y-121426190D01*
X93179761Y-121330952D01*
X93132142Y-121283333D01*
X93036904Y-121235714D01*
X92846428Y-121235714D01*
X92751190Y-121283333D01*
X91084523Y-121235714D02*
X91084523Y-121902380D01*
X91513095Y-121235714D02*
X91513095Y-121759523D01*
X91465476Y-121854761D01*
X91370238Y-121902380D01*
X91227380Y-121902380D01*
X91132142Y-121854761D01*
X91084523Y-121807142D01*
X90608333Y-121235714D02*
X90608333Y-121902380D01*
X90608333Y-121330952D02*
X90560714Y-121283333D01*
X90465476Y-121235714D01*
X90322619Y-121235714D01*
X90227380Y-121283333D01*
X90179761Y-121378571D01*
X90179761Y-121902380D01*
X89275000Y-121902380D02*
X89275000Y-120902380D01*
X89275000Y-121854761D02*
X89370238Y-121902380D01*
X89560714Y-121902380D01*
X89655952Y-121854761D01*
X89703571Y-121807142D01*
X89751190Y-121711904D01*
X89751190Y-121426190D01*
X89703571Y-121330952D01*
X89655952Y-121283333D01*
X89560714Y-121235714D01*
X89370238Y-121235714D01*
X89275000Y-121283333D01*
X88417857Y-121854761D02*
X88513095Y-121902380D01*
X88703571Y-121902380D01*
X88798809Y-121854761D01*
X88846428Y-121759523D01*
X88846428Y-121378571D01*
X88798809Y-121283333D01*
X88703571Y-121235714D01*
X88513095Y-121235714D01*
X88417857Y-121283333D01*
X88370238Y-121378571D01*
X88370238Y-121473809D01*
X88846428Y-121569047D01*
X87941666Y-121902380D02*
X87941666Y-121235714D01*
X87941666Y-121426190D02*
X87894047Y-121330952D01*
X87846428Y-121283333D01*
X87751190Y-121235714D01*
X87655952Y-121235714D01*
X98846428Y-123457142D02*
X98894047Y-123504761D01*
X99036904Y-123552380D01*
X99132142Y-123552380D01*
X99275000Y-123504761D01*
X99370238Y-123409523D01*
X99417857Y-123314285D01*
X99465476Y-123123809D01*
X99465476Y-122980952D01*
X99417857Y-122790476D01*
X99370238Y-122695238D01*
X99275000Y-122600000D01*
X99132142Y-122552380D01*
X99036904Y-122552380D01*
X98894047Y-122600000D01*
X98846428Y-122647619D01*
X98417857Y-123028571D02*
X98084523Y-123028571D01*
X97941666Y-123552380D02*
X98417857Y-123552380D01*
X98417857Y-122552380D01*
X97941666Y-122552380D01*
X96941666Y-123552380D02*
X97275000Y-123076190D01*
X97513095Y-123552380D02*
X97513095Y-122552380D01*
X97132142Y-122552380D01*
X97036904Y-122600000D01*
X96989285Y-122647619D01*
X96941666Y-122742857D01*
X96941666Y-122885714D01*
X96989285Y-122980952D01*
X97036904Y-123028571D01*
X97132142Y-123076190D01*
X97513095Y-123076190D01*
X96513095Y-123552380D02*
X96513095Y-122552380D01*
X95941666Y-123552380D01*
X95941666Y-122552380D01*
X95465476Y-123171428D02*
X94703571Y-123171428D01*
X94036904Y-122552380D02*
X93846428Y-122552380D01*
X93751190Y-122600000D01*
X93655952Y-122695238D01*
X93608333Y-122885714D01*
X93608333Y-123219047D01*
X93655952Y-123409523D01*
X93751190Y-123504761D01*
X93846428Y-123552380D01*
X94036904Y-123552380D01*
X94132142Y-123504761D01*
X94227380Y-123409523D01*
X94275000Y-123219047D01*
X94275000Y-122885714D01*
X94227380Y-122695238D01*
X94132142Y-122600000D01*
X94036904Y-122552380D01*
X93179761Y-123552380D02*
X93179761Y-122552380D01*
X93179761Y-123028571D02*
X92608333Y-123028571D01*
X92608333Y-123552380D02*
X92608333Y-122552380D01*
X91655952Y-123552380D02*
X92132142Y-123552380D01*
X92132142Y-122552380D01*
X91322619Y-123171428D02*
X90560714Y-123171428D01*
X90132142Y-123504761D02*
X89989285Y-123552380D01*
X89751190Y-123552380D01*
X89655952Y-123504761D01*
X89608333Y-123457142D01*
X89560714Y-123361904D01*
X89560714Y-123266666D01*
X89608333Y-123171428D01*
X89655952Y-123123809D01*
X89751190Y-123076190D01*
X89941666Y-123028571D01*
X90036904Y-122980952D01*
X90084523Y-122933333D01*
X90132142Y-122838095D01*
X90132142Y-122742857D01*
X90084523Y-122647619D01*
X90036904Y-122600000D01*
X89941666Y-122552380D01*
X89703571Y-122552380D01*
X89560714Y-122600000D01*
X88465476Y-122885714D02*
X88227380Y-123552380D01*
X87989285Y-122885714D01*
X87655952Y-122647619D02*
X87608333Y-122600000D01*
X87513095Y-122552380D01*
X87275000Y-122552380D01*
X87179761Y-122600000D01*
X87132142Y-122647619D01*
X87084523Y-122742857D01*
X87084523Y-122838095D01*
X87132142Y-122980952D01*
X87703571Y-123552380D01*
X87084523Y-123552380D01*
X128275000Y-131402380D02*
X128751190Y-131402380D01*
X128751190Y-130402380D01*
X127941666Y-131402380D02*
X127941666Y-130735714D01*
X127941666Y-130402380D02*
X127989285Y-130450000D01*
X127941666Y-130497619D01*
X127894047Y-130450000D01*
X127941666Y-130402380D01*
X127941666Y-130497619D01*
X127036904Y-131354761D02*
X127132142Y-131402380D01*
X127322619Y-131402380D01*
X127417857Y-131354761D01*
X127465476Y-131307142D01*
X127513095Y-131211904D01*
X127513095Y-130926190D01*
X127465476Y-130830952D01*
X127417857Y-130783333D01*
X127322619Y-130735714D01*
X127132142Y-130735714D01*
X127036904Y-130783333D01*
X126227380Y-131354761D02*
X126322619Y-131402380D01*
X126513095Y-131402380D01*
X126608333Y-131354761D01*
X126655952Y-131259523D01*
X126655952Y-130878571D01*
X126608333Y-130783333D01*
X126513095Y-130735714D01*
X126322619Y-130735714D01*
X126227380Y-130783333D01*
X126179761Y-130878571D01*
X126179761Y-130973809D01*
X126655952Y-131069047D01*
X125751190Y-130735714D02*
X125751190Y-131402380D01*
X125751190Y-130830952D02*
X125703571Y-130783333D01*
X125608333Y-130735714D01*
X125465476Y-130735714D01*
X125370238Y-130783333D01*
X125322619Y-130878571D01*
X125322619Y-131402380D01*
X124894047Y-131354761D02*
X124798809Y-131402380D01*
X124608333Y-131402380D01*
X124513095Y-131354761D01*
X124465476Y-131259523D01*
X124465476Y-131211904D01*
X124513095Y-131116666D01*
X124608333Y-131069047D01*
X124751190Y-131069047D01*
X124846428Y-131021428D01*
X124894047Y-130926190D01*
X124894047Y-130878571D01*
X124846428Y-130783333D01*
X124751190Y-130735714D01*
X124608333Y-130735714D01*
X124513095Y-130783333D01*
X123655952Y-131354761D02*
X123751190Y-131402380D01*
X123941666Y-131402380D01*
X124036904Y-131354761D01*
X124084523Y-131259523D01*
X124084523Y-130878571D01*
X124036904Y-130783333D01*
X123941666Y-130735714D01*
X123751190Y-130735714D01*
X123655952Y-130783333D01*
X123608333Y-130878571D01*
X123608333Y-130973809D01*
X124084523Y-131069047D01*
X122751190Y-131402380D02*
X122751190Y-130402380D01*
X122751190Y-131354761D02*
X122846428Y-131402380D01*
X123036904Y-131402380D01*
X123132142Y-131354761D01*
X123179761Y-131307142D01*
X123227380Y-131211904D01*
X123227380Y-130926190D01*
X123179761Y-130830952D01*
X123132142Y-130783333D01*
X123036904Y-130735714D01*
X122846428Y-130735714D01*
X122751190Y-130783333D01*
X121084523Y-130735714D02*
X121084523Y-131402380D01*
X121513095Y-130735714D02*
X121513095Y-131259523D01*
X121465476Y-131354761D01*
X121370238Y-131402380D01*
X121227380Y-131402380D01*
X121132142Y-131354761D01*
X121084523Y-131307142D01*
X120608333Y-130735714D02*
X120608333Y-131402380D01*
X120608333Y-130830952D02*
X120560714Y-130783333D01*
X120465476Y-130735714D01*
X120322619Y-130735714D01*
X120227380Y-130783333D01*
X120179761Y-130878571D01*
X120179761Y-131402380D01*
X119275000Y-131402380D02*
X119275000Y-130402380D01*
X119275000Y-131354761D02*
X119370238Y-131402380D01*
X119560714Y-131402380D01*
X119655952Y-131354761D01*
X119703571Y-131307142D01*
X119751190Y-131211904D01*
X119751190Y-130926190D01*
X119703571Y-130830952D01*
X119655952Y-130783333D01*
X119560714Y-130735714D01*
X119370238Y-130735714D01*
X119275000Y-130783333D01*
X118417857Y-131354761D02*
X118513095Y-131402380D01*
X118703571Y-131402380D01*
X118798809Y-131354761D01*
X118846428Y-131259523D01*
X118846428Y-130878571D01*
X118798809Y-130783333D01*
X118703571Y-130735714D01*
X118513095Y-130735714D01*
X118417857Y-130783333D01*
X118370238Y-130878571D01*
X118370238Y-130973809D01*
X118846428Y-131069047D01*
X117941666Y-131402380D02*
X117941666Y-130735714D01*
X117941666Y-130926190D02*
X117894047Y-130830952D01*
X117846428Y-130783333D01*
X117751190Y-130735714D01*
X117655952Y-130735714D01*
X128846428Y-132957142D02*
X128894047Y-133004761D01*
X129036904Y-133052380D01*
X129132142Y-133052380D01*
X129275000Y-133004761D01*
X129370238Y-132909523D01*
X129417857Y-132814285D01*
X129465476Y-132623809D01*
X129465476Y-132480952D01*
X129417857Y-132290476D01*
X129370238Y-132195238D01*
X129275000Y-132100000D01*
X129132142Y-132052380D01*
X129036904Y-132052380D01*
X128894047Y-132100000D01*
X128846428Y-132147619D01*
X128417857Y-132528571D02*
X128084523Y-132528571D01*
X127941666Y-133052380D02*
X128417857Y-133052380D01*
X128417857Y-132052380D01*
X127941666Y-132052380D01*
X126941666Y-133052380D02*
X127275000Y-132576190D01*
X127513095Y-133052380D02*
X127513095Y-132052380D01*
X127132142Y-132052380D01*
X127036904Y-132100000D01*
X126989285Y-132147619D01*
X126941666Y-132242857D01*
X126941666Y-132385714D01*
X126989285Y-132480952D01*
X127036904Y-132528571D01*
X127132142Y-132576190D01*
X127513095Y-132576190D01*
X126513095Y-133052380D02*
X126513095Y-132052380D01*
X125941666Y-133052380D01*
X125941666Y-132052380D01*
X125465476Y-132671428D02*
X124703571Y-132671428D01*
X124036904Y-132052380D02*
X123846428Y-132052380D01*
X123751190Y-132100000D01*
X123655952Y-132195238D01*
X123608333Y-132385714D01*
X123608333Y-132719047D01*
X123655952Y-132909523D01*
X123751190Y-133004761D01*
X123846428Y-133052380D01*
X124036904Y-133052380D01*
X124132142Y-133004761D01*
X124227380Y-132909523D01*
X124275000Y-132719047D01*
X124275000Y-132385714D01*
X124227380Y-132195238D01*
X124132142Y-132100000D01*
X124036904Y-132052380D01*
X123179761Y-133052380D02*
X123179761Y-132052380D01*
X123179761Y-132528571D02*
X122608333Y-132528571D01*
X122608333Y-133052380D02*
X122608333Y-132052380D01*
X121655952Y-133052380D02*
X122132142Y-133052380D01*
X122132142Y-132052380D01*
X121322619Y-132671428D02*
X120560714Y-132671428D01*
X120132142Y-133004761D02*
X119989285Y-133052380D01*
X119751190Y-133052380D01*
X119655952Y-133004761D01*
X119608333Y-132957142D01*
X119560714Y-132861904D01*
X119560714Y-132766666D01*
X119608333Y-132671428D01*
X119655952Y-132623809D01*
X119751190Y-132576190D01*
X119941666Y-132528571D01*
X120036904Y-132480952D01*
X120084523Y-132433333D01*
X120132142Y-132338095D01*
X120132142Y-132242857D01*
X120084523Y-132147619D01*
X120036904Y-132100000D01*
X119941666Y-132052380D01*
X119703571Y-132052380D01*
X119560714Y-132100000D01*
X118465476Y-132385714D02*
X118227380Y-133052380D01*
X117989285Y-132385714D01*
X117655952Y-132147619D02*
X117608333Y-132100000D01*
X117513095Y-132052380D01*
X117275000Y-132052380D01*
X117179761Y-132100000D01*
X117132142Y-132147619D01*
X117084523Y-132242857D01*
X117084523Y-132338095D01*
X117132142Y-132480952D01*
X117703571Y-133052380D01*
X117084523Y-133052380D01*
X158275000Y-131402380D02*
X158751190Y-131402380D01*
X158751190Y-130402380D01*
X157941666Y-131402380D02*
X157941666Y-130735714D01*
X157941666Y-130402380D02*
X157989285Y-130450000D01*
X157941666Y-130497619D01*
X157894047Y-130450000D01*
X157941666Y-130402380D01*
X157941666Y-130497619D01*
X157036904Y-131354761D02*
X157132142Y-131402380D01*
X157322619Y-131402380D01*
X157417857Y-131354761D01*
X157465476Y-131307142D01*
X157513095Y-131211904D01*
X157513095Y-130926190D01*
X157465476Y-130830952D01*
X157417857Y-130783333D01*
X157322619Y-130735714D01*
X157132142Y-130735714D01*
X157036904Y-130783333D01*
X156227380Y-131354761D02*
X156322619Y-131402380D01*
X156513095Y-131402380D01*
X156608333Y-131354761D01*
X156655952Y-131259523D01*
X156655952Y-130878571D01*
X156608333Y-130783333D01*
X156513095Y-130735714D01*
X156322619Y-130735714D01*
X156227380Y-130783333D01*
X156179761Y-130878571D01*
X156179761Y-130973809D01*
X156655952Y-131069047D01*
X155751190Y-130735714D02*
X155751190Y-131402380D01*
X155751190Y-130830952D02*
X155703571Y-130783333D01*
X155608333Y-130735714D01*
X155465476Y-130735714D01*
X155370238Y-130783333D01*
X155322619Y-130878571D01*
X155322619Y-131402380D01*
X154894047Y-131354761D02*
X154798809Y-131402380D01*
X154608333Y-131402380D01*
X154513095Y-131354761D01*
X154465476Y-131259523D01*
X154465476Y-131211904D01*
X154513095Y-131116666D01*
X154608333Y-131069047D01*
X154751190Y-131069047D01*
X154846428Y-131021428D01*
X154894047Y-130926190D01*
X154894047Y-130878571D01*
X154846428Y-130783333D01*
X154751190Y-130735714D01*
X154608333Y-130735714D01*
X154513095Y-130783333D01*
X153655952Y-131354761D02*
X153751190Y-131402380D01*
X153941666Y-131402380D01*
X154036904Y-131354761D01*
X154084523Y-131259523D01*
X154084523Y-130878571D01*
X154036904Y-130783333D01*
X153941666Y-130735714D01*
X153751190Y-130735714D01*
X153655952Y-130783333D01*
X153608333Y-130878571D01*
X153608333Y-130973809D01*
X154084523Y-131069047D01*
X152751190Y-131402380D02*
X152751190Y-130402380D01*
X152751190Y-131354761D02*
X152846428Y-131402380D01*
X153036904Y-131402380D01*
X153132142Y-131354761D01*
X153179761Y-131307142D01*
X153227380Y-131211904D01*
X153227380Y-130926190D01*
X153179761Y-130830952D01*
X153132142Y-130783333D01*
X153036904Y-130735714D01*
X152846428Y-130735714D01*
X152751190Y-130783333D01*
X151084523Y-130735714D02*
X151084523Y-131402380D01*
X151513095Y-130735714D02*
X151513095Y-131259523D01*
X151465476Y-131354761D01*
X151370238Y-131402380D01*
X151227380Y-131402380D01*
X151132142Y-131354761D01*
X151084523Y-131307142D01*
X150608333Y-130735714D02*
X150608333Y-131402380D01*
X150608333Y-130830952D02*
X150560714Y-130783333D01*
X150465476Y-130735714D01*
X150322619Y-130735714D01*
X150227380Y-130783333D01*
X150179761Y-130878571D01*
X150179761Y-131402380D01*
X149275000Y-131402380D02*
X149275000Y-130402380D01*
X149275000Y-131354761D02*
X149370238Y-131402380D01*
X149560714Y-131402380D01*
X149655952Y-131354761D01*
X149703571Y-131307142D01*
X149751190Y-131211904D01*
X149751190Y-130926190D01*
X149703571Y-130830952D01*
X149655952Y-130783333D01*
X149560714Y-130735714D01*
X149370238Y-130735714D01*
X149275000Y-130783333D01*
X148417857Y-131354761D02*
X148513095Y-131402380D01*
X148703571Y-131402380D01*
X148798809Y-131354761D01*
X148846428Y-131259523D01*
X148846428Y-130878571D01*
X148798809Y-130783333D01*
X148703571Y-130735714D01*
X148513095Y-130735714D01*
X148417857Y-130783333D01*
X148370238Y-130878571D01*
X148370238Y-130973809D01*
X148846428Y-131069047D01*
X147941666Y-131402380D02*
X147941666Y-130735714D01*
X147941666Y-130926190D02*
X147894047Y-130830952D01*
X147846428Y-130783333D01*
X147751190Y-130735714D01*
X147655952Y-130735714D01*
X158846428Y-132957142D02*
X158894047Y-133004761D01*
X159036904Y-133052380D01*
X159132142Y-133052380D01*
X159275000Y-133004761D01*
X159370238Y-132909523D01*
X159417857Y-132814285D01*
X159465476Y-132623809D01*
X159465476Y-132480952D01*
X159417857Y-132290476D01*
X159370238Y-132195238D01*
X159275000Y-132100000D01*
X159132142Y-132052380D01*
X159036904Y-132052380D01*
X158894047Y-132100000D01*
X158846428Y-132147619D01*
X158417857Y-132528571D02*
X158084523Y-132528571D01*
X157941666Y-133052380D02*
X158417857Y-133052380D01*
X158417857Y-132052380D01*
X157941666Y-132052380D01*
X156941666Y-133052380D02*
X157275000Y-132576190D01*
X157513095Y-133052380D02*
X157513095Y-132052380D01*
X157132142Y-132052380D01*
X157036904Y-132100000D01*
X156989285Y-132147619D01*
X156941666Y-132242857D01*
X156941666Y-132385714D01*
X156989285Y-132480952D01*
X157036904Y-132528571D01*
X157132142Y-132576190D01*
X157513095Y-132576190D01*
X156513095Y-133052380D02*
X156513095Y-132052380D01*
X155941666Y-133052380D01*
X155941666Y-132052380D01*
X155465476Y-132671428D02*
X154703571Y-132671428D01*
X154036904Y-132052380D02*
X153846428Y-132052380D01*
X153751190Y-132100000D01*
X153655952Y-132195238D01*
X153608333Y-132385714D01*
X153608333Y-132719047D01*
X153655952Y-132909523D01*
X153751190Y-133004761D01*
X153846428Y-133052380D01*
X154036904Y-133052380D01*
X154132142Y-133004761D01*
X154227380Y-132909523D01*
X154275000Y-132719047D01*
X154275000Y-132385714D01*
X154227380Y-132195238D01*
X154132142Y-132100000D01*
X154036904Y-132052380D01*
X153179761Y-133052380D02*
X153179761Y-132052380D01*
X153179761Y-132528571D02*
X152608333Y-132528571D01*
X152608333Y-133052380D02*
X152608333Y-132052380D01*
X151655952Y-133052380D02*
X152132142Y-133052380D01*
X152132142Y-132052380D01*
X151322619Y-132671428D02*
X150560714Y-132671428D01*
X150132142Y-133004761D02*
X149989285Y-133052380D01*
X149751190Y-133052380D01*
X149655952Y-133004761D01*
X149608333Y-132957142D01*
X149560714Y-132861904D01*
X149560714Y-132766666D01*
X149608333Y-132671428D01*
X149655952Y-132623809D01*
X149751190Y-132576190D01*
X149941666Y-132528571D01*
X150036904Y-132480952D01*
X150084523Y-132433333D01*
X150132142Y-132338095D01*
X150132142Y-132242857D01*
X150084523Y-132147619D01*
X150036904Y-132100000D01*
X149941666Y-132052380D01*
X149703571Y-132052380D01*
X149560714Y-132100000D01*
X148465476Y-132385714D02*
X148227380Y-133052380D01*
X147989285Y-132385714D01*
X147655952Y-132147619D02*
X147608333Y-132100000D01*
X147513095Y-132052380D01*
X147275000Y-132052380D01*
X147179761Y-132100000D01*
X147132142Y-132147619D01*
X147084523Y-132242857D01*
X147084523Y-132338095D01*
X147132142Y-132480952D01*
X147703571Y-133052380D01*
X147084523Y-133052380D01*
X98275000Y-131402380D02*
X98751190Y-131402380D01*
X98751190Y-130402380D01*
X97941666Y-131402380D02*
X97941666Y-130735714D01*
X97941666Y-130402380D02*
X97989285Y-130450000D01*
X97941666Y-130497619D01*
X97894047Y-130450000D01*
X97941666Y-130402380D01*
X97941666Y-130497619D01*
X97036904Y-131354761D02*
X97132142Y-131402380D01*
X97322619Y-131402380D01*
X97417857Y-131354761D01*
X97465476Y-131307142D01*
X97513095Y-131211904D01*
X97513095Y-130926190D01*
X97465476Y-130830952D01*
X97417857Y-130783333D01*
X97322619Y-130735714D01*
X97132142Y-130735714D01*
X97036904Y-130783333D01*
X96227380Y-131354761D02*
X96322619Y-131402380D01*
X96513095Y-131402380D01*
X96608333Y-131354761D01*
X96655952Y-131259523D01*
X96655952Y-130878571D01*
X96608333Y-130783333D01*
X96513095Y-130735714D01*
X96322619Y-130735714D01*
X96227380Y-130783333D01*
X96179761Y-130878571D01*
X96179761Y-130973809D01*
X96655952Y-131069047D01*
X95751190Y-130735714D02*
X95751190Y-131402380D01*
X95751190Y-130830952D02*
X95703571Y-130783333D01*
X95608333Y-130735714D01*
X95465476Y-130735714D01*
X95370238Y-130783333D01*
X95322619Y-130878571D01*
X95322619Y-131402380D01*
X94894047Y-131354761D02*
X94798809Y-131402380D01*
X94608333Y-131402380D01*
X94513095Y-131354761D01*
X94465476Y-131259523D01*
X94465476Y-131211904D01*
X94513095Y-131116666D01*
X94608333Y-131069047D01*
X94751190Y-131069047D01*
X94846428Y-131021428D01*
X94894047Y-130926190D01*
X94894047Y-130878571D01*
X94846428Y-130783333D01*
X94751190Y-130735714D01*
X94608333Y-130735714D01*
X94513095Y-130783333D01*
X93655952Y-131354761D02*
X93751190Y-131402380D01*
X93941666Y-131402380D01*
X94036904Y-131354761D01*
X94084523Y-131259523D01*
X94084523Y-130878571D01*
X94036904Y-130783333D01*
X93941666Y-130735714D01*
X93751190Y-130735714D01*
X93655952Y-130783333D01*
X93608333Y-130878571D01*
X93608333Y-130973809D01*
X94084523Y-131069047D01*
X92751190Y-131402380D02*
X92751190Y-130402380D01*
X92751190Y-131354761D02*
X92846428Y-131402380D01*
X93036904Y-131402380D01*
X93132142Y-131354761D01*
X93179761Y-131307142D01*
X93227380Y-131211904D01*
X93227380Y-130926190D01*
X93179761Y-130830952D01*
X93132142Y-130783333D01*
X93036904Y-130735714D01*
X92846428Y-130735714D01*
X92751190Y-130783333D01*
X91084523Y-130735714D02*
X91084523Y-131402380D01*
X91513095Y-130735714D02*
X91513095Y-131259523D01*
X91465476Y-131354761D01*
X91370238Y-131402380D01*
X91227380Y-131402380D01*
X91132142Y-131354761D01*
X91084523Y-131307142D01*
X90608333Y-130735714D02*
X90608333Y-131402380D01*
X90608333Y-130830952D02*
X90560714Y-130783333D01*
X90465476Y-130735714D01*
X90322619Y-130735714D01*
X90227380Y-130783333D01*
X90179761Y-130878571D01*
X90179761Y-131402380D01*
X89275000Y-131402380D02*
X89275000Y-130402380D01*
X89275000Y-131354761D02*
X89370238Y-131402380D01*
X89560714Y-131402380D01*
X89655952Y-131354761D01*
X89703571Y-131307142D01*
X89751190Y-131211904D01*
X89751190Y-130926190D01*
X89703571Y-130830952D01*
X89655952Y-130783333D01*
X89560714Y-130735714D01*
X89370238Y-130735714D01*
X89275000Y-130783333D01*
X88417857Y-131354761D02*
X88513095Y-131402380D01*
X88703571Y-131402380D01*
X88798809Y-131354761D01*
X88846428Y-131259523D01*
X88846428Y-130878571D01*
X88798809Y-130783333D01*
X88703571Y-130735714D01*
X88513095Y-130735714D01*
X88417857Y-130783333D01*
X88370238Y-130878571D01*
X88370238Y-130973809D01*
X88846428Y-131069047D01*
X87941666Y-131402380D02*
X87941666Y-130735714D01*
X87941666Y-130926190D02*
X87894047Y-130830952D01*
X87846428Y-130783333D01*
X87751190Y-130735714D01*
X87655952Y-130735714D01*
X98846428Y-132957142D02*
X98894047Y-133004761D01*
X99036904Y-133052380D01*
X99132142Y-133052380D01*
X99275000Y-133004761D01*
X99370238Y-132909523D01*
X99417857Y-132814285D01*
X99465476Y-132623809D01*
X99465476Y-132480952D01*
X99417857Y-132290476D01*
X99370238Y-132195238D01*
X99275000Y-132100000D01*
X99132142Y-132052380D01*
X99036904Y-132052380D01*
X98894047Y-132100000D01*
X98846428Y-132147619D01*
X98417857Y-132528571D02*
X98084523Y-132528571D01*
X97941666Y-133052380D02*
X98417857Y-133052380D01*
X98417857Y-132052380D01*
X97941666Y-132052380D01*
X96941666Y-133052380D02*
X97275000Y-132576190D01*
X97513095Y-133052380D02*
X97513095Y-132052380D01*
X97132142Y-132052380D01*
X97036904Y-132100000D01*
X96989285Y-132147619D01*
X96941666Y-132242857D01*
X96941666Y-132385714D01*
X96989285Y-132480952D01*
X97036904Y-132528571D01*
X97132142Y-132576190D01*
X97513095Y-132576190D01*
X96513095Y-133052380D02*
X96513095Y-132052380D01*
X95941666Y-133052380D01*
X95941666Y-132052380D01*
X95465476Y-132671428D02*
X94703571Y-132671428D01*
X94036904Y-132052380D02*
X93846428Y-132052380D01*
X93751190Y-132100000D01*
X93655952Y-132195238D01*
X93608333Y-132385714D01*
X93608333Y-132719047D01*
X93655952Y-132909523D01*
X93751190Y-133004761D01*
X93846428Y-133052380D01*
X94036904Y-133052380D01*
X94132142Y-133004761D01*
X94227380Y-132909523D01*
X94275000Y-132719047D01*
X94275000Y-132385714D01*
X94227380Y-132195238D01*
X94132142Y-132100000D01*
X94036904Y-132052380D01*
X93179761Y-133052380D02*
X93179761Y-132052380D01*
X93179761Y-132528571D02*
X92608333Y-132528571D01*
X92608333Y-133052380D02*
X92608333Y-132052380D01*
X91655952Y-133052380D02*
X92132142Y-133052380D01*
X92132142Y-132052380D01*
X91322619Y-132671428D02*
X90560714Y-132671428D01*
X90132142Y-133004761D02*
X89989285Y-133052380D01*
X89751190Y-133052380D01*
X89655952Y-133004761D01*
X89608333Y-132957142D01*
X89560714Y-132861904D01*
X89560714Y-132766666D01*
X89608333Y-132671428D01*
X89655952Y-132623809D01*
X89751190Y-132576190D01*
X89941666Y-132528571D01*
X90036904Y-132480952D01*
X90084523Y-132433333D01*
X90132142Y-132338095D01*
X90132142Y-132242857D01*
X90084523Y-132147619D01*
X90036904Y-132100000D01*
X89941666Y-132052380D01*
X89703571Y-132052380D01*
X89560714Y-132100000D01*
X88465476Y-132385714D02*
X88227380Y-133052380D01*
X87989285Y-132385714D01*
X87655952Y-132147619D02*
X87608333Y-132100000D01*
X87513095Y-132052380D01*
X87275000Y-132052380D01*
X87179761Y-132100000D01*
X87132142Y-132147619D01*
X87084523Y-132242857D01*
X87084523Y-132338095D01*
X87132142Y-132480952D01*
X87703571Y-133052380D01*
X87084523Y-133052380D01*
X158275000Y-140902380D02*
X158751190Y-140902380D01*
X158751190Y-139902380D01*
X157941666Y-140902380D02*
X157941666Y-140235714D01*
X157941666Y-139902380D02*
X157989285Y-139950000D01*
X157941666Y-139997619D01*
X157894047Y-139950000D01*
X157941666Y-139902380D01*
X157941666Y-139997619D01*
X157036904Y-140854761D02*
X157132142Y-140902380D01*
X157322619Y-140902380D01*
X157417857Y-140854761D01*
X157465476Y-140807142D01*
X157513095Y-140711904D01*
X157513095Y-140426190D01*
X157465476Y-140330952D01*
X157417857Y-140283333D01*
X157322619Y-140235714D01*
X157132142Y-140235714D01*
X157036904Y-140283333D01*
X156227380Y-140854761D02*
X156322619Y-140902380D01*
X156513095Y-140902380D01*
X156608333Y-140854761D01*
X156655952Y-140759523D01*
X156655952Y-140378571D01*
X156608333Y-140283333D01*
X156513095Y-140235714D01*
X156322619Y-140235714D01*
X156227380Y-140283333D01*
X156179761Y-140378571D01*
X156179761Y-140473809D01*
X156655952Y-140569047D01*
X155751190Y-140235714D02*
X155751190Y-140902380D01*
X155751190Y-140330952D02*
X155703571Y-140283333D01*
X155608333Y-140235714D01*
X155465476Y-140235714D01*
X155370238Y-140283333D01*
X155322619Y-140378571D01*
X155322619Y-140902380D01*
X154894047Y-140854761D02*
X154798809Y-140902380D01*
X154608333Y-140902380D01*
X154513095Y-140854761D01*
X154465476Y-140759523D01*
X154465476Y-140711904D01*
X154513095Y-140616666D01*
X154608333Y-140569047D01*
X154751190Y-140569047D01*
X154846428Y-140521428D01*
X154894047Y-140426190D01*
X154894047Y-140378571D01*
X154846428Y-140283333D01*
X154751190Y-140235714D01*
X154608333Y-140235714D01*
X154513095Y-140283333D01*
X153655952Y-140854761D02*
X153751190Y-140902380D01*
X153941666Y-140902380D01*
X154036904Y-140854761D01*
X154084523Y-140759523D01*
X154084523Y-140378571D01*
X154036904Y-140283333D01*
X153941666Y-140235714D01*
X153751190Y-140235714D01*
X153655952Y-140283333D01*
X153608333Y-140378571D01*
X153608333Y-140473809D01*
X154084523Y-140569047D01*
X152751190Y-140902380D02*
X152751190Y-139902380D01*
X152751190Y-140854761D02*
X152846428Y-140902380D01*
X153036904Y-140902380D01*
X153132142Y-140854761D01*
X153179761Y-140807142D01*
X153227380Y-140711904D01*
X153227380Y-140426190D01*
X153179761Y-140330952D01*
X153132142Y-140283333D01*
X153036904Y-140235714D01*
X152846428Y-140235714D01*
X152751190Y-140283333D01*
X151084523Y-140235714D02*
X151084523Y-140902380D01*
X151513095Y-140235714D02*
X151513095Y-140759523D01*
X151465476Y-140854761D01*
X151370238Y-140902380D01*
X151227380Y-140902380D01*
X151132142Y-140854761D01*
X151084523Y-140807142D01*
X150608333Y-140235714D02*
X150608333Y-140902380D01*
X150608333Y-140330952D02*
X150560714Y-140283333D01*
X150465476Y-140235714D01*
X150322619Y-140235714D01*
X150227380Y-140283333D01*
X150179761Y-140378571D01*
X150179761Y-140902380D01*
X149275000Y-140902380D02*
X149275000Y-139902380D01*
X149275000Y-140854761D02*
X149370238Y-140902380D01*
X149560714Y-140902380D01*
X149655952Y-140854761D01*
X149703571Y-140807142D01*
X149751190Y-140711904D01*
X149751190Y-140426190D01*
X149703571Y-140330952D01*
X149655952Y-140283333D01*
X149560714Y-140235714D01*
X149370238Y-140235714D01*
X149275000Y-140283333D01*
X148417857Y-140854761D02*
X148513095Y-140902380D01*
X148703571Y-140902380D01*
X148798809Y-140854761D01*
X148846428Y-140759523D01*
X148846428Y-140378571D01*
X148798809Y-140283333D01*
X148703571Y-140235714D01*
X148513095Y-140235714D01*
X148417857Y-140283333D01*
X148370238Y-140378571D01*
X148370238Y-140473809D01*
X148846428Y-140569047D01*
X147941666Y-140902380D02*
X147941666Y-140235714D01*
X147941666Y-140426190D02*
X147894047Y-140330952D01*
X147846428Y-140283333D01*
X147751190Y-140235714D01*
X147655952Y-140235714D01*
X158846428Y-142457142D02*
X158894047Y-142504761D01*
X159036904Y-142552380D01*
X159132142Y-142552380D01*
X159275000Y-142504761D01*
X159370238Y-142409523D01*
X159417857Y-142314285D01*
X159465476Y-142123809D01*
X159465476Y-141980952D01*
X159417857Y-141790476D01*
X159370238Y-141695238D01*
X159275000Y-141600000D01*
X159132142Y-141552380D01*
X159036904Y-141552380D01*
X158894047Y-141600000D01*
X158846428Y-141647619D01*
X158417857Y-142028571D02*
X158084523Y-142028571D01*
X157941666Y-142552380D02*
X158417857Y-142552380D01*
X158417857Y-141552380D01*
X157941666Y-141552380D01*
X156941666Y-142552380D02*
X157275000Y-142076190D01*
X157513095Y-142552380D02*
X157513095Y-141552380D01*
X157132142Y-141552380D01*
X157036904Y-141600000D01*
X156989285Y-141647619D01*
X156941666Y-141742857D01*
X156941666Y-141885714D01*
X156989285Y-141980952D01*
X157036904Y-142028571D01*
X157132142Y-142076190D01*
X157513095Y-142076190D01*
X156513095Y-142552380D02*
X156513095Y-141552380D01*
X155941666Y-142552380D01*
X155941666Y-141552380D01*
X155465476Y-142171428D02*
X154703571Y-142171428D01*
X154036904Y-141552380D02*
X153846428Y-141552380D01*
X153751190Y-141600000D01*
X153655952Y-141695238D01*
X153608333Y-141885714D01*
X153608333Y-142219047D01*
X153655952Y-142409523D01*
X153751190Y-142504761D01*
X153846428Y-142552380D01*
X154036904Y-142552380D01*
X154132142Y-142504761D01*
X154227380Y-142409523D01*
X154275000Y-142219047D01*
X154275000Y-141885714D01*
X154227380Y-141695238D01*
X154132142Y-141600000D01*
X154036904Y-141552380D01*
X153179761Y-142552380D02*
X153179761Y-141552380D01*
X153179761Y-142028571D02*
X152608333Y-142028571D01*
X152608333Y-142552380D02*
X152608333Y-141552380D01*
X151655952Y-142552380D02*
X152132142Y-142552380D01*
X152132142Y-141552380D01*
X151322619Y-142171428D02*
X150560714Y-142171428D01*
X150132142Y-142504761D02*
X149989285Y-142552380D01*
X149751190Y-142552380D01*
X149655952Y-142504761D01*
X149608333Y-142457142D01*
X149560714Y-142361904D01*
X149560714Y-142266666D01*
X149608333Y-142171428D01*
X149655952Y-142123809D01*
X149751190Y-142076190D01*
X149941666Y-142028571D01*
X150036904Y-141980952D01*
X150084523Y-141933333D01*
X150132142Y-141838095D01*
X150132142Y-141742857D01*
X150084523Y-141647619D01*
X150036904Y-141600000D01*
X149941666Y-141552380D01*
X149703571Y-141552380D01*
X149560714Y-141600000D01*
X148465476Y-141885714D02*
X148227380Y-142552380D01*
X147989285Y-141885714D01*
X147655952Y-141647619D02*
X147608333Y-141600000D01*
X147513095Y-141552380D01*
X147275000Y-141552380D01*
X147179761Y-141600000D01*
X147132142Y-141647619D01*
X147084523Y-141742857D01*
X147084523Y-141838095D01*
X147132142Y-141980952D01*
X147703571Y-142552380D01*
X147084523Y-142552380D01*
X128275000Y-140902380D02*
X128751190Y-140902380D01*
X128751190Y-139902380D01*
X127941666Y-140902380D02*
X127941666Y-140235714D01*
X127941666Y-139902380D02*
X127989285Y-139950000D01*
X127941666Y-139997619D01*
X127894047Y-139950000D01*
X127941666Y-139902380D01*
X127941666Y-139997619D01*
X127036904Y-140854761D02*
X127132142Y-140902380D01*
X127322619Y-140902380D01*
X127417857Y-140854761D01*
X127465476Y-140807142D01*
X127513095Y-140711904D01*
X127513095Y-140426190D01*
X127465476Y-140330952D01*
X127417857Y-140283333D01*
X127322619Y-140235714D01*
X127132142Y-140235714D01*
X127036904Y-140283333D01*
X126227380Y-140854761D02*
X126322619Y-140902380D01*
X126513095Y-140902380D01*
X126608333Y-140854761D01*
X126655952Y-140759523D01*
X126655952Y-140378571D01*
X126608333Y-140283333D01*
X126513095Y-140235714D01*
X126322619Y-140235714D01*
X126227380Y-140283333D01*
X126179761Y-140378571D01*
X126179761Y-140473809D01*
X126655952Y-140569047D01*
X125751190Y-140235714D02*
X125751190Y-140902380D01*
X125751190Y-140330952D02*
X125703571Y-140283333D01*
X125608333Y-140235714D01*
X125465476Y-140235714D01*
X125370238Y-140283333D01*
X125322619Y-140378571D01*
X125322619Y-140902380D01*
X124894047Y-140854761D02*
X124798809Y-140902380D01*
X124608333Y-140902380D01*
X124513095Y-140854761D01*
X124465476Y-140759523D01*
X124465476Y-140711904D01*
X124513095Y-140616666D01*
X124608333Y-140569047D01*
X124751190Y-140569047D01*
X124846428Y-140521428D01*
X124894047Y-140426190D01*
X124894047Y-140378571D01*
X124846428Y-140283333D01*
X124751190Y-140235714D01*
X124608333Y-140235714D01*
X124513095Y-140283333D01*
X123655952Y-140854761D02*
X123751190Y-140902380D01*
X123941666Y-140902380D01*
X124036904Y-140854761D01*
X124084523Y-140759523D01*
X124084523Y-140378571D01*
X124036904Y-140283333D01*
X123941666Y-140235714D01*
X123751190Y-140235714D01*
X123655952Y-140283333D01*
X123608333Y-140378571D01*
X123608333Y-140473809D01*
X124084523Y-140569047D01*
X122751190Y-140902380D02*
X122751190Y-139902380D01*
X122751190Y-140854761D02*
X122846428Y-140902380D01*
X123036904Y-140902380D01*
X123132142Y-140854761D01*
X123179761Y-140807142D01*
X123227380Y-140711904D01*
X123227380Y-140426190D01*
X123179761Y-140330952D01*
X123132142Y-140283333D01*
X123036904Y-140235714D01*
X122846428Y-140235714D01*
X122751190Y-140283333D01*
X121084523Y-140235714D02*
X121084523Y-140902380D01*
X121513095Y-140235714D02*
X121513095Y-140759523D01*
X121465476Y-140854761D01*
X121370238Y-140902380D01*
X121227380Y-140902380D01*
X121132142Y-140854761D01*
X121084523Y-140807142D01*
X120608333Y-140235714D02*
X120608333Y-140902380D01*
X120608333Y-140330952D02*
X120560714Y-140283333D01*
X120465476Y-140235714D01*
X120322619Y-140235714D01*
X120227380Y-140283333D01*
X120179761Y-140378571D01*
X120179761Y-140902380D01*
X119275000Y-140902380D02*
X119275000Y-139902380D01*
X119275000Y-140854761D02*
X119370238Y-140902380D01*
X119560714Y-140902380D01*
X119655952Y-140854761D01*
X119703571Y-140807142D01*
X119751190Y-140711904D01*
X119751190Y-140426190D01*
X119703571Y-140330952D01*
X119655952Y-140283333D01*
X119560714Y-140235714D01*
X119370238Y-140235714D01*
X119275000Y-140283333D01*
X118417857Y-140854761D02*
X118513095Y-140902380D01*
X118703571Y-140902380D01*
X118798809Y-140854761D01*
X118846428Y-140759523D01*
X118846428Y-140378571D01*
X118798809Y-140283333D01*
X118703571Y-140235714D01*
X118513095Y-140235714D01*
X118417857Y-140283333D01*
X118370238Y-140378571D01*
X118370238Y-140473809D01*
X118846428Y-140569047D01*
X117941666Y-140902380D02*
X117941666Y-140235714D01*
X117941666Y-140426190D02*
X117894047Y-140330952D01*
X117846428Y-140283333D01*
X117751190Y-140235714D01*
X117655952Y-140235714D01*
X128846428Y-142457142D02*
X128894047Y-142504761D01*
X129036904Y-142552380D01*
X129132142Y-142552380D01*
X129275000Y-142504761D01*
X129370238Y-142409523D01*
X129417857Y-142314285D01*
X129465476Y-142123809D01*
X129465476Y-141980952D01*
X129417857Y-141790476D01*
X129370238Y-141695238D01*
X129275000Y-141600000D01*
X129132142Y-141552380D01*
X129036904Y-141552380D01*
X128894047Y-141600000D01*
X128846428Y-141647619D01*
X128417857Y-142028571D02*
X128084523Y-142028571D01*
X127941666Y-142552380D02*
X128417857Y-142552380D01*
X128417857Y-141552380D01*
X127941666Y-141552380D01*
X126941666Y-142552380D02*
X127275000Y-142076190D01*
X127513095Y-142552380D02*
X127513095Y-141552380D01*
X127132142Y-141552380D01*
X127036904Y-141600000D01*
X126989285Y-141647619D01*
X126941666Y-141742857D01*
X126941666Y-141885714D01*
X126989285Y-141980952D01*
X127036904Y-142028571D01*
X127132142Y-142076190D01*
X127513095Y-142076190D01*
X126513095Y-142552380D02*
X126513095Y-141552380D01*
X125941666Y-142552380D01*
X125941666Y-141552380D01*
X125465476Y-142171428D02*
X124703571Y-142171428D01*
X124036904Y-141552380D02*
X123846428Y-141552380D01*
X123751190Y-141600000D01*
X123655952Y-141695238D01*
X123608333Y-141885714D01*
X123608333Y-142219047D01*
X123655952Y-142409523D01*
X123751190Y-142504761D01*
X123846428Y-142552380D01*
X124036904Y-142552380D01*
X124132142Y-142504761D01*
X124227380Y-142409523D01*
X124275000Y-142219047D01*
X124275000Y-141885714D01*
X124227380Y-141695238D01*
X124132142Y-141600000D01*
X124036904Y-141552380D01*
X123179761Y-142552380D02*
X123179761Y-141552380D01*
X123179761Y-142028571D02*
X122608333Y-142028571D01*
X122608333Y-142552380D02*
X122608333Y-141552380D01*
X121655952Y-142552380D02*
X122132142Y-142552380D01*
X122132142Y-141552380D01*
X121322619Y-142171428D02*
X120560714Y-142171428D01*
X120132142Y-142504761D02*
X119989285Y-142552380D01*
X119751190Y-142552380D01*
X119655952Y-142504761D01*
X119608333Y-142457142D01*
X119560714Y-142361904D01*
X119560714Y-142266666D01*
X119608333Y-142171428D01*
X119655952Y-142123809D01*
X119751190Y-142076190D01*
X119941666Y-142028571D01*
X120036904Y-141980952D01*
X120084523Y-141933333D01*
X120132142Y-141838095D01*
X120132142Y-141742857D01*
X120084523Y-141647619D01*
X120036904Y-141600000D01*
X119941666Y-141552380D01*
X119703571Y-141552380D01*
X119560714Y-141600000D01*
X118465476Y-141885714D02*
X118227380Y-142552380D01*
X117989285Y-141885714D01*
X117655952Y-141647619D02*
X117608333Y-141600000D01*
X117513095Y-141552380D01*
X117275000Y-141552380D01*
X117179761Y-141600000D01*
X117132142Y-141647619D01*
X117084523Y-141742857D01*
X117084523Y-141838095D01*
X117132142Y-141980952D01*
X117703571Y-142552380D01*
X117084523Y-142552380D01*
X98275000Y-140902380D02*
X98751190Y-140902380D01*
X98751190Y-139902380D01*
X97941666Y-140902380D02*
X97941666Y-140235714D01*
X97941666Y-139902380D02*
X97989285Y-139950000D01*
X97941666Y-139997619D01*
X97894047Y-139950000D01*
X97941666Y-139902380D01*
X97941666Y-139997619D01*
X97036904Y-140854761D02*
X97132142Y-140902380D01*
X97322619Y-140902380D01*
X97417857Y-140854761D01*
X97465476Y-140807142D01*
X97513095Y-140711904D01*
X97513095Y-140426190D01*
X97465476Y-140330952D01*
X97417857Y-140283333D01*
X97322619Y-140235714D01*
X97132142Y-140235714D01*
X97036904Y-140283333D01*
X96227380Y-140854761D02*
X96322619Y-140902380D01*
X96513095Y-140902380D01*
X96608333Y-140854761D01*
X96655952Y-140759523D01*
X96655952Y-140378571D01*
X96608333Y-140283333D01*
X96513095Y-140235714D01*
X96322619Y-140235714D01*
X96227380Y-140283333D01*
X96179761Y-140378571D01*
X96179761Y-140473809D01*
X96655952Y-140569047D01*
X95751190Y-140235714D02*
X95751190Y-140902380D01*
X95751190Y-140330952D02*
X95703571Y-140283333D01*
X95608333Y-140235714D01*
X95465476Y-140235714D01*
X95370238Y-140283333D01*
X95322619Y-140378571D01*
X95322619Y-140902380D01*
X94894047Y-140854761D02*
X94798809Y-140902380D01*
X94608333Y-140902380D01*
X94513095Y-140854761D01*
X94465476Y-140759523D01*
X94465476Y-140711904D01*
X94513095Y-140616666D01*
X94608333Y-140569047D01*
X94751190Y-140569047D01*
X94846428Y-140521428D01*
X94894047Y-140426190D01*
X94894047Y-140378571D01*
X94846428Y-140283333D01*
X94751190Y-140235714D01*
X94608333Y-140235714D01*
X94513095Y-140283333D01*
X93655952Y-140854761D02*
X93751190Y-140902380D01*
X93941666Y-140902380D01*
X94036904Y-140854761D01*
X94084523Y-140759523D01*
X94084523Y-140378571D01*
X94036904Y-140283333D01*
X93941666Y-140235714D01*
X93751190Y-140235714D01*
X93655952Y-140283333D01*
X93608333Y-140378571D01*
X93608333Y-140473809D01*
X94084523Y-140569047D01*
X92751190Y-140902380D02*
X92751190Y-139902380D01*
X92751190Y-140854761D02*
X92846428Y-140902380D01*
X93036904Y-140902380D01*
X93132142Y-140854761D01*
X93179761Y-140807142D01*
X93227380Y-140711904D01*
X93227380Y-140426190D01*
X93179761Y-140330952D01*
X93132142Y-140283333D01*
X93036904Y-140235714D01*
X92846428Y-140235714D01*
X92751190Y-140283333D01*
X91084523Y-140235714D02*
X91084523Y-140902380D01*
X91513095Y-140235714D02*
X91513095Y-140759523D01*
X91465476Y-140854761D01*
X91370238Y-140902380D01*
X91227380Y-140902380D01*
X91132142Y-140854761D01*
X91084523Y-140807142D01*
X90608333Y-140235714D02*
X90608333Y-140902380D01*
X90608333Y-140330952D02*
X90560714Y-140283333D01*
X90465476Y-140235714D01*
X90322619Y-140235714D01*
X90227380Y-140283333D01*
X90179761Y-140378571D01*
X90179761Y-140902380D01*
X89275000Y-140902380D02*
X89275000Y-139902380D01*
X89275000Y-140854761D02*
X89370238Y-140902380D01*
X89560714Y-140902380D01*
X89655952Y-140854761D01*
X89703571Y-140807142D01*
X89751190Y-140711904D01*
X89751190Y-140426190D01*
X89703571Y-140330952D01*
X89655952Y-140283333D01*
X89560714Y-140235714D01*
X89370238Y-140235714D01*
X89275000Y-140283333D01*
X88417857Y-140854761D02*
X88513095Y-140902380D01*
X88703571Y-140902380D01*
X88798809Y-140854761D01*
X88846428Y-140759523D01*
X88846428Y-140378571D01*
X88798809Y-140283333D01*
X88703571Y-140235714D01*
X88513095Y-140235714D01*
X88417857Y-140283333D01*
X88370238Y-140378571D01*
X88370238Y-140473809D01*
X88846428Y-140569047D01*
X87941666Y-140902380D02*
X87941666Y-140235714D01*
X87941666Y-140426190D02*
X87894047Y-140330952D01*
X87846428Y-140283333D01*
X87751190Y-140235714D01*
X87655952Y-140235714D01*
X98846428Y-142457142D02*
X98894047Y-142504761D01*
X99036904Y-142552380D01*
X99132142Y-142552380D01*
X99275000Y-142504761D01*
X99370238Y-142409523D01*
X99417857Y-142314285D01*
X99465476Y-142123809D01*
X99465476Y-141980952D01*
X99417857Y-141790476D01*
X99370238Y-141695238D01*
X99275000Y-141600000D01*
X99132142Y-141552380D01*
X99036904Y-141552380D01*
X98894047Y-141600000D01*
X98846428Y-141647619D01*
X98417857Y-142028571D02*
X98084523Y-142028571D01*
X97941666Y-142552380D02*
X98417857Y-142552380D01*
X98417857Y-141552380D01*
X97941666Y-141552380D01*
X96941666Y-142552380D02*
X97275000Y-142076190D01*
X97513095Y-142552380D02*
X97513095Y-141552380D01*
X97132142Y-141552380D01*
X97036904Y-141600000D01*
X96989285Y-141647619D01*
X96941666Y-141742857D01*
X96941666Y-141885714D01*
X96989285Y-141980952D01*
X97036904Y-142028571D01*
X97132142Y-142076190D01*
X97513095Y-142076190D01*
X96513095Y-142552380D02*
X96513095Y-141552380D01*
X95941666Y-142552380D01*
X95941666Y-141552380D01*
X95465476Y-142171428D02*
X94703571Y-142171428D01*
X94036904Y-141552380D02*
X93846428Y-141552380D01*
X93751190Y-141600000D01*
X93655952Y-141695238D01*
X93608333Y-141885714D01*
X93608333Y-142219047D01*
X93655952Y-142409523D01*
X93751190Y-142504761D01*
X93846428Y-142552380D01*
X94036904Y-142552380D01*
X94132142Y-142504761D01*
X94227380Y-142409523D01*
X94275000Y-142219047D01*
X94275000Y-141885714D01*
X94227380Y-141695238D01*
X94132142Y-141600000D01*
X94036904Y-141552380D01*
X93179761Y-142552380D02*
X93179761Y-141552380D01*
X93179761Y-142028571D02*
X92608333Y-142028571D01*
X92608333Y-142552380D02*
X92608333Y-141552380D01*
X91655952Y-142552380D02*
X92132142Y-142552380D01*
X92132142Y-141552380D01*
X91322619Y-142171428D02*
X90560714Y-142171428D01*
X90132142Y-142504761D02*
X89989285Y-142552380D01*
X89751190Y-142552380D01*
X89655952Y-142504761D01*
X89608333Y-142457142D01*
X89560714Y-142361904D01*
X89560714Y-142266666D01*
X89608333Y-142171428D01*
X89655952Y-142123809D01*
X89751190Y-142076190D01*
X89941666Y-142028571D01*
X90036904Y-141980952D01*
X90084523Y-141933333D01*
X90132142Y-141838095D01*
X90132142Y-141742857D01*
X90084523Y-141647619D01*
X90036904Y-141600000D01*
X89941666Y-141552380D01*
X89703571Y-141552380D01*
X89560714Y-141600000D01*
X88465476Y-141885714D02*
X88227380Y-142552380D01*
X87989285Y-141885714D01*
X87655952Y-141647619D02*
X87608333Y-141600000D01*
X87513095Y-141552380D01*
X87275000Y-141552380D01*
X87179761Y-141600000D01*
X87132142Y-141647619D01*
X87084523Y-141742857D01*
X87084523Y-141838095D01*
X87132142Y-141980952D01*
X87703571Y-142552380D01*
X87084523Y-142552380D01*
X174658333Y-57027380D02*
X174658333Y-57741666D01*
X174705952Y-57884523D01*
X174801190Y-57979761D01*
X174944047Y-58027380D01*
X175039285Y-58027380D01*
X173658333Y-58027380D02*
X174229761Y-58027380D01*
X173944047Y-58027380D02*
X173944047Y-57027380D01*
X174039285Y-57170238D01*
X174134523Y-57265476D01*
X174229761Y-57313095D01*
X114658333Y-66527380D02*
X114658333Y-67241666D01*
X114705952Y-67384523D01*
X114801190Y-67479761D01*
X114944047Y-67527380D01*
X115039285Y-67527380D01*
X113658333Y-67527380D02*
X114229761Y-67527380D01*
X113944047Y-67527380D02*
X113944047Y-66527380D01*
X114039285Y-66670238D01*
X114134523Y-66765476D01*
X114229761Y-66813095D01*
X114658333Y-57027380D02*
X114658333Y-57741666D01*
X114705952Y-57884523D01*
X114801190Y-57979761D01*
X114944047Y-58027380D01*
X115039285Y-58027380D01*
X113658333Y-58027380D02*
X114229761Y-58027380D01*
X113944047Y-58027380D02*
X113944047Y-57027380D01*
X114039285Y-57170238D01*
X114134523Y-57265476D01*
X114229761Y-57313095D01*
X174658333Y-66527380D02*
X174658333Y-67241666D01*
X174705952Y-67384523D01*
X174801190Y-67479761D01*
X174944047Y-67527380D01*
X175039285Y-67527380D01*
X173658333Y-67527380D02*
X174229761Y-67527380D01*
X173944047Y-67527380D02*
X173944047Y-66527380D01*
X174039285Y-66670238D01*
X174134523Y-66765476D01*
X174229761Y-66813095D01*
X144658333Y-66527380D02*
X144658333Y-67241666D01*
X144705952Y-67384523D01*
X144801190Y-67479761D01*
X144944047Y-67527380D01*
X145039285Y-67527380D01*
X143658333Y-67527380D02*
X144229761Y-67527380D01*
X143944047Y-67527380D02*
X143944047Y-66527380D01*
X144039285Y-66670238D01*
X144134523Y-66765476D01*
X144229761Y-66813095D01*
X144658333Y-57027380D02*
X144658333Y-57741666D01*
X144705952Y-57884523D01*
X144801190Y-57979761D01*
X144944047Y-58027380D01*
X145039285Y-58027380D01*
X143658333Y-58027380D02*
X144229761Y-58027380D01*
X143944047Y-58027380D02*
X143944047Y-57027380D01*
X144039285Y-57170238D01*
X144134523Y-57265476D01*
X144229761Y-57313095D01*
X174658333Y-76027380D02*
X174658333Y-76741666D01*
X174705952Y-76884523D01*
X174801190Y-76979761D01*
X174944047Y-77027380D01*
X175039285Y-77027380D01*
X173658333Y-77027380D02*
X174229761Y-77027380D01*
X173944047Y-77027380D02*
X173944047Y-76027380D01*
X174039285Y-76170238D01*
X174134523Y-76265476D01*
X174229761Y-76313095D01*
X114658333Y-85527380D02*
X114658333Y-86241666D01*
X114705952Y-86384523D01*
X114801190Y-86479761D01*
X114944047Y-86527380D01*
X115039285Y-86527380D01*
X113658333Y-86527380D02*
X114229761Y-86527380D01*
X113944047Y-86527380D02*
X113944047Y-85527380D01*
X114039285Y-85670238D01*
X114134523Y-85765476D01*
X114229761Y-85813095D01*
X114658333Y-76027380D02*
X114658333Y-76741666D01*
X114705952Y-76884523D01*
X114801190Y-76979761D01*
X114944047Y-77027380D01*
X115039285Y-77027380D01*
X113658333Y-77027380D02*
X114229761Y-77027380D01*
X113944047Y-77027380D02*
X113944047Y-76027380D01*
X114039285Y-76170238D01*
X114134523Y-76265476D01*
X114229761Y-76313095D01*
X174658333Y-85527380D02*
X174658333Y-86241666D01*
X174705952Y-86384523D01*
X174801190Y-86479761D01*
X174944047Y-86527380D01*
X175039285Y-86527380D01*
X173658333Y-86527380D02*
X174229761Y-86527380D01*
X173944047Y-86527380D02*
X173944047Y-85527380D01*
X174039285Y-85670238D01*
X174134523Y-85765476D01*
X174229761Y-85813095D01*
X144658333Y-76027380D02*
X144658333Y-76741666D01*
X144705952Y-76884523D01*
X144801190Y-76979761D01*
X144944047Y-77027380D01*
X145039285Y-77027380D01*
X143658333Y-77027380D02*
X144229761Y-77027380D01*
X143944047Y-77027380D02*
X143944047Y-76027380D01*
X144039285Y-76170238D01*
X144134523Y-76265476D01*
X144229761Y-76313095D01*
X144658333Y-85527380D02*
X144658333Y-86241666D01*
X144705952Y-86384523D01*
X144801190Y-86479761D01*
X144944047Y-86527380D01*
X145039285Y-86527380D01*
X143658333Y-86527380D02*
X144229761Y-86527380D01*
X143944047Y-86527380D02*
X143944047Y-85527380D01*
X144039285Y-85670238D01*
X144134523Y-85765476D01*
X144229761Y-85813095D01*
X144658333Y-104527380D02*
X144658333Y-105241666D01*
X144705952Y-105384523D01*
X144801190Y-105479761D01*
X144944047Y-105527380D01*
X145039285Y-105527380D01*
X143658333Y-105527380D02*
X144229761Y-105527380D01*
X143944047Y-105527380D02*
X143944047Y-104527380D01*
X144039285Y-104670238D01*
X144134523Y-104765476D01*
X144229761Y-104813095D01*
X144658333Y-95027380D02*
X144658333Y-95741666D01*
X144705952Y-95884523D01*
X144801190Y-95979761D01*
X144944047Y-96027380D01*
X145039285Y-96027380D01*
X143658333Y-96027380D02*
X144229761Y-96027380D01*
X143944047Y-96027380D02*
X143944047Y-95027380D01*
X144039285Y-95170238D01*
X144134523Y-95265476D01*
X144229761Y-95313095D01*
X174658333Y-104527380D02*
X174658333Y-105241666D01*
X174705952Y-105384523D01*
X174801190Y-105479761D01*
X174944047Y-105527380D01*
X175039285Y-105527380D01*
X173658333Y-105527380D02*
X174229761Y-105527380D01*
X173944047Y-105527380D02*
X173944047Y-104527380D01*
X174039285Y-104670238D01*
X174134523Y-104765476D01*
X174229761Y-104813095D01*
X114658333Y-104527380D02*
X114658333Y-105241666D01*
X114705952Y-105384523D01*
X114801190Y-105479761D01*
X114944047Y-105527380D01*
X115039285Y-105527380D01*
X113658333Y-105527380D02*
X114229761Y-105527380D01*
X113944047Y-105527380D02*
X113944047Y-104527380D01*
X114039285Y-104670238D01*
X114134523Y-104765476D01*
X114229761Y-104813095D01*
X174658333Y-95027380D02*
X174658333Y-95741666D01*
X174705952Y-95884523D01*
X174801190Y-95979761D01*
X174944047Y-96027380D01*
X175039285Y-96027380D01*
X173658333Y-96027380D02*
X174229761Y-96027380D01*
X173944047Y-96027380D02*
X173944047Y-95027380D01*
X174039285Y-95170238D01*
X174134523Y-95265476D01*
X174229761Y-95313095D01*
X114658333Y-95027380D02*
X114658333Y-95741666D01*
X114705952Y-95884523D01*
X114801190Y-95979761D01*
X114944047Y-96027380D01*
X115039285Y-96027380D01*
X113658333Y-96027380D02*
X114229761Y-96027380D01*
X113944047Y-96027380D02*
X113944047Y-95027380D01*
X114039285Y-95170238D01*
X114134523Y-95265476D01*
X114229761Y-95313095D01*
X174658333Y-123527380D02*
X174658333Y-124241666D01*
X174705952Y-124384523D01*
X174801190Y-124479761D01*
X174944047Y-124527380D01*
X175039285Y-124527380D01*
X173658333Y-124527380D02*
X174229761Y-124527380D01*
X173944047Y-124527380D02*
X173944047Y-123527380D01*
X174039285Y-123670238D01*
X174134523Y-123765476D01*
X174229761Y-123813095D01*
X144658333Y-114027380D02*
X144658333Y-114741666D01*
X144705952Y-114884523D01*
X144801190Y-114979761D01*
X144944047Y-115027380D01*
X145039285Y-115027380D01*
X143658333Y-115027380D02*
X144229761Y-115027380D01*
X143944047Y-115027380D02*
X143944047Y-114027380D01*
X144039285Y-114170238D01*
X144134523Y-114265476D01*
X144229761Y-114313095D01*
X144658333Y-123527380D02*
X144658333Y-124241666D01*
X144705952Y-124384523D01*
X144801190Y-124479761D01*
X144944047Y-124527380D01*
X145039285Y-124527380D01*
X143658333Y-124527380D02*
X144229761Y-124527380D01*
X143944047Y-124527380D02*
X143944047Y-123527380D01*
X144039285Y-123670238D01*
X144134523Y-123765476D01*
X144229761Y-123813095D01*
X114658333Y-123527380D02*
X114658333Y-124241666D01*
X114705952Y-124384523D01*
X114801190Y-124479761D01*
X114944047Y-124527380D01*
X115039285Y-124527380D01*
X113658333Y-124527380D02*
X114229761Y-124527380D01*
X113944047Y-124527380D02*
X113944047Y-123527380D01*
X114039285Y-123670238D01*
X114134523Y-123765476D01*
X114229761Y-123813095D01*
X174658333Y-114027380D02*
X174658333Y-114741666D01*
X174705952Y-114884523D01*
X174801190Y-114979761D01*
X174944047Y-115027380D01*
X175039285Y-115027380D01*
X173658333Y-115027380D02*
X174229761Y-115027380D01*
X173944047Y-115027380D02*
X173944047Y-114027380D01*
X174039285Y-114170238D01*
X174134523Y-114265476D01*
X174229761Y-114313095D01*
X114658333Y-114027380D02*
X114658333Y-114741666D01*
X114705952Y-114884523D01*
X114801190Y-114979761D01*
X114944047Y-115027380D01*
X115039285Y-115027380D01*
X113658333Y-115027380D02*
X114229761Y-115027380D01*
X113944047Y-115027380D02*
X113944047Y-114027380D01*
X114039285Y-114170238D01*
X114134523Y-114265476D01*
X114229761Y-114313095D01*
X174658333Y-133027380D02*
X174658333Y-133741666D01*
X174705952Y-133884523D01*
X174801190Y-133979761D01*
X174944047Y-134027380D01*
X175039285Y-134027380D01*
X173658333Y-134027380D02*
X174229761Y-134027380D01*
X173944047Y-134027380D02*
X173944047Y-133027380D01*
X174039285Y-133170238D01*
X174134523Y-133265476D01*
X174229761Y-133313095D01*
X144658333Y-133027380D02*
X144658333Y-133741666D01*
X144705952Y-133884523D01*
X144801190Y-133979761D01*
X144944047Y-134027380D01*
X145039285Y-134027380D01*
X143658333Y-134027380D02*
X144229761Y-134027380D01*
X143944047Y-134027380D02*
X143944047Y-133027380D01*
X144039285Y-133170238D01*
X144134523Y-133265476D01*
X144229761Y-133313095D01*
X114658333Y-133027380D02*
X114658333Y-133741666D01*
X114705952Y-133884523D01*
X114801190Y-133979761D01*
X114944047Y-134027380D01*
X115039285Y-134027380D01*
X113658333Y-134027380D02*
X114229761Y-134027380D01*
X113944047Y-134027380D02*
X113944047Y-133027380D01*
X114039285Y-133170238D01*
X114134523Y-133265476D01*
X114229761Y-133313095D01*
X174658333Y-142527380D02*
X174658333Y-143241666D01*
X174705952Y-143384523D01*
X174801190Y-143479761D01*
X174944047Y-143527380D01*
X175039285Y-143527380D01*
X173658333Y-143527380D02*
X174229761Y-143527380D01*
X173944047Y-143527380D02*
X173944047Y-142527380D01*
X174039285Y-142670238D01*
X174134523Y-142765476D01*
X174229761Y-142813095D01*
X144658333Y-142527380D02*
X144658333Y-143241666D01*
X144705952Y-143384523D01*
X144801190Y-143479761D01*
X144944047Y-143527380D01*
X145039285Y-143527380D01*
X143658333Y-143527380D02*
X144229761Y-143527380D01*
X143944047Y-143527380D02*
X143944047Y-142527380D01*
X144039285Y-142670238D01*
X144134523Y-142765476D01*
X144229761Y-142813095D01*
X114658333Y-142527380D02*
X114658333Y-143241666D01*
X114705952Y-143384523D01*
X114801190Y-143479761D01*
X114944047Y-143527380D01*
X115039285Y-143527380D01*
X113658333Y-143527380D02*
X114229761Y-143527380D01*
X113944047Y-143527380D02*
X113944047Y-142527380D01*
X114039285Y-142670238D01*
X114134523Y-142765476D01*
X114229761Y-142813095D01*
M02*
